P2
136 90
255
255 255 255 255 255 255 255 255 255 255 255 255 255 255 255 255 255 255 255 255 255 255 255 254 254 253 254 254 255 255 253 253 253 253 253 253 254 254 254 254 255 255 255 255 255 255 255 255 255 255 255 255 255 255 255 255 254 254 255 255 255 255 254 254 254 254 252 252 251 251 251 254 253 251 252 252 254 254 255 254 254 254 254 254 255 255 254 254 255 255 255 255 255 255 255 255 255 255 255 255 255 255 255 255 255 255 255 255 255 255 255 255 255 255 255 255 255 255 255 255 255 255 255 255 255 255 255 255 255 255 255 255 255 255 255 255 
255 255 255 255 255 255 255 255 255 255 255 255 255 255 255 255 255 255 255 255 255 255 255 255 254 254 254 254 255 254 253 253 253 253 253 253 254 254 254 255 255 255 255 255 255 255 255 255 255 255 255 255 255 255 255 255 254 254 255 255 255 255 254 254 254 254 254 252 252 252 252 254 253 252 252 254 254 254 255 254 254 254 254 254 255 255 254 254 255 255 255 255 255 255 255 255 255 255 255 255 255 255 255 255 255 255 255 255 255 255 255 255 255 255 255 255 255 255 255 255 255 255 255 255 255 255 255 255 255 255 255 255 255 255 255 255 
255 255 255 255 255 255 255 255 255 255 255 255 255 255 255 255 255 255 255 255 255 255 255 255 255 255 255 255 254 254 253 253 253 253 253 253 254 254 254 254 255 255 255 255 255 255 255 255 255 255 255 255 255 255 255 255 255 255 255 255 255 255 254 254 254 254 254 254 254 254 254 254 253 252 252 254 254 254 255 255 254 254 255 255 255 255 254 254 255 255 255 255 255 255 255 255 255 255 255 255 255 255 255 255 255 255 255 255 255 255 255 255 255 255 255 255 255 255 255 255 255 255 255 255 255 255 255 255 255 255 255 255 255 255 255 255 
255 255 255 255 255 255 255 255 255 255 255 255 255 255 255 255 255 255 255 255 255 255 255 255 255 255 255 255 254 254 253 253 253 253 253 253 254 254 254 254 255 255 255 255 255 255 255 255 255 255 255 255 255 255 255 255 255 255 255 255 255 255 254 254 254 254 255 255 255 255 255 255 253 253 254 254 254 254 255 255 254 254 255 255 255 255 254 254 255 255 255 255 255 255 255 255 255 255 255 255 255 255 255 255 255 255 255 255 255 255 255 255 255 255 255 255 255 255 255 255 255 255 255 255 255 255 255 255 255 255 255 255 255 255 255 255 
255 255 255 255 255 255 255 255 255 255 255 255 255 255 255 255 255 255 255 255 255 255 255 255 254 254 254 254 254 254 254 254 254 254 254 254 254 254 254 254 255 255 255 255 255 255 255 255 255 255 255 255 255 255 255 255 254 254 255 255 255 255 255 255 255 255 254 254 254 254 254 254 254 254 254 254 254 254 255 255 255 255 255 255 255 255 254 254 255 255 255 255 255 255 255 255 255 255 255 255 255 255 255 255 255 255 255 255 255 255 255 255 255 255 255 255 255 255 255 255 255 255 255 255 255 255 255 255 255 255 255 255 255 255 255 255 
255 255 255 255 255 255 255 255 255 255 255 255 255 255 255 255 255 255 255 255 255 255 255 254 253 253 253 254 254 254 254 255 254 255 254 254 254 254 254 254 255 255 255 255 255 255 255 255 255 255 255 255 255 255 255 255 254 254 255 255 255 255 255 255 254 254 254 254 253 253 253 254 254 254 254 254 254 254 255 255 255 255 255 255 255 255 254 254 255 255 255 255 255 255 255 255 255 255 255 255 255 255 255 255 255 255 255 255 255 255 255 255 255 255 255 255 255 255 255 255 255 255 255 255 255 255 255 255 255 255 255 255 255 255 255 255 
255 255 255 255 255 255 255 255 255 255 255 255 255 255 255 255 255 255 255 255 255 255 255 254 253 253 253 253 254 254 254 254 254 254 254 254 254 254 253 254 255 255 255 255 255 255 255 255 255 255 255 255 255 255 255 255 254 254 254 254 255 255 254 254 253 253 253 253 252 252 252 254 253 253 253 254 254 254 255 255 254 254 255 255 254 254 254 254 255 255 255 255 255 255 255 255 255 255 255 255 255 255 255 255 255 255 255 255 255 255 255 255 255 255 255 255 255 255 255 255 255 255 255 255 255 255 255 255 255 255 255 255 255 255 255 255 
255 255 255 255 255 255 255 255 255 255 255 255 255 255 255 255 255 255 255 255 255 255 255 254 253 252 253 253 254 255 254 253 253 253 253 254 254 254 254 254 254 255 255 255 255 255 255 255 255 255 255 255 255 255 255 255 254 254 254 254 255 255 254 254 253 253 253 253 253 252 252 254 253 251 252 253 253 254 255 255 254 254 254 255 254 254 254 254 255 255 255 255 255 255 255 255 255 255 255 255 255 255 255 255 255 255 255 255 255 255 255 255 255 255 255 255 255 255 255 255 255 255 255 255 255 255 255 255 255 255 255 255 255 255 255 255 
255 255 255 255 255 255 255 255 255 255 255 255 255 255 255 255 255 255 255 255 255 255 255 254 252 252 253 254 229 243 252 235 235 247 252 252 252 241 242 253 252 253 255 255 255 255 255 255 255 255 255 255 255 255 255 255 254 254 255 255 255 255 255 255 253 251 254 254 240 253 253 235 225 249 231 246 253 233 255 253 253 254 254 255 254 254 252 254 255 255 255 255 255 255 255 255 255 255 255 255 255 255 255 255 255 255 255 255 255 255 255 255 255 255 255 255 255 255 255 255 255 255 255 255 255 255 255 255 255 255 255 255 255 255 255 255 
255 255 255 255 255 255 255 255 255 255 255 255 255 255 255 255 255 255 255 255 255 255 255 254 251 252 253 247 243 252 207 151 145 175 240 250 226 252 253 243 252 253 255 255 255 255 255 255 255 255 255 255 255 255 255 255 255 255 255 255 255 255 255 255 255 231 239 255 255 235 244 254 249 249 245 238 252 253 255 242 253 253 254 255 255 254 252 252 254 255 255 255 255 255 255 255 255 255 255 255 255 255 255 255 255 255 255 255 255 255 255 255 255 255 255 255 255 255 255 255 255 255 255 255 255 255 255 255 255 255 255 255 255 255 255 255 
255 255 255 255 255 255 255 255 255 255 255 255 255 255 255 255 255 255 255 255 255 255 255 254 250 252 254 233 254 248 124 90 109 113 151 222 250 247 244 253 253 253 255 255 255 255 255 255 255 255 255 255 255 255 255 255 255 255 255 255 255 255 254 254 254 254 248 230 247 254 254 240 225 216 248 233 252 254 255 247 253 253 254 255 255 254 252 252 254 255 255 255 255 255 255 255 255 255 255 255 255 255 255 255 255 255 255 255 255 255 255 255 255 255 255 255 255 255 255 255 255 255 255 255 255 255 255 255 255 255 255 255 255 255 255 255 
255 255 255 255 255 255 255 255 255 255 255 255 255 255 255 255 255 255 255 255 255 255 255 254 253 244 255 231 251 218 78 89 114 129 102 132 249 249 213 251 252 253 255 255 255 255 255 255 255 255 255 255 255 255 255 255 254 254 254 255 255 255 254 254 247 252 252 242 251 251 204 144 112 124 246 240 252 246 244 254 253 253 253 254 255 252 251 252 254 255 255 255 255 255 255 255 255 255 255 255 255 255 255 255 255 255 255 255 255 255 255 255 255 255 255 255 255 255 255 255 255 255 255 255 255 255 255 255 255 255 255 255 255 255 255 255 
255 255 255 255 255 255 255 255 255 255 255 255 255 255 255 255 255 255 255 255 255 255 255 255 254 235 254 238 250 177 70 132 126 171 135 85 126 239 248 220 251 253 255 255 255 255 255 255 255 255 255 255 255 255 255 255 254 254 254 254 255 255 254 254 249 244 250 250 250 139 84 95 76 76 191 236 251 250 244 254 253 253 253 254 255 252 251 251 254 255 255 255 255 255 255 255 255 255 255 255 255 255 255 255 255 255 255 255 255 255 255 255 255 255 255 255 255 255 255 255 255 255 255 255 255 255 255 255 255 255 255 255 255 255 255 255 
255 255 255 255 255 255 255 255 255 255 255 255 255 255 255 255 255 255 255 255 255 255 255 255 254 240 250 247 250 158 84 166 163 148 179 129 67 145 248 222 251 253 255 255 255 255 255 255 255 255 255 255 255 255 255 254 253 253 253 254 255 254 254 252 245 250 238 192 150 94 88 136 113 75 124 231 251 253 250 253 252 252 253 254 255 252 251 251 254 255 255 255 255 255 255 255 255 255 255 255 255 255 255 255 255 255 255 255 255 255 255 255 255 255 255 255 255 255 255 255 255 255 255 255 255 255 255 255 255 255 255 255 255 255 255 255 
255 255 255 255 255 255 255 255 255 255 255 255 255 255 255 255 255 255 255 255 255 255 255 255 247 254 247 250 248 161 107 152 178 140 178 187 98 79 163 248 251 253 255 255 255 255 255 255 255 255 255 255 255 255 255 254 253 253 253 254 255 254 252 251 240 248 191 91 94 132 156 181 152 89 87 242 251 253 251 250 252 252 253 254 255 252 251 251 254 255 255 255 255 255 255 255 255 255 255 255 255 255 255 255 255 255 255 255 255 255 255 255 255 255 255 255 255 255 255 255 255 255 255 255 255 255 255 255 255 255 255 255 255 255 255 255 
255 255 255 255 255 255 255 255 255 255 255 255 255 255 255 255 255 255 255 255 255 255 255 255 238 254 247 250 248 176 126 119 142 195 178 165 158 81 83 236 251 253 255 255 255 255 254 254 254 254 255 255 255 255 255 255 252 252 253 254 254 253 251 249 249 235 132 80 128 174 156 151 150 92 77 249 243 240 244 253 253 253 254 254 255 254 252 252 254 255 255 255 255 255 255 255 255 255 255 255 255 255 255 255 255 255 255 255 255 255 255 255 255 255 255 255 255 255 255 255 255 255 255 255 255 255 255 255 255 255 255 255 255 255 255 255 
255 255 255 255 255 255 255 255 255 255 255 255 255 255 255 255 255 255 255 255 255 255 255 255 255 241 252 251 239 171 107 120 148 187 214 197 158 126 101 81 251 244 246 244 237 254 253 220 253 253 254 242 255 230 254 255 252 214 252 254 229 252 250 237 247 100 64 117 150 145 159 174 153 103 76 241 248 254 252 250 254 255 254 254 255 254 254 254 255 255 255 255 255 255 255 255 255 255 255 255 255 255 255 255 255 255 255 255 255 255 255 255 255 255 255 255 255 255 255 255 255 255 255 255 255 255 255 255 255 255 255 255 255 255 255 255 
255 255 255 255 255 255 255 255 255 255 255 255 255 255 255 255 255 255 255 255 255 255 255 255 255 244 254 252 240 177 111 121 143 153 162 165 167 151 105 67 166 216 253 253 250 242 224 253 241 226 254 255 254 251 253 230 253 252 252 216 253 220 233 247 135 85 92 143 165 169 174 163 142 99 82 241 246 254 250 250 254 254 254 252 254 254 252 252 254 255 255 255 255 255 255 255 255 255 255 255 255 255 255 255 255 255 255 255 255 255 255 255 255 255 255 255 255 255 255 255 255 255 255 255 255 255 255 255 255 255 255 255 255 255 255 255 
255 255 255 255 255 255 255 255 255 255 255 255 255 255 255 255 255 255 255 255 255 255 255 255 255 244 254 252 244 188 118 123 131 135 144 165 199 201 150 98 72 191 251 216 249 253 230 228 255 250 244 254 220 253 253 253 250 246 231 237 251 241 248 174 67 90 140 168 169 180 176 145 126 95 94 240 243 254 250 248 254 254 254 252 254 254 252 252 254 255 255 255 255 255 255 255 255 255 255 255 255 255 255 255 255 255 255 255 255 255 255 255 255 255 255 255 255 255 255 255 255 255 255 255 255 255 255 255 255 255 255 255 255 255 255 255 
255 255 255 255 255 255 255 255 255 255 255 255 255 255 255 255 255 255 255 255 255 255 255 255 255 249 254 251 247 204 130 125 95 113 132 148 165 170 145 114 44 83 242 229 249 245 229 252 239 254 244 252 252 251 242 232 254 252 251 250 223 236 147 46 80 131 184 181 164 167 160 131 114 95 115 240 241 254 248 250 254 254 254 252 254 254 252 252 254 255 255 255 255 255 255 255 255 255 255 255 255 255 255 255 255 255 255 255 255 255 255 255 255 255 255 255 255 255 255 255 255 255 255 255 255 255 255 255 255 255 255 255 255 255 255 255 
255 255 255 255 255 255 255 255 255 255 255 255 255 255 255 255 255 255 255 255 255 255 255 255 254 251 254 248 251 220 142 129 103 121 135 142 148 152 134 112 65 37 98 168 216 246 248 242 237 251 204 202 226 247 218 249 218 249 248 230 245 194 63 52 120 160 183 173 159 147 131 121 112 101 148 245 241 254 248 250 254 254 254 252 254 254 252 252 254 255 255 255 255 255 255 255 255 255 255 255 255 255 255 255 255 255 255 255 255 255 255 255 255 255 255 255 255 255 255 255 255 255 255 255 255 255 255 255 255 255 255 255 255 255 255 255 
255 255 255 255 255 255 255 255 255 255 255 255 255 255 255 255 255 255 255 255 255 255 255 255 254 253 254 246 251 236 153 131 132 137 142 154 178 191 162 125 90 56 42 90 55 155 165 106 69 61 20 12 22 31 45 116 208 192 244 192 205 60 33 52 125 145 149 145 143 120 101 108 117 113 188 250 243 254 250 253 254 254 252 252 254 254 253 254 254 255 255 255 255 255 255 255 255 255 255 255 255 255 255 255 255 255 255 255 255 255 255 255 255 255 255 255 255 255 255 255 255 255 255 255 255 255 255 255 255 255 255 255 255 255 255 255 
255 255 255 255 255 255 255 255 255 255 255 255 255 255 255 255 255 255 255 255 255 255 255 255 254 255 254 244 251 246 163 134 123 128 132 147 173 182 149 108 76 65 49 91 29 18 43 58 51 27 22 27 33 25 34 49 41 47 47 100 77 36 76 99 120 144 140 131 130 106 93 113 128 128 229 250 243 254 251 253 254 254 252 252 253 254 253 254 254 255 255 255 255 255 255 255 255 255 255 255 255 255 255 255 255 255 255 255 255 255 255 255 255 255 255 255 255 255 255 255 255 255 255 255 255 255 255 255 255 255 255 255 255 255 255 255 
255 255 255 255 255 255 255 255 255 255 255 255 255 255 255 255 255 255 255 255 255 255 255 255 252 255 254 241 250 248 168 133 126 143 157 161 159 150 119 89 52 67 53 43 75 36 60 11 74 23 39 59 50 30 43 30 30 127 13 72 46 50 55 79 142 179 168 137 129 110 108 139 137 139 245 250 246 253 251 253 254 254 252 252 253 253 254 254 254 255 255 255 255 255 255 255 255 255 255 255 255 255 255 255 255 255 255 255 255 255 255 255 255 255 255 255 255 255 255 255 255 255 255 255 255 255 255 255 255 255 255 255 255 255 255 255 
255 255 255 255 255 255 255 255 255 255 255 255 255 255 255 255 255 255 255 255 255 255 255 255 254 254 255 229 250 248 163 159 127 109 110 112 95 84 84 82 101 42 49 68 35 24 2 2 66 45 17 35 42 12 80 3 5 49 41 42 43 73 75 57 78 136 183 161 139 145 144 122 112 204 236 251 254 237 250 252 254 254 252 251 252 253 254 254 254 255 255 255 255 255 255 255 255 255 255 255 255 255 255 255 255 255 255 255 255 255 255 255 255 255 255 255 255 255 255 255 255 255 255 255 255 255 255 255 255 255 255 255 255 255 255 255 
255 255 255 255 255 255 255 255 255 255 255 255 255 255 255 255 255 255 255 255 255 255 255 255 253 254 254 237 250 246 160 151 147 115 94 98 112 126 134 139 152 63 30 22 17 29 8 4 70 27 17 14 27 39 103 24 5 23 19 45 72 92 96 113 100 99 115 143 146 125 113 118 122 218 239 246 254 244 250 252 254 254 252 251 252 252 254 254 254 255 255 255 255 255 255 255 255 255 255 255 255 255 255 255 255 255 255 255 255 255 255 255 255 255 255 255 255 255 255 255 255 255 255 255 255 255 255 255 255 255 255 255 255 255 255 255 
255 255 255 255 255 255 255 255 255 255 255 255 255 255 255 255 255 255 255 255 255 255 255 255 250 254 254 248 250 239 158 135 105 121 107 98 132 158 120 77 25 31 38 43 50 60 14 1 57 40 28 16 15 15 47 12 6 43 53 51 33 27 54 141 170 134 115 121 115 99 107 134 126 230 245 244 253 251 251 244 254 254 252 251 251 252 254 254 254 255 255 255 255 255 255 255 255 255 255 255 255 255 255 255 255 255 255 255 255 255 255 255 255 255 255 255 255 255 255 255 255 255 255 255 255 255 255 255 255 255 255 255 255 255 255 255 
255 255 255 255 255 255 255 255 255 255 255 255 255 255 255 255 255 255 255 255 255 255 255 255 250 254 254 251 250 237 167 123 80 94 103 124 146 109 54 34 45 58 44 34 36 38 15 1 29 62 9 12 14 12 102 41 3 42 69 52 49 51 40 37 102 129 137 110 94 114 151 175 116 231 248 244 253 252 251 244 254 254 252 251 251 252 253 254 254 255 255 255 255 255 255 255 255 255 255 255 255 255 255 255 255 255 255 255 255 255 255 255 255 255 255 255 255 255 255 255 255 255 255 255 255 255 255 255 255 255 255 255 255 255 255 255 
255 255 255 255 255 255 255 255 255 255 255 255 255 255 255 255 255 255 255 255 255 255 255 255 253 254 245 251 250 243 192 123 102 72 83 138 126 55 38 65 75 66 41 49 53 31 17 2 33 121 15 11 17 24 71 5 14 43 60 40 56 80 54 23 45 93 139 123 102 110 118 113 107 228 249 249 253 250 251 252 255 252 251 250 251 252 253 254 254 255 255 255 255 255 255 255 255 255 255 255 255 255 255 255 255 255 255 255 255 255 255 255 255 255 255 255 255 255 255 255 255 255 255 255 255 255 255 255 255 255 255 255 255 255 255 255 
255 255 255 255 255 255 255 255 255 255 255 255 255 255 255 255 255 255 255 255 255 255 255 255 253 254 241 253 250 246 228 144 88 86 109 115 75 54 62 73 52 36 25 42 31 14 57 59 4 71 43 11 14 64 30 2 61 40 54 41 33 35 59 86 70 84 112 131 116 89 76 78 120 233 249 251 253 246 251 252 255 252 251 250 251 251 253 253 254 255 255 255 255 255 255 255 255 255 255 255 255 255 255 255 255 255 255 255 255 255 255 255 255 255 255 255 255 255 255 255 255 255 255 255 255 255 255 255 255 255 255 255 255 255 255 255 
255 255 255 255 255 255 255 255 255 255 255 255 255 255 255 255 255 255 255 255 255 255 255 255 253 254 248 253 242 243 245 182 54 81 132 106 53 64 79 43 30 30 44 71 20 2 69 125 6 50 73 11 8 69 14 34 84 7 19 65 80 47 59 91 91 72 81 118 122 94 97 131 164 245 248 245 253 244 251 252 255 252 251 250 251 251 253 253 254 255 255 255 255 255 255 255 255 255 255 255 255 255 255 255 255 255 255 255 255 255 255 255 255 255 255 255 255 255 255 255 255 255 255 255 255 255 255 255 255 255 255 255 255 255 255 255 
255 255 255 255 255 255 255 255 255 255 255 255 255 255 255 255 255 255 255 255 255 255 255 254 248 253 254 253 235 240 245 210 52 44 95 125 64 52 68 48 42 40 63 100 21 1 71 125 9 28 50 20 19 64 7 67 127 3 11 82 106 48 50 73 91 79 91 119 112 84 92 129 209 248 243 237 254 243 250 253 255 252 252 251 251 252 253 254 255 255 255 255 255 255 255 255 255 255 255 255 255 255 255 255 255 255 255 255 255 255 255 255 255 255 255 255 255 255 255 255 255 255 255 255 255 255 255 255 255 255 255 255 255 255 255 255 
255 255 255 255 255 255 255 255 254 254 255 255 255 255 255 255 254 254 254 254 254 254 254 253 249 252 250 254 252 248 241 199 27 79 98 68 64 87 58 23 16 15 29 113 37 2 101 122 50 29 51 36 27 49 23 80 144 6 29 85 62 38 15 46 66 80 43 92 93 60 89 182 248 252 254 254 255 254 254 254 255 254 254 254 254 254 254 255 255 255 255 255 255 255 255 255 255 255 255 255 255 255 255 255 255 255 255 255 255 255 255 255 255 255 255 255 255 255 255 255 255 255 255 255 255 255 255 255 255 255 255 255 255 255 255 255 
255 255 255 255 255 255 255 255 254 254 255 255 255 255 255 255 254 254 254 254 254 254 253 253 247 251 239 248 249 242 235 180 38 74 124 68 54 58 68 84 74 57 41 72 41 5 68 138 69 54 51 43 37 63 55 104 139 10 50 112 45 26 27 63 62 74 63 93 66 47 129 245 249 253 255 255 255 255 255 255 255 255 255 255 255 255 255 255 255 255 255 255 255 255 255 255 255 255 255 255 255 255 255 255 255 255 255 255 255 255 255 255 255 255 255 255 255 255 255 255 255 255 255 255 255 255 255 255 255 255 255 255 255 255 255 255 
255 255 255 255 255 255 255 255 255 255 255 255 255 255 255 255 255 255 254 254 254 254 254 253 251 252 243 250 249 248 238 167 78 62 112 58 40 75 126 91 114 103 94 145 178 102 98 82 60 65 55 70 61 72 69 79 95 90 142 127 124 147 102 98 125 71 64 106 106 60 109 210 249 253 255 255 255 255 255 255 255 255 255 255 255 255 255 255 255 255 255 255 255 255 255 255 255 255 255 255 255 255 255 255 255 255 255 255 255 255 255 255 255 255 255 255 255 255 255 255 255 255 255 255 255 255 255 255 255 255 255 255 255 255 255 255 
255 255 255 255 255 255 255 255 255 255 255 255 255 255 255 255 255 255 254 254 254 254 254 254 252 252 249 254 251 249 242 145 87 80 90 82 46 26 34 28 7 9 1 7 73 118 138 113 55 55 62 92 68 65 58 73 152 150 90 19 9 19 43 121 162 74 62 90 122 55 95 246 251 253 255 255 255 255 255 255 255 255 255 255 255 255 255 255 255 255 255 255 255 255 255 255 255 255 255 255 255 255 255 255 255 255 255 255 255 255 255 255 255 255 255 255 255 255 255 255 255 255 255 255 255 255 255 255 255 255 255 255 255 255 255 255 
255 255 255 255 255 255 255 255 255 255 255 255 255 255 255 255 255 255 255 255 255 255 255 254 252 250 242 250 244 248 233 110 49 117 16 1 4 37 43 5 6 7 30 76 7 9 153 134 85 51 67 83 52 64 71 144 131 13 11 41 29 7 2 4 51 28 29 47 142 97 80 225 251 253 255 255 255 255 255 255 255 255 255 255 255 255 255 255 255 255 255 255 255 255 255 255 255 255 255 255 255 255 255 255 255 255 255 255 255 255 255 255 255 255 255 255 255 255 255 255 255 255 255 255 255 255 255 255 255 255 255 255 255 255 255 255 
255 255 255 255 255 255 255 255 255 255 255 255 255 255 255 255 255 255 255 254 255 254 255 255 252 248 248 252 244 248 218 78 67 15 3 43 97 138 140 23 48 44 1 11 28 11 55 192 104 50 62 76 49 80 106 199 48 21 28 35 52 46 17 27 115 59 19 3 35 89 94 238 251 253 255 255 255 255 255 255 255 255 255 255 255 255 255 255 255 255 255 255 255 255 255 255 255 255 255 255 255 255 255 255 255 255 255 255 255 255 255 255 255 255 255 255 255 255 255 255 255 255 255 255 255 255 255 255 255 255 255 255 255 255 255 255 
255 255 255 255 255 255 255 255 255 255 255 255 255 255 254 254 254 254 254 254 254 254 254 254 255 251 254 251 243 247 196 51 41 3 34 69 71 85 169 67 87 94 12 28 78 28 30 205 107 65 52 70 54 93 139 165 24 96 55 3 42 122 42 89 157 125 110 28 12 43 75 247 251 253 255 255 255 255 255 255 255 255 255 255 255 255 255 255 255 255 255 255 255 255 255 255 255 255 255 255 255 255 255 255 255 255 255 255 255 255 255 255 255 255 255 255 255 255 255 255 255 255 255 255 255 255 255 255 255 255 255 255 255 255 255 255 
255 255 255 255 255 255 255 255 255 255 255 255 255 255 254 254 254 254 254 254 254 252 254 254 250 241 251 251 233 236 170 33 21 9 61 15 65 58 101 156 46 122 129 136 82 19 14 167 132 97 41 59 50 90 163 118 4 84 180 78 134 137 42 178 130 75 112 61 9 27 55 217 251 253 255 255 255 255 255 255 255 255 255 255 255 255 255 255 255 255 255 255 255 255 255 255 255 255 255 255 255 255 255 255 255 255 255 255 255 255 255 255 255 255 255 255 255 255 255 255 255 255 255 255 255 255 255 255 255 255 255 255 255 255 255 255 
255 255 255 255 255 255 255 255 254 254 255 255 255 255 254 254 254 254 254 252 233 248 252 239 237 252 251 249 214 163 89 35 1 53 138 53 38 64 35 53 143 71 81 49 41 20 6 92 87 62 52 53 44 102 142 26 5 30 96 139 70 60 131 119 32 79 42 47 64 8 55 185 251 255 255 255 255 253 253 255 255 255 255 255 255 255 255 255 255 255 255 255 255 255 255 255 255 255 255 255 255 255 255 255 255 255 255 255 255 255 255 255 255 255 255 255 255 255 255 255 255 255 255 255 255 255 255 255 255 255 255 255 255 255 255 255 
255 255 255 255 255 255 255 255 254 254 255 255 255 255 254 254 254 231 235 251 251 251 248 231 252 214 154 105 84 82 58 26 33 115 174 100 79 63 46 43 69 80 121 166 171 62 12 29 61 73 68 73 68 73 71 24 56 92 84 90 126 122 80 47 45 59 44 109 72 3 40 183 249 255 255 255 255 253 253 255 255 255 255 255 255 255 255 255 255 255 255 255 255 255 255 255 255 255 255 255 255 255 255 255 255 255 255 255 255 255 255 255 255 255 255 255 255 255 255 255 255 255 255 255 255 255 255 255 255 255 255 255 255 255 255 255 
255 255 255 255 255 255 255 255 254 254 254 254 255 255 254 254 254 244 248 251 246 248 250 245 154 103 58 37 36 47 39 18 101 103 118 119 107 38 52 62 29 53 48 96 133 61 33 27 47 94 100 109 109 61 38 37 42 126 188 126 85 61 47 69 58 38 99 166 132 39 13 232 248 255 255 255 255 253 253 255 255 255 255 255 255 255 255 255 255 255 255 255 255 255 255 255 255 255 255 255 255 255 255 255 255 255 255 255 255 255 255 255 255 255 255 255 255 255 255 255 255 255 255 255 255 255 255 255 255 255 255 255 255 255 255 255 
255 255 255 255 255 255 255 255 254 254 254 254 255 254 254 254 252 251 251 250 244 247 210 144 50 35 26 24 28 42 39 23 136 91 133 134 130 45 43 31 34 55 35 50 73 45 31 18 25 66 87 95 86 39 21 33 35 35 73 59 39 53 48 44 31 66 157 132 115 55 1 249 246 253 255 255 253 250 253 255 255 255 255 255 255 255 255 255 255 255 255 255 255 255 255 255 255 255 255 255 255 255 255 255 255 255 255 255 255 255 255 255 255 255 255 255 255 255 255 255 255 255 255 255 255 255 255 255 255 255 255 255 255 255 255 255 
255 255 255 255 255 255 255 255 254 254 254 254 255 254 254 254 249 231 245 250 250 185 89 32 25 20 17 15 18 32 46 43 86 44 90 63 111 143 134 81 50 63 63 57 70 62 27 15 19 41 76 81 57 31 18 20 50 45 79 66 43 52 65 102 106 196 128 151 164 92 36 249 243 248 255 255 253 250 253 255 255 255 255 255 255 255 255 255 255 255 255 255 255 255 255 255 255 255 255 255 255 255 255 255 255 255 255 255 255 255 255 255 255 255 255 255 255 255 255 255 255 255 255 255 255 255 255 255 255 255 255 255 255 255 255 255 
255 255 255 255 255 255 255 255 254 254 254 254 255 254 254 252 252 240 250 248 144 54 24 18 14 12 12 12 14 30 53 61 52 8 19 15 47 86 71 59 65 57 77 63 79 87 30 19 23 38 88 91 55 36 22 18 69 88 68 54 91 75 41 69 109 81 51 108 110 111 91 234 241 248 253 255 253 250 253 255 255 255 255 255 255 255 255 255 255 255 255 255 255 255 255 255 255 255 255 255 255 255 255 255 255 255 255 255 255 255 255 255 255 255 255 255 255 255 255 255 255 255 255 255 255 255 255 255 255 255 255 255 255 255 255 255 
255 255 255 255 255 255 255 255 254 253 254 254 255 254 254 252 252 251 247 138 36 10 13 21 7 6 8 12 20 39 60 62 18 7 21 41 71 84 82 101 88 55 63 62 86 92 29 13 17 32 75 74 48 29 17 28 77 121 68 49 97 93 66 74 55 24 41 54 32 69 86 249 239 246 253 253 253 250 253 255 255 255 255 255 255 255 255 255 255 255 255 255 255 255 255 255 255 255 255 255 255 255 255 255 255 255 255 255 255 255 255 255 255 255 255 255 255 255 255 255 255 255 255 255 255 255 255 255 255 255 255 255 255 255 255 255 
255 255 255 255 255 255 255 255 254 254 254 255 255 254 254 252 237 250 188 53 10 11 16 8 9 5 6 11 22 45 63 59 13 39 38 18 11 32 84 98 91 33 13 14 40 71 49 35 13 29 63 59 49 27 17 59 74 76 27 16 32 77 132 94 107 61 9 8 20 55 101 176 239 244 250 252 250 250 252 254 254 254 254 255 254 254 254 254 255 254 255 255 255 255 255 255 255 255 255 255 255 255 255 255 255 255 255 255 255 255 255 255 255 255 255 255 255 255 255 255 255 255 255 255 255 255 255 255 255 255 255 255 255 255 255 255 
255 255 255 255 255 255 255 255 255 250 255 252 252 254 240 246 246 227 83 15 13 18 8 3 4 3 9 26 28 12 45 57 78 23 40 80 92 103 102 128 128 101 100 87 62 89 138 128 30 3 34 49 6 21 103 123 100 44 52 67 97 99 112 67 29 15 12 17 18 49 153 207 208 202 215 241 250 250 245 243 244 253 254 253 244 245 251 250 255 252 254 254 254 254 254 254 254 254 254 254 254 254 254 254 255 255 255 255 255 255 255 255 255 255 255 255 255 255 255 255 255 255 255 255 255 255 255 255 255 255 255 255 255 255 255 255 
255 255 255 255 255 255 255 255 254 245 254 254 252 254 248 250 240 80 12 9 14 5 1 4 5 9 14 28 14 9 35 58 53 115 69 68 85 78 135 148 163 92 51 31 18 30 82 135 159 49 4 4 31 101 146 133 70 41 46 47 77 118 150 89 45 80 62 44 76 125 160 191 138 89 127 197 191 237 248 249 249 249 246 249 252 252 251 248 255 252 252 252 254 254 254 254 254 254 254 254 254 254 254 254 255 255 255 255 255 255 255 255 255 255 255 255 255 255 255 255 255 255 255 255 255 255 255 255 255 255 255 255 255 255 255 255 
255 255 255 255 255 255 255 255 255 244 248 254 251 251 253 247 165 40 6 8 13 8 5 6 5 12 11 20 7 14 31 48 68 119 117 66 61 80 108 186 183 117 70 61 77 106 128 135 116 147 39 31 112 137 127 122 84 61 73 90 133 170 166 91 89 89 64 70 135 152 112 106 72 84 170 233 167 139 181 206 250 251 253 254 243 240 241 248 255 254 254 254 254 254 254 254 255 255 255 255 255 255 255 255 255 255 255 255 255 255 255 255 255 255 255 255 255 255 255 255 255 255 255 255 255 255 255 255 255 255 255 255 255 255 255 255 
255 255 255 255 255 255 255 255 255 246 245 254 252 251 252 212 54 21 12 8 4 6 9 5 7 12 10 16 19 41 48 44 33 20 84 131 104 87 58 73 151 165 120 70 69 91 92 80 98 113 61 55 100 122 116 91 72 42 50 97 149 165 153 121 86 53 76 113 127 139 104 58 84 124 144 184 220 137 78 102 175 197 238 253 252 239 255 255 254 254 254 254 254 254 254 254 255 255 255 255 255 254 254 254 255 255 255 255 255 255 255 255 255 255 255 255 255 255 255 255 255 255 255 255 255 255 255 255 255 255 255 255 255 255 255 255 
255 255 255 255 255 255 255 255 255 255 245 254 254 252 247 141 26 10 11 12 3 2 7 9 7 8 13 12 33 47 41 25 14 10 15 86 116 82 79 28 47 113 151 105 77 87 116 142 114 59 40 32 56 103 104 106 90 83 102 144 127 82 47 37 38 72 155 125 88 126 103 48 62 79 77 114 193 163 114 143 170 151 159 212 251 251 248 239 254 254 254 254 254 254 255 255 254 254 254 254 254 253 253 254 255 255 255 255 255 255 255 255 255 255 255 255 255 255 255 255 255 255 255 255 255 255 255 255 255 255 255 255 255 255 255 255 
255 255 255 255 255 255 255 255 255 255 245 254 254 249 216 67 27 12 11 10 3 4 11 11 7 9 20 13 32 27 19 14 22 31 12 10 53 115 107 74 64 73 99 134 143 120 90 72 45 45 55 35 38 42 37 94 88 132 157 156 101 75 52 49 73 131 144 66 78 117 65 49 23 22 60 123 141 178 225 213 183 105 71 114 206 248 245 230 252 254 254 254 254 254 255 255 254 254 254 254 253 253 253 253 254 255 255 255 255 255 255 255 255 255 255 255 255 255 255 255 255 255 255 255 255 255 255 255 255 255 255 255 255 255 255 255 
255 255 255 255 255 255 255 255 249 255 241 254 248 245 179 22 16 13 9 3 2 9 13 3 13 13 22 21 32 29 15 25 14 23 29 7 21 81 70 105 117 56 44 78 126 167 166 126 120 137 126 108 110 97 92 143 172 168 110 81 51 62 66 93 141 116 71 27 72 150 67 36 22 16 52 113 122 149 149 77 43 35 48 103 167 203 234 248 251 253 253 253 254 254 254 254 254 254 253 253 252 252 252 253 254 255 255 255 255 255 255 255 255 255 255 255 255 255 255 255 255 255 255 255 255 255 255 255 255 255 255 255 255 255 255 255 
255 255 255 255 255 255 255 255 242 255 237 254 244 240 156 7 12 9 7 4 4 9 9 2 11 8 8 15 22 31 12 30 7 9 12 15 3 4 52 96 81 65 66 52 34 64 138 158 175 177 163 198 179 165 200 145 124 86 50 82 100 118 100 133 62 42 40 12 36 182 99 9 15 40 79 86 62 38 25 17 0 17 105 200 170 110 126 196 250 253 252 253 253 254 254 254 254 254 253 253 252 252 252 253 254 255 255 255 255 255 255 255 255 255 255 255 255 255 255 255 255 255 255 255 255 255 255 255 255 255 255 255 255 255 255 255 
255 255 255 255 255 255 255 255 254 255 235 254 240 244 38 13 11 16 5 5 5 9 5 10 11 9 19 8 17 47 22 42 17 4 9 11 24 11 8 27 54 64 74 71 55 47 60 82 134 137 163 140 157 126 126 105 76 93 102 100 102 99 74 49 6 37 27 12 37 164 148 7 19 39 84 61 54 45 30 2 2 31 90 116 131 97 22 1 77 192 252 248 249 253 249 252 237 252 254 254 253 252 252 253 254 255 255 255 255 255 255 255 255 255 255 255 255 255 255 255 255 255 255 255 255 255 255 255 255 255 255 255 255 255 255 255 
255 255 255 255 255 255 255 255 251 254 239 254 248 187 29 14 10 13 5 5 6 11 8 13 12 11 4 17 3 35 42 28 7 3 1 8 13 19 7 13 18 29 41 46 62 86 79 57 71 80 84 93 94 104 100 98 121 129 121 93 61 38 25 18 28 23 9 1 15 148 159 37 39 49 65 40 17 9 6 1 11 45 71 63 57 43 28 25 73 147 210 225 249 249 239 249 248 250 255 254 253 250 249 250 254 255 255 255 255 255 255 255 255 255 255 255 255 255 255 255 255 255 255 255 255 255 255 255 255 255 255 255 255 255 255 255 
255 255 255 255 255 255 255 255 251 253 246 252 250 104 16 13 8 11 6 8 10 15 10 10 6 3 11 17 18 12 29 9 35 33 7 4 2 7 13 24 11 12 11 12 25 49 52 38 60 70 59 71 54 72 59 60 59 64 60 44 26 16 15 18 15 5 3 1 23 173 123 25 38 40 39 27 4 1 1 2 11 32 36 30 37 40 61 124 183 166 132 141 214 250 251 242 253 253 250 250 254 254 253 252 254 255 255 255 255 255 255 255 255 255 255 255 255 255 255 255 255 255 255 255 255 255 255 255 255 255 255 255 255 255 255 255 
255 255 255 255 255 255 255 255 253 251 255 247 248 46 8 11 6 9 11 17 21 21 12 7 9 7 12 21 19 23 9 38 31 37 15 2 1 0 6 8 17 10 5 4 4 5 10 19 20 27 28 38 34 44 36 35 18 21 19 16 16 22 26 27 8 3 1 1 32 175 119 17 19 26 27 28 5 2 1 5 24 46 42 41 65 69 75 121 99 160 109 26 27 127 246 245 251 252 253 254 255 254 254 254 255 255 255 255 255 255 255 255 255 255 255 255 255 255 255 255 255 255 255 255 255 255 255 255 255 255 255 255 255 255 255 255 
255 255 255 255 255 255 255 255 253 251 255 252 240 22 8 13 7 9 15 20 25 24 18 9 5 5 8 11 17 24 13 31 42 44 24 10 9 1 1 0 7 6 8 8 5 2 2 6 6 10 20 22 34 30 30 23 32 31 21 15 20 31 25 11 5 2 1 11 67 155 123 20 14 27 29 30 9 5 2 3 19 38 38 37 63 75 64 62 106 39 17 16 7 6 54 218 239 247 252 254 250 247 251 255 255 255 255 255 255 255 255 255 255 255 255 255 255 255 255 255 255 255 255 255 255 255 255 255 255 255 255 255 255 255 255 255 
255 255 255 255 255 255 255 254 253 251 255 252 218 15 14 15 9 7 10 10 14 17 24 17 6 5 7 5 13 9 42 3 31 46 35 44 21 8 1 1 0 2 5 6 7 8 7 4 7 10 22 21 37 30 34 25 39 35 26 20 26 29 14 2 1 1 3 52 130 133 89 15 13 26 27 23 13 6 1 1 7 19 26 23 35 58 62 49 53 16 6 6 5 9 33 77 216 235 251 252 252 246 250 255 253 253 253 253 253 253 253 253 255 255 255 255 255 255 255 255 255 255 255 255 255 255 255 255 255 255 255 255 255 255 255 255 
255 255 255 255 255 255 255 254 253 250 255 252 178 11 18 12 14 7 9 5 7 11 30 28 26 28 6 8 1 9 48 22 3 14 31 54 40 28 4 2 1 1 1 1 4 9 10 8 4 6 10 12 20 27 34 34 19 18 22 29 28 17 5 1 2 5 20 61 99 109 62 11 8 16 21 18 20 6 1 1 14 24 38 34 28 39 40 21 6 2 2 6 5 13 54 112 165 186 218 244 252 252 252 254 253 253 253 253 253 253 253 253 255 255 255 255 255 255 255 255 255 255 255 255 255 255 255 255 255 255 255 255 255 255 255 255 
255 255 255 255 255 255 255 254 252 252 248 252 148 7 18 7 23 12 13 6 8 12 38 37 20 17 18 3 7 3 22 64 53 41 54 33 61 54 21 8 4 1 0 1 3 3 4 10 13 15 9 12 8 19 20 25 16 16 29 45 31 7 1 1 4 18 73 69 75 119 44 3 5 9 18 18 28 6 1 1 9 12 30 37 24 24 16 2 8 4 3 1 4 35 92 96 114 131 164 206 240 250 248 243 252 252 253 253 253 252 253 252 255 255 255 255 255 255 255 255 255 255 255 255 255 255 255 255 255 255 255 255 255 255 255 255 
255 255 255 255 255 255 255 254 250 246 249 253 105 7 21 40 56 52 17 9 7 14 13 28 17 29 27 25 1 7 10 12 41 94 27 18 50 47 52 53 28 8 2 0 1 1 0 2 9 22 33 29 24 28 32 29 34 27 36 13 2 1 1 5 23 51 52 46 84 101 36 4 7 7 9 12 15 19 8 1 5 13 28 41 45 39 25 15 8 2 1 4 20 37 55 127 116 112 117 89 63 105 211 246 249 250 227 251 206 246 253 237 254 254 253 255 226 254 246 254 253 253 255 255 255 255 255 255 255 255 255 255 255 255 255 255 
255 255 255 255 255 255 255 254 252 252 254 252 130 16 31 41 12 15 6 5 3 5 7 27 36 22 27 62 16 18 17 19 15 26 32 38 44 53 56 41 38 41 19 5 2 1 1 0 0 2 16 41 47 35 27 27 36 17 12 4 1 5 10 22 42 37 30 41 68 67 33 14 7 6 9 15 17 18 17 12 4 9 20 28 29 24 15 8 6 3 4 8 35 82 86 96 105 65 32 9 4 20 95 170 221 204 231 248 250 226 206 253 228 229 254 255 255 252 237 254 255 255 255 255 255 255 255 255 255 255 255 255 255 255 255 255 
255 255 255 255 255 255 255 254 248 253 250 248 164 26 28 26 3 5 3 4 2 2 4 17 28 20 21 64 34 13 5 24 13 12 18 11 9 17 22 33 39 64 36 28 20 9 9 3 1 1 1 7 21 25 18 13 23 6 3 2 6 25 41 51 64 46 43 54 54 40 23 12 7 4 8 15 12 8 11 18 9 16 27 35 35 27 15 8 8 4 10 22 43 62 45 32 22 6 2 6 23 60 90 87 106 130 119 41 65 143 174 247 251 232 253 229 254 248 253 255 255 255 255 255 255 253 253 253 255 255 255 255 255 255 255 255 
255 255 255 255 255 255 255 255 237 253 243 249 196 23 17 16 14 25 37 35 14 3 1 2 12 23 13 32 45 18 1 10 13 31 27 19 23 10 4 12 16 18 15 29 42 29 26 24 18 7 1 1 3 20 33 28 9 4 6 13 31 61 68 53 35 40 50 43 34 45 48 25 9 5 8 15 11 5 6 10 8 13 21 29 28 18 9 4 5 5 24 46 52 56 36 22 1 1 9 38 79 112 132 141 122 114 88 28 47 72 93 124 99 149 251 251 253 240 234 245 255 255 255 253 253 253 250 250 255 255 255 255 255 255 255 255 
255 255 255 255 255 255 255 255 254 252 241 251 208 17 17 23 58 61 64 49 31 21 22 22 11 13 6 13 36 50 15 3 11 40 34 51 58 19 12 12 11 7 11 15 28 36 30 49 31 31 17 4 2 5 17 25 10 13 23 46 67 77 67 38 29 30 28 21 24 59 78 45 15 9 10 15 14 14 14 11 15 18 23 28 27 20 12 8 3 6 28 44 40 41 21 7 3 11 36 69 81 71 70 86 49 68 65 48 71 78 91 38 21 46 91 132 174 251 252 253 252 253 253 253 253 253 253 253 255 255 255 255 255 255 255 255 
255 255 255 255 255 255 255 255 254 237 235 245 188 13 27 45 85 37 23 26 57 80 90 65 16 5 5 5 2 26 44 7 10 15 16 43 34 27 66 37 20 21 25 8 7 16 14 29 42 43 40 26 9 3 3 7 28 41 52 71 69 59 50 25 31 19 14 21 47 83 81 52 28 17 11 10 13 20 20 12 15 13 13 15 15 13 10 9 4 1 10 33 35 14 2 1 7 17 31 44 49 34 23 25 48 97 87 67 71 74 61 4 13 17 17 30 58 188 220 246 248 248 250 250 253 253 253 255 255 255 255 255 255 255 255 255 
255 255 255 255 255 255 255 255 254 227 249 244 175 15 44 59 38 15 28 65 108 75 52 26 34 17 22 12 1 2 19 16 8 7 12 26 21 30 67 45 26 35 28 11 5 5 4 6 36 36 40 42 32 20 15 17 42 59 60 68 54 39 33 13 10 8 10 28 80 114 102 87 46 25 13 10 9 13 13 8 15 13 13 16 18 14 10 9 2 3 16 40 51 26 6 6 7 19 21 13 11 12 21 46 21 27 35 85 101 47 15 17 45 65 99 87 69 98 143 235 244 244 246 248 253 255 255 255 255 255 255 255 255 255 255 255 
255 255 255 255 255 255 255 255 254 235 252 251 185 22 60 59 8 9 60 113 84 22 33 56 79 83 74 55 27 2 1 16 10 11 8 3 6 13 17 34 38 45 27 33 28 8 6 4 21 40 52 39 26 25 24 20 37 53 50 60 47 30 23 6 7 14 16 25 60 89 93 101 55 30 18 14 11 10 10 8 4 4 6 10 11 6 2 1 2 42 88 44 42 60 21 3 13 15 8 5 13 21 22 26 46 63 62 79 101 75 20 70 104 60 58 36 40 29 39 59 240 242 244 248 253 255 255 255 255 255 255 255 255 255 255 255 
255 255 255 255 255 255 255 255 254 253 246 251 220 89 78 16 6 49 86 60 17 36 79 127 108 72 45 59 77 42 11 3 7 9 9 5 3 4 7 9 12 10 12 23 33 26 14 7 8 28 42 62 45 16 23 36 29 62 69 58 57 18 3 6 12 11 20 15 18 72 128 122 89 37 12 10 13 10 4 2 2 1 2 9 4 1 1 1 36 67 39 12 20 31 14 3 5 15 1 7 15 26 30 55 54 83 88 98 117 110 81 43 15 21 23 19 17 17 15 10 58 255 224 246 248 248 255 255 255 255 255 255 255 255 255 255 
255 255 255 255 255 255 255 255 237 254 235 251 249 123 42 2 29 93 62 12 14 66 101 101 52 45 49 76 52 10 5 9 56 58 34 8 2 2 3 2 5 5 8 12 16 15 15 16 17 25 23 41 52 33 30 26 20 46 62 73 51 17 3 3 5 9 17 17 37 88 113 138 119 50 15 10 8 4 3 5 1 5 7 7 4 1 2 14 77 93 56 22 19 19 8 3 4 16 3 7 10 27 59 89 82 128 96 144 91 108 112 43 3 4 4 3 2 3 3 2 12 61 244 253 255 255 216 248 255 255 255 255 255 255 255 255 
255 255 255 255 255 255 255 255 230 254 253 228 228 94 24 11 32 33 13 15 84 106 84 103 30 42 60 72 26 4 12 34 64 75 71 47 29 20 13 8 0 0 1 4 6 6 6 7 13 20 20 34 50 43 42 40 24 37 44 61 20 9 3 4 6 12 17 19 47 67 61 103 126 68 37 29 15 3 1 2 4 21 26 13 9 2 3 48 72 51 30 22 24 26 22 17 6 11 2 10 33 75 113 99 97 125 103 170 118 124 167 42 0 1 1 0 0 1 1 1 3 5 138 248 246 255 239 255 255 255 255 255 255 255 255 255 
255 255 255 255 255 255 255 254 249 254 240 222 251 123 12 10 24 18 9 11 88 110 82 63 27 56 75 65 22 15 46 47 46 44 61 90 90 71 81 114 84 50 21 7 4 3 3 3 6 11 13 18 24 24 26 33 32 33 38 54 6 5 4 6 11 13 19 22 33 36 33 62 95 89 97 108 77 28 7 3 4 14 25 22 19 6 6 57 46 17 10 18 23 20 15 11 7 6 0 21 103 126 94 57 72 74 107 111 124 82 153 62 0 1 1 1 1 1 1 1 2 1 13 171 222 255 255 255 255 255 255 255 255 255 255 255 
255 255 255 255 255 255 255 254 253 251 239 242 252 100 3 5 11 10 14 17 61 85 84 50 32 58 74 78 33 27 61 29 13 15 34 70 78 65 87 142 101 93 82 74 69 61 53 44 28 23 16 12 12 11 10 15 21 24 43 70 7 6 5 4 7 4 16 25 22 29 37 49 62 86 118 142 146 120 72 42 14 5 5 9 10 11 26 69 43 17 12 21 20 12 8 8 12 6 0 46 154 122 56 43 51 48 96 69 89 57 88 100 0 1 1 1 1 1 1 1 1 1 0 82 255 255 255 231 255 255 255 255 255 255 255 255 
255 255 255 255 255 255 255 254 250 253 253 255 206 74 4 6 10 11 19 25 43 67 88 71 71 50 49 85 35 15 48 28 4 11 29 48 53 54 65 80 115 123 117 93 76 76 93 108 93 66 46 23 12 6 5 14 12 16 39 53 6 6 7 3 3 1 12 21 18 32 41 35 36 49 54 51 67 109 128 115 74 18 1 0 0 5 48 57 48 32 19 11 6 4 8 20 11 3 0 47 94 90 45 30 16 12 22 38 57 75 33 41 1 1 1 0 0 0 1 1 2 0 1 15 255 255 244 255 255 255 255 255 255 255 255 255 
255 255 255 255 255 255 255 254 251 234 228 255 254 196 45 10 20 38 16 3 8 56 81 70 120 38 21 72 30 8 46 39 16 23 33 41 46 56 73 88 80 102 116 101 76 66 66 69 79 53 47 33 22 12 6 20 11 15 33 27 2 4 10 4 3 3 7 7 11 25 21 14 17 22 19 11 14 36 74 98 137 202 204 238 222 206 193 44 32 38 21 5 2 1 1 5 2 0 0 49 15 39 37 9 2 1 1 13 25 60 16 1 1 1 1 1 0 0 1 1 1 0 1 0 210 244 233 255 255 255 255 255 255 255 255 255 
255 255 255 255 255 255 255 254 253 252 233 254 231 254 192 97 10 9 0 3 20 38 34 85 114 23 9 63 35 11 52 35 13 14 27 53 59 39 31 36 100 96 78 56 45 49 54 55 55 24 25 41 69 59 25 31 12 17 36 21 2 4 12 5 4 7 4 1 5 16 7 5 9 15 18 12 9 15 39 67 94 241 236 244 239 243 242 49 7 26 27 17 18 11 2 1 0 4 28 117 1 16 41 4 4 2 3 9 13 30 32 1 0 0 1 1 1 0 0 1 0 1 0 1 200 255 255 239 255 255 255 255 255 255 255 255 
255 255 255 255 255 255 255 255 254 254 254 253 253 250 250 250 206 67 8 2 7 18 37 58 54 38 10 64 30 6 51 41 4 8 14 47 46 50 31 32 63 80 63 36 44 44 31 56 58 32 24 25 28 47 68 60 12 22 17 3 1 3 6 4 8 4 2 3 3 2 3 4 6 7 9 11 3 12 35 60 73 153 244 231 243 252 240 171 28 10 6 16 26 13 2 0 0 153 249 238 17 5 9 10 7 3 2 9 24 23 9 2 1 1 0 0 0 1 1 1 0 1 0 88 222 255 250 255 255 255 255 255 255 255 255 255 
255 255 255 255 255 255 255 255 254 254 254 253 253 250 250 250 240 242 224 147 57 18 18 36 30 22 9 47 36 9 35 24 6 7 26 49 56 29 35 54 63 47 56 57 60 68 53 45 45 31 27 31 36 41 38 27 23 29 19 4 1 1 1 0 2 4 4 2 2 7 7 4 1 5 8 9 3 10 28 56 62 95 232 248 248 222 252 253 243 204 166 131 85 50 44 53 122 190 233 248 96 1 5 15 13 5 1 2 5 6 4 2 0 0 1 1 1 0 0 0 1 0 2 170 255 255 255 255 255 255 255 255 255 255 255 255 
255 255 255 255 255 255 255 255 254 254 254 253 253 250 250 250 254 254 244 252 251 202 122 77 8 2 3 6 33 12 50 45 20 15 55 58 72 16 42 82 20 14 62 98 59 58 61 44 39 44 37 25 20 20 28 43 153 200 246 246 220 161 88 44 0 1 2 3 2 2 2 4 4 5 3 6 7 13 13 22 48 67 198 243 249 249 253 225 253 249 247 244 235 233 251 251 251 251 251 251 159 1 1 0 5 2 1 1 1 1 1 1 1 1 0 0 0 0 1 1 0 0 11 212 250 231 250 246 255 255 255 255 255 255 255 255 
255 255 255 255 255 255 255 255 254 254 254 253 253 250 250 250 217 249 254 252 252 251 251 251 243 214 90 100 44 56 22 39 25 15 40 30 39 5 19 40 15 3 18 44 36 41 33 15 24 34 26 16 19 29 63 128 248 251 251 246 248 250 250 250 237 62 2 0 2 6 5 4 30 18 5 10 14 13 7 18 16 35 178 246 237 239 253 246 254 250 246 249 252 252 252 226 224 252 228 243 249 137 72 10 1 1 1 1 0 0 0 0 0 0 0 1 0 0 0 0 0 8 71 255 255 255 255 246 255 255 255 255 255 255 255 255 
255 255 255 255 255 255 255 255 254 254 255 253 253 250 250 250 254 254 247 238 252 252 252 233 253 240 253 206 253 250 214 251 202 168 184 167 180 130 155 172 158 146 192 181 127 116 139 200 184 188 157 157 210 238 246 248 225 229 242 253 253 248 244 244 244 250 202 49 1 0 0 3 6 6 8 33 36 18 8 26 23 16 109 240 253 237 254 254 230 250 253 244 235 248 253 253 220 253 246 253 248 250 253 235 204 193 174 156 151 155 161 165 88 63 36 20 17 24 40 54 144 231 242 242 206 220 239 255 255 255 255 255 255 255 255 255 
255 255 255 255 255 255 255 255 254 254 255 253 253 250 250 250 239 254 254 252 242 247 254 254 232 248 252 251 253 254 208 254 254 254 242 242 252 252 251 247 251 248 237 222 248 246 214 249 252 251 244 242 252 246 220 210 252 254 254 254 253 251 252 252 246 251 251 249 205 118 39 10 1 0 1 19 25 19 12 28 16 23 128 233 252 254 254 218 255 254 254 254 239 235 243 254 254 254 215 242 254 248 254 237 255 254 255 241 239 252 255 254 253 254 255 252 246 237 231 226 220 255 255 255 255 255 244 255 255 255 255 255 255 255 255 255 
255 255 255 255 255 255 255 255 255 255 255 253 253 250 250 250 255 254 248 248 250 252 254 255 253 237 252 210 252 226 245 254 251 237 233 230 252 254 254 240 224 244 255 254 255 254 242 254 240 246 255 254 249 248 255 255 244 253 255 254 254 252 252 250 252 224 231 252 252 238 231 251 241 137 57 43 22 20 12 12 18 79 250 251 229 238 254 254 225 222 231 253 254 255 254 250 214 253 254 255 254 218 242 239 236 248 253 250 253 255 254 246 249 248 253 255 254 255 254 255 255 233 231 235 239 244 244 250 255 255 255 255 255 255 255 255 
255 255 255 255 255 255 255 255 255 255 255 253 253 250 250 250 255 248 246 254 255 248 246 253 253 252 231 252 244 253 239 254 254 248 255 254 255 235 252 252 255 231 250 239 233 254 254 233 254 244 254 254 244 254 254 241 254 254 252 247 251 255 255 248 254 254 254 237 239 252 252 251 251 250 250 253 231 250 248 202 245 229 251 229 252 251 243 231 254 254 254 254 254 242 244 254 254 254 231 254 233 254 251 254 247 254 254 244 242 253 254 254 254 254 253 249 247 249 253 254 255 224 255 255 224 248 255 250 255 255 255 255 255 255 255 255 
255 255 255 255 255 255 255 255 255 255 255 255 255 255 255 255 255 255 255 255 254 255 254 254 254 254 254 254 254 254 254 254 254 252 254 252 254 252 252 254 255 255 255 255 255 255 255 255 255 255 255 255 255 255 255 254 254 253 253 254 254 254 254 255 255 254 254 254 254 252 254 254 253 250 248 248 248 248 248 250 247 247 251 252 250 250 252 254 254 254 254 254 254 254 254 254 254 254 254 254 254 254 254 254 254 254 254 254 254 254 254 254 254 254 254 254 254 254 254 254 255 255 255 255 255 255 255 255 255 255 255 255 255 255 255 255 
255 255 255 255 255 255 255 255 255 255 255 255 255 255 255 255 255 255 254 254 254 254 254 254 254 254 254 254 254 254 254 254 252 252 252 252 252 252 252 252 255 254 254 254 254 254 254 254 254 254 254 254 254 254 254 255 253 253 253 253 254 254 254 254 255 255 254 254 254 254 254 254 252 250 248 248 248 248 250 250 247 249 252 252 250 250 252 254 254 254 254 254 254 254 254 254 254 254 254 254 254 254 254 254 254 254 254 254 254 254 254 254 254 254 254 254 254 254 254 254 255 255 255 255 255 255 255 255 255 255 255 255 255 255 255 255 
