P2
136 90
255
255 255 255 255 255 255 255 255 255 255 255 255 255 255 255 255 255 255 255 255 255 255 255 255 255 255 255 255 255 255 255 255 255 255 255 255 255 255 255 255 255 255 255 255 255 255 255 255 254 254 255 255 254 254 254 254 254 255 254 254 253 253 252 253 254 254 254 254 254 254 254 254 254 254 255 255 255 255 254 254 255 255 255 255 255 255 255 255 255 255 255 255 255 255 255 255 254 254 254 254 254 254 254 254 254 254 255 255 254 254 254 254 254 255 255 255 255 255 255 255 255 255 255 255 255 255 255 255 255 255 255 255 255 255 255 255 
255 255 255 255 255 255 255 255 255 255 255 255 255 255 255 255 255 255 255 255 255 255 255 255 255 255 255 255 255 255 255 255 255 255 255 255 255 255 255 255 255 255 255 255 255 255 255 255 254 254 255 255 254 254 254 254 254 255 254 254 254 253 252 253 254 254 254 254 254 254 254 254 254 254 255 255 255 255 254 254 255 255 255 255 255 255 255 255 255 255 255 255 255 255 255 255 255 254 254 254 254 254 254 254 254 254 254 255 254 254 254 254 255 255 255 255 255 255 255 255 255 255 255 255 255 255 255 255 255 255 255 255 255 255 255 255 
255 255 255 255 255 255 255 255 255 255 255 255 255 255 255 255 255 255 255 255 255 255 255 255 255 255 255 255 255 255 255 255 255 255 255 255 255 255 255 255 255 255 255 255 255 255 255 255 254 254 255 255 255 255 254 254 255 255 254 254 254 253 252 253 254 254 254 254 254 254 254 254 254 254 255 255 255 255 255 255 255 255 255 255 255 255 255 255 255 255 255 255 255 255 255 255 254 254 254 254 254 254 254 254 254 254 254 254 255 255 255 255 255 255 255 255 255 255 255 255 255 255 255 255 255 255 255 255 255 255 255 255 255 255 255 255 
255 255 255 255 255 255 255 255 255 255 255 255 255 255 255 255 255 255 255 255 255 255 255 255 255 255 255 255 255 255 255 255 255 255 255 255 255 255 255 255 255 255 255 255 255 255 255 255 254 254 255 255 255 255 254 254 255 255 254 254 254 254 253 253 255 255 255 255 255 255 254 254 254 254 255 255 255 255 255 255 255 255 255 255 255 255 255 255 255 255 255 255 255 255 255 255 254 254 254 254 254 254 254 254 254 254 254 254 255 255 255 255 255 255 255 255 255 255 255 255 255 255 255 255 255 255 255 255 255 255 255 255 255 255 255 255 
255 255 255 255 255 255 255 255 255 255 255 255 255 255 255 255 255 255 255 255 255 255 255 255 255 255 255 255 255 255 255 255 255 255 255 255 255 255 255 255 255 255 255 255 255 255 255 255 254 254 255 255 255 255 255 255 255 255 254 254 254 254 253 253 254 254 254 254 254 254 255 255 255 255 255 255 255 255 254 254 255 255 255 255 255 255 255 255 255 255 255 255 255 255 255 255 254 254 254 254 254 254 254 254 254 254 254 254 254 254 254 254 255 255 255 255 255 255 255 255 255 255 255 255 255 255 255 255 255 255 255 255 255 255 255 255 
255 255 255 255 255 255 255 255 255 255 255 255 255 255 255 255 255 255 255 255 255 255 255 255 255 255 255 255 255 255 255 255 255 255 255 255 255 255 255 255 255 255 255 255 255 255 255 255 254 254 255 255 255 255 255 255 255 255 254 254 254 254 253 253 254 254 254 254 254 254 254 254 255 255 255 255 255 255 254 254 255 255 255 255 255 255 255 255 255 255 255 255 255 255 255 255 254 254 254 254 254 254 255 254 255 254 254 254 254 254 254 254 254 255 255 255 255 255 255 255 255 255 255 255 255 255 255 255 255 255 255 255 255 255 255 255 
255 255 255 255 255 255 255 255 255 255 255 255 255 255 255 255 255 255 255 255 255 255 255 255 255 255 255 255 255 255 255 255 255 255 255 255 255 255 255 255 255 255 255 255 255 255 255 255 254 254 254 254 255 255 254 254 255 255 254 254 254 254 253 253 254 253 253 253 254 254 254 254 254 254 255 255 254 254 254 254 255 255 255 255 255 255 255 255 255 255 255 255 255 255 255 255 254 253 254 253 254 254 254 254 254 254 254 254 254 254 254 254 254 255 255 255 255 255 255 255 255 255 255 255 255 255 255 255 255 255 255 255 255 255 255 255 
255 255 255 255 255 255 255 255 255 255 255 255 255 255 255 255 255 255 255 255 255 255 255 255 255 255 255 255 255 255 255 255 255 255 255 255 255 255 255 255 255 255 255 255 255 255 255 255 254 254 254 254 255 254 254 254 255 255 254 254 254 253 253 253 254 253 253 254 254 254 254 254 254 254 255 255 254 254 254 254 255 255 255 255 255 255 255 255 255 255 255 255 255 255 255 254 253 253 253 253 253 253 254 254 254 254 255 254 254 254 253 254 254 255 255 255 255 255 255 255 255 255 255 255 255 255 255 255 255 255 255 255 255 255 255 255 
255 255 255 255 255 255 255 255 255 255 255 255 255 255 255 255 255 255 255 255 255 255 255 255 255 255 255 255 255 255 255 255 255 255 255 255 255 255 255 255 255 255 255 255 255 255 255 255 254 254 254 254 255 254 254 254 254 255 244 254 251 244 252 241 246 254 254 248 254 254 253 254 255 255 255 255 255 255 254 254 255 255 255 255 255 255 255 255 255 255 255 255 255 255 254 253 252 247 247 252 253 253 251 246 246 253 250 243 254 254 253 253 254 255 255 255 255 255 255 255 255 255 255 255 255 255 255 255 255 255 255 255 255 255 255 255 
255 255 255 255 255 255 255 255 255 255 255 255 255 255 255 255 255 255 255 255 255 255 255 255 255 255 255 255 255 255 255 255 255 255 255 255 255 255 255 255 255 255 255 255 255 255 255 254 254 254 254 255 255 254 254 254 249 255 253 253 247 251 252 252 254 250 246 255 255 248 244 255 255 255 255 255 255 255 255 255 255 255 255 255 255 255 255 255 255 255 255 255 255 255 254 253 248 252 252 240 252 248 216 199 202 233 254 250 251 254 253 253 254 255 255 255 255 255 255 255 255 255 255 255 255 255 255 255 255 255 255 255 255 255 255 255 
255 255 255 255 255 255 255 255 255 255 255 255 255 255 255 255 255 255 255 255 255 255 255 255 255 255 255 255 255 255 255 255 255 255 255 255 255 255 255 255 255 255 255 255 255 255 255 254 254 254 254 255 255 254 254 254 251 255 254 253 245 252 238 241 249 254 254 251 244 252 254 254 254 254 255 255 255 255 255 255 255 255 255 255 255 255 255 255 255 255 255 255 255 255 254 253 252 248 250 251 239 201 178 175 160 185 252 254 245 254 253 253 254 255 255 255 255 255 255 255 255 255 255 255 255 255 255 255 255 255 255 255 255 255 255 255 
255 255 255 255 255 255 255 255 255 255 255 255 255 255 255 255 255 255 255 255 255 255 255 255 255 255 255 255 255 255 255 255 255 255 255 255 255 255 255 255 255 255 255 255 255 255 255 254 254 254 254 255 254 254 254 254 254 250 250 253 249 252 186 178 199 232 254 254 250 254 254 251 254 254 255 255 255 254 254 254 255 255 255 255 255 255 255 255 255 255 255 255 255 255 254 253 251 234 251 251 190 169 189 179 160 150 239 254 245 255 250 254 254 255 255 255 255 255 255 255 255 255 255 255 255 255 255 255 255 255 255 255 255 255 255 255 
255 255 255 255 255 255 255 255 255 255 255 255 255 255 255 255 255 255 255 255 255 255 255 255 255 255 255 255 255 255 255 255 255 255 255 255 255 255 255 255 255 255 255 255 255 255 255 254 254 254 254 255 254 254 254 254 254 250 252 253 247 225 149 149 166 156 196 253 253 253 251 253 254 254 255 255 254 254 254 254 255 255 255 255 255 255 255 255 255 255 255 255 255 255 254 252 237 250 246 185 156 192 214 187 191 143 218 253 248 254 246 254 255 255 255 255 255 255 255 255 255 255 255 255 255 255 255 255 255 255 255 255 255 255 255 255 
255 255 255 255 255 255 255 255 255 255 255 255 255 255 255 255 255 255 255 255 255 255 255 255 255 255 255 255 255 255 255 255 255 255 255 255 255 255 255 255 255 255 255 255 255 255 255 254 254 254 254 255 254 254 253 253 254 253 254 253 245 186 148 178 195 160 165 203 226 248 253 251 254 254 254 255 254 254 254 254 254 255 255 255 255 255 255 255 255 255 255 255 255 255 254 252 238 250 197 139 188 218 201 210 212 156 208 253 252 253 248 254 255 255 255 255 255 255 255 255 255 255 255 255 255 255 255 255 255 255 255 255 255 255 255 255 
255 255 255 255 255 255 255 255 255 255 255 255 255 255 255 255 255 255 255 255 255 255 255 255 255 255 255 255 255 255 255 255 255 255 255 255 255 255 255 255 255 255 255 255 255 255 255 254 254 254 254 255 254 254 253 253 252 253 254 253 250 159 160 204 221 207 192 165 163 226 253 249 254 254 254 255 254 254 254 254 254 255 255 255 255 255 255 255 255 255 255 255 255 255 254 252 250 207 150 165 222 218 196 218 204 174 210 253 253 252 254 251 255 255 255 255 255 255 255 255 255 255 255 255 255 255 255 255 255 255 255 255 255 255 255 255 
255 255 255 255 255 255 255 255 255 255 255 255 255 255 255 255 255 255 255 255 255 255 255 255 255 255 255 255 255 255 255 255 255 255 255 255 255 255 255 255 255 255 255 255 255 255 255 254 254 254 254 255 254 254 254 254 254 250 247 250 252 150 163 203 204 207 217 189 153 191 247 252 252 253 254 254 254 254 253 253 255 255 255 255 255 255 254 254 254 254 255 255 255 255 254 252 245 152 151 205 210 218 227 197 183 187 218 253 253 252 254 247 255 255 255 255 255 255 255 255 255 255 255 255 255 255 255 255 255 255 255 255 255 255 255 255 
255 255 255 255 255 255 255 255 255 255 255 255 255 255 255 255 255 255 255 255 255 255 255 255 255 255 255 255 255 255 255 255 255 255 255 255 255 255 255 255 255 255 255 255 255 255 255 255 254 254 254 255 254 254 255 254 253 253 254 251 248 148 171 204 217 208 200 202 180 137 167 250 245 251 253 242 254 253 236 253 255 254 243 255 249 254 254 254 239 254 254 247 250 250 249 252 152 168 186 206 228 236 223 201 183 174 215 249 254 254 249 255 255 255 255 255 255 255 255 255 255 255 255 255 255 255 255 255 255 255 255 255 255 255 255 255 
255 255 255 255 255 255 255 255 255 255 255 255 255 255 255 255 255 255 255 255 255 255 255 255 255 255 255 255 255 255 255 255 255 255 255 255 255 255 255 255 255 255 255 255 255 255 255 254 253 252 254 254 254 254 254 254 253 252 254 250 248 153 168 197 211 217 214 211 197 161 155 190 249 243 238 253 237 253 253 254 244 253 252 254 255 254 242 249 254 241 249 253 254 253 236 210 139 171 202 211 211 209 204 198 184 177 218 249 254 254 250 255 255 255 255 255 255 255 255 255 255 255 255 255 255 255 255 255 255 255 255 255 255 255 255 255 
255 255 255 255 255 255 255 255 255 255 255 255 255 255 255 255 255 255 255 255 255 255 255 255 255 255 255 255 255 255 255 255 255 255 255 255 255 255 255 255 255 255 255 255 255 255 255 254 253 252 254 254 254 254 254 254 252 252 254 249 248 163 164 187 200 218 220 213 212 195 159 137 213 250 247 252 247 244 252 253 254 253 254 239 254 250 253 255 243 244 254 252 236 252 223 143 165 200 229 228 210 198 193 190 185 182 224 250 254 254 250 255 255 255 255 255 255 255 255 255 255 255 255 255 255 255 255 255 255 255 255 255 255 255 255 255 
255 255 255 255 255 255 255 255 255 255 255 255 255 255 255 255 255 255 255 255 255 255 255 255 255 255 255 255 255 255 255 255 255 255 255 255 255 255 255 255 255 255 255 255 255 255 255 254 253 252 254 254 254 254 254 254 253 251 254 248 248 179 164 179 191 209 213 210 219 219 188 149 115 197 244 239 252 252 254 254 245 249 253 253 253 250 254 248 253 243 250 251 242 247 153 114 177 197 212 210 200 190 178 165 187 190 232 252 253 254 252 255 255 255 255 255 255 255 255 255 255 255 255 255 255 255 255 255 255 255 255 255 255 255 255 255 
255 255 255 255 255 255 255 255 255 255 255 255 255 255 255 255 255 255 255 255 255 255 255 255 255 255 255 255 255 255 255 255 255 255 255 255 255 255 255 255 255 255 255 255 255 255 255 254 253 252 254 254 254 254 254 254 253 251 254 248 250 200 169 177 185 192 201 207 214 219 206 180 122 134 224 249 242 251 252 238 252 238 251 242 230 231 253 247 249 251 250 236 210 164 104 135 174 190 201 199 196 192 183 171 189 197 240 253 252 254 253 254 255 255 255 255 255 255 255 255 255 255 255 255 255 255 255 255 255 255 255 255 255 255 255 255 
255 255 255 255 255 255 255 255 255 255 255 255 255 255 255 255 255 255 255 255 255 255 255 255 255 255 255 255 255 255 255 255 255 255 255 255 255 255 255 255 255 255 255 255 255 255 255 254 254 253 254 254 254 254 254 254 254 252 254 249 252 223 178 181 176 171 184 198 198 200 197 184 122 97 130 229 223 249 224 233 180 116 98 82 60 78 134 142 172 209 203 126 157 110 126 157 184 207 223 216 203 196 193 190 190 204 247 253 251 254 254 254 255 255 255 255 255 255 255 255 255 255 255 255 255 255 255 255 255 255 255 255 255 255 255 255 
255 255 255 255 255 255 255 255 255 255 255 255 255 255 255 255 255 255 255 255 255 255 255 255 255 255 255 255 255 255 255 255 255 255 255 255 255 255 255 255 255 255 255 255 255 255 255 254 254 253 254 254 254 254 254 254 254 253 254 249 252 243 188 188 179 164 174 189 189 194 196 180 164 145 102 147 165 117 117 110 121 101 87 100 92 83 91 123 130 113 71 91 158 117 133 144 171 199 218 213 198 189 187 184 192 210 251 253 250 254 255 254 255 255 255 255 255 255 255 255 255 255 255 255 255 255 255 255 255 255 255 255 255 255 255 255 
255 255 255 255 255 255 255 255 255 255 255 255 255 255 255 255 255 255 255 255 255 255 255 255 255 255 255 255 255 255 255 255 255 255 255 255 255 255 255 255 255 255 255 255 255 255 255 254 254 253 254 254 254 254 254 254 254 253 254 250 252 250 195 194 196 175 177 189 193 210 216 194 147 123 118 115 142 59 186 94 94 114 95 122 132 108 83 146 57 130 102 144 109 121 135 120 156 179 199 205 206 204 196 186 191 212 252 252 249 254 255 254 255 255 255 255 255 255 255 255 255 255 255 255 255 255 255 255 255 255 255 255 255 255 255 255 
255 255 255 255 255 255 255 255 255 255 255 255 255 255 255 255 255 255 255 255 255 255 255 255 255 255 255 255 255 255 255 255 255 255 255 255 255 255 255 255 255 255 255 255 255 255 255 254 254 253 254 253 254 254 254 254 253 252 246 253 252 246 231 177 184 199 199 195 207 218 190 146 125 143 141 110 109 108 119 35 23 151 59 112 103 71 115 138 14 16 82 100 136 115 106 164 149 152 152 162 175 173 173 186 207 209 252 252 243 255 254 254 255 255 255 255 255 255 255 255 255 255 255 255 255 255 255 255 255 255 255 255 255 255 255 255 
255 255 255 255 255 255 255 255 255 255 255 255 255 255 255 255 255 255 255 255 255 255 255 255 255 255 255 255 255 255 255 255 255 255 255 255 255 255 255 255 255 255 255 255 255 255 255 254 254 253 253 253 254 254 254 254 253 252 249 253 250 247 238 184 182 178 186 198 195 176 163 163 173 160 157 140 113 73 82 33 84 170 108 91 64 72 90 141 29 45 90 66 77 89 130 198 190 188 183 174 164 161 177 198 202 207 250 252 247 254 254 254 255 255 255 255 255 255 255 255 255 255 255 255 255 255 255 255 255 255 255 255 255 255 255 255 
255 255 255 255 255 255 255 255 255 255 255 255 255 255 255 255 255 255 255 255 255 255 255 255 255 255 255 255 255 255 255 255 255 255 255 255 255 255 255 255 255 255 255 255 255 255 255 254 254 253 253 253 254 254 254 254 250 253 253 253 249 250 243 186 192 172 166 177 180 175 187 209 192 122 85 95 120 122 111 36 58 117 67 65 69 91 109 128 9 62 130 118 110 101 91 81 145 178 202 187 163 171 181 170 191 205 247 252 252 254 254 252 255 255 255 255 255 255 255 255 255 255 255 255 255 255 255 255 255 255 255 255 255 255 255 255 
255 255 255 255 255 255 255 255 255 255 255 255 255 255 255 255 255 255 255 255 255 255 255 255 255 255 255 255 255 255 255 255 255 255 255 255 255 255 255 255 255 255 255 255 255 255 255 254 254 253 253 253 254 254 254 254 250 253 253 253 249 251 243 179 215 200 176 161 171 189 183 164 100 104 118 116 121 139 110 19 109 168 59 63 58 49 134 92 11 64 104 101 98 110 125 111 97 122 170 195 182 167 161 150 183 210 246 252 252 254 254 252 255 255 255 255 255 255 255 255 255 255 255 255 255 255 255 255 255 255 255 255 255 255 255 255 
255 255 255 255 255 255 255 255 255 255 255 255 255 255 255 255 255 255 255 255 255 255 255 255 255 255 255 255 255 255 255 255 255 255 255 255 255 255 255 255 255 255 255 255 255 255 255 254 254 253 253 253 253 254 254 255 253 253 252 253 251 251 242 173 175 179 173 165 180 190 157 109 78 121 147 124 105 130 112 63 35 142 83 70 56 65 182 99 13 70 95 123 117 107 135 143 132 101 123 182 190 151 142 167 183 224 248 252 252 250 254 254 255 255 255 255 255 255 255 255 255 255 255 255 255 255 255 255 255 255 255 255 255 255 255 255 
255 255 255 255 255 255 255 255 255 255 255 255 255 255 255 255 255 255 255 255 255 255 255 255 255 255 255 255 255 255 255 255 255 255 255 255 255 255 255 255 255 255 255 255 255 255 255 254 254 253 253 253 253 254 254 255 253 253 250 253 252 251 244 182 148 145 155 175 185 171 149 136 150 126 97 95 107 124 108 132 17 93 135 64 55 112 142 27 130 128 62 95 109 84 101 119 140 129 120 143 174 171 154 156 197 241 250 252 253 248 254 254 255 255 255 255 255 255 255 255 255 255 255 255 255 255 255 255 255 255 255 255 255 255 255 255 
255 255 255 255 255 255 255 255 255 255 255 255 255 255 255 255 255 255 255 255 255 255 255 255 255 255 255 255 255 255 255 255 255 255 255 255 255 255 255 255 255 255 255 255 255 255 255 254 254 253 253 253 253 254 254 255 253 253 249 253 249 251 249 208 187 161 159 179 175 145 137 154 154 125 113 147 135 73 40 153 99 63 140 44 55 144 121 39 184 140 14 75 141 111 92 91 108 145 131 121 168 187 149 124 217 249 248 249 253 251 254 254 255 255 255 255 255 255 255 255 255 255 255 255 255 255 255 255 255 255 255 255 255 255 255 255 
255 255 255 255 255 255 255 255 255 255 255 255 255 255 255 255 255 255 255 255 255 255 255 255 255 255 255 255 255 255 255 255 255 255 255 255 255 255 255 255 255 255 255 255 255 255 255 255 254 254 253 254 254 254 254 255 254 252 249 254 246 249 251 232 186 157 151 172 176 155 145 155 139 115 114 168 150 55 20 185 136 41 134 73 76 120 90 49 183 141 7 78 165 133 106 108 115 135 118 132 182 161 112 122 233 249 247 245 254 254 254 251 254 255 255 255 255 255 255 255 255 255 255 255 255 255 255 255 255 255 255 255 255 255 255 255 
255 255 255 255 255 255 255 255 255 255 255 255 255 255 255 255 255 255 255 255 255 255 255 255 255 255 255 255 255 255 255 255 255 255 255 255 255 255 255 255 255 255 255 255 255 255 255 255 255 254 254 254 254 254 254 255 254 254 254 255 254 254 253 251 217 155 129 158 157 108 147 133 112 62 103 131 153 91 35 196 147 79 117 86 100 119 90 118 181 166 13 102 174 90 64 65 79 126 153 133 138 164 149 89 227 247 251 253 254 252 253 251 254 254 254 254 254 254 254 254 255 255 255 255 255 255 254 254 255 255 255 255 255 255 255 255 
255 255 255 255 255 255 255 255 255 255 255 255 255 255 255 255 255 255 255 255 255 255 255 255 255 255 255 255 255 255 255 255 255 255 255 255 255 255 255 255 255 255 255 255 255 255 255 255 255 255 255 255 255 255 255 255 255 255 255 255 255 255 254 252 247 185 115 135 159 132 142 130 131 86 85 112 174 119 51 192 167 123 131 101 109 118 122 137 190 136 33 107 140 106 126 142 151 136 126 123 138 183 144 105 217 245 248 252 251 247 253 250 254 254 254 254 254 254 254 254 255 255 255 255 255 255 254 254 255 255 255 255 255 255 255 255 
255 255 255 255 255 255 255 255 255 255 255 255 255 255 255 255 255 255 255 255 255 255 255 255 255 255 255 255 255 255 255 255 255 255 255 255 255 255 255 255 255 255 255 255 255 255 255 255 255 255 255 255 255 255 255 255 255 255 255 255 255 255 254 252 232 171 129 169 169 133 139 181 162 164 195 180 183 193 157 160 146 137 139 129 138 123 133 128 149 162 165 213 194 158 166 174 156 182 143 106 128 175 132 148 210 246 251 252 252 249 253 253 254 254 254 254 254 254 255 255 255 255 255 255 255 255 255 255 255 255 255 255 255 255 255 255 
255 255 255 255 255 255 255 255 255 255 255 255 255 255 255 255 255 255 255 255 255 255 255 255 255 255 255 255 255 255 255 255 255 255 255 255 255 255 255 255 255 255 255 255 255 255 255 255 255 255 255 255 255 255 255 255 255 255 255 255 255 255 254 252 248 161 125 181 157 131 141 204 178 108 70 45 71 155 197 198 140 124 133 136 157 129 122 123 172 190 177 141 38 9 47 39 88 97 85 114 150 158 149 156 197 248 251 252 254 252 253 253 254 254 254 254 254 254 255 255 255 255 255 255 255 255 255 255 255 255 255 255 255 255 255 255 
255 255 255 255 255 255 255 255 255 255 255 255 255 255 255 255 255 255 255 255 255 255 255 255 255 255 255 255 255 255 255 255 255 255 255 255 255 255 255 255 255 255 255 255 255 255 255 255 255 255 255 255 255 255 255 255 255 255 255 255 255 255 254 252 239 149 163 194 115 89 87 118 25 17 38 87 105 51 55 184 192 137 131 118 148 133 116 151 186 199 45 38 143 89 40 36 31 108 101 28 9 68 179 119 174 244 251 249 252 249 253 253 254 255 255 255 255 255 255 255 255 255 255 255 255 255 255 255 255 255 255 255 255 255 255 255 
255 255 255 255 255 255 255 255 255 255 255 255 255 255 255 255 255 255 255 255 255 255 255 255 255 255 255 255 255 255 255 255 255 255 255 255 255 255 255 255 255 255 255 255 255 255 255 255 255 255 255 255 255 255 255 255 255 255 255 255 255 255 254 252 246 161 157 100 22 71 127 173 83 63 110 117 95 84 72 113 223 166 146 114 142 129 116 165 220 122 51 86 49 12 109 114 79 191 190 162 110 25 65 138 149 238 251 250 253 252 252 254 255 255 254 255 254 255 255 255 255 255 255 255 255 255 255 255 255 255 255 255 255 255 255 255 
255 255 255 255 255 255 255 255 255 255 255 255 255 255 255 255 255 255 255 255 255 255 255 255 255 255 255 255 255 255 255 255 255 255 255 255 255 255 255 255 255 255 255 255 255 255 255 255 255 255 255 255 255 255 255 255 255 255 255 255 255 255 254 252 250 146 111 58 89 171 181 200 152 104 175 103 18 120 157 77 204 188 156 119 136 117 131 167 226 88 85 144 86 52 158 152 135 208 152 140 139 99 22 110 123 227 251 249 253 254 253 255 254 254 254 254 254 254 254 254 254 254 255 255 255 255 255 255 255 255 255 255 255 255 255 255 
255 255 255 255 255 255 255 255 255 255 255 255 255 255 255 255 255 255 255 255 255 255 255 255 255 255 255 255 255 255 255 255 255 255 255 255 255 255 255 255 255 255 255 255 255 255 255 255 255 255 255 255 255 255 255 255 255 255 255 255 255 255 254 252 236 125 89 49 130 173 142 183 211 103 185 183 141 210 147 25 173 203 153 114 124 104 159 184 206 56 69 147 187 183 178 111 201 164 127 134 63 131 49 78 100 213 246 245 253 253 249 253 254 254 254 254 254 254 254 254 254 254 255 255 255 255 255 255 255 255 255 255 255 255 255 255 
255 255 255 255 255 255 255 255 255 255 255 255 255 255 255 255 255 255 255 255 255 255 255 255 255 255 255 255 255 255 255 255 255 255 255 255 255 255 255 255 255 255 255 255 255 255 255 255 255 255 255 255 255 255 255 255 255 254 254 255 255 255 255 252 220 127 45 134 116 108 146 91 175 181 124 134 186 156 86 27 79 190 162 106 118 116 127 151 155 31 71 104 114 146 138 192 121 98 132 104 122 192 123 10 102 159 209 236 253 254 254 248 248 254 252 245 254 254 254 254 254 254 255 255 255 255 254 254 255 255 255 255 255 255 255 255 
255 255 255 255 255 255 255 255 255 255 255 255 255 255 255 255 255 255 255 255 255 255 255 255 255 255 255 255 255 255 255 255 255 255 255 255 255 255 255 255 255 255 255 255 255 255 255 255 255 255 255 255 255 255 255 255 255 254 254 255 255 255 255 252 219 109 21 142 172 111 127 109 111 144 175 178 151 146 153 120 76 136 138 133 138 133 138 127 86 52 129 208 205 177 146 136 109 112 131 147 165 213 177 99 89 131 154 156 173 205 237 254 245 252 254 254 254 246 244 254 254 254 255 255 255 255 254 254 255 255 255 255 255 255 255 255 
255 255 255 255 255 255 255 255 255 255 255 255 255 255 255 255 255 255 255 255 255 255 255 255 255 255 255 255 255 255 255 255 255 255 255 255 255 255 255 255 255 255 255 255 255 255 255 255 255 255 255 255 255 255 255 255 255 254 254 255 255 255 255 251 244 62 107 188 209 163 102 125 135 110 125 147 179 215 179 104 97 99 126 168 168 161 157 111 84 93 128 185 159 113 119 87 130 119 102 170 179 179 168 168 74 109 119 105 107 132 171 205 251 253 253 252 254 252 250 254 254 254 255 255 254 254 254 254 255 255 255 255 255 255 255 255 
255 255 255 255 255 255 255 255 255 255 255 255 255 255 255 255 255 255 255 255 255 255 255 255 255 255 255 255 255 255 255 255 255 255 255 255 255 255 255 255 255 255 255 255 255 255 255 255 255 255 255 255 255 255 255 255 255 254 253 254 255 255 254 250 251 12 126 177 188 203 134 92 108 112 117 100 124 138 94 95 92 71 100 150 157 151 132 79 67 90 110 139 115 96 121 96 92 108 111 186 189 189 159 192 83 109 113 94 86 90 104 123 199 235 252 251 253 254 254 254 254 254 254 255 254 254 254 254 255 255 255 255 255 255 255 255 
255 255 255 255 255 255 255 255 255 255 255 255 255 255 255 255 255 255 255 255 255 255 255 255 255 255 255 255 255 255 255 255 255 255 255 255 255 255 255 255 255 255 255 255 255 255 255 255 255 255 255 255 255 255 255 255 255 254 253 254 255 255 252 249 251 103 160 208 200 185 223 167 164 131 118 106 132 144 110 115 70 66 90 123 146 142 104 68 61 84 129 138 125 131 131 117 148 187 194 173 133 158 113 156 114 118 100 75 70 73 80 90 100 160 222 253 253 251 245 253 254 254 254 255 254 254 254 254 255 255 255 255 255 255 255 255 
255 255 255 255 255 255 255 255 255 255 255 255 255 255 255 255 255 255 255 255 255 255 255 255 255 255 255 255 255 255 255 255 255 255 255 255 255 255 255 255 255 255 255 255 255 255 255 255 255 255 255 255 255 255 255 255 255 254 253 254 255 254 252 248 244 159 174 173 172 119 149 171 136 105 141 155 121 134 153 135 66 74 97 121 155 153 101 77 68 88 153 146 131 144 124 132 127 139 153 115 63 74 45 123 134 126 96 67 62 62 62 68 75 87 128 199 253 253 249 254 254 254 254 255 254 254 254 254 255 255 255 255 255 255 255 255 
255 255 255 255 255 255 255 255 255 255 255 255 255 255 255 255 255 255 255 255 255 255 255 255 255 255 255 255 255 255 255 255 255 255 255 255 255 255 255 255 255 255 255 255 255 255 255 255 255 255 255 255 255 255 255 255 255 254 253 254 254 254 251 247 251 155 140 96 124 108 81 123 142 133 157 160 116 135 178 144 85 64 87 113 140 141 91 65 56 88 157 152 129 131 123 154 164 149 151 140 108 78 41 73 135 133 109 79 62 49 42 48 82 64 57 106 195 252 254 254 254 254 254 255 254 254 254 254 255 255 255 255 255 255 255 255 
255 255 255 255 255 255 255 255 255 255 255 255 255 255 255 255 255 255 255 255 255 255 255 255 255 255 255 255 255 255 255 255 255 255 255 255 255 255 255 255 255 255 255 255 255 255 254 255 254 254 254 254 255 254 254 254 254 253 252 252 253 252 250 248 215 166 126 76 46 46 131 170 159 186 144 93 62 84 143 141 125 64 83 114 126 130 88 55 97 116 138 105 60 57 95 156 162 150 94 53 70 104 106 60 132 137 118 83 59 42 40 54 50 71 59 55 127 223 253 247 254 254 254 255 255 254 254 254 255 255 255 255 255 255 255 255 
255 255 255 255 255 255 255 255 255 255 255 255 255 255 255 255 255 255 255 255 255 255 255 255 255 255 255 255 255 255 255 255 254 254 254 254 254 254 254 254 254 254 254 254 254 254 254 255 252 253 249 249 253 253 253 249 249 250 252 252 249 236 230 233 231 201 119 71 70 58 65 91 136 173 163 161 135 119 110 163 178 164 72 29 115 95 20 89 183 189 155 130 153 164 165 184 183 165 166 158 148 108 82 149 130 116 61 94 92 56 28 36 29 50 75 63 67 155 242 251 251 248 254 254 254 255 253 255 255 255 255 255 255 255 255 255 
255 255 255 255 255 255 255 255 255 255 255 255 255 255 255 255 255 255 255 255 255 255 255 255 255 255 255 255 255 255 255 255 254 254 254 254 254 254 254 254 254 254 254 254 254 254 254 255 251 253 253 253 251 250 251 252 251 251 246 224 227 188 160 194 223 205 184 146 112 132 149 113 157 199 178 145 114 113 106 136 185 193 163 91 22 24 114 202 187 149 90 68 92 119 158 206 196 188 146 152 138 140 177 125 131 103 54 66 96 68 54 42 32 14 38 67 51 61 152 248 253 252 254 254 254 254 251 254 255 255 255 255 255 255 255 255 
255 255 255 255 255 255 255 255 255 255 255 255 255 255 255 255 255 255 255 255 255 255 255 255 255 255 255 255 255 255 255 255 255 255 255 255 255 255 255 255 254 254 254 254 254 254 254 255 251 248 248 249 253 253 252 252 231 219 194 211 244 213 155 144 171 175 201 190 140 134 157 157 159 208 210 187 155 141 129 149 178 181 188 171 90 103 195 175 188 183 168 145 130 139 177 217 218 170 148 131 137 179 180 140 119 98 66 47 80 60 62 40 41 38 49 64 49 41 110 210 251 254 253 253 254 252 250 255 255 255 255 255 255 255 255 255 
255 255 255 255 255 255 255 255 255 255 255 255 255 255 255 255 255 255 255 255 255 255 255 255 255 255 255 255 255 255 255 255 254 254 254 255 255 255 255 255 254 254 254 254 254 254 254 254 255 255 248 253 253 247 227 216 169 149 193 238 220 197 185 155 129 169 193 185 175 146 123 154 181 201 207 197 161 117 107 139 156 175 179 163 123 129 173 162 147 158 157 138 139 179 207 198 142 128 155 169 188 153 76 100 114 120 112 77 71 57 62 48 38 54 43 34 50 60 82 127 235 253 253 254 254 251 251 255 255 255 255 255 255 255 255 255 
255 255 255 255 255 255 255 255 255 255 255 255 255 255 255 255 255 255 255 255 255 255 255 255 255 255 255 255 255 255 255 255 254 254 254 254 254 254 254 254 255 255 254 254 254 254 254 254 248 252 253 253 235 207 202 213 197 178 208 224 177 148 149 134 118 168 185 156 184 203 143 104 104 116 150 184 194 165 149 156 168 167 166 124 94 105 128 174 193 176 154 146 169 199 174 115 90 149 152 178 155 67 52 64 87 111 119 102 62 65 51 47 52 45 17 25 61 58 54 90 196 251 254 254 254 251 255 255 255 255 255 255 255 255 255 255 
255 255 255 255 255 255 255 255 255 255 255 255 255 255 255 255 255 255 255 255 255 255 255 255 255 255 255 255 255 255 255 254 254 254 254 254 254 254 254 254 255 255 254 254 254 254 254 253 245 251 252 232 178 144 172 220 235 240 216 195 183 130 80 82 119 136 178 147 137 196 188 144 119 122 145 165 201 201 186 154 160 102 109 103 100 124 113 113 141 157 179 194 189 164 142 134 144 172 177 124 53 58 97 81 65 76 91 99 63 78 51 46 58 58 33 29 57 59 60 91 140 237 253 254 254 251 255 255 255 255 255 255 255 255 255 255 
255 255 255 255 255 255 255 255 255 255 255 255 255 255 255 255 255 255 255 255 255 255 255 255 255 255 255 255 255 255 255 254 254 253 253 253 254 254 254 254 254 254 254 253 254 253 254 253 252 246 231 212 171 121 104 113 149 200 200 182 175 121 66 79 102 138 199 142 90 142 178 195 160 137 132 120 148 171 208 210 194 159 163 173 171 184 191 180 184 208 209 184 148 112 126 178 170 141 151 80 43 93 83 64 86 68 93 99 80 82 63 63 29 63 52 21 30 52 63 71 82 218 251 252 254 249 255 252 255 255 255 255 255 255 255 255 
255 255 255 255 255 255 255 255 255 255 255 255 255 255 255 255 255 255 255 255 255 255 255 255 255 255 255 255 255 255 255 254 254 253 253 253 254 254 254 254 254 253 253 253 253 253 253 252 228 187 176 214 230 172 73 6 72 86 106 132 154 147 106 64 48 165 217 102 58 108 111 134 189 166 178 165 150 117 152 181 196 227 208 216 226 207 215 214 204 192 135 100 123 137 136 150 163 124 32 26 67 59 51 42 95 59 96 81 67 46 48 56 22 52 53 33 33 45 54 60 46 205 249 250 254 247 255 249 255 255 255 255 255 255 255 255 
255 255 255 255 255 255 255 255 255 255 255 255 255 255 255 255 255 255 255 255 255 255 255 255 255 255 255 255 255 255 255 254 254 253 253 254 254 254 253 246 253 252 253 251 251 252 224 148 8 82 166 190 180 160 97 16 22 94 115 124 130 151 103 71 41 198 208 105 59 89 104 41 119 145 165 166 165 165 158 144 169 185 184 203 193 207 191 189 151 130 116 125 142 144 134 125 91 49 58 86 58 52 29 72 111 81 117 70 48 75 51 57 54 38 53 36 37 38 70 59 65 109 251 249 254 246 255 254 255 255 255 255 255 255 255 255 
255 255 255 255 255 255 255 255 255 255 255 255 255 255 255 255 255 255 255 255 255 255 255 255 255 255 255 255 255 255 255 254 253 252 252 254 254 255 252 251 252 247 252 251 240 233 199 144 86 91 113 129 135 143 116 57 7 38 49 70 106 134 116 105 104 204 199 67 9 49 83 90 73 84 105 131 159 179 184 179 164 166 169 161 160 153 149 141 127 148 155 134 116 109 93 72 61 46 77 63 47 13 26 44 91 112 102 27 71 31 57 59 62 49 60 41 37 37 65 57 67 95 223 252 254 248 254 253 255 255 255 255 255 255 255 255 
255 255 255 255 255 255 255 255 255 255 255 255 255 255 255 255 255 255 255 255 255 255 255 255 255 255 255 255 255 255 255 254 253 254 254 254 253 253 254 253 249 252 252 235 195 189 210 219 183 131 107 104 95 104 98 58 14 8 9 31 88 104 105 103 85 183 213 83 8 28 37 66 73 66 68 87 112 129 132 128 130 129 142 124 141 130 141 130 106 123 119 86 59 57 60 57 84 61 42 14 29 43 100 103 52 93 60 73 72 56 24 40 55 55 69 57 49 43 57 49 64 70 172 253 254 251 254 253 255 255 255 255 255 255 255 255 
255 255 255 255 255 255 255 255 255 255 255 255 255 255 255 255 255 255 255 255 255 255 255 255 255 255 255 255 255 255 255 255 254 254 254 255 254 254 253 253 250 250 186 90 89 173 206 166 181 144 139 135 109 111 116 86 36 11 16 33 89 87 85 71 70 180 214 97 11 10 22 49 89 88 80 67 66 73 74 69 98 101 111 98 104 90 89 76 75 53 34 31 32 37 54 72 48 40 6 11 18 68 105 97 107 50 83 77 79 61 45 52 45 60 82 82 72 59 53 43 59 49 119 253 251 255 253 254 255 255 255 255 255 255 255 255 
255 255 255 255 255 255 255 255 255 255 255 255 255 255 255 255 255 255 255 255 255 255 255 255 255 255 255 255 255 255 255 255 255 253 251 253 254 253 252 248 238 126 41 45 70 72 108 171 130 131 143 132 103 106 106 75 28 16 35 50 93 90 87 60 76 183 203 138 55 7 17 35 56 85 96 76 63 77 92 94 79 91 90 96 78 74 50 39 37 19 16 34 49 47 43 46 6 13 7 49 54 85 115 112 96 62 87 72 58 48 38 39 54 74 87 89 79 68 51 46 64 49 84 249 254 255 253 254 255 255 255 255 255 255 255 255 
255 255 255 255 255 255 255 255 255 255 255 255 255 255 255 255 255 255 255 255 255 255 255 255 254 254 254 254 254 254 254 254 255 253 251 254 254 253 246 237 149 101 51 37 40 39 69 123 116 128 125 98 81 86 75 42 10 13 41 60 81 87 85 59 64 158 189 187 123 25 8 9 20 63 92 86 75 85 98 103 82 96 89 101 75 77 49 42 29 41 47 45 40 36 22 6 8 11 48 79 113 101 117 96 26 112 51 64 35 46 35 40 74 86 73 67 56 57 45 52 69 66 69 239 254 255 253 254 254 255 255 255 255 255 255 255 
255 255 255 255 255 255 255 255 255 255 255 255 255 255 255 255 255 255 255 255 255 255 255 255 254 254 254 254 254 254 254 254 254 254 254 254 250 238 222 210 177 126 62 37 39 21 14 38 73 103 102 86 97 104 84 63 8 12 41 76 71 77 66 45 55 133 174 167 133 77 35 21 11 36 69 90 90 78 70 71 95 95 84 72 55 48 36 28 44 52 49 32 15 10 9 6 19 28 89 108 125 96 65 26 81 120 51 12 48 40 93 91 93 96 60 47 38 53 47 67 61 76 58 219 254 255 252 254 254 255 255 255 255 255 255 255 
255 255 255 255 255 255 255 255 255 255 255 255 255 255 255 255 255 255 255 255 255 255 255 255 254 253 254 253 253 253 253 254 250 253 253 249 233 211 190 178 165 161 102 29 11 23 34 48 16 62 79 81 102 92 59 51 9 11 40 91 71 71 48 34 22 114 180 146 140 144 73 29 8 9 41 95 114 91 67 65 81 71 69 43 53 47 65 61 53 33 22 24 14 4 8 31 47 77 124 131 99 125 110 125 137 83 28 45 28 76 73 79 107 108 62 48 43 65 62 86 45 76 48 200 253 251 252 253 254 255 255 255 255 255 255 255 
255 255 255 255 255 255 255 255 255 255 255 255 255 255 254 254 254 251 254 242 255 254 254 254 247 253 251 232 253 242 252 252 251 235 173 137 160 181 177 179 185 126 104 76 31 13 22 51 65 84 105 112 108 90 59 33 7 48 74 66 57 50 43 42 30 102 166 152 114 121 120 81 32 10 8 13 61 102 89 100 91 95 89 82 91 99 80 49 21 5 12 6 5 20 44 89 123 122 116 121 73 90 163 112 60 56 44 10 87 91 94 72 93 64 67 45 53 72 126 130 110 82 44 171 253 251 249 251 254 255 255 255 255 255 255 255 
255 255 255 255 255 255 255 255 255 255 255 255 255 255 255 255 254 247 254 255 255 254 243 242 253 232 242 252 252 243 231 239 213 164 80 31 54 98 138 170 162 154 151 101 48 34 30 41 46 64 83 92 90 75 50 27 57 69 72 70 65 48 37 43 61 96 136 137 107 92 101 108 79 52 33 12 27 59 70 103 88 88 100 116 109 68 18 6 5 7 11 18 35 73 106 103 108 126 123 114 105 98 90 68 77 73 75 71 135 90 82 103 92 48 38 27 39 41 68 62 112 97 71 188 253 253 252 252 254 255 255 255 255 255 255 255 
255 255 255 255 255 255 255 255 254 254 254 255 255 255 255 255 255 254 252 254 243 254 245 253 251 215 197 137 111 181 189 172 157 160 133 83 39 17 38 80 96 112 132 111 81 54 33 49 47 65 88 101 101 89 67 49 71 55 45 58 66 44 30 44 57 80 105 122 123 110 113 133 120 108 84 38 17 23 40 81 58 71 84 77 43 11 7 13 27 51 50 76 90 101 134 104 98 80 69 49 57 73 59 64 86 39 63 101 136 79 77 92 73 30 19 21 33 27 35 28 90 93 89 209 251 251 253 250 254 255 255 255 255 255 255 255 
255 255 255 255 255 255 255 255 253 253 254 254 254 255 255 255 251 245 248 254 253 253 201 167 185 162 144 118 92 157 177 182 195 189 175 150 107 50 13 9 78 100 124 121 116 86 37 39 29 48 72 89 91 78 59 45 51 39 35 54 65 46 34 48 84 115 112 98 110 118 105 99 121 137 131 94 59 35 29 47 88 95 74 20 6 8 44 73 84 88 92 111 92 64 72 66 58 27 54 83 76 91 97 63 56 13 74 116 97 61 81 60 17 8 25 66 103 105 87 65 70 73 85 226 252 248 253 246 255 255 255 255 255 255 255 255 
255 255 255 255 255 255 255 255 254 254 254 254 254 254 254 254 254 253 253 215 191 161 118 80 106 160 149 142 118 137 140 120 155 140 141 151 140 102 54 21 41 75 106 106 112 91 39 27 47 59 76 88 89 81 71 66 56 63 64 64 64 53 50 64 113 146 128 81 75 89 91 90 104 136 146 136 113 80 58 50 82 66 33 13 25 68 95 96 120 94 102 91 65 53 42 54 56 58 76 130 123 101 109 56 26 67 122 102 60 39 61 55 79 80 79 96 119 136 133 130 84 71 73 233 253 248 253 254 255 255 255 255 255 255 255 255 
255 255 255 255 255 255 255 255 255 254 254 254 253 253 252 252 251 239 223 131 96 73 73 64 33 132 146 142 138 156 164 118 83 80 99 118 114 96 70 42 12 17 60 98 96 50 11 30 50 52 59 65 64 60 61 66 58 76 76 60 53 56 70 91 121 149 150 114 76 61 72 93 82 118 128 137 139 120 105 87 40 22 21 48 84 106 111 110 92 63 68 42 45 85 77 76 105 136 90 101 113 69 68 55 42 114 88 20 33 34 31 65 134 157 149 127 88 82 105 155 116 91 65 223 250 245 246 254 255 255 255 255 255 255 255 255 
255 255 255 255 255 255 255 255 255 255 255 254 252 251 250 250 246 198 166 142 158 167 138 115 70 66 117 167 154 101 89 78 112 75 54 53 61 78 73 40 33 33 83 117 105 65 24 19 48 52 63 72 69 61 59 65 46 61 60 49 50 61 85 114 154 165 174 148 89 49 44 50 57 96 103 122 136 126 125 106 65 62 71 93 107 105 101 101 37 28 31 34 54 91 101 88 115 137 94 79 89 59 45 47 68 74 19 8 57 77 68 97 84 120 143 170 136 90 66 107 132 115 69 216 250 252 242 254 255 255 255 255 255 255 255 255 
255 255 255 255 255 255 255 255 255 255 255 254 252 250 249 248 132 108 95 111 105 131 133 170 141 77 145 167 149 132 133 113 83 75 75 58 33 44 66 59 22 74 127 107 109 154 108 15 11 19 41 57 54 38 26 26 46 53 52 54 63 71 93 125 166 158 155 129 84 66 62 40 34 80 90 113 126 116 118 99 70 78 81 84 103 120 105 76 29 39 46 90 98 89 114 105 100 71 61 37 23 45 56 53 67 12 17 88 123 142 150 145 124 95 77 151 175 131 50 46 132 134 83 221 253 253 246 254 255 255 255 255 255 255 255 255 
255 255 255 255 255 255 255 255 255 255 252 252 251 241 255 131 56 68 73 73 76 84 80 66 112 151 173 178 164 156 152 123 121 87 84 63 40 9 65 34 23 59 91 71 54 103 135 100 6 11 6 28 51 20 10 16 16 30 51 59 50 56 103 156 180 183 141 70 64 75 52 56 33 23 69 124 124 136 128 86 97 76 63 111 130 107 88 44 40 60 87 97 81 58 52 59 48 41 29 25 35 49 50 41 22 55 110 146 127 111 139 169 182 145 100 67 130 155 120 41 71 151 160 240 253 251 254 254 255 255 255 255 255 255 255 255 
255 255 255 255 255 255 255 255 252 237 255 255 254 250 134 60 24 30 29 23 26 34 34 25 112 175 172 159 196 162 185 149 153 125 84 48 40 24 67 29 20 44 70 70 75 124 158 146 62 20 7 29 44 44 36 13 34 23 27 43 50 65 119 179 190 173 154 102 68 68 47 31 24 20 67 118 140 129 110 70 82 88 93 118 105 77 81 67 65 63 64 66 58 44 36 36 14 21 18 14 44 99 129 126 47 30 51 121 144 115 111 119 162 163 135 61 58 133 162 94 17 113 185 253 253 246 254 246 255 255 255 255 255 255 255 255 
255 255 255 255 255 255 255 255 255 248 255 251 252 194 37 29 9 12 9 3 5 9 8 6 111 210 183 179 211 167 183 162 161 170 141 95 53 21 57 39 70 78 84 81 77 90 118 140 118 24 14 49 62 87 79 28 13 8 20 64 92 103 138 183 166 130 135 114 73 70 58 36 31 20 47 72 128 110 99 79 104 107 108 117 95 71 72 57 36 34 35 35 26 13 3 4 44 59 75 90 116 141 145 134 99 57 27 86 140 128 107 90 165 150 168 151 66 62 101 100 58 87 164 244 243 254 253 243 255 255 255 255 255 255 255 255 
255 255 255 255 255 255 255 255 255 255 255 240 214 64 10 18 10 16 17 14 14 16 8 5 134 202 152 183 174 170 143 141 123 156 182 167 79 5 39 46 55 65 74 80 68 47 66 113 128 40 39 74 81 86 64 29 20 41 90 147 171 163 156 161 130 94 100 96 78 74 60 55 38 26 31 37 122 101 94 92 95 84 79 79 66 55 49 33 22 22 22 26 42 76 118 151 173 148 139 156 157 131 112 115 116 114 64 79 133 142 124 85 130 149 171 155 56 49 74 86 57 62 186 254 240 247 253 251 254 255 255 255 255 255 255 255 
255 255 255 255 255 255 255 255 244 255 255 255 154 0 9 13 9 12 14 14 14 13 8 5 167 157 128 157 139 162 117 118 106 122 179 202 117 6 44 61 49 48 56 75 74 55 67 110 141 89 56 52 51 37 36 62 110 143 180 197 194 178 153 130 116 100 90 78 83 67 32 43 28 34 38 42 139 109 81 76 63 48 52 54 52 64 77 86 109 119 129 136 142 149 159 164 191 152 133 145 138 96 64 60 90 131 87 97 146 142 126 94 117 151 153 132 71 66 55 60 41 30 169 254 248 247 252 253 254 255 255 255 255 255 255 255 
255 255 255 255 255 255 255 255 255 250 255 255 68 10 2 20 13 9 5 4 6 8 9 8 110 99 146 127 105 80 57 64 89 110 156 162 118 4 27 58 79 46 26 36 54 70 94 116 129 119 35 5 6 9 72 144 177 186 172 137 120 123 117 99 97 105 93 69 76 57 12 22 25 43 38 36 123 105 65 54 61 29 36 54 78 111 133 156 168 156 142 142 158 176 181 175 146 132 120 120 114 89 52 24 89 117 63 99 152 116 118 139 139 155 138 112 87 77 59 57 44 35 148 233 255 253 253 251 254 255 255 255 255 255 255 255 
255 255 255 255 255 255 255 255 255 245 250 234 0 7 0 12 16 11 6 6 8 9 11 13 15 68 131 85 59 9 9 14 41 99 104 66 122 7 5 22 40 12 9 15 33 75 103 96 114 225 231 239 246 230 229 191 165 144 101 60 54 72 78 66 58 72 81 53 39 43 25 23 33 53 28 19 88 97 63 53 75 37 55 78 95 112 119 145 135 133 133 143 164 176 165 147 152 138 122 111 105 96 79 66 105 114 44 92 141 76 102 178 139 149 126 48 26 72 109 82 56 118 228 254 255 241 243 251 254 255 255 255 255 255 255 255 
255 255 255 255 255 255 255 255 248 255 255 229 8 0 14 6 8 6 7 11 12 8 5 4 9 99 94 61 51 23 13 27 25 106 67 10 181 94 32 7 10 20 57 73 69 88 87 42 120 248 248 246 248 245 246 161 137 105 64 46 57 70 63 46 28 38 64 33 7 27 45 32 35 60 29 21 78 102 69 56 94 82 127 137 106 80 78 121 121 120 114 110 123 145 161 163 97 90 103 126 121 86 61 59 99 121 54 98 133 48 79 175 154 100 107 77 25 4 53 56 168 227 254 244 254 244 252 253 254 255 255 255 255 255 255 255 
255 255 255 255 255 255 255 255 255 253 255 240 159 3 13 2 9 8 8 7 7 7 7 7 21 52 85 86 53 22 25 45 54 52 36 72 247 252 203 2 2 19 64 89 69 42 55 92 213 247 252 248 242 247 200 142 129 98 55 21 53 49 42 35 31 21 20 26 25 21 30 47 32 40 26 7 26 71 81 57 128 136 112 86 81 78 91 124 123 91 109 109 97 130 146 131 94 93 119 113 115 62 42 24 108 120 38 91 134 49 104 124 130 106 75 45 24 50 141 233 253 253 253 254 254 254 254 254 255 255 255 255 255 255 255 255 
255 255 255 255 255 255 255 255 255 255 255 255 213 23 0 15 2 2 4 8 9 8 6 4 21 32 42 38 22 17 38 66 68 36 10 165 252 245 224 184 126 115 123 156 190 211 231 250 254 253 238 250 250 241 161 131 124 87 48 21 49 44 34 13 29 45 44 22 16 30 33 22 3 7 12 8 34 76 93 82 87 102 106 99 91 85 92 110 111 120 136 127 124 123 113 132 124 101 92 126 118 87 43 37 83 101 48 101 116 49 79 94 104 76 76 131 200 241 249 248 253 253 253 254 254 254 254 254 255 255 255 255 255 255 255 255 
255 255 255 255 255 255 255 255 251 253 244 253 235 59 0 5 17 14 7 2 2 7 13 18 9 10 12 13 10 11 23 38 4 15 17 207 253 253 253 253 253 253 245 246 250 252 252 254 241 254 251 251 248 226 137 116 78 58 58 41 39 25 35 28 32 22 16 22 28 21 7 3 114 158 207 238 250 250 228 202 111 89 75 75 85 103 112 106 112 131 128 129 164 132 63 75 151 110 68 142 128 125 66 76 114 119 56 98 38 25 18 46 149 185 231 254 254 250 254 254 253 253 253 254 254 254 254 254 255 255 255 255 255 255 255 255 
255 255 255 255 255 255 255 255 251 255 255 255 255 144 49 0 1 1 1 5 7 5 1 1 1 1 2 6 7 7 7 8 55 145 194 252 250 243 253 241 242 253 253 253 252 251 253 254 251 254 247 246 249 216 100 68 70 42 61 63 53 34 73 95 32 39 41 19 3 22 135 247 252 252 252 251 250 252 252 251 186 134 93 75 69 88 100 84 65 98 109 103 113 73 26 66 109 75 36 106 94 108 66 85 107 80 126 112 165 157 233 247 253 254 254 254 254 254 252 237 253 253 253 254 254 254 254 254 255 255 255 255 255 255 255 255 
255 255 255 255 255 255 255 255 255 248 239 232 249 249 244 198 127 110 87 73 79 104 136 158 210 208 204 202 205 215 225 231 246 254 252 252 254 251 254 239 254 254 252 246 250 254 252 244 254 254 247 253 247 173 68 81 86 45 72 103 99 47 43 42 30 2 2 13 122 230 252 249 249 249 251 253 253 248 242 241 252 251 247 234 206 206 223 221 229 195 180 187 219 225 199 206 213 203 188 217 210 219 210 228 251 234 250 252 229 252 245 252 245 254 254 254 247 251 254 254 253 253 253 254 254 255 254 254 255 255 255 255 255 255 255 255 
255 255 255 255 255 255 255 255 255 250 255 255 255 255 255 239 242 244 247 251 254 255 254 254 254 255 254 248 249 255 254 255 246 254 251 254 248 236 254 254 254 249 245 247 254 254 254 255 239 254 254 254 245 187 83 69 91 59 75 87 76 12 5 12 54 109 182 232 253 253 254 251 254 253 253 254 254 254 254 254 234 239 252 254 250 250 254 254 253 236 252 252 241 247 252 253 251 252 253 253 248 248 253 253 253 231 253 253 251 252 250 243 254 254 251 249 254 254 254 248 253 253 253 254 254 255 254 254 255 255 255 255 255 255 255 255 
255 255 255 255 255 255 255 255 253 250 250 248 246 244 245 255 255 254 255 254 255 254 252 252 251 254 255 254 253 254 252 246 248 249 238 254 255 254 254 236 253 254 255 254 254 244 240 241 254 254 248 244 253 252 150 74 58 60 77 81 114 129 194 249 254 244 248 254 254 244 242 254 253 254 254 254 254 255 254 250 255 255 252 252 254 255 251 248 254 249 254 255 254 255 250 241 248 254 254 254 244 245 247 253 254 250 241 253 233 253 246 254 255 254 254 253 252 252 254 255 253 253 253 254 254 255 255 255 255 255 255 255 255 255 255 255 
255 255 255 255 255 255 255 255 253 255 252 241 255 255 241 255 254 254 252 251 252 254 254 254 254 254 254 249 250 254 254 251 254 253 254 245 254 244 254 254 254 250 249 254 254 254 254 254 245 251 254 254 244 253 243 250 229 251 252 243 253 253 252 253 254 254 254 249 248 254 254 254 252 255 255 253 251 254 254 254 249 254 254 250 254 254 250 254 245 254 254 245 248 253 244 255 254 254 247 255 254 255 252 254 254 248 254 250 253 244 253 254 254 251 252 255 254 251 252 255 253 253 253 254 254 255 255 255 255 255 255 255 255 255 255 255 
255 255 255 255 255 255 255 255 255 255 255 255 255 255 255 255 254 254 254 254 254 254 254 254 254 254 254 254 254 254 254 254 254 254 254 254 254 254 254 254 254 254 254 254 254 254 254 254 254 254 253 253 254 254 252 251 252 251 251 252 251 252 253 254 254 254 254 254 254 254 254 255 255 254 254 254 254 254 254 254 254 255 255 255 255 255 255 255 255 255 255 255 255 255 255 255 254 254 254 254 254 254 254 254 254 254 254 254 254 254 254 254 254 254 255 254 255 255 255 255 255 255 255 255 255 255 255 255 255 255 255 255 255 255 255 255 
255 255 255 255 255 255 255 255 255 255 255 255 255 255 255 255 254 254 254 254 254 254 254 254 254 254 254 254 254 254 254 254 254 254 254 254 254 254 254 254 254 254 254 254 254 254 254 254 254 254 253 253 254 254 253 251 253 252 252 251 252 252 253 254 254 254 254 254 254 254 255 255 254 254 254 254 254 254 254 254 255 254 254 254 254 254 254 254 254 254 254 254 254 254 254 255 254 254 254 254 254 254 254 254 254 254 254 254 254 254 254 254 254 254 254 254 254 254 255 255 255 255 255 255 255 255 255 255 255 255 255 255 255 255 255 255 
