P2
136 90
255
0 0 0 0 0 0 0 0 0 0 0 0 0 0 0 0 0 0 0 0 0 0 0 0 0 0 0 0 0 0 0 0 0 0 0 0 0 0 0 0 0 0 0 0 0 0 0 0 1 1 0 0 1 1 1 1 1 0 1 1 3 3 4 2 1 4 4 4 3 3 1 1 1 1 0 0 0 0 1 1 0 0 0 0 0 0 0 0 0 0 0 0 0 0 0 0 1 1 1 1 2 2 2 2 2 2 0 0 1 1 2 1 1 0 0 0 0 0 0 0 0 0 0 0 0 0 0 0 0 0 0 0 0 0 0 0 
0 0 0 0 0 0 0 0 0 0 0 0 0 0 0 0 0 0 0 0 0 0 0 0 0 0 0 0 0 0 0 0 0 0 0 0 0 0 0 0 0 0 0 0 0 0 0 0 1 1 0 0 1 1 1 1 1 0 1 1 1 3 3 2 1 3 3 3 3 1 1 1 1 1 0 0 0 0 1 1 0 0 0 0 0 0 0 0 0 0 0 0 0 0 0 0 0 1 1 1 2 2 2 2 2 2 1 0 1 1 1 1 0 0 0 0 0 0 0 0 0 0 0 0 0 0 0 0 0 0 0 0 0 0 0 0 
0 0 0 0 0 0 0 0 0 0 0 0 0 0 0 0 0 0 0 0 0 0 0 0 0 0 0 0 0 0 0 0 0 0 0 0 0 0 0 0 0 0 0 0 0 0 0 0 1 1 0 0 0 0 1 1 0 0 1 1 1 3 3 2 1 1 1 1 1 1 1 1 1 1 0 0 0 0 0 0 0 0 0 0 0 0 0 0 0 0 0 0 0 0 0 0 1 1 1 1 2 2 2 2 2 2 1 1 0 0 0 0 0 0 0 0 0 0 0 0 0 0 0 0 0 0 0 0 0 0 0 0 0 0 0 0 
0 0 0 0 0 0 0 0 0 0 0 0 0 0 0 0 0 0 0 0 0 0 0 0 0 0 0 0 0 0 0 0 0 0 0 0 0 0 0 0 0 0 0 0 0 0 0 0 1 1 0 0 0 0 1 1 0 0 1 1 1 1 2 2 0 0 0 0 0 0 1 1 1 1 0 0 0 0 0 0 0 0 0 0 0 0 0 0 0 0 0 0 0 0 0 0 1 1 1 1 2 2 2 2 2 2 1 1 0 0 0 0 0 0 0 0 0 0 0 0 0 0 0 0 0 0 0 0 0 0 0 0 0 0 0 0 
0 0 0 0 0 0 0 0 0 0 0 0 0 0 0 0 0 0 0 0 0 0 0 0 0 0 0 0 0 0 0 0 0 0 0 0 0 0 0 0 0 0 0 0 0 0 0 0 1 1 0 0 0 0 0 0 0 0 1 1 1 1 1 1 1 1 1 1 1 1 0 0 0 0 0 0 0 0 1 1 0 0 0 0 0 0 0 0 0 0 0 0 0 0 0 0 1 1 1 1 1 1 1 1 1 1 1 1 1 1 1 1 0 0 0 0 0 0 0 0 0 0 0 0 0 0 0 0 0 0 0 0 0 0 0 0 
0 0 0 0 0 0 0 0 0 0 0 0 0 0 0 0 0 0 0 0 0 0 0 0 0 0 0 0 0 0 0 0 0 0 0 0 0 0 0 0 0 0 0 0 0 0 0 0 1 1 0 0 0 0 0 0 0 0 1 1 1 1 1 1 1 2 2 2 1 1 1 1 0 0 0 0 0 0 1 1 0 0 0 0 0 0 0 0 0 0 0 0 0 0 0 0 1 1 1 1 1 1 0 1 0 1 1 1 1 2 2 2 1 0 0 0 0 0 0 0 0 0 0 0 0 0 0 0 0 0 0 0 0 0 0 0 
0 0 0 0 0 0 0 0 0 0 0 0 0 0 0 0 0 0 0 0 0 0 0 0 0 0 0 0 0 0 0 0 0 0 0 0 0 0 0 0 0 0 0 0 0 0 0 0 1 1 1 1 0 0 1 1 0 0 1 1 1 2 2 2 1 3 3 3 2 2 2 2 1 1 0 0 1 1 1 1 0 0 0 0 0 0 0 0 0 0 0 0 0 0 0 0 1 2 1 1 1 1 1 1 1 1 1 1 2 2 2 2 1 0 0 0 0 0 0 0 0 0 0 0 0 0 0 0 0 0 0 0 0 0 0 0 
0 0 0 0 0 0 0 0 0 0 0 0 0 0 0 0 0 0 0 0 0 0 0 0 0 0 0 0 0 0 0 0 0 0 0 0 0 0 0 0 0 0 0 0 0 0 0 0 1 1 1 1 0 1 1 1 0 0 1 2 2 3 4 2 1 3 3 2 2 2 2 2 1 1 0 0 1 1 1 1 0 0 0 0 0 0 0 0 0 0 0 0 0 0 0 1 1 1 1 1 1 2 2 2 2 1 0 1 2 2 3 2 1 0 0 0 0 0 0 0 0 0 0 0 0 0 0 0 0 0 0 0 0 0 0 0 
0 0 0 0 0 0 0 0 0 0 0 0 0 0 0 0 0 0 0 0 0 0 0 0 0 0 0 0 0 0 0 0 0 0 0 0 0 0 0 0 0 0 0 0 0 0 0 0 1 3 1 1 0 1 1 2 2 0 22 2 9 24 6 30 20 2 2 15 1 1 4 2 0 0 0 0 0 0 1 1 0 0 0 0 0 0 0 0 0 0 0 0 0 0 2 3 2 13 14 3 3 3 8 20 20 3 12 26 1 2 3 3 1 0 0 0 0 0 0 0 0 0 0 0 0 0 0 0 0 0 0 0 0 0 0 0 
0 0 0 0 0 0 0 0 0 0 0 0 0 0 0 0 0 0 0 0 0 0 0 0 0 0 0 0 0 0 0 0 0 0 0 0 0 0 0 0 0 0 0 0 0 0 0 1 3 3 1 0 0 1 2 2 13 0 2 3 17 10 6 6 1 11 20 0 0 16 24 0 0 0 0 0 0 0 0 0 0 0 0 0 0 0 0 0 0 0 0 0 0 0 2 3 12 2 3 29 5 15 80 110 104 48 3 12 8 2 3 4 1 0 0 0 0 0 0 0 0 0 0 0 0 0 0 0 0 0 0 0 0 0 0 0 
0 0 0 0 0 0 0 0 0 0 0 0 0 0 0 0 0 0 0 0 0 0 0 0 0 0 0 0 0 0 0 0 0 0 0 0 0 0 0 0 0 0 0 0 0 0 0 1 3 3 1 0 0 1 2 2 8 0 1 3 22 7 39 30 15 1 1 8 25 7 1 1 1 1 0 0 0 0 0 0 0 0 0 0 0 0 0 0 0 0 0 0 0 0 2 2 2 11 8 5 33 104 142 146 165 131 7 1 22 1 3 5 1 0 0 0 0 0 0 0 0 0 0 0 0 0 0 0 0 0 0 0 0 0 0 0 
0 0 0 0 0 0 0 0 0 0 0 0 0 0 0 0 0 0 0 0 0 0 0 0 0 0 0 0 0 0 0 0 0 0 0 0 0 0 0 0 0 0 0 0 0 0 0 1 3 4 3 0 1 2 2 2 1 11 9 3 15 9 131 143 111 51 4 4 13 3 3 8 1 1 0 0 0 1 1 1 0 0 0 0 0 0 0 0 0 0 0 0 0 0 2 3 4 42 6 6 123 153 126 141 166 177 37 4 24 0 11 2 1 0 0 0 0 0 0 0 0 0 0 0 0 0 0 0 0 0 0 0 0 0 0 0 
0 0 0 0 0 0 0 0 0 0 0 0 0 0 0 0 0 0 0 0 0 0 0 0 0 0 0 0 0 0 0 0 0 0 0 0 0 0 0 0 0 0 0 0 0 0 0 1 4 4 3 0 1 2 2 2 1 11 5 4 19 64 179 179 160 171 116 5 5 5 11 6 1 1 0 0 1 1 1 1 0 0 0 0 0 0 0 0 0 0 0 0 0 0 2 4 35 7 16 129 170 120 84 129 123 185 78 5 17 1 20 1 0 0 0 0 0 0 0 0 0 0 0 0 0 0 0 0 0 0 0 0 0 0 0 0 
0 0 0 0 0 0 0 0 0 0 0 0 0 0 0 0 0 0 0 0 0 0 0 0 0 0 0 0 0 0 0 0 0 0 0 0 0 0 0 0 0 0 0 0 0 0 0 1 4 4 3 0 1 2 3 3 2 5 2 4 24 131 180 142 119 167 161 105 63 17 5 10 3 1 1 0 1 2 2 2 1 0 0 0 0 0 0 0 0 0 0 0 0 0 2 4 33 7 110 188 126 76 107 92 89 171 97 5 8 5 15 1 0 0 0 0 0 0 0 0 0 0 0 0 0 0 0 0 0 0 0 0 0 0 0 0 
0 0 0 0 0 0 0 0 0 0 0 0 0 0 0 0 0 0 0 0 0 0 0 0 0 0 0 0 0 0 0 0 0 0 0 0 0 0 0 0 0 0 0 0 0 0 0 1 4 4 3 0 1 2 3 3 5 4 2 4 13 168 166 103 74 99 123 161 164 64 7 15 4 3 1 0 1 2 2 2 1 0 0 0 0 0 0 0 0 0 0 0 0 0 2 4 7 92 176 157 68 77 115 77 103 148 94 7 5 8 1 8 0 0 0 0 0 0 0 0 0 0 0 0 0 0 0 0 0 0 0 0 0 0 0 0 
0 0 0 0 0 0 0 0 0 0 0 0 0 0 0 0 0 0 0 0 0 0 0 0 0 0 0 0 0 0 0 0 0 0 0 0 0 0 0 0 0 0 0 0 0 0 0 1 3 3 1 0 1 1 2 2 2 11 15 12 6 178 163 105 104 99 81 127 175 123 20 6 6 4 2 1 1 2 3 3 0 0 0 0 0 0 1 1 1 1 0 0 0 0 2 4 19 172 174 97 90 77 60 113 136 129 79 7 5 8 1 17 0 0 0 0 0 0 0 0 0 0 0 0 0 0 0 0 0 0 0 0 0 0 0 0 
0 0 0 0 0 0 0 0 0 0 0 0 0 0 0 0 0 0 0 0 0 0 0 0 0 0 0 0 0 0 0 0 0 0 0 0 0 0 0 0 0 0 0 0 0 0 0 0 1 1 1 0 1 1 0 1 5 3 1 7 14 179 152 102 81 96 110 105 138 191 155 8 18 5 3 26 1 3 41 3 0 1 25 0 13 1 2 2 35 2 1 18 11 9 11 4 174 154 129 97 58 41 68 107 135 148 84 16 4 3 14 0 0 0 0 0 0 0 0 0 0 0 0 0 0 0 0 0 0 0 0 0 0 0 0 0 
0 0 0 0 0 0 0 0 0 0 0 0 0 0 0 0 0 0 0 0 0 0 0 0 0 0 0 0 0 0 0 0 0 0 0 0 0 0 0 0 0 0 0 0 0 0 0 1 3 3 1 1 3 1 1 1 5 5 1 9 14 173 156 113 92 81 86 90 112 163 170 120 8 22 35 2 39 3 3 2 25 2 4 1 0 1 29 14 2 31 13 5 2 2 39 89 188 150 104 88 90 93 102 112 134 144 78 15 3 1 11 0 0 0 0 0 0 0 0 0 0 0 0 0 0 0 0 0 0 0 0 0 0 0 0 0 
0 0 0 0 0 0 0 0 0 0 0 0 0 0 0 0 0 0 0 0 0 0 0 0 0 0 0 0 0 0 0 0 0 0 0 0 0 0 0 0 0 0 0 0 0 0 0 1 3 3 1 1 3 1 1 1 7 5 1 12 15 161 160 129 110 79 75 86 87 115 165 188 81 7 14 4 18 24 9 5 2 2 2 35 1 11 5 0 27 25 2 6 39 4 64 183 157 105 54 56 90 111 120 124 132 137 67 11 3 1 11 0 0 0 0 0 0 0 0 0 0 0 0 0 0 0 0 0 0 0 0 0 0 0 0 0 
0 0 0 0 0 0 0 0 0 0 0 0 0 0 0 0 0 0 0 0 0 0 0 0 0 0 0 0 0 0 0 0 0 0 0 0 0 0 0 0 0 0 0 0 0 0 0 1 3 3 1 1 3 1 1 1 5 7 1 14 15 140 160 141 124 95 88 91 74 71 124 175 209 108 19 32 5 4 3 1 23 13 4 3 3 11 1 16 3 26 10 6 26 13 172 211 141 110 85 90 107 123 142 160 130 125 51 8 4 1 6 0 0 0 0 0 0 0 0 0 0 0 0 0 0 0 0 0 0 0 0 0 0 0 0 0 
0 0 0 0 0 0 0 0 0 0 0 0 0 0 0 0 0 0 0 0 0 0 0 0 0 0 0 0 0 0 0 0 0 0 0 0 0 0 0 0 0 0 0 0 0 0 0 1 3 3 1 1 3 1 1 1 5 7 1 14 10 107 154 143 134 124 108 96 82 72 95 135 203 192 61 10 25 7 6 37 6 37 8 29 53 51 4 18 13 7 9 39 87 157 218 190 143 121 103 107 113 120 134 152 126 113 35 4 7 1 4 1 0 0 0 0 0 0 0 0 0 0 0 0 0 0 0 0 0 0 0 0 0 0 0 0 
0 0 0 0 0 0 0 0 0 0 0 0 0 0 0 0 0 0 0 0 0 0 0 0 0 0 0 0 0 0 0 0 0 0 0 0 0 0 0 0 0 0 0 0 0 0 0 1 1 2 1 1 3 3 1 1 2 5 1 12 5 67 142 138 147 154 135 112 110 106 110 130 203 222 195 50 63 11 63 47 139 210 224 233 243 235 194 186 149 90 100 200 165 213 199 165 130 93 64 77 101 113 118 123 124 102 19 4 9 1 2 1 0 0 0 0 0 0 0 0 0 0 0 0 0 0 0 0 0 0 0 0 0 0 0 0 
0 0 0 0 0 0 0 0 0 0 0 0 0 0 0 0 0 0 0 0 0 0 0 0 0 0 0 0 0 0 0 0 0 0 0 0 0 0 0 0 0 0 0 0 0 0 0 1 1 2 1 2 3 3 1 1 2 4 1 12 5 26 127 127 142 162 149 125 124 115 111 135 156 179 219 178 155 208 208 214 206 221 230 222 228 233 228 204 197 212 237 226 164 206 190 179 147 106 73 82 108 123 127 132 121 92 9 4 11 1 0 1 0 0 0 0 0 0 0 0 0 0 0 0 0 0 0 0 0 0 0 0 0 0 0 0 
0 0 0 0 0 0 0 0 0 0 0 0 0 0 0 0 0 0 0 0 0 0 0 0 0 0 0 0 0 0 0 0 0 0 0 0 0 0 0 0 0 0 0 0 0 0 0 1 1 1 2 2 3 3 1 1 2 4 2 9 5 10 116 118 116 147 145 126 118 87 76 113 176 200 205 209 183 242 128 225 225 212 225 205 196 216 232 181 244 195 219 180 212 202 188 203 166 136 105 96 94 98 112 129 122 87 7 5 14 1 0 3 0 0 0 0 0 0 0 0 0 0 0 0 0 0 0 0 0 0 0 0 0 0 0 0 
0 0 0 0 0 0 0 0 0 0 0 0 0 0 0 0 0 0 0 0 0 0 0 0 0 0 0 0 0 0 0 0 0 0 0 0 0 0 0 0 0 0 0 0 0 0 0 1 1 1 2 3 4 3 1 1 3 5 18 1 4 19 51 143 133 111 110 116 94 72 119 177 198 180 182 212 213 214 206 250 252 175 243 213 220 238 210 189 253 253 231 220 187 206 213 154 173 171 171 160 143 145 146 128 96 92 7 5 26 0 1 1 0 0 0 0 0 0 0 0 0 0 0 0 0 0 0 0 0 0 0 0 0 0 0 0 
0 0 0 0 0 0 0 0 0 0 0 0 0 0 0 0 0 0 0 0 0 0 0 0 0 0 0 0 0 0 0 0 0 0 0 0 0 0 0 0 0 0 0 0 0 0 0 1 1 1 3 3 4 3 1 1 3 5 11 1 9 16 37 133 137 142 130 109 112 140 156 155 142 159 163 183 210 236 232 250 231 152 216 228 241 238 228 185 251 247 226 238 233 225 192 103 116 121 129 143 157 161 140 108 104 95 9 5 18 1 1 2 0 0 0 0 0 0 0 0 0 0 0 0 0 0 0 0 0 0 0 0 0 0 0 0 
0 0 0 0 0 0 0 0 0 0 0 0 0 0 0 0 0 0 0 0 0 0 0 0 0 0 0 0 0 0 0 0 0 0 0 0 0 0 0 0 0 0 0 0 0 0 0 1 1 1 3 4 4 3 1 1 11 4 4 2 11 10 25 129 121 148 156 140 134 140 121 85 114 201 228 222 204 202 212 249 243 208 240 240 239 227 215 198 254 241 195 205 212 217 224 230 178 135 97 123 157 148 134 150 120 97 16 5 7 1 1 5 0 0 0 0 0 0 0 0 0 0 0 0 0 0 0 0 0 0 0 0 0 0 0 0 
0 0 0 0 0 0 0 0 0 0 0 0 0 0 0 0 0 0 0 0 0 0 0 0 0 0 0 0 0 0 0 0 0 0 0 0 0 0 0 0 0 0 0 0 0 0 0 1 1 2 3 4 4 3 1 1 11 4 3 2 11 7 24 139 80 104 141 161 145 118 126 153 218 215 204 206 203 186 213 252 214 153 243 241 243 246 193 226 254 240 217 219 221 211 197 210 221 201 146 109 131 152 161 175 132 88 18 5 4 1 1 5 0 0 0 0 0 0 0 0 0 0 0 0 0 0 0 0 0 0 0 0 0 0 0 0 
0 0 0 0 0 0 0 0 0 0 0 0 0 0 0 0 0 0 0 0 0 0 0 0 0 0 0 0 0 0 0 0 0 0 0 0 0 0 0 0 0 0 0 0 0 0 0 1 1 2 3 4 5 4 3 0 3 4 5 2 6 6 27 148 142 137 145 153 132 116 162 210 232 201 175 199 215 195 212 241 250 184 231 238 244 240 134 222 253 238 224 202 206 214 189 180 190 217 200 129 117 172 183 153 132 63 12 5 4 10 1 2 0 0 0 0 0 0 0 0 0 0 0 0 0 0 0 0 0 0 0 0 0 0 0 0 
0 0 0 0 0 0 0 0 0 0 0 0 0 0 0 0 0 0 0 0 0 0 0 0 0 0 0 0 0 0 0 0 0 0 0 0 0 0 0 0 0 0 0 0 0 0 0 1 2 2 4 4 5 4 3 0 3 4 9 2 4 6 22 135 177 179 166 139 124 143 171 185 169 196 220 222 214 201 215 194 253 225 191 241 244 212 184 251 196 198 241 224 213 230 219 203 182 193 201 180 140 146 169 167 111 27 9 5 2 14 1 2 0 0 0 0 0 0 0 0 0 0 0 0 0 0 0 0 0 0 0 0 0 0 0 0 
0 0 0 0 0 0 0 0 0 0 0 0 0 0 0 0 0 0 0 0 0 0 0 0 0 0 0 0 0 0 0 0 0 0 0 0 0 0 0 0 0 0 0 0 0 0 0 1 2 2 4 4 5 4 3 0 3 4 11 2 10 7 10 91 124 158 161 133 137 174 183 164 164 196 208 175 190 236 248 171 221 241 186 247 244 182 205 249 130 186 253 235 184 211 225 225 212 176 191 202 149 123 174 201 73 10 12 13 2 7 1 2 0 0 0 0 0 0 0 0 0 0 0 0 0 0 0 0 0 0 0 0 0 0 0 0 
0 0 0 0 0 0 0 0 0 0 0 0 0 0 0 0 0 0 0 0 0 0 0 0 0 0 0 0 0 0 0 0 0 0 0 0 0 0 0 0 0 0 0 0 0 0 0 0 1 2 3 4 4 3 3 0 2 5 12 1 18 12 7 46 126 163 171 143 136 164 176 164 182 205 207 149 173 244 252 128 188 248 191 236 235 205 227 246 130 184 254 234 155 192 215 213 207 187 203 191 130 160 211 203 45 10 15 20 2 1 2 7 1 0 0 0 0 0 0 0 0 0 0 0 0 0 0 0 0 0 0 0 0 0 0 0 
0 0 0 0 0 0 0 0 0 0 0 0 0 0 0 0 0 0 0 0 0 0 0 0 0 0 0 0 0 0 0 0 0 0 0 0 0 0 0 0 0 0 0 0 0 0 0 0 0 1 1 1 1 1 1 0 1 1 1 0 1 1 3 7 73 166 195 162 163 212 175 189 209 240 217 193 170 226 249 111 175 232 206 228 219 204 226 205 133 154 253 218 142 226 240 239 232 197 168 191 187 157 176 228 56 14 7 3 1 5 3 6 2 1 1 1 1 1 1 1 0 0 0 0 0 0 1 1 0 0 0 0 0 0 0 0 
0 0 0 0 0 0 0 0 0 0 0 0 0 0 0 0 0 0 0 0 0 0 0 0 0 0 0 0 0 0 0 0 0 0 0 0 0 0 0 0 0 0 0 0 0 0 0 0 0 0 0 0 0 0 0 0 0 0 0 0 0 0 2 6 10 126 208 189 162 192 181 193 192 228 229 210 143 205 245 116 151 200 192 218 212 204 201 186 117 187 250 214 183 214 198 181 171 187 197 201 187 131 181 217 75 20 13 6 7 16 4 8 2 2 1 1 1 1 1 1 0 0 0 0 0 0 1 1 0 0 0 0 0 0 0 0 
0 0 0 0 0 0 0 0 0 0 0 0 0 0 0 0 0 0 0 0 0 0 0 0 0 0 0 0 0 0 0 0 0 0 0 0 0 0 0 0 0 0 0 0 0 0 0 0 0 0 0 0 0 0 0 0 0 0 0 0 0 0 2 6 45 146 195 149 149 191 184 130 157 153 108 131 128 113 165 160 176 186 183 194 185 200 190 195 173 157 153 77 110 161 152 141 164 129 180 215 197 143 193 177 88 17 7 6 5 12 3 4 2 1 1 1 1 1 0 0 0 0 0 0 0 0 0 0 0 0 0 0 0 0 0 0 
0 0 0 0 0 0 0 0 0 0 0 0 0 0 0 0 0 0 0 0 0 0 0 0 0 0 0 0 0 0 0 0 0 0 0 0 0 0 0 0 0 0 0 0 0 0 0 0 0 0 0 0 0 0 0 0 0 0 0 0 0 0 2 4 9 160 200 133 165 193 181 93 134 212 236 246 236 165 105 103 182 197 190 187 163 193 200 200 142 117 137 182 248 254 246 248 227 221 229 209 173 165 175 168 110 13 6 4 1 6 3 3 1 1 1 1 1 1 0 0 0 0 0 0 0 0 0 0 0 0 0 0 0 0 0 0 
0 0 0 0 0 0 0 0 0 0 0 0 0 0 0 0 0 0 0 0 0 0 0 0 0 0 0 0 0 0 0 0 0 0 0 0 0 0 0 0 0 0 0 0 0 0 0 0 0 0 0 0 0 0 0 0 0 0 0 0 0 0 2 4 30 175 158 113 208 226 227 204 251 253 248 226 214 244 242 124 111 184 191 203 172 188 204 170 121 102 246 248 179 225 248 249 250 212 218 251 254 239 138 206 145 22 7 11 5 13 5 3 1 0 0 0 0 0 0 0 0 0 0 0 0 0 0 0 0 0 0 0 0 0 0 0 
0 0 0 0 0 0 0 0 0 0 0 0 0 0 0 0 0 0 0 0 0 0 0 0 0 0 0 0 0 0 0 0 0 0 0 0 0 0 0 0 0 0 0 0 0 0 0 0 0 0 0 0 0 0 0 0 0 0 0 0 0 0 2 4 17 161 166 220 252 236 196 140 228 238 209 203 220 227 234 207 56 149 175 206 179 193 205 151 63 200 244 227 244 254 211 207 232 115 117 158 212 252 240 188 177 37 7 11 3 7 7 3 0 0 1 0 1 0 0 0 0 0 0 0 0 0 0 0 0 0 0 0 0 0 0 0 
0 0 0 0 0 0 0 0 0 0 0 0 0 0 0 0 0 0 0 0 0 0 0 0 0 0 0 0 0 0 0 0 0 0 0 0 0 0 0 0 0 0 0 0 0 0 0 0 0 0 0 0 0 0 0 0 0 0 0 0 0 0 2 4 8 180 212 243 227 145 130 98 166 213 133 213 252 200 159 231 90 116 162 201 185 203 190 148 50 225 227 177 227 243 161 168 188 86 170 184 186 221 252 214 204 59 8 12 4 1 4 0 1 1 1 1 1 1 1 1 1 1 0 0 0 0 0 0 0 0 0 0 0 0 0 0 
0 0 0 0 0 0 0 0 0 0 0 0 0 0 0 0 0 0 0 0 0 0 0 0 0 0 0 0 0 0 0 0 0 0 0 0 0 0 0 0 0 0 0 0 0 0 0 0 0 0 0 0 0 0 0 0 0 0 0 0 0 0 2 4 38 200 228 246 194 143 180 125 77 213 118 121 177 75 171 251 137 92 165 205 196 214 158 123 88 241 236 173 119 126 133 209 99 154 197 190 240 194 246 234 222 85 19 22 4 4 14 5 1 1 3 1 1 1 1 1 1 1 0 0 0 0 0 0 0 0 0 0 0 0 0 0 
0 0 0 0 0 0 0 0 0 0 0 0 0 0 0 0 0 0 0 0 0 0 0 0 0 0 0 0 0 0 0 0 0 0 0 0 0 0 0 0 0 0 0 0 0 0 0 0 0 0 0 0 0 0 0 0 0 2 2 0 0 0 0 4 70 200 247 191 208 213 176 223 136 124 195 185 116 159 225 250 229 113 153 211 202 203 193 168 163 249 235 214 206 174 184 112 202 220 191 217 202 117 202 254 220 166 92 41 6 4 3 18 16 3 7 22 3 1 1 1 1 1 0 0 0 0 1 1 0 0 0 0 0 0 0 0 
0 0 0 0 0 0 0 0 0 0 0 0 0 0 0 0 0 0 0 0 0 0 0 0 0 0 0 0 0 0 0 0 0 0 0 0 0 0 0 0 0 0 0 0 0 0 0 0 0 0 0 0 0 0 0 0 0 2 2 0 0 0 0 6 72 215 252 183 146 211 196 210 208 175 133 129 165 171 163 199 231 184 182 187 182 187 182 194 226 243 193 84 89 134 175 186 212 209 192 176 155 81 140 222 229 197 173 171 150 101 41 3 24 7 4 4 4 20 24 1 1 1 0 0 0 0 1 1 0 0 0 0 0 0 0 0 
0 0 0 0 0 0 0 0 0 0 0 0 0 0 0 0 0 0 0 0 0 0 0 0 0 0 0 0 0 0 0 0 0 0 0 0 0 0 0 0 0 0 0 0 0 0 0 0 0 0 0 0 0 0 0 0 0 2 2 0 0 0 0 7 23 242 216 123 89 156 217 197 186 208 194 170 129 67 129 213 218 217 194 146 146 155 161 208 228 222 194 122 159 207 202 226 193 203 217 148 136 137 152 154 237 216 208 219 218 197 152 101 10 5 7 9 4 7 11 1 1 1 0 0 1 1 1 1 0 0 0 0 0 0 0 0 
0 0 0 0 0 0 0 0 0 0 0 0 0 0 0 0 0 0 0 0 0 0 0 0 0 0 0 0 0 0 0 0 0 0 0 0 0 0 0 0 0 0 0 0 0 0 0 0 0 0 0 0 0 0 0 0 0 2 5 2 0 0 2 9 6 254 200 140 123 98 189 224 211 207 202 216 196 182 220 220 222 234 216 169 160 168 189 230 237 224 210 182 205 220 200 221 224 212 210 125 121 122 164 119 232 216 213 227 231 229 220 205 111 45 8 11 5 4 4 3 1 1 1 0 1 1 1 1 0 0 0 0 0 0 0 0 
0 0 0 0 0 0 0 0 0 0 0 0 0 0 0 0 0 0 0 0 0 0 0 0 0 0 0 0 0 0 0 0 0 0 0 0 0 0 0 0 0 0 0 0 0 0 0 0 0 0 0 0 0 0 0 0 0 2 5 2 0 0 7 12 6 219 163 91 104 127 59 149 153 190 203 212 189 176 210 205 235 237 224 198 174 179 214 236 240 228 193 185 198 192 192 205 174 121 112 144 192 165 211 169 212 209 223 237 240 238 235 230 223 166 70 5 5 10 24 6 1 1 1 0 1 1 1 1 0 0 0 0 0 0 0 0 
0 0 0 0 0 0 0 0 0 0 0 0 0 0 0 0 0 0 0 0 0 0 0 0 0 0 0 0 0 0 0 0 0 0 0 0 0 0 0 0 0 0 0 0 0 0 0 0 0 0 0 0 0 0 0 0 0 2 5 2 0 2 7 14 21 164 144 145 147 204 174 146 186 214 180 164 201 187 167 186 237 233 219 200 164 167 217 232 236 225 168 176 192 178 198 190 196 184 169 208 240 236 247 203 194 202 225 241 243 243 243 241 237 231 201 111 7 5 15 3 3 1 1 0 1 1 1 1 0 0 0 0 0 0 0 0 
0 0 0 0 0 0 0 0 0 0 0 0 0 0 0 0 0 0 0 0 0 0 0 0 0 0 0 0 0 0 0 0 0 0 0 0 0 0 0 0 0 0 0 0 0 0 0 0 0 0 0 0 0 0 0 0 0 2 5 2 2 2 9 16 6 169 186 223 201 214 231 200 181 189 162 158 206 187 134 178 227 238 226 207 181 180 223 238 242 226 163 169 193 192 200 167 154 173 171 184 214 234 248 237 193 195 216 235 243 247 249 248 234 242 245 219 117 8 4 3 3 1 1 0 1 1 2 1 0 0 0 0 0 0 0 0 
0 0 0 0 0 0 0 0 0 0 0 0 0 0 0 0 0 0 0 0 0 0 0 0 0 0 0 0 0 0 0 0 0 0 0 0 0 0 0 0 0 0 0 0 0 0 1 0 1 1 1 1 0 1 1 1 1 3 5 5 3 5 11 16 79 154 200 235 247 246 194 148 161 123 178 223 239 228 179 181 196 238 228 206 196 192 226 242 220 206 184 215 241 242 222 164 157 171 223 244 237 217 216 242 196 192 210 233 244 249 250 246 247 239 244 245 202 67 5 18 3 1 1 0 0 1 1 1 0 0 0 0 0 0 0 0 
0 0 0 0 0 0 0 0 0 0 0 0 0 0 0 0 0 0 0 0 0 0 0 0 0 0 0 0 0 0 0 0 1 1 1 1 1 1 1 1 1 1 1 1 1 1 3 0 5 4 10 11 2 1 2 11 12 10 5 5 14 40 53 47 48 102 206 237 238 243 240 226 188 143 156 158 188 203 211 155 132 152 234 249 206 221 252 225 127 117 166 193 168 155 154 127 127 153 152 163 175 215 232 177 198 210 243 227 229 246 252 251 252 247 237 242 240 172 28 9 9 15 1 3 3 0 5 0 0 0 0 0 0 0 0 0 
0 0 0 0 0 0 0 0 0 0 0 0 0 0 0 0 0 0 0 0 0 0 0 0 0 0 0 0 0 0 0 0 1 1 1 1 1 1 1 1 1 1 1 1 3 3 3 0 7 4 3 3 6 9 6 6 6 7 18 64 58 128 166 117 64 95 130 179 211 193 175 210 166 105 137 178 208 209 214 185 122 109 154 224 251 251 206 96 120 173 225 237 224 204 163 92 107 120 177 170 187 186 140 202 197 220 246 241 227 241 246 250 251 254 250 241 246 243 175 15 5 7 1 3 1 1 10 1 0 0 0 0 0 0 0 0 
0 0 0 0 0 0 0 0 0 0 0 0 0 0 0 0 0 0 0 0 0 0 0 0 0 0 0 0 0 0 0 0 0 0 0 0 0 0 0 0 1 1 1 1 1 1 1 0 7 14 15 12 1 2 4 5 49 74 116 88 22 85 171 183 149 143 103 120 185 191 166 166 164 89 85 122 165 182 194 171 133 128 118 143 224 216 108 139 120 127 149 178 194 185 138 72 69 147 175 194 189 138 136 187 207 224 241 248 235 244 243 250 249 250 247 242 247 249 215 90 8 2 4 4 1 7 11 0 0 0 0 0 0 0 0 0 
0 0 0 0 0 0 0 0 0 0 0 0 0 0 0 0 0 0 0 0 0 0 0 0 0 0 0 0 0 0 0 0 1 1 1 0 0 0 0 0 1 1 1 1 1 1 1 1 0 0 16 3 2 17 58 80 153 177 118 35 71 111 131 171 197 151 116 128 142 179 202 169 134 102 90 106 158 205 213 183 164 139 133 155 200 194 142 157 175 163 164 186 185 135 90 104 182 197 168 151 124 171 235 222 211 207 214 236 239 245 243 248 250 246 249 251 247 243 234 201 43 3 4 3 1 10 9 0 0 0 0 0 0 0 0 0 
0 0 0 0 0 0 0 0 0 0 0 0 0 0 0 0 0 0 0 0 0 0 0 0 0 0 0 0 0 0 0 0 1 2 2 1 1 1 1 1 0 0 1 1 1 1 1 1 16 7 4 4 43 96 104 85 112 141 92 62 141 178 176 193 207 152 129 167 130 100 183 217 218 208 173 128 111 153 172 165 149 151 152 199 223 215 196 141 113 139 168 178 150 104 142 208 227 176 173 139 169 240 245 241 230 214 208 222 243 242 247 248 246 248 253 252 243 244 245 229 114 8 3 1 1 10 0 0 0 0 0 0 0 0 0 0 
0 0 0 0 0 0 0 0 0 0 0 0 0 0 0 0 0 0 0 0 0 0 0 0 0 0 0 0 0 0 0 1 2 2 2 2 1 1 1 1 0 0 1 1 1 1 1 3 25 10 7 49 141 184 150 72 42 30 77 114 132 195 233 232 206 190 138 177 189 111 124 182 206 203 180 154 99 98 123 167 161 218 213 217 220 200 210 210 183 165 135 112 121 156 182 191 181 148 140 202 245 243 224 233 241 236 228 223 242 235 246 248 244 244 251 252 245 244 243 228 188 39 6 1 1 10 0 0 0 0 0 0 0 0 0 0 
0 0 0 0 0 0 0 0 0 0 0 0 0 0 0 0 0 0 0 0 0 0 0 0 0 0 0 0 0 0 0 1 2 3 3 3 2 2 1 1 1 1 1 1 2 2 2 4 7 21 52 88 152 207 220 212 178 106 106 133 142 203 239 233 219 188 105 183 228 184 139 114 162 189 193 204 174 145 87 83 112 163 158 145 147 129 118 135 129 89 88 129 177 211 199 138 150 185 174 234 248 226 232 241 230 240 226 223 234 233 242 242 252 242 246 253 252 246 242 239 233 76 10 7 1 14 0 6 0 0 0 0 0 0 0 0 
0 0 0 0 0 0 0 0 0 0 0 0 0 0 0 0 0 0 0 0 0 0 0 0 0 0 0 0 0 0 0 1 2 3 3 3 2 2 1 1 1 1 1 2 2 3 2 5 59 129 145 85 55 150 238 255 238 230 217 193 169 176 215 240 246 156 73 219 243 215 213 193 122 155 137 155 173 205 169 131 110 55 90 76 57 92 78 80 97 117 191 221 203 189 190 174 159 203 251 252 240 243 246 248 225 243 224 233 240 247 247 244 253 246 246 251 251 248 246 243 248 99 15 11 1 18 0 13 0 0 0 0 0 0 0 0 
0 0 0 0 0 0 0 0 0 0 0 0 0 0 0 0 0 0 0 0 0 0 0 0 0 0 0 0 0 0 0 1 2 3 3 2 1 1 3 18 3 6 2 6 7 3 63 178 254 233 158 124 139 165 224 253 253 225 210 201 194 171 216 236 248 107 91 218 243 228 218 249 206 181 156 153 155 153 162 179 150 129 129 98 115 92 118 121 173 195 208 200 184 181 191 201 228 247 244 231 244 246 251 238 213 233 208 238 247 236 246 244 245 250 246 250 250 250 239 244 242 217 11 15 1 20 0 1 0 0 0 0 0 0 0 0 
0 0 0 0 0 0 0 0 0 0 0 0 0 0 0 0 0 0 0 0 0 0 0 0 0 0 0 0 0 0 0 1 5 6 5 2 1 0 5 7 6 16 6 6 30 45 108 182 230 227 212 198 192 184 210 244 254 249 246 238 215 190 206 216 218 96 107 240 254 246 232 227 237 230 217 194 162 134 126 134 157 155 151 161 162 171 175 184 198 176 169 193 209 214 226 237 242 248 236 242 247 254 252 248 227 213 220 252 238 251 244 243 242 247 244 249 250 250 242 245 241 226 68 7 1 16 1 4 0 0 0 0 0 0 0 0 
0 0 0 0 0 0 0 0 0 0 0 0 0 0 0 0 0 0 0 0 0 0 0 0 0 0 0 0 0 0 0 1 3 2 1 1 5 5 2 2 13 4 5 41 114 123 89 72 131 194 215 218 225 219 223 244 253 254 254 251 228 216 215 217 230 132 82 232 254 252 250 240 237 240 239 229 211 195 191 196 195 196 183 201 184 196 185 195 217 203 206 230 243 244 243 244 231 242 248 253 251 248 222 220 246 226 243 237 238 244 252 249 245 245 240 245 247 249 244 247 242 239 151 5 3 9 2 4 0 0 0 0 0 0 0 0 
0 0 0 0 0 0 0 0 0 0 0 0 0 0 0 0 0 0 0 0 0 0 0 0 0 0 0 0 0 0 0 0 1 1 1 0 1 2 3 4 10 9 128 228 229 146 95 156 134 180 186 190 214 213 209 231 250 254 253 250 227 228 229 236 238 136 80 223 254 254 252 247 228 229 233 239 239 236 234 237 220 219 211 221 217 227 228 235 236 245 250 251 251 250 245 238 247 249 255 254 253 240 218 224 217 246 232 236 234 243 248 246 248 243 234 234 238 244 246 249 244 247 209 7 8 0 4 2 0 0 0 0 0 0 0 0 
0 0 0 0 0 0 0 0 0 0 0 0 0 0 0 0 0 0 0 0 0 0 0 0 0 0 0 0 0 0 0 0 0 4 8 5 1 3 8 16 37 201 249 248 239 238 216 149 193 191 180 192 218 217 217 236 252 253 250 246 225 226 228 241 235 132 100 188 244 254 253 250 244 230 224 235 240 234 224 223 232 225 225 221 233 235 245 249 249 253 253 250 247 247 249 248 255 254 254 246 245 231 211 213 224 242 231 238 244 247 250 250 246 237 231 230 235 240 246 248 242 247 233 15 3 0 4 2 0 0 0 0 0 0 0 0 
0 0 0 0 0 0 0 0 0 0 0 0 0 0 0 0 0 0 0 0 0 0 0 0 2 2 2 2 2 2 2 2 0 5 9 3 3 4 20 39 178 222 246 250 249 249 239 202 206 193 197 220 232 229 236 248 254 254 249 242 232 228 229 242 240 166 122 125 203 252 254 254 253 241 226 229 235 229 220 216 230 221 225 218 234 233 245 248 251 248 247 248 249 250 253 255 254 254 247 234 211 220 209 224 252 213 246 242 250 248 250 249 238 231 238 241 245 245 248 246 240 241 240 37 3 0 4 2 1 0 0 0 0 0 0 0 
0 0 0 0 0 0 0 0 0 0 0 0 0 0 0 0 0 0 0 0 0 0 0 0 2 2 2 2 2 2 2 2 1 3 3 3 11 37 69 90 143 201 242 250 249 253 253 249 234 215 216 227 221 217 231 241 254 254 249 235 237 234 239 247 244 193 146 156 194 235 250 253 254 250 238 227 226 233 237 236 221 221 228 235 243 245 249 251 247 245 246 251 254 254 254 254 253 251 227 215 201 224 241 252 233 207 246 254 247 249 227 229 227 225 244 248 250 246 248 241 243 237 244 77 3 0 5 2 1 0 0 0 0 0 0 0 
0 0 0 0 0 0 0 0 0 0 0 0 0 0 0 0 0 0 0 0 0 0 0 0 3 2 3 2 2 2 3 3 12 7 5 15 49 91 124 141 159 163 220 251 254 252 251 247 253 239 231 231 218 225 243 246 254 254 249 227 237 237 246 250 252 211 136 180 186 182 237 251 254 254 248 224 210 226 239 239 230 235 236 247 243 246 240 242 245 251 252 252 254 255 254 251 247 234 201 194 222 201 214 202 191 233 252 248 252 237 238 235 218 217 243 247 249 242 243 232 248 237 248 107 3 7 3 3 1 0 0 0 0 0 0 0 
0 0 0 0 0 0 0 0 0 0 0 0 0 0 2 2 1 9 1 29 0 2 1 1 18 2 9 49 4 28 5 6 9 44 150 192 166 138 143 139 128 200 218 235 251 254 253 247 240 230 216 210 214 227 242 250 254 247 236 240 243 246 248 248 251 219 154 171 209 203 204 232 250 254 254 253 242 219 228 221 226 223 227 231 226 222 233 246 253 255 254 254 255 253 247 227 202 203 208 205 237 228 161 214 243 245 248 254 230 228 226 238 227 242 241 248 246 238 203 199 215 234 248 150 2 6 9 5 1 0 0 0 0 0 0 0 
0 0 0 0 0 0 0 0 0 0 0 0 0 0 0 0 1 18 3 0 0 1 26 27 2 49 29 5 7 24 51 34 85 160 235 251 246 223 190 150 159 169 173 220 247 251 252 249 247 240 231 226 227 235 246 251 243 238 237 238 240 246 249 248 241 222 188 187 214 225 218 213 233 245 250 254 251 243 238 219 228 228 220 208 214 239 253 255 255 254 254 253 250 236 214 217 214 199 202 211 217 223 229 240 236 238 237 239 193 228 233 219 228 248 250 252 250 249 240 243 214 224 239 125 3 1 3 3 1 0 0 0 0 0 0 0 
0 0 0 0 0 0 0 0 2 2 2 0 0 0 0 0 0 2 7 1 26 2 23 4 8 81 112 190 214 136 125 149 168 165 195 232 249 253 249 233 223 210 193 212 233 245 251 247 247 240 228 220 220 228 239 246 237 244 247 243 240 247 251 248 243 232 215 201 201 212 209 191 204 214 230 249 253 252 249 232 242 237 230 234 248 254 254 254 252 246 246 235 227 219 191 216 222 233 238 246 244 237 243 242 231 250 242 221 191 234 235 227 238 251 253 253 251 252 250 252 229 227 229 91 7 5 2 7 1 0 0 0 0 0 0 0 
0 0 0 0 0 0 0 0 5 5 2 2 2 0 0 0 10 21 15 2 4 4 106 156 131 162 183 208 227 167 141 133 114 123 143 176 217 246 254 254 233 219 199 203 209 231 250 250 251 246 237 227 226 234 242 247 245 249 250 244 240 247 250 246 230 207 210 221 212 205 215 220 202 187 194 224 242 249 251 246 227 222 235 252 254 254 248 237 231 229 226 213 226 240 237 239 243 251 245 232 236 228 224 242 245 254 237 210 223 242 232 243 253 254 252 241 220 218 230 241 239 238 232 59 6 12 2 18 0 0 0 0 0 0 0 0 
0 0 0 0 0 0 0 0 2 2 2 2 2 2 2 3 2 3 4 81 123 164 209 234 217 164 177 184 207 190 187 206 169 185 184 174 186 219 244 252 248 234 214 215 211 227 249 252 247 243 235 228 227 232 237 240 244 241 241 241 240 245 246 240 210 177 196 231 234 227 225 226 217 188 178 188 209 232 242 245 230 238 250 253 251 238 224 224 206 225 219 227 240 244 248 244 243 243 236 197 204 221 215 244 252 240 205 219 242 249 242 244 233 233 234 224 206 191 194 197 232 238 238 47 4 14 3 1 0 0 0 0 0 0 0 0 
0 0 0 0 0 0 0 0 0 2 2 2 5 5 7 7 9 35 67 197 225 238 238 242 251 194 181 184 188 168 158 207 230 232 221 206 211 224 238 248 254 253 241 220 222 245 254 251 246 245 242 240 240 242 242 240 243 235 235 242 245 244 238 227 203 174 172 208 234 241 236 224 230 205 196 186 184 203 214 227 248 252 252 246 229 215 212 213 226 241 239 248 247 230 234 235 218 189 228 221 212 239 240 245 248 211 229 253 250 250 250 239 190 165 175 198 229 232 218 170 210 228 242 67 10 20 18 1 0 0 0 0 0 0 0 0 
0 0 0 0 0 0 0 0 0 0 0 2 7 9 11 11 20 112 157 186 168 156 190 210 238 240 208 154 170 220 228 234 209 234 243 244 242 234 236 248 249 249 229 204 215 239 252 253 246 245 241 237 239 242 242 240 247 242 242 246 245 242 230 209 168 153 141 175 227 245 247 245 242 222 216 201 187 195 196 213 238 240 235 223 213 215 219 219 249 251 250 250 244 227 220 229 210 188 225 234 229 243 248 247 239 236 253 254 243 233 238 221 229 203 180 147 190 227 240 217 196 211 240 80 11 6 28 1 0 0 0 0 0 0 0 0 
0 0 0 0 0 0 0 0 0 0 0 2 7 11 13 15 196 216 226 215 219 197 195 151 185 235 180 154 176 193 192 209 229 233 234 242 250 247 240 242 252 234 195 213 211 167 213 253 254 253 249 244 245 249 251 251 247 245 245 244 241 237 225 200 154 162 166 195 230 239 241 248 249 232 225 208 195 205 202 218 235 231 230 229 216 203 215 234 251 249 247 227 222 228 210 217 221 238 242 249 252 247 244 245 239 254 253 228 200 181 172 176 199 222 233 171 142 195 246 247 196 195 233 70 4 3 20 1 0 0 0 0 0 0 0 0 
0 0 0 0 0 0 0 0 0 0 7 7 9 31 0 197 245 240 238 238 236 232 234 240 212 174 145 138 157 167 172 201 200 225 229 240 248 254 240 250 252 241 224 235 243 216 188 219 254 254 254 251 246 253 254 253 253 251 245 242 245 243 218 166 133 127 183 237 240 235 244 243 249 252 237 198 197 186 193 226 219 232 239 210 193 213 227 247 248 241 229 222 232 243 245 243 246 248 251 252 250 246 246 248 252 244 213 178 196 210 183 147 128 176 219 238 195 169 206 249 239 177 166 35 4 9 2 1 0 0 0 0 0 0 0 0 
0 0 0 0 0 0 0 0 7 39 0 0 2 11 194 243 253 252 252 253 252 251 251 252 212 143 147 164 111 159 127 173 166 196 228 245 248 252 239 251 252 247 236 236 233 199 162 178 241 253 254 251 248 248 250 254 250 252 251 247 245 240 205 136 117 142 167 218 238 238 246 250 252 252 238 204 182 193 209 235 229 225 222 203 214 232 230 238 239 240 240 239 243 247 250 250 253 252 253 253 247 221 197 199 246 250 245 203 179 206 210 203 154 154 189 241 243 193 162 226 253 213 132 6 4 20 1 18 0 0 0 0 0 0 0 0 
0 0 0 0 0 0 0 0 0 16 0 9 7 117 250 252 254 254 254 255 255 254 254 255 213 88 131 137 85 152 130 158 156 142 180 222 245 253 244 249 238 233 229 231 233 225 204 183 207 252 253 246 242 229 234 251 253 254 252 240 226 218 187 129 152 194 188 208 236 238 243 249 251 252 246 235 194 211 218 231 215 213 212 205 221 235 235 242 248 249 249 249 251 254 255 255 247 242 235 226 208 184 180 191 221 243 251 229 183 195 213 225 152 171 149 171 240 242 222 223 244 231 161 27 27 2 1 25 0 0 0 0 0 0 0 0 
0 0 0 0 0 0 0 0 0 0 0 33 84 242 254 253 254 254 254 254 254 254 254 255 193 102 173 131 144 148 181 183 198 161 129 152 234 255 249 248 244 240 235 232 237 245 238 209 198 249 249 236 233 230 241 251 252 248 227 178 147 158 166 160 193 222 219 222 233 236 242 244 249 251 250 249 201 217 222 223 222 229 231 231 237 242 244 249 252 252 252 251 248 234 205 171 141 174 184 165 165 194 211 209 208 209 240 233 190 180 199 228 192 173 145 167 244 246 237 231 245 243 132 4 33 15 1 6 1 0 0 0 0 0 0 0 
0 0 0 0 0 0 0 0 24 0 0 0 173 255 254 254 254 254 254 254 254 254 254 255 155 167 198 166 186 159 207 204 212 199 133 101 209 255 249 243 247 247 243 235 234 243 238 212 186 229 244 245 246 250 250 241 213 183 135 109 113 137 169 193 206 218 226 233 230 239 251 248 251 250 249 248 185 212 231 234 240 245 244 243 243 239 232 227 211 202 194 186 181 173 162 154 113 168 190 177 185 221 240 242 226 194 228 222 177 181 197 223 205 171 170 194 238 241 245 244 250 252 155 3 13 16 4 2 1 0 0 0 0 0 0 0 
0 0 0 0 0 0 0 0 0 11 0 0 240 254 255 253 254 254 255 255 255 254 254 254 214 222 180 198 217 233 243 239 225 210 165 161 208 255 252 244 235 247 251 249 244 236 223 207 198 207 250 255 255 254 237 181 140 127 146 188 204 201 206 219 220 214 223 237 234 243 254 252 252 248 249 249 202 216 239 243 241 250 249 243 232 209 189 162 147 162 179 179 162 138 132 140 175 190 201 202 207 226 244 251 227 207 240 220 170 206 205 184 184 167 188 212 230 236 244 245 249 251 181 49 0 2 2 5 1 0 0 0 0 0 0 0 
0 0 0 0 0 0 0 0 0 22 11 45 255 254 255 254 254 254 255 255 254 254 254 254 254 239 195 230 242 254 254 253 246 218 216 240 206 255 255 253 250 254 254 253 250 234 217 223 211 62 49 33 17 51 53 118 157 181 219 241 244 236 233 238 241 234 230 244 248 248 252 252 251 245 251 253 228 222 240 244 235 249 243 233 222 208 202 176 186 189 189 179 154 139 153 175 167 182 199 209 214 222 232 239 216 209 247 225 183 234 217 135 185 174 199 247 252 239 217 235 245 210 59 1 0 27 21 4 1 0 0 0 0 0 0 0 
0 0 0 0 0 0 0 0 16 0 0 55 254 255 254 255 254 255 255 254 254 254 255 255 254 223 225 242 246 252 253 251 251 214 239 254 138 227 251 255 254 253 244 237 238 228 229 248 206 13 12 16 11 19 14 161 188 216 240 246 243 237 240 246 250 248 239 250 254 251 248 251 250 243 251 253 234 219 238 243 224 230 196 186 214 230 231 200 200 201 206 210 199 177 159 155 219 224 216 196 202 228 241 242 220 203 244 220 192 246 232 141 170 221 217 235 252 255 246 245 158 63 1 24 1 22 3 2 1 0 0 0 0 0 0 0 
0 0 0 0 0 0 0 0 0 5 0 33 167 255 254 255 254 254 254 255 255 255 254 254 253 246 232 231 246 253 252 248 245 246 250 238 17 6 102 255 255 253 242 229 239 249 245 227 84 15 3 12 24 11 102 182 195 220 243 252 244 246 248 249 251 252 253 252 252 253 251 247 251 249 252 254 252 238 233 243 195 187 208 227 230 231 223 197 199 224 211 211 219 192 175 192 223 224 205 209 208 241 247 251 214 204 249 225 191 245 217 201 197 218 237 248 253 247 188 49 5 5 5 2 2 1 1 1 0 0 0 0 0 0 0 0 
0 0 0 0 0 0 0 0 0 0 0 0 85 253 255 254 255 255 255 254 254 254 255 255 253 251 249 250 253 254 250 242 240 250 254 159 7 22 65 133 202 211 205 170 124 89 51 12 2 3 33 7 7 23 160 193 199 227 245 252 246 247 250 254 251 248 248 253 253 251 251 253 255 254 254 254 251 236 226 232 228 217 214 219 224 228 224 210 210 202 187 195 198 199 208 192 201 220 226 199 206 229 248 249 231 220 246 219 208 246 233 225 219 237 237 198 108 31 13 15 5 5 5 2 2 1 1 1 0 0 0 0 0 0 0 0 
0 0 0 0 0 0 0 0 9 5 24 5 43 244 255 255 254 254 255 255 255 255 254 254 254 254 254 254 254 254 253 250 255 254 254 96 4 4 4 4 4 4 22 20 11 8 6 2 30 2 6 6 12 57 188 207 233 242 242 248 249 252 250 251 251 253 253 253 252 253 254 255 211 167 94 35 9 9 55 102 212 227 235 235 230 218 211 216 211 194 197 196 157 193 241 235 173 213 239 183 197 200 240 235 210 205 243 222 249 252 253 247 178 133 53 4 3 11 1 1 5 5 5 2 2 1 1 1 0 0 0 0 0 0 0 0 
0 0 0 0 0 0 0 0 9 0 0 0 0 184 247 255 255 255 255 255 254 255 255 255 255 255 255 255 254 254 254 254 245 183 118 6 12 27 3 31 29 3 3 3 6 9 5 1 9 2 16 18 9 77 220 239 237 248 242 241 245 250 237 225 251 250 249 253 255 253 193 18 5 5 5 7 9 4 4 7 127 192 226 236 239 229 221 231 240 222 214 219 211 237 252 240 215 236 250 216 225 215 240 230 216 233 199 211 155 165 41 12 4 4 4 3 3 1 6 38 5 5 5 2 2 1 1 1 0 0 0 0 0 0 0 0 
0 0 0 0 0 0 0 0 0 16 35 49 13 13 24 111 201 215 231 238 235 219 192 167 90 94 100 104 99 81 62 51 20 2 5 7 2 9 2 35 2 2 7 20 11 2 5 25 1 1 18 2 15 146 239 232 229 247 237 219 222 247 249 249 252 255 255 254 206 53 5 11 11 11 7 2 2 13 26 30 7 9 17 45 98 98 67 71 55 116 139 128 74 63 109 97 83 100 125 75 88 71 87 53 4 41 5 2 49 2 15 2 22 3 3 3 17 8 1 1 5 5 5 2 2 0 1 1 0 0 0 0 0 0 0 0 
0 0 0 0 0 0 0 0 0 11 0 0 0 0 0 35 29 24 18 9 3 0 1 2 1 0 3 16 14 0 1 0 18 1 7 1 13 40 1 1 1 12 20 16 1 1 1 0 37 1 1 3 22 127 232 239 227 243 236 230 236 254 255 254 245 216 137 50 6 4 4 9 3 3 4 2 1 1 1 3 45 35 9 3 13 11 4 3 6 41 9 7 33 18 7 4 8 4 3 3 13 13 1 1 1 47 1 2 4 3 7 23 1 1 8 13 3 1 1 16 5 5 5 2 2 0 1 1 0 0 0 0 0 0 0 0 
0 0 0 0 0 0 0 0 5 11 11 16 20 24 22 0 0 1 0 1 0 2 7 6 9 1 0 2 5 2 7 19 16 13 37 1 0 1 2 41 5 1 0 1 2 24 33 30 1 1 17 26 4 5 176 237 243 243 235 233 212 198 118 14 4 24 17 3 3 24 31 3 5 3 3 1 1 0 2 11 0 0 7 6 1 0 9 15 1 13 1 0 1 0 11 31 15 1 1 3 25 22 18 4 1 10 29 3 45 3 18 2 0 1 3 5 7 7 1 0 5 5 5 2 2 0 0 0 0 0 0 0 0 0 0 0 
0 0 0 0 0 0 0 0 5 0 7 31 0 0 31 0 1 2 6 8 6 2 1 1 1 1 2 13 11 1 1 8 1 4 1 22 1 24 1 1 1 11 13 1 1 1 1 1 24 12 4 3 26 4 26 10 53 7 5 24 2 5 5 4 4 3 3 16 18 1 1 1 7 0 0 4 8 3 1 1 14 1 1 11 1 1 11 1 22 1 1 22 16 5 24 0 3 3 20 0 1 0 7 1 1 16 2 11 3 24 3 2 2 9 7 0 1 9 7 0 5 5 5 2 2 0 0 0 0 0 0 0 0 0 0 0 
0 0 0 0 0 0 0 0 0 0 0 0 0 0 0 0 1 1 1 1 1 1 1 1 1 1 1 1 1 1 1 1 1 1 1 1 1 1 1 1 1 1 1 1 1 1 1 1 1 3 5 5 3 4 8 8 5 7 7 7 7 7 5 2 1 1 3 1 1 1 1 0 0 1 1 1 1 2 2 1 1 0 0 0 0 0 0 0 0 0 0 0 0 0 0 0 1 3 3 1 3 1 3 1 1 1 1 1 1 1 1 1 1 1 0 1 0 0 0 0 0 0 0 0 0 0 0 0 0 0 0 0 0 0 0 0 
0 0 0 0 0 0 0 0 0 0 0 0 0 0 0 0 1 1 1 1 1 1 1 1 1 1 1 1 1 1 1 1 1 1 1 1 1 1 1 1 1 1 1 1 1 1 1 1 1 3 5 5 3 3 6 8 5 5 7 7 7 7 5 3 1 1 1 1 1 1 0 0 1 1 1 1 2 2 2 2 0 1 1 1 1 1 1 1 1 1 1 1 1 1 1 0 3 3 3 3 3 3 3 3 1 1 1 1 1 1 1 1 1 1 1 1 1 1 0 0 0 0 0 0 0 0 0 0 0 0 0 0 0 0 0 0 
