P2
136 90
255
0 0 0 0 0 0 0 0 0 0 0 0 0 0 0 0 0 0 0 0 0 0 0 1 1 1 1 1 0 0 1 1 1 1 1 1 1 1 1 1 0 0 0 0 0 0 0 0 1 1 0 0 1 1 1 1 1 1 1 1 2 2 3 2 1 3 4 4 4 4 3 1 2 3 2 2 1 1 1 1 1 1 1 1 0 0 1 1 0 0 0 0 0 0 0 0 1 1 1 1 1 1 1 1 1 1 0 0 1 1 1 1 1 0 0 0 0 0 0 0 0 0 0 0 0 0 0 0 0 0 0 0 0 0 0 0 
0 0 0 0 0 0 0 0 0 0 0 0 0 0 0 0 0 0 0 0 0 0 0 0 1 1 1 1 0 1 1 1 1 1 1 1 1 1 1 0 0 0 0 0 0 0 0 0 1 1 0 0 1 1 1 1 1 1 1 1 1 2 2 2 1 2 2 3 3 2 2 1 2 2 2 1 1 1 1 1 1 1 1 1 0 0 1 1 0 0 0 0 0 0 0 0 0 1 1 1 1 1 1 1 1 1 1 0 1 1 1 1 0 0 0 0 0 0 0 0 0 0 0 0 0 0 0 0 0 0 0 0 0 0 0 0 
0 0 0 0 0 0 0 0 0 0 0 0 0 0 0 0 0 0 0 0 0 0 0 0 0 0 0 0 1 1 1 1 1 1 1 1 1 1 1 1 0 0 0 0 0 0 0 0 1 1 0 0 0 0 1 1 0 0 1 1 1 2 2 2 1 1 1 1 1 1 1 1 2 2 2 1 1 1 0 0 1 1 0 0 0 0 1 1 0 0 0 0 0 0 0 0 1 1 1 1 1 1 1 1 1 1 1 1 0 0 0 0 0 0 0 0 0 0 0 0 0 0 0 0 0 0 0 0 0 0 0 0 0 0 0 0 
0 0 0 0 0 0 0 0 0 0 0 0 0 0 0 0 0 0 0 0 0 0 0 0 0 0 0 0 1 1 1 1 1 1 1 1 1 1 1 1 0 0 0 0 0 0 0 0 1 1 0 0 0 0 1 1 0 0 1 1 1 1 2 2 1 1 0 0 0 0 1 1 2 2 1 1 1 1 0 0 1 1 0 0 0 0 1 1 0 0 0 0 0 0 0 0 1 1 1 1 1 1 1 1 1 1 1 1 0 0 0 0 0 0 0 0 0 0 0 0 0 0 0 0 0 0 0 0 0 0 0 0 0 0 0 0 
0 0 0 0 0 0 0 0 0 0 0 0 0 0 0 0 0 0 0 0 0 0 0 0 1 1 1 1 1 1 1 1 1 1 1 1 1 1 1 1 0 0 0 0 0 0 0 0 1 1 0 0 0 0 0 0 1 1 1 1 1 1 1 1 1 1 1 1 1 1 1 1 1 1 1 1 1 1 1 1 0 0 0 0 0 0 1 1 0 0 0 0 0 0 0 0 1 1 1 1 1 1 1 1 1 1 1 1 1 1 1 1 0 0 0 0 0 0 0 0 0 0 0 0 0 0 0 0 0 0 0 0 0 0 0 0 
0 0 0 0 0 0 0 0 0 0 0 0 0 0 0 0 0 0 0 0 0 0 0 1 1 1 1 1 1 1 1 0 1 0 1 1 1 1 1 1 0 0 0 0 0 0 0 0 1 1 0 0 0 0 0 0 1 1 1 1 1 1 1 1 1 2 2 2 2 2 2 1 1 1 1 1 1 1 1 1 0 0 0 0 0 0 1 1 0 0 0 0 0 0 0 0 1 1 1 1 1 1 0 1 0 1 1 1 1 1 1 1 1 0 0 0 0 0 0 0 0 0 0 0 0 0 0 0 0 0 0 0 0 0 0 0 
0 0 0 0 0 0 0 0 0 0 0 0 0 0 0 0 0 0 0 0 0 0 0 1 1 1 1 1 1 1 1 1 1 1 1 1 1 1 1 1 0 0 0 0 0 0 0 0 1 1 1 1 0 0 1 1 1 1 1 1 1 1 2 2 2 3 3 3 3 3 3 2 2 2 1 1 1 1 1 1 1 1 0 0 1 1 1 1 0 0 0 0 0 0 0 0 1 1 1 1 1 1 1 1 1 1 1 1 1 1 1 1 1 0 0 0 0 0 0 0 0 0 0 0 0 0 0 0 0 0 0 0 0 0 0 0 
0 0 0 0 0 0 0 0 0 0 0 0 0 0 0 0 0 0 0 0 0 0 0 1 1 2 1 1 1 0 1 1 1 1 1 1 1 1 1 1 1 0 0 0 0 0 0 0 1 1 1 1 0 1 1 1 1 1 1 2 1 2 3 2 2 3 3 2 2 3 3 2 2 3 2 1 2 1 1 1 1 1 1 0 1 1 1 1 0 0 0 0 0 0 0 1 1 1 1 1 1 1 1 1 1 1 0 1 1 1 2 1 1 0 0 0 0 0 0 0 0 0 0 0 0 0 0 0 0 0 0 0 0 0 0 0 
0 0 0 0 0 0 0 0 0 0 0 0 0 0 0 0 0 0 0 0 0 0 0 1 2 2 1 1 13 6 2 10 10 4 2 2 2 7 7 1 2 1 0 0 0 0 0 0 1 2 1 1 0 1 1 1 2 1 11 1 5 12 3 15 11 3 2 8 8 2 3 11 15 3 12 5 1 11 1 2 1 1 1 0 1 1 2 1 0 0 0 0 0 0 1 2 1 7 7 2 2 2 4 10 10 2 6 13 1 1 2 2 1 0 0 0 0 0 0 0 0 0 0 0 0 0 0 0 0 0 0 0 0 0 0 0 
0 0 0 0 0 0 0 0 0 0 0 0 0 0 0 0 0 0 0 0 0 0 0 1 2 2 1 4 6 2 24 52 55 40 8 3 15 2 1 6 2 1 0 0 0 0 0 1 2 2 1 0 0 1 1 1 7 0 1 2 9 5 3 3 1 18 18 0 0 18 18 1 3 3 5 9 2 1 0 7 1 1 1 0 0 1 2 2 1 0 0 0 0 0 1 2 6 1 2 15 3 8 40 55 52 24 2 6 4 1 2 2 1 0 0 0 0 0 0 0 0 0 0 0 0 0 0 0 0 0 0 0 0 0 0 0 
0 0 0 0 0 0 0 0 0 0 0 0 0 0 0 0 0 0 0 0 0 0 0 1 3 2 1 11 1 4 66 83 73 71 52 17 3 4 6 1 1 1 0 0 0 0 0 1 2 2 1 0 0 1 1 1 4 0 1 2 11 4 20 16 8 1 4 17 17 4 1 8 16 20 4 11 2 1 0 4 1 1 1 0 0 1 2 2 1 0 0 0 0 0 1 1 1 6 4 3 17 52 71 73 83 66 4 1 11 1 2 3 1 0 0 0 0 0 0 0 0 0 0 0 0 0 0 0 0 0 0 0 0 0 0 0 
0 0 0 0 0 0 0 0 0 0 0 0 0 0 0 0 0 0 0 0 0 0 0 1 1 6 0 12 2 19 89 83 71 63 77 62 3 3 21 2 2 1 0 0 0 0 0 1 2 2 2 0 1 1 1 1 1 6 5 2 8 5 66 72 60 27 4 9 9 4 27 60 72 66 5 8 2 5 6 1 1 1 1 1 0 2 2 2 1 0 0 0 0 0 1 2 2 21 3 3 62 77 63 71 83 89 19 2 12 0 6 1 1 0 0 0 0 0 0 0 0 0 0 0 0 0 0 0 0 0 0 0 0 0 0 0 
0 0 0 0 0 0 0 0 0 0 0 0 0 0 0 0 0 0 0 0 0 0 0 0 1 10 1 9 3 39 93 62 65 42 60 85 65 8 4 18 2 1 0 0 0 0 0 1 2 2 2 0 1 1 1 1 1 6 3 3 10 32 90 90 83 91 61 5 5 61 91 83 90 90 32 10 3 3 6 1 1 1 1 1 0 2 2 2 1 0 0 0 0 0 1 2 18 4 8 65 85 60 42 65 62 93 39 3 9 1 10 1 0 0 0 0 0 0 0 0 0 0 0 0 0 0 0 0 0 0 0 0 0 0 0 0 
0 0 0 0 0 0 0 0 0 0 0 0 0 0 0 0 0 0 0 0 0 0 0 0 1 8 3 4 3 49 86 45 46 54 38 63 94 55 4 17 2 1 0 0 0 0 0 1 2 2 2 0 1 1 2 2 2 4 2 3 12 66 91 73 65 86 89 84 84 89 86 65 73 91 66 12 3 2 4 2 2 2 1 1 0 2 2 2 1 0 0 0 0 0 1 2 17 4 55 94 63 38 54 46 45 86 49 3 4 3 8 1 0 0 0 0 0 0 0 0 0 0 0 0 0 0 0 0 0 0 0 0 0 0 0 0 
0 0 0 0 0 0 0 0 0 0 0 0 0 0 0 0 0 0 0 0 0 0 0 0 4 1 4 3 4 47 74 52 39 58 39 34 79 88 46 4 2 1 0 0 0 0 0 1 2 2 2 0 1 1 2 2 4 3 2 3 7 85 85 54 45 53 94 163 163 94 53 45 54 85 85 7 3 2 3 4 2 2 1 1 0 2 2 2 1 0 0 0 0 0 1 2 4 46 88 79 34 39 58 39 52 74 47 4 3 4 1 4 0 0 0 0 0 0 0 0 0 0 0 0 0 0 0 0 0 0 0 0 0 0 0 0 
0 0 0 0 0 0 0 0 0 0 0 0 0 0 0 0 0 0 0 0 0 0 0 0 9 1 4 3 4 40 65 68 57 30 39 45 49 87 86 10 2 1 0 0 0 0 1 1 2 2 1 0 1 1 1 1 3 7 9 7 4 90 84 56 55 60 102 151 151 102 60 55 56 84 90 4 7 9 7 3 1 1 1 1 0 1 2 2 1 1 0 0 0 0 1 2 10 86 87 49 45 39 30 57 68 65 40 4 3 4 1 9 0 0 0 0 0 0 0 0 0 0 0 0 0 0 0 0 0 0 0 0 0 0 0 0 
0 0 0 0 0 0 0 0 0 0 0 0 0 0 0 0 0 0 0 0 0 0 0 0 0 7 2 2 8 42 74 68 54 34 21 29 49 65 77 87 2 6 5 6 9 1 1 18 2 2 1 7 1 13 1 1 4 22 2 4 20 91 79 60 45 126 151 122 122 151 126 45 60 79 91 20 4 2 22 4 1 1 13 1 7 1 2 2 18 1 1 9 6 5 6 2 87 77 65 49 29 21 34 54 68 74 42 8 2 2 7 0 0 0 0 0 0 0 0 0 0 0 0 0 0 0 0 0 0 0 0 0 0 0 0 0 
0 0 0 0 0 0 0 0 0 0 0 0 0 0 0 0 0 0 0 0 0 0 0 0 0 6 1 2 8 39 72 67 56 51 47 45 44 52 75 94 45 20 1 1 3 7 16 2 9 16 1 1 2 3 2 13 4 4 2 24 8 104 89 61 106 126 125 101 101 125 126 106 61 89 104 8 24 2 4 4 13 2 3 2 1 1 16 9 2 16 7 3 1 1 20 45 94 75 52 44 45 47 51 56 67 72 39 8 2 1 6 0 0 0 0 0 0 0 0 0 0 0 0 0 0 0 0 0 0 0 0 0 0 0 0 0 
0 0 0 0 0 0 0 0 0 0 0 0 0 0 0 0 0 0 0 0 0 0 0 0 0 6 1 2 6 34 69 66 62 60 56 45 28 27 53 79 92 32 2 20 3 1 13 14 2 4 6 1 19 2 2 2 6 7 13 15 10 88 84 105 149 122 95 87 87 95 122 149 105 84 88 10 15 13 7 6 2 2 2 19 1 6 4 2 14 13 1 3 20 2 32 92 79 53 27 28 45 56 60 62 66 69 34 6 2 1 6 0 0 0 0 0 0 0 0 0 0 0 0 0 0 0 0 0 0 0 0 0 0 0 0 0 
0 0 0 0 0 0 0 0 0 0 0 0 0 0 0 0 0 0 0 0 0 0 0 0 0 3 1 2 4 26 63 65 80 71 62 54 45 43 55 71 106 86 7 13 3 5 13 2 10 2 6 2 3 3 7 12 3 5 3 10 24 80 134 175 150 110 80 83 83 80 110 150 175 134 80 24 10 3 5 3 12 7 3 3 2 6 2 10 2 13 5 3 13 7 86 106 71 55 43 45 54 62 71 80 65 63 26 4 2 1 3 0 0 0 0 0 0 0 0 0 0 0 0 0 0 0 0 0 0 0 0 0 0 0 0 0 
0 0 0 0 0 0 0 0 0 0 0 0 0 0 0 0 0 0 0 0 0 0 0 0 1 2 1 4 2 18 57 63 76 67 60 57 54 52 61 72 95 109 79 44 20 5 4 7 11 4 26 27 16 5 19 4 21 7 4 20 10 84 173 173 135 110 90 89 89 90 110 135 173 173 84 10 20 4 7 21 4 19 5 16 27 26 4 11 7 4 5 20 44 79 109 95 72 61 52 54 57 60 67 76 63 57 18 2 4 1 2 1 0 0 0 0 0 0 0 0 0 0 0 0 0 0 0 0 0 0 0 0 0 0 0 0 
0 0 0 0 0 0 0 0 0 0 0 0 0 0 0 0 0 0 0 0 0 0 0 0 1 1 1 5 2 10 51 62 62 59 57 51 39 32 47 65 83 100 107 83 100 50 45 75 94 98 118 122 118 114 106 70 25 34 6 38 28 131 182 171 139 132 121 111 111 121 132 139 171 182 131 28 38 6 34 25 70 106 114 118 122 118 98 94 75 45 50 100 83 107 100 83 65 47 32 39 51 57 59 62 62 51 10 2 5 1 1 1 0 0 0 0 0 0 0 0 0 0 0 0 0 0 0 0 0 0 0 0 0 0 0 0 
0 0 0 0 0 0 0 0 0 0 0 0 0 0 0 0 0 0 0 0 0 0 0 0 1 0 1 6 2 5 46 61 66 64 62 54 41 37 53 74 90 95 103 82 113 119 106 99 103 115 117 115 113 117 111 104 108 106 105 84 92 123 153 142 139 137 132 125 125 132 137 139 142 153 123 92 84 105 106 108 104 111 117 113 115 117 115 103 99 106 119 113 82 103 95 90 74 53 37 41 54 62 64 66 61 46 5 2 6 1 0 1 0 0 0 0 0 0 0 0 0 0 0 0 0 0 0 0 0 0 0 0 0 0 0 0 
0 0 0 0 0 0 0 0 0 0 0 0 0 0 0 0 0 0 0 0 0 0 0 0 2 0 1 7 3 4 44 61 65 56 49 47 48 53 68 83 102 94 101 106 90 110 98 123 91 117 109 99 104 114 107 113 114 66 122 96 107 108 158 147 115 112 116 122 122 116 112 115 147 158 108 107 96 122 66 114 113 107 114 104 99 109 117 91 123 98 110 90 106 101 94 102 83 68 53 48 47 49 56 65 61 44 4 3 7 1 0 2 0 0 0 0 0 0 0 0 0 0 0 0 0 0 0 0 0 0 0 0 0 0 0 0 
0 0 0 0 0 0 0 0 0 0 0 0 0 0 0 0 0 0 0 0 0 0 0 0 1 1 0 13 3 4 46 48 64 73 73 72 80 86 86 87 77 107 103 94 110 116 127 127 95 106 120 112 109 123 88 127 127 106 116 107 108 101 116 171 155 115 91 105 105 91 115 155 171 116 101 108 107 116 106 127 127 88 123 109 112 120 106 95 127 127 116 110 94 103 107 77 87 86 86 80 72 73 73 64 48 46 4 3 13 0 1 1 0 0 0 0 0 0 0 0 0 0 0 0 0 0 0 0 0 0 0 0 0 0 0 0 
0 0 0 0 0 0 0 0 0 0 0 0 0 0 0 0 0 0 0 0 0 0 0 0 1 1 1 9 3 5 48 52 54 70 81 79 72 65 61 58 52 96 113 117 119 113 124 126 93 115 121 122 116 110 77 116 127 119 124 106 96 90 98 138 146 149 135 111 111 135 149 146 138 98 90 96 106 124 119 127 116 77 110 116 122 121 115 93 126 124 113 119 117 113 96 52 58 61 65 72 79 81 70 54 52 48 5 3 9 1 1 1 0 0 0 0 0 0 0 0 0 0 0 0 0 0 0 0 0 0 0 0 0 0 0 0 
0 0 0 0 0 0 0 0 0 0 0 0 0 0 0 0 0 0 0 0 0 0 0 0 3 1 1 4 3 8 49 60 75 67 74 79 62 49 68 89 115 112 109 106 103 98 121 128 100 108 115 122 122 122 105 122 130 108 103 103 117 119 113 122 103 135 148 137 137 148 135 103 122 113 119 117 103 103 108 130 122 105 122 122 122 115 108 100 128 121 98 103 106 109 112 115 89 68 49 62 79 74 67 75 60 49 8 3 4 1 1 3 0 0 0 0 0 0 0 0 0 0 0 0 0 0 0 0 0 0 0 0 0 0 0 0 
0 0 0 0 0 0 0 0 0 0 0 0 0 0 0 0 0 0 0 0 0 0 0 0 3 1 1 2 3 9 44 66 88 81 76 66 55 73 101 111 105 99 106 111 110 109 120 128 114 98 125 124 123 123 77 108 132 109 95 103 109 106 120 179 117 115 130 153 153 130 115 117 179 120 106 109 103 95 109 132 108 77 123 123 124 125 98 114 128 120 109 110 111 106 99 105 111 101 73 55 66 76 81 88 66 44 9 3 2 1 1 3 0 0 0 0 0 0 0 0 0 0 0 0 0 0 0 0 0 0 0 0 0 0 0 0 
0 0 0 0 0 0 0 0 0 0 0 0 0 0 0 0 0 0 0 0 0 0 0 0 1 1 5 2 3 6 32 66 77 92 86 59 65 100 109 95 90 95 107 103 101 112 119 127 112 68 122 124 122 118 94 125 122 108 100 109 103 91 114 190 176 150 131 143 143 131 150 176 190 114 91 103 109 100 108 122 125 94 118 122 124 122 68 112 127 119 112 101 103 107 95 90 95 109 100 65 59 86 92 77 66 32 6 3 2 5 1 1 0 0 0 0 0 0 0 0 0 0 0 0 0 0 0 0 0 0 0 0 0 0 0 0 
0 0 0 0 0 0 0 0 0 0 0 0 0 0 0 0 0 0 0 0 0 0 0 0 1 1 7 1 3 5 14 56 84 85 73 70 90 101 97 91 102 110 115 107 112 121 99 99 127 93 108 124 123 98 114 127 99 110 105 108 113 113 109 152 181 175 155 132 132 155 175 181 152 109 113 113 108 105 110 99 127 114 98 123 124 108 93 127 99 99 121 112 107 115 110 102 91 97 101 90 70 73 85 84 56 14 5 3 1 7 1 1 0 0 0 0 0 0 0 0 0 0 0 0 0 0 0 0 0 0 0 0 0 0 0 0 
0 0 0 0 0 0 0 0 0 0 0 0 0 0 0 0 0 0 0 0 0 0 0 0 1 1 4 1 7 6 5 37 101 87 62 75 101 96 88 106 113 113 106 92 118 127 93 66 126 104 93 124 126 95 122 111 87 126 124 96 93 108 103 128 144 171 168 135 135 168 171 144 128 103 108 93 96 124 126 87 111 122 95 126 124 93 104 126 66 93 127 118 92 106 113 113 106 88 96 101 75 62 87 101 37 5 6 7 1 4 1 1 0 0 0 0 0 0 0 0 0 0 0 0 0 0 0 0 0 0 0 0 0 0 0 0 
0 0 0 0 0 0 0 0 0 0 0 0 0 0 0 0 0 0 0 0 0 0 0 1 4 1 1 1 10 8 5 23 102 106 80 65 96 102 94 104 107 108 96 78 117 127 92 65 124 115 104 120 120 97 126 94 65 129 128 87 84 110 106 114 145 170 168 140 140 168 170 145 114 106 110 84 87 128 129 65 94 126 97 120 120 104 115 124 65 92 127 117 78 96 108 107 104 94 102 96 65 80 106 102 23 5 8 10 1 1 1 4 1 0 0 0 0 0 0 0 0 0 0 0 0 0 0 0 0 0 0 0 0 0 0 0 
0 0 0 0 0 0 0 0 1 1 0 0 0 0 0 0 1 1 1 1 1 1 1 1 3 2 3 1 2 4 7 28 114 88 79 94 96 84 99 116 120 120 113 71 109 127 77 67 103 114 103 110 115 104 117 88 56 125 114 85 97 109 122 108 131 171 204 163 163 204 171 131 108 122 109 97 85 114 125 56 88 117 104 115 110 103 114 103 67 77 127 109 71 113 120 120 116 99 84 96 94 79 88 114 28 7 4 2 1 3 2 3 1 1 1 1 1 1 1 1 0 0 0 0 0 0 1 1 0 0 0 0 0 0 0 0 
0 0 0 0 0 0 0 0 1 1 0 0 0 0 0 0 1 1 1 1 1 1 1 1 4 2 8 4 3 7 10 38 109 91 66 94 101 99 94 86 91 99 107 92 107 125 94 59 93 101 102 106 109 96 100 76 58 123 103 72 105 115 115 99 102 154 200 176 176 200 154 102 99 115 115 105 72 103 123 58 76 100 96 109 106 102 101 93 59 94 125 107 92 107 99 91 86 94 99 101 94 66 91 109 38 10 7 3 4 8 2 4 1 1 1 1 1 1 1 1 0 0 0 0 0 0 1 1 0 0 0 0 0 0 0 0 
0 0 0 0 0 0 0 0 0 0 0 0 0 0 0 0 0 0 1 1 1 1 1 1 2 2 6 3 3 4 9 44 89 97 72 99 108 90 65 82 71 76 81 55 39 77 79 87 98 95 100 93 97 92 93 88 80 83 57 64 66 54 78 82 88 165 193 149 149 193 165 88 82 78 54 66 64 57 83 80 88 93 92 97 93 100 95 98 87 79 77 39 55 81 76 71 82 65 90 108 99 72 97 89 44 9 4 3 3 6 2 2 1 1 1 1 1 1 0 0 0 0 0 0 0 0 0 0 0 0 0 0 0 0 0 0 
0 0 0 0 0 0 0 0 0 0 0 0 0 0 0 0 0 0 1 1 1 1 1 1 2 2 3 1 2 3 7 55 84 88 83 87 105 115 111 114 124 123 127 124 91 69 59 71 100 100 97 82 94 95 99 91 52 53 83 118 123 118 107 69 51 171 197 149 149 197 171 51 69 107 118 123 118 83 53 52 91 99 95 94 82 97 100 100 71 59 69 91 124 127 123 124 114 111 115 105 87 83 88 84 55 7 3 2 1 3 2 2 1 1 1 1 1 1 0 0 0 0 0 0 0 0 0 0 0 0 0 0 0 0 0 0 
0 0 0 0 0 0 0 0 0 0 0 0 0 0 0 0 0 0 0 0 0 0 0 1 2 3 7 3 6 4 11 73 103 69 120 127 126 109 106 125 125 124 113 90 124 123 51 61 85 102 94 86 102 96 92 56 62 121 122 107 113 124 128 128 117 201 192 161 161 192 201 117 128 128 124 113 107 122 121 62 56 92 96 102 86 94 102 85 61 51 123 124 90 113 124 125 125 106 109 126 127 120 69 103 73 11 4 6 3 7 3 2 1 0 0 0 0 0 0 0 0 0 0 0 0 0 0 0 0 0 0 0 0 0 0 0 
0 0 0 0 0 0 0 0 0 0 0 0 0 0 0 0 0 0 0 1 0 1 0 0 2 4 4 2 6 4 19 89 94 120 126 106 79 59 58 116 104 106 127 122 114 122 100 32 76 103 97 90 103 88 75 28 104 117 114 110 102 105 120 116 79 179 201 236 236 201 179 79 116 120 105 102 110 114 117 104 28 75 88 103 90 97 103 76 32 100 122 114 122 127 106 104 116 58 59 79 106 126 120 94 89 19 4 6 2 4 4 2 0 0 1 0 1 0 0 0 0 0 0 0 0 0 0 0 0 0 0 0 0 0 0 0 
0 0 0 0 0 0 0 0 0 0 0 0 0 0 1 1 1 1 1 1 1 1 1 1 0 2 1 2 6 4 30 102 107 126 111 93 92 85 43 94 84 81 122 114 89 114 113 25 74 95 102 93 101 81 58 45 116 80 100 126 107 67 108 85 53 155 179 235 235 179 155 53 85 108 67 107 126 100 80 116 45 58 81 101 93 102 95 74 25 113 114 89 114 122 81 84 94 43 85 92 93 111 126 107 102 30 4 6 2 1 2 0 1 1 1 1 1 1 1 1 1 1 0 0 0 0 0 0 0 0 0 0 0 0 0 0 
0 0 0 0 0 0 0 0 0 0 0 0 0 0 1 1 1 1 1 1 1 2 1 1 3 7 2 2 11 10 43 111 117 123 97 120 95 99 77 50 105 67 63 60 87 118 121 44 62 79 107 98 103 83 46 69 126 86 38 89 61 59 108 41 82 190 186 220 220 186 190 82 41 108 59 61 89 38 86 126 69 46 83 103 98 107 79 62 44 121 118 87 60 63 67 105 50 77 99 95 120 97 123 117 111 43 10 11 2 2 7 3 1 1 2 1 1 1 1 1 1 1 0 0 0 0 0 0 0 0 0 0 0 0 0 0 
0 0 0 0 0 0 0 0 1 1 0 0 0 0 1 1 1 1 1 2 11 4 2 8 9 2 2 3 21 46 83 110 127 101 59 101 109 96 110 101 56 92 87 103 107 118 125 82 84 97 102 101 106 77 57 115 125 114 81 58 93 98 62 70 147 188 230 200 200 230 188 147 70 62 98 93 58 81 114 125 115 57 77 106 101 102 97 84 82 125 118 107 103 87 92 56 101 110 96 109 101 59 101 127 110 83 46 21 3 2 2 9 8 2 4 11 2 1 1 1 1 1 0 0 0 0 1 1 0 0 0 0 0 0 0 0 
0 0 0 0 0 0 0 0 1 1 0 0 0 0 1 1 1 12 10 2 2 2 4 12 2 21 51 75 86 87 99 115 111 70 41 78 88 96 105 106 93 88 67 45 42 97 122 113 97 91 94 91 94 91 92 116 100 83 87 83 65 67 88 107 141 206 232 165 165 232 206 141 107 88 67 65 83 87 83 100 116 92 91 94 91 94 91 97 113 122 97 42 45 67 88 93 106 105 96 88 78 41 70 111 115 99 87 86 75 51 21 2 12 4 2 2 2 10 12 1 1 1 0 0 0 0 1 1 0 0 0 0 0 0 0 0 
0 0 0 0 0 0 0 0 1 1 1 1 0 0 1 1 1 6 4 2 5 4 3 5 51 76 99 109 110 104 108 119 77 76 69 68 74 109 102 97 113 101 104 80 61 97 111 114 104 81 78 73 73 97 109 109 107 66 35 65 85 97 104 97 110 230 186 106 106 186 230 110 97 104 97 85 65 35 66 107 109 109 97 73 73 78 81 104 114 111 97 61 80 104 101 113 97 102 109 74 68 69 76 77 119 108 104 110 109 99 76 51 5 3 4 5 2 4 6 1 1 1 0 0 1 1 1 1 0 0 0 0 0 0 0 0 
0 0 0 0 0 0 0 0 1 1 1 1 0 1 1 1 2 2 2 3 6 4 23 56 103 110 115 116 114 107 108 116 60 82 61 61 63 105 106 112 111 100 110 103 91 105 112 119 115 95 84 80 85 108 117 111 110 111 94 99 108 101 105 110 115 222 149 132 132 149 222 115 110 105 101 108 99 94 111 110 111 117 108 85 80 84 95 115 119 112 105 91 103 110 100 111 112 106 105 63 61 61 82 60 116 108 107 114 116 115 110 103 56 23 4 6 3 2 2 2 1 1 1 0 1 1 1 1 0 0 0 0 0 0 0 0 
0 0 0 0 0 0 0 0 1 1 1 1 0 1 1 1 3 12 5 3 3 35 83 112 115 118 119 120 119 112 105 106 85 106 83 96 72 56 61 87 103 96 96 99 93 97 114 120 118 107 90 87 99 112 119 118 103 106 91 96 106 102 99 83 78 139 145 98 98 145 139 78 83 99 102 106 96 91 106 103 118 119 112 99 87 90 107 118 120 114 97 93 99 96 96 103 87 61 56 72 96 83 106 85 106 105 112 119 120 119 118 115 112 83 35 3 3 5 12 3 1 1 1 0 1 1 1 1 0 0 0 0 0 0 0 0 
0 0 0 0 0 0 0 0 1 1 1 1 0 1 1 2 2 8 3 4 56 101 116 119 121 122 122 122 121 113 101 97 102 124 118 120 104 85 92 98 95 99 89 96 88 84 113 118 116 109 84 82 100 110 117 119 93 85 96 102 82 91 111 100 84 169 174 146 146 174 169 84 100 111 91 82 102 96 85 93 119 117 110 100 82 84 109 116 118 113 84 88 96 89 99 95 98 92 85 104 120 118 124 102 97 101 113 121 122 122 122 121 119 116 101 56 4 3 8 2 2 1 1 0 1 1 1 1 0 0 0 0 0 0 0 0 
0 0 0 0 0 0 0 0 1 1 1 1 0 1 1 2 2 2 4 59 110 123 121 117 124 125 124 122 118 108 98 97 119 124 117 107 92 86 87 77 84 100 96 97 85 82 113 121 119 112 90 91 104 113 119 114 89 68 96 104 80 82 99 99 103 200 200 212 212 200 200 103 99 99 82 80 104 96 68 89 114 119 113 104 91 90 112 119 121 113 82 85 97 96 100 84 77 87 86 92 107 117 124 119 97 98 108 118 122 124 125 124 117 121 123 110 59 4 2 2 2 1 1 0 1 1 1 1 0 0 0 0 0 0 0 0 
0 0 0 0 0 0 0 0 1 1 1 0 0 1 1 2 9 3 34 101 123 122 120 124 123 125 125 122 117 105 96 98 121 108 109 119 122 112 86 79 82 111 121 121 108 92 104 110 122 114 97 99 103 115 120 99 91 91 117 122 113 92 67 89 114 174 223 241 241 223 174 114 89 67 92 113 122 117 91 91 99 120 115 103 99 97 114 122 110 104 92 108 121 121 111 82 79 86 112 122 119 109 108 121 98 96 105 117 122 125 125 123 124 120 122 123 101 34 3 9 2 1 1 0 0 1 1 1 0 0 0 0 0 0 0 0 
0 0 0 0 0 0 0 0 0 3 0 2 2 1 8 5 5 14 86 120 121 119 124 126 126 126 123 115 114 122 105 99 89 117 108 88 82 77 77 64 64 78 78 85 97 84 60 64 115 128 116 109 126 118 77 72 84 111 104 97 86 98 98 118 137 171 225 238 238 225 171 137 118 98 98 86 97 104 111 84 72 77 118 126 109 116 128 115 64 60 84 97 85 78 78 64 64 77 77 82 88 108 117 89 99 105 122 114 115 123 126 126 126 124 119 121 120 86 14 5 5 8 1 2 2 0 3 0 0 0 0 0 0 0 0 0 
0 0 0 0 0 0 0 0 1 5 1 1 2 1 4 3 8 88 122 123 121 125 127 126 125 123 121 114 121 123 110 99 102 71 94 94 86 89 61 54 47 82 103 113 120 114 88 60 52 105 127 127 115 82 58 64 96 111 114 136 118 133 136 142 137 135 162 195 195 162 135 137 142 136 133 118 136 114 111 96 64 58 82 115 127 127 105 52 60 88 114 120 113 103 82 47 54 61 89 86 94 94 71 102 99 110 123 121 114 121 123 125 126 127 125 121 123 122 88 8 3 4 1 2 1 1 5 1 0 0 0 0 0 0 0 0 
0 0 0 0 0 0 0 0 0 6 4 1 2 2 1 4 45 108 125 124 121 124 125 125 125 122 122 118 124 121 112 104 94 68 69 95 97 88 74 35 37 70 93 98 90 75 64 60 73 61 116 118 72 60 66 69 110 134 149 127 72 85 130 174 158 155 147 153 153 147 155 158 174 130 85 72 127 149 134 110 69 66 60 72 118 116 61 73 60 64 75 90 98 93 70 37 35 74 88 97 95 69 68 94 104 112 121 124 118 122 122 125 125 125 124 121 124 125 108 45 4 1 2 2 1 4 6 0 0 0 0 0 0 0 0 0 
0 0 0 0 0 0 0 0 0 5 5 1 2 2 2 22 101 117 122 124 126 125 123 125 124 122 123 120 118 107 104 106 112 118 86 62 76 84 99 91 53 46 68 93 94 83 82 88 79 71 105 102 79 75 99 122 168 195 162 97 89 101 117 153 183 177 148 135 135 148 177 183 153 117 101 89 97 162 195 168 122 99 75 79 102 105 71 79 88 82 83 94 93 68 46 53 91 99 84 76 62 86 118 112 106 104 107 118 120 123 122 124 125 123 125 126 124 122 117 101 22 2 2 2 1 5 5 0 0 0 0 0 0 0 0 0 
0 0 0 0 0 0 0 0 0 0 5 1 1 2 4 57 115 123 122 122 126 127 124 123 124 124 121 122 111 104 107 115 121 124 121 85 70 87 89 114 104 71 53 76 90 85 70 57 79 102 110 114 121 124 128 117 139 157 123 87 135 176 192 206 212 168 115 149 149 115 168 212 206 192 176 135 87 123 157 139 117 128 124 121 114 110 102 79 57 70 85 90 76 53 71 104 114 89 87 70 85 121 124 121 115 107 104 111 122 121 124 124 123 124 127 126 122 122 123 115 57 4 2 1 1 5 0 0 0 0 0 0 0 0 0 0 
0 0 0 0 0 0 0 0 0 0 5 1 1 3 20 94 114 122 122 123 126 126 122 122 124 123 118 121 112 114 118 121 118 113 123 124 102 71 75 91 96 91 79 61 57 68 83 93 118 110 104 135 179 199 184 117 105 77 88 107 143 188 218 219 194 157 125 183 183 125 157 194 219 218 188 143 107 88 77 105 117 184 199 179 135 104 110 118 93 83 68 57 61 79 91 96 91 75 71 102 124 123 113 118 121 118 114 112 121 118 123 124 122 122 126 126 123 122 122 114 94 20 3 1 1 5 0 0 0 0 0 0 0 0 0 0 
0 0 0 0 0 0 0 0 3 0 7 1 4 5 38 117 120 121 123 126 127 123 121 126 121 121 117 117 112 113 120 116 122 118 115 126 118 88 93 76 70 100 106 89 66 45 46 67 71 70 91 118 149 183 192 162 131 97 126 154 173 198 214 198 167 164 145 206 206 145 164 167 198 214 198 173 154 126 97 131 162 192 183 149 118 91 70 71 67 46 45 66 89 106 100 70 76 93 88 118 126 115 118 122 116 120 113 112 117 117 121 121 126 121 123 127 126 123 121 120 117 38 5 4 1 7 0 3 0 0 0 0 0 0 0 0 
0 0 0 0 0 0 0 0 7 0 9 1 6 8 50 124 122 123 124 126 126 123 123 127 122 124 124 120 117 112 122 113 125 125 123 122 127 127 102 80 88 96 95 103 112 97 60 51 70 104 119 71 66 120 147 183 185 200 211 183 162 157 185 181 220 185 144 231 231 144 185 220 181 185 157 162 183 211 200 185 183 147 120 66 71 119 104 70 51 60 97 112 103 95 96 88 80 102 127 127 122 123 125 125 113 122 112 117 120 124 124 122 127 123 123 126 126 124 123 122 124 50 8 6 1 9 0 7 0 0 0 0 0 0 0 0 
0 0 0 0 0 0 0 0 1 0 10 1 8 6 109 121 122 120 125 125 125 123 125 123 122 123 118 124 119 104 117 107 120 127 125 123 116 123 125 123 102 99 92 95 104 106 129 176 188 176 125 120 119 147 177 202 216 194 182 178 174 164 199 221 249 163 160 231 231 160 163 249 221 199 164 174 178 182 194 216 202 177 147 119 120 125 176 188 176 129 106 104 95 92 99 102 123 125 123 116 123 125 127 120 107 117 104 119 124 118 123 122 123 125 123 125 125 125 120 122 121 109 6 8 1 10 0 1 0 0 0 0 0 0 0 0 
0 0 0 0 0 0 0 0 2 1 8 1 4 34 113 121 123 121 125 125 125 122 124 121 122 122 126 119 126 110 107 114 127 129 130 125 122 118 127 125 122 121 110 108 112 107 142 190 207 201 192 180 177 168 183 201 194 188 190 200 205 204 218 227 223 164 177 247 247 177 164 223 227 218 204 205 200 190 188 194 201 183 168 177 180 192 201 207 190 142 107 112 108 110 121 122 125 127 118 122 125 130 129 127 114 107 110 126 119 126 122 122 121 124 122 125 125 125 121 123 121 113 34 4 1 8 1 2 0 0 0 0 0 0 0 0 
0 0 0 0 0 0 0 0 2 1 5 2 3 76 120 121 124 122 125 124 123 120 123 123 125 126 122 119 119 122 113 124 112 112 125 126 129 127 122 117 129 124 125 142 172 165 146 145 163 190 206 201 213 201 210 220 225 223 225 231 229 228 228 227 235 191 167 243 243 167 191 235 227 228 228 229 231 225 223 225 220 210 201 213 201 206 190 163 145 146 165 172 142 125 124 129 117 122 127 129 126 125 112 112 124 113 122 119 119 122 126 125 123 123 120 123 124 125 122 124 121 120 76 3 2 5 1 2 0 0 0 0 0 0 0 0 
0 0 0 0 0 0 0 0 1 2 0 4 4 105 124 122 125 123 122 119 117 117 122 124 123 124 122 117 118 116 123 109 113 110 121 127 128 129 126 126 124 127 189 240 240 198 170 196 185 204 207 204 218 212 214 226 244 244 245 245 233 231 229 232 243 194 167 239 239 167 194 243 232 229 231 233 245 245 244 244 226 214 212 218 204 207 204 185 196 170 198 240 240 189 127 124 126 126 129 128 127 121 110 113 109 123 116 118 117 122 124 123 124 122 117 117 119 122 123 125 122 124 105 4 4 0 2 1 0 0 0 0 0 0 0 0 
0 0 0 0 0 0 0 0 1 2 0 2 8 117 124 121 124 123 120 118 115 116 119 123 125 125 124 122 119 116 121 112 107 108 120 125 124 129 131 136 143 225 248 248 245 246 235 199 221 218 208 213 220 221 221 234 238 239 242 243 230 225 229 243 243 193 177 216 216 177 193 243 243 229 225 230 243 242 239 238 234 221 221 220 213 208 218 221 199 235 246 245 248 248 225 143 136 131 129 124 125 120 108 107 112 121 116 119 122 124 125 125 123 119 116 115 118 120 123 124 121 124 117 8 2 0 2 1 0 0 0 0 0 0 0 0 
0 0 0 0 0 0 0 1 1 2 0 2 19 120 121 120 123 124 123 123 121 119 116 119 126 126 125 126 122 124 108 127 112 107 115 107 119 126 137 147 217 238 248 250 249 248 244 227 227 219 215 227 225 227 229 239 235 237 239 239 231 227 235 248 247 210 187 164 164 187 210 247 248 235 227 231 239 239 237 235 239 229 227 225 227 215 219 227 227 244 248 249 250 248 238 217 147 137 126 119 107 115 107 112 127 108 124 122 126 125 126 126 119 116 119 121 123 123 124 123 120 121 120 19 2 0 2 1 1 0 0 0 0 0 0 0 
0 0 0 0 0 0 0 1 1 3 0 2 39 122 119 122 121 124 123 125 124 122 113 114 116 115 126 125 128 124 105 118 127 122 114 102 113 132 160 172 199 228 248 252 250 250 249 248 243 232 231 235 228 223 226 231 245 246 241 231 232 236 245 251 249 222 191 175 175 191 222 249 251 245 236 232 231 241 246 245 231 226 223 228 235 231 232 243 248 249 250 250 252 248 228 199 172 160 132 113 102 114 122 127 118 105 124 128 125 126 115 116 114 113 122 124 125 123 124 121 122 119 122 39 2 0 3 1 1 0 0 0 0 0 0 0 
0 0 0 0 0 0 0 1 2 2 4 2 54 124 119 124 116 122 121 125 124 122 109 109 119 120 120 127 125 127 118 97 107 111 103 119 122 146 179 194 205 209 238 253 253 252 251 246 248 240 239 237 233 231 239 238 247 247 238 219 231 243 250 252 252 224 159 183 183 159 224 252 252 250 243 231 219 238 247 247 238 239 231 233 237 239 240 248 246 251 252 253 253 238 209 205 194 179 146 122 119 103 111 107 97 118 127 125 127 120 120 119 109 109 122 124 125 121 122 116 124 119 124 54 2 4 2 2 1 0 0 0 0 0 0 0 
0 0 0 0 0 0 0 1 3 5 3 1 75 124 118 109 100 106 120 138 124 122 122 114 128 114 119 140 129 138 125 125 112 103 189 215 186 173 173 171 178 224 236 245 253 254 254 250 243 232 219 218 223 227 233 238 238 238 228 241 248 250 251 249 242 212 179 190 190 179 212 242 249 251 250 248 241 228 238 238 238 233 227 223 218 219 232 243 250 254 254 253 245 236 224 178 171 173 173 186 215 189 103 112 125 125 138 129 140 119 114 128 114 122 122 124 138 120 106 100 109 118 124 75 1 3 5 3 1 0 0 0 0 0 0 0 
0 0 0 0 0 0 0 1 2 2 1 2 63 120 112 107 122 129 126 125 126 126 137 128 111 141 129 99 123 131 145 135 163 195 229 234 229 213 195 182 188 192 205 235 250 253 253 252 251 247 235 220 218 228 237 240 231 238 240 245 247 248 247 241 227 220 207 201 201 207 220 227 241 247 248 247 245 240 238 231 240 237 228 218 220 235 247 251 252 253 253 250 235 205 192 188 182 195 213 229 234 229 195 163 135 145 131 123 99 129 141 111 128 137 126 126 125 126 129 122 107 112 120 63 2 1 2 2 1 0 0 0 0 0 0 0 
0 0 0 0 0 0 0 1 5 2 4 4 46 115 114 115 126 126 130 126 140 128 137 121 118 158 173 191 218 189 188 190 205 204 216 238 248 246 241 228 220 201 206 220 234 246 249 250 251 247 241 234 227 229 238 244 235 247 250 248 245 239 233 226 217 221 214 201 201 214 221 217 226 233 239 245 248 250 247 235 244 238 229 227 234 241 247 251 250 249 246 234 220 206 201 220 228 241 246 248 238 216 204 205 190 188 189 218 191 173 158 118 121 137 128 140 126 130 126 126 115 114 115 46 4 4 2 5 1 0 0 0 0 0 0 0 
0 0 0 0 0 0 0 0 12 4 7 4 31 116 119 120 126 126 117 111 123 128 180 205 187 197 213 216 219 202 198 189 178 174 186 206 225 246 253 249 236 228 220 215 211 229 240 241 244 247 246 241 239 235 232 237 246 250 250 243 232 221 219 224 225 211 208 217 217 208 211 225 224 219 221 232 243 250 250 246 237 232 235 239 241 246 247 244 241 240 229 211 215 220 228 236 249 253 246 225 206 186 174 178 189 198 202 219 216 213 197 187 205 180 128 123 111 117 126 126 120 119 116 31 4 7 4 12 0 0 0 0 0 0 0 0 
0 0 0 0 0 0 0 0 2 3 8 3 25 120 120 118 100 99 98 144 174 199 221 234 231 203 213 213 213 198 214 229 207 200 203 189 192 228 244 248 246 241 229 228 219 223 237 229 236 234 237 240 240 241 238 235 245 242 237 225 214 212 217 229 218 201 212 233 233 212 201 218 229 217 212 214 225 237 242 245 235 238 241 240 240 237 234 236 229 237 223 219 228 229 241 246 248 244 228 192 189 203 200 207 229 214 198 213 213 213 203 231 234 221 199 174 144 98 99 100 118 120 120 25 3 8 3 2 0 0 0 0 0 0 0 0 
0 0 0 0 0 0 0 0 1 10 11 6 36 124 118 109 90 127 150 213 212 207 202 216 245 222 216 217 221 199 185 228 238 236 230 209 216 226 214 233 245 244 236 234 235 242 248 239 230 229 229 235 243 247 247 244 235 225 219 213 216 220 222 229 214 205 207 221 221 207 205 214 229 222 220 216 213 219 225 235 244 247 247 243 235 229 229 230 239 248 242 235 234 236 244 245 233 214 226 216 209 230 236 238 228 185 199 221 217 216 222 245 216 202 207 212 213 150 127 90 109 118 124 36 6 11 10 1 0 0 0 0 0 0 0 0 
0 0 0 0 0 0 0 0 1 14 3 7 44 125 111 104 119 176 192 188 158 168 197 220 230 239 221 199 212 237 232 237 228 241 243 237 238 230 212 229 239 235 228 224 233 245 252 251 233 232 228 225 231 239 241 239 230 219 219 217 223 229 226 226 207 200 193 201 201 193 200 207 226 226 229 223 217 219 219 230 239 241 239 231 225 228 232 233 251 252 245 233 224 228 235 239 229 212 230 238 237 243 241 228 237 232 237 212 199 221 239 230 220 197 168 158 188 192 176 119 104 111 125 44 7 3 14 1 0 0 0 0 0 0 0 0 
0 0 0 0 0 0 0 0 1 10 2 3 39 122 104 106 222 231 211 179 195 215 209 175 181 204 181 177 202 223 223 224 237 239 241 247 250 245 239 232 235 222 212 218 219 207 231 252 244 234 226 230 237 240 241 243 233 224 225 220 225 231 229 225 201 202 203 213 213 203 202 201 225 229 231 225 220 225 224 233 243 241 240 237 230 226 234 244 252 231 207 219 218 212 222 235 232 239 245 250 247 241 239 237 224 223 223 202 177 181 204 181 175 209 215 195 179 211 231 222 106 104 122 39 3 2 10 1 0 0 0 0 0 0 0 0 
0 0 0 0 0 0 0 0 1 1 8 6 22 99 89 218 247 223 204 217 237 226 205 184 180 179 178 167 168 190 208 227 224 236 238 245 250 253 244 248 248 243 234 234 233 223 215 234 251 241 234 222 228 246 243 236 240 222 216 220 222 240 235 208 188 186 209 239 239 209 186 188 208 235 240 222 220 216 222 240 236 243 246 228 222 234 241 251 234 215 223 233 234 234 243 248 248 244 253 250 245 238 236 224 227 208 190 168 167 178 179 180 184 205 226 237 217 204 223 247 218 89 99 22 6 8 1 1 0 0 0 0 0 0 0 0 
0 0 0 0 0 0 0 0 13 20 10 2 4 72 204 248 240 207 223 248 247 220 203 203 208 177 177 172 157 202 189 210 183 197 225 246 251 253 246 252 251 249 242 240 236 220 201 209 240 242 243 233 226 235 238 242 243 231 222 215 225 239 229 194 184 194 203 228 228 203 194 184 194 229 239 225 215 222 231 243 242 238 235 226 233 243 242 240 209 201 220 236 240 242 249 251 252 246 253 251 246 225 197 183 210 189 202 157 172 177 177 208 203 203 220 247 248 223 207 240 248 204 72 4 2 10 20 13 0 0 0 0 0 0 0 0 
0 0 0 0 0 0 0 0 13 9 1 18 17 139 241 248 239 238 248 248 213 202 213 204 219 151 163 160 157 202 187 190 174 161 182 215 236 244 243 248 247 244 242 241 241 237 227 216 225 244 244 234 224 221 224 233 242 236 232 217 231 232 220 190 201 219 213 222 222 213 219 201 190 220 232 231 217 232 236 242 233 224 221 224 234 244 244 225 216 227 237 241 241 242 244 247 248 243 244 236 215 182 161 174 190 187 202 157 160 163 151 219 204 213 202 213 248 248 238 239 248 241 139 17 18 1 9 13 0 0 0 0 0 0 0 0 
0 0 0 0 0 0 0 1 3 1 8 33 44 187 249 249 243 246 250 249 211 200 214 224 211 151 177 161 189 194 195 196 204 186 162 159 200 220 212 195 208 223 235 240 244 249 245 231 224 247 246 237 232 231 235 237 238 235 222 190 198 204 209 205 219 232 228 228 228 228 232 219 205 209 204 198 190 222 235 238 237 235 231 232 237 246 247 224 231 245 249 244 240 235 223 208 195 212 220 200 159 162 186 204 196 195 194 189 161 177 151 211 224 214 200 211 249 250 246 243 249 249 187 44 33 8 1 3 1 0 0 0 0 0 0 0 
0 0 0 0 0 0 0 1 13 2 8 7 88 205 253 252 249 250 248 246 224 212 213 230 189 182 190 172 204 194 201 215 227 220 177 143 193 223 209 178 201 205 208 208 210 219 220 212 207 231 242 244 245 247 248 241 224 207 174 147 181 193 210 222 227 235 233 232 232 233 235 227 222 210 193 181 147 174 207 224 241 248 247 245 244 242 231 207 212 220 219 210 208 208 205 201 178 209 223 193 143 177 220 227 215 201 194 204 172 190 182 189 230 213 212 224 246 248 250 249 252 253 205 88 7 8 2 13 1 0 0 0 0 0 0 0 
0 0 0 0 0 0 0 1 3 7 1 0 145 218 253 251 250 249 246 243 234 221 211 219 199 214 193 184 219 237 225 233 238 227 196 184 205 228 221 210 188 190 195 206 212 208 193 177 180 198 230 244 249 252 244 211 192 183 181 195 227 225 227 236 236 234 233 236 236 233 234 236 236 227 225 227 195 181 183 192 211 244 252 249 244 230 198 180 177 193 208 212 206 195 190 188 210 221 228 205 184 196 227 238 233 225 237 219 184 193 214 199 219 211 221 234 243 246 249 250 251 253 218 145 0 1 7 3 1 0 0 0 0 0 0 0 
0 0 0 0 0 0 0 1 2 22 19 23 128 157 233 250 245 236 247 254 251 227 214 220 195 228 215 207 234 251 232 235 243 225 219 227 208 227 219 210 213 204 197 204 215 212 203 205 194 132 129 128 125 147 151 177 201 211 221 235 249 244 239 245 247 243 239 246 246 239 243 247 245 239 244 249 235 221 211 201 177 151 147 125 128 129 132 194 205 203 212 215 204 197 204 213 210 219 227 208 227 219 225 243 235 232 251 234 207 215 228 195 220 214 227 251 254 247 236 245 250 233 157 128 23 19 22 2 1 0 0 0 0 0 0 0 
0 0 0 0 0 0 0 1 9 2 11 28 139 128 159 207 250 251 255 253 245 236 238 213 198 228 236 217 233 248 228 236 247 228 234 228 167 222 238 237 205 206 211 218 224 217 215 224 203 122 121 115 99 108 122 193 216 227 230 240 248 244 242 248 251 248 245 252 252 245 248 251 248 242 244 248 240 230 227 216 193 122 108 99 115 121 122 203 224 215 217 224 218 211 206 205 237 238 222 167 228 234 228 247 236 228 248 233 217 236 228 198 213 238 236 245 253 255 251 250 207 159 128 139 28 11 2 9 1 0 0 0 0 0 0 0 
0 0 0 0 0 0 0 0 1 3 1 18 85 130 130 130 152 221 251 254 252 246 236 226 227 232 239 211 236 251 228 231 248 247 246 223 113 106 163 239 224 214 217 224 225 230 235 213 141 119 117 121 126 110 145 189 219 227 241 252 249 249 249 250 249 252 253 252 252 253 252 249 250 249 249 249 252 241 227 219 189 145 110 126 121 117 119 141 213 235 230 225 224 217 214 224 239 163 106 113 223 246 247 248 231 228 251 236 211 239 232 227 226 236 246 252 254 251 221 152 130 130 130 85 18 1 3 1 0 0 0 0 0 0 0 0 
0 0 0 0 0 0 0 0 1 1 1 1 44 129 130 130 135 134 143 181 226 246 246 237 239 242 248 229 236 250 235 237 245 249 242 183 103 124 143 167 197 210 202 184 160 138 127 111 106 114 131 116 113 119 189 211 216 227 241 252 250 251 252 255 252 250 250 253 253 250 250 252 255 252 251 250 252 241 227 216 211 189 119 113 116 131 114 106 111 127 138 160 184 202 210 197 167 143 124 103 183 242 249 245 237 235 250 236 229 248 242 239 237 246 246 226 181 143 134 135 130 130 129 44 1 1 1 1 0 0 0 0 0 0 0 0 
0 0 0 0 0 0 0 0 5 3 13 4 23 125 130 130 128 128 133 129 130 154 194 216 251 254 253 252 238 249 229 230 245 247 227 147 94 122 109 89 120 123 108 89 104 103 100 107 123 107 112 118 124 146 208 210 168 149 126 129 142 173 209 231 253 254 253 253 253 253 254 253 231 209 173 142 129 126 149 168 210 208 146 124 118 112 107 123 107 100 103 104 89 108 123 120 89 109 122 94 147 227 247 245 230 229 249 238 252 253 254 251 216 194 154 130 129 133 128 128 130 130 125 23 4 13 3 5 0 0 0 0 0 0 0 0 
0 0 0 0 0 0 0 0 5 1 1 1 1 95 126 130 147 131 128 129 129 130 130 130 134 148 210 205 233 227 244 235 238 212 167 116 114 139 120 123 135 128 120 107 113 112 114 121 120 112 123 129 123 152 206 183 122 126 123 125 126 128 121 115 135 222 251 254 254 251 222 135 115 121 128 126 125 123 126 122 183 206 152 123 129 123 112 120 121 114 112 113 107 120 128 135 123 120 139 114 116 167 212 238 235 244 227 233 205 210 148 134 130 130 130 129 129 128 131 147 130 126 95 1 1 1 1 5 0 0 0 0 0 0 0 0 
0 0 0 0 0 0 0 0 1 9 18 26 8 9 15 58 101 108 120 128 119 111 98 95 46 55 51 77 51 43 52 28 37 45 38 48 39 67 51 59 50 56 35 47 70 71 61 40 36 34 58 50 30 82 124 120 130 137 125 111 112 127 130 130 132 130 154 230 230 154 130 132 130 130 127 112 111 125 137 130 120 124 82 30 50 58 34 36 40 61 71 70 47 35 56 50 59 51 67 39 48 38 45 37 28 52 43 51 77 51 55 46 95 98 111 119 128 120 108 101 58 15 9 8 26 18 9 1 0 0 0 0 0 0 0 0 
0 0 0 0 0 0 0 0 1 6 0 1 1 3 3 20 23 13 10 6 8 4 1 2 12 4 3 10 8 1 24 1 10 1 10 7 8 22 3 5 3 10 19 25 4 5 21 3 20 3 6 8 13 68 134 142 115 122 119 116 119 129 129 129 127 110 71 28 28 71 110 127 129 129 129 119 116 119 122 115 142 134 68 13 8 6 3 20 3 21 5 4 25 19 10 3 5 3 22 8 7 10 1 10 1 24 1 8 10 3 4 12 2 1 4 8 6 10 13 23 20 3 3 1 1 0 6 1 0 0 0 0 0 0 0 0 
0 0 0 0 0 0 0 0 3 6 6 9 11 15 14 3 0 1 4 4 3 3 4 3 6 10 2 24 4 16 9 10 10 16 30 13 2 1 2 28 18 6 0 1 1 13 23 16 8 5 9 14 5 6 88 119 127 123 118 117 107 101 61 10 4 28 21 3 3 21 28 4 10 61 101 107 117 118 123 127 119 88 6 5 14 9 5 8 16 23 13 1 1 0 6 18 28 2 1 2 13 30 16 10 10 9 16 4 24 2 10 6 3 4 3 3 4 4 1 0 3 14 15 11 9 6 6 3 0 0 0 0 0 0 0 0 
0 0 0 0 0 0 0 0 3 0 4 17 1 3 18 3 1 5 8 5 3 5 5 2 2 2 13 8 11 2 9 5 1 6 1 12 1 22 2 2 1 18 9 9 12 1 1 12 13 12 3 2 19 3 14 12 27 4 4 16 3 3 3 6 3 2 2 17 17 2 2 3 6 3 3 3 16 4 4 27 12 14 3 19 2 3 12 13 12 1 1 12 9 9 18 1 2 2 22 1 12 1 6 1 5 9 2 11 8 13 2 2 2 5 5 3 5 8 5 1 3 18 3 1 17 4 0 3 0 0 0 0 0 0 0 0 
0 0 0 0 0 0 0 0 0 0 0 0 0 0 0 0 1 1 1 1 1 1 1 1 1 1 1 1 1 1 1 1 1 2 1 2 1 2 2 1 1 1 1 1 1 1 1 1 1 2 3 3 2 2 4 5 3 5 5 4 4 4 3 1 1 1 2 1 1 2 1 1 1 3 4 4 4 5 5 3 5 4 2 2 3 3 2 1 1 1 1 1 1 1 1 1 1 2 2 1 2 1 2 1 1 1 1 1 1 1 1 1 1 1 1 1 1 1 1 1 0 0 0 0 0 0 0 0 0 0 0 0 0 0 0 0 
0 0 0 0 0 0 0 0 0 0 0 0 0 0 0 0 1 1 1 1 1 1 1 1 1 1 1 1 1 1 1 1 2 2 2 2 2 2 2 2 1 1 1 1 1 1 1 1 1 2 3 3 2 2 4 4 4 4 5 5 4 4 3 2 1 1 1 1 1 1 1 1 2 3 4 4 5 5 4 4 4 4 2 2 3 3 2 1 1 1 1 1 1 1 1 1 2 2 2 2 2 2 2 2 1 1 1 1 1 1 1 1 1 1 1 1 1 1 1 1 0 0 0 0 0 0 0 0 0 0 0 0 0 0 0 0 
