P2
136 90
255
255 255 255 255 255 255 255 255 255 255 255 255 255 255 255 255 255 255 254 254 254 254 254 254 254 254 254 254 254 254 254 254 254 254 254 254 254 254 254 254 255 254 254 254 254 254 254 254 254 254 254 254 254 254 254 255 254 254 254 254 254 254 254 254 255 255 254 254 254 254 254 254 254 253 252 252 251 252 252 253 251 253 254 254 253 253 254 254 254 254 254 254 254 254 254 254 254 254 254 254 254 254 254 254 254 254 254 254 254 254 254 254 254 254 254 254 254 254 254 254 255 255 255 255 255 255 255 255 255 255 255 255 255 255 255 255 
255 255 255 255 255 255 255 255 255 255 255 255 255 255 255 255 255 255 255 255 254 255 254 254 254 254 254 254 254 254 254 254 254 254 254 254 254 254 254 254 255 255 255 255 255 255 255 255 255 255 255 255 255 255 255 254 254 254 254 254 254 254 254 255 255 254 254 254 254 254 254 254 254 253 252 251 252 251 251 252 251 252 254 254 253 253 254 254 254 254 254 254 254 254 254 254 254 254 254 254 254 254 254 254 254 254 254 254 254 254 254 254 254 254 254 254 254 254 254 254 255 255 255 255 255 255 255 255 255 255 255 255 255 255 255 255 
255 255 255 255 255 255 255 255 255 255 255 254 254 253 253 253 255 252 251 254 255 252 251 254 254 253 244 253 250 254 248 254 254 252 255 254 255 247 254 254 255 244 253 248 245 254 254 245 254 250 254 254 250 254 254 249 254 254 254 251 253 255 255 252 254 254 254 248 249 254 254 254 253 252 253 253 243 252 251 229 250 243 253 244 254 254 251 245 254 254 254 254 254 249 250 254 254 254 244 254 245 254 253 254 251 254 254 250 249 254 254 254 254 254 254 252 251 252 254 254 255 241 255 255 241 252 255 253 255 255 255 255 255 255 255 255 
255 255 255 255 255 255 255 255 255 255 255 254 254 253 253 253 255 254 252 252 253 254 254 255 254 246 253 233 253 241 250 254 253 247 245 244 254 254 254 248 241 250 255 254 255 254 249 254 248 251 255 254 252 252 255 255 250 254 255 254 254 254 254 253 254 242 244 254 254 248 244 254 249 194 129 114 81 77 60 58 74 150 252 253 244 248 254 254 241 240 244 254 254 255 254 253 236 254 254 255 254 238 249 248 246 252 254 253 254 255 254 251 252 252 254 255 254 255 254 255 255 245 244 246 248 250 250 253 255 255 255 255 255 255 255 255 
255 255 255 255 255 255 255 255 254 254 255 254 254 253 253 253 248 254 254 254 249 251 254 254 243 250 252 251 253 253 231 253 253 253 248 248 253 253 252 251 253 252 247 241 252 252 236 253 254 254 250 250 254 252 239 234 254 254 254 254 254 253 253 254 251 254 253 253 232 182 109 54 12 5 12 76 87 75 59 91 69 83 187 245 254 254 254 239 255 254 254 254 247 245 249 254 254 254 236 248 254 251 254 246 255 254 255 249 248 254 255 254 254 254 255 254 251 247 244 242 239 255 255 255 255 255 250 255 255 255 255 255 255 255 255 255 
255 255 255 255 255 255 255 255 254 254 255 254 254 253 253 253 254 254 251 247 254 254 254 245 252 245 252 229 252 250 234 251 228 210 219 210 217 188 203 213 206 199 225 219 187 180 195 229 221 223 206 206 234 247 251 252 241 242 248 253 253 251 249 249 249 252 230 122 13 2 2 30 42 43 47 99 103 72 45 86 81 68 173 247 253 247 254 254 244 252 254 250 246 252 254 254 239 254 251 254 252 252 254 246 231 225 215 205 202 204 208 210 158 136 104 79 73 87 110 127 198 244 249 249 232 239 248 255 255 255 255 255 255 255 255 255 
255 255 255 255 255 255 255 255 254 254 254 254 254 253 253 253 237 252 254 254 254 254 254 253 247 233 157 165 112 126 80 107 85 66 108 94 106 36 75 109 66 26 73 113 103 109 98 65 84 100 88 69 75 93 134 186 251 252 252 250 251 252 252 252 247 135 22 3 19 41 39 32 95 73 34 53 63 61 42 70 68 100 216 249 246 247 254 251 254 253 251 252 253 253 253 242 241 253 243 250 252 194 145 55 8 7 7 7 6 2 1 1 1 1 5 7 5 1 1 1 0 49 144 255 255 255 255 251 255 255 255 255 255 255 255 255 
255 255 255 255 255 255 255 255 254 254 254 254 254 253 253 253 254 254 250 254 254 231 185 149 46 18 25 38 98 56 119 114 76 66 125 128 142 68 110 151 75 63 132 164 129 128 131 112 106 112 103 85 75 75 89 111 202 228 250 250 238 207 158 114 3 7 21 28 22 16 22 32 28 35 25 39 41 58 58 78 116 137 226 248 251 251 254 241 254 252 252 250 246 245 253 253 253 253 253 253 207 17 15 4 38 23 11 10 13 12 10 9 18 13 7 2 2 7 14 17 5 0 59 235 253 244 253 251 255 255 255 255 255 255 255 255 
255 255 255 255 255 255 255 255 254 254 254 254 254 253 253 253 248 249 241 200 131 76 76 104 94 79 49 116 101 48 101 83 37 43 87 118 126 92 101 124 132 113 123 124 127 136 120 111 110 92 85 91 99 106 102 87 82 93 76 34 8 12 7 3 22 33 30 16 22 44 45 29 13 34 44 49 21 48 87 124 131 161 241 250 250 238 253 254 250 231 211 190 156 123 115 126 184 224 245 252 165 10 36 68 66 38 17 22 38 42 32 21 4 6 8 9 8 4 2 2 15 0 23 213 255 255 255 255 255 255 255 255 255 255 255 255 
255 255 255 255 255 255 255 255 254 254 254 254 254 253 253 253 233 141 50 24 45 75 106 130 124 104 49 134 91 38 120 108 24 42 62 115 113 119 93 94 131 146 130 97 109 109 91 123 124 91 78 81 86 112 136 128 57 81 71 26 7 26 40 32 47 30 21 25 26 20 21 31 35 42 49 53 21 55 98 129 142 200 247 242 248 252 247 213 92 55 42 69 89 64 19 2 2 203 252 247 72 36 52 54 45 25 22 53 86 85 52 21 7 7 7 7 7 8 8 9 2 13 3 159 240 255 253 255 255 255 255 255 255 255 255 255 
255 255 255 255 255 255 255 254 253 252 244 254 244 254 227 168 56 53 4 25 77 107 100 154 175 79 48 133 98 54 121 99 59 61 86 121 126 103 90 97 163 161 145 123 110 114 120 121 121 78 80 106 137 127 82 94 56 69 102 78 21 29 60 35 32 45 27 7 33 64 38 28 46 63 70 57 46 64 105 137 161 246 245 248 246 248 248 120 42 87 88 69 73 57 20 10 7 32 94 181 10 67 106 25 27 13 23 51 61 94 99 9 4 5 8 12 11 7 6 8 6 14 0 8 229 255 255 248 255 255 255 255 255 255 255 255 
255 255 255 255 255 255 255 254 251 243 241 255 254 228 118 56 82 109 72 26 48 126 149 139 178 102 76 141 92 44 114 105 66 79 96 105 111 122 138 152 147 165 176 164 143 133 133 135 145 119 112 95 78 55 37 75 53 63 97 88 19 28 53 33 23 25 43 39 53 81 72 58 66 78 72 54 60 101 144 165 191 229 230 246 239 231 225 114 96 103 75 33 15 9 12 40 22 5 7 122 66 104 99 41 14 9 9 59 85 131 68 15 13 11 9 8 6 6 11 16 12 0 7 0 234 250 245 255 255 255 255 255 255 255 255 255 
255 255 255 255 255 255 255 254 251 253 253 255 233 148 35 44 57 59 77 87 112 138 155 139 139 118 116 152 99 63 117 89 24 52 89 114 120 120 132 146 175 181 176 158 142 142 156 168 156 133 111 78 54 36 29 61 54 65 105 123 36 38 43 25 22 12 57 76 69 93 105 97 99 117 123 120 137 172 186 177 144 72 9 6 5 35 119 129 116 94 70 54 36 26 46 79 58 27 4 118 162 156 110 89 64 57 80 105 127 146 99 110 8 9 8 6 4 5 9 13 20 2 10 68 255 255 250 255 255 255 255 255 255 255 255 255 
255 255 255 255 255 255 255 254 253 252 247 248 254 169 30 41 60 55 66 71 132 153 151 117 94 126 142 146 97 87 131 90 60 64 96 138 145 133 152 191 164 159 149 142 136 129 119 109 86 77 64 52 54 52 48 63 76 81 109 139 42 38 34 28 43 32 67 83 78 90 100 116 130 153 178 194 197 180 143 110 62 36 37 51 52 56 89 141 110 67 55 74 75 56 48 49 61 44 6 117 202 179 122 106 118 117 162 139 157 128 157 167 5 8 13 14 14 14 12 9 13 9 0 154 255 255 255 244 255 255 255 255 255 255 255 255 
255 255 255 255 255 255 255 254 251 253 247 240 254 186 62 57 86 74 49 56 155 171 149 130 85 124 142 133 79 64 114 116 115 112 131 157 156 139 148 173 151 118 76 42 26 22 22 22 33 49 55 66 79 79 84 95 92 94 101 122 37 31 26 38 55 60 74 78 96 100 94 130 161 156 163 171 147 90 41 20 29 64 86 81 74 39 40 128 113 66 47 68 80 74 65 55 46 39 5 79 167 182 156 123 141 143 170 174 183 152 202 134 5 8 16 14 14 17 16 10 18 10 64 214 240 255 255 255 255 255 255 255 255 255 255 255 
255 255 255 255 255 255 255 255 243 253 254 243 244 164 87 58 100 101 62 66 151 168 150 165 90 107 128 140 86 27 57 99 134 145 141 116 90 75 59 44 4 3 13 26 35 35 34 36 57 72 71 95 117 108 107 104 79 99 110 128 72 47 20 31 36 58 70 73 114 135 130 166 183 138 103 92 64 20 8 13 28 79 87 62 49 14 24 118 140 118 90 77 81 84 78 70 39 57 21 53 95 141 170 161 162 183 167 211 179 183 210 111 6 8 9 5 3 9 12 9 29 37 194 252 251 255 248 255 255 255 255 255 255 255 255 255 
255 255 255 255 255 255 255 255 246 254 246 253 253 185 113 17 94 162 133 58 61 135 163 162 119 111 115 144 121 51 30 47 126 129 99 44 14 18 21 14 36 36 44 58 66 64 63 65 67 81 77 105 118 93 88 82 70 110 129 140 118 67 20 24 31 47 68 68 102 154 173 190 179 119 65 50 43 27 23 34 13 36 44 44 29 7 20 62 146 158 124 75 70 70 44 20 29 67 24 40 48 84 125 153 149 185 162 196 159 172 175 112 25 34 34 26 23 29 30 24 60 134 250 254 255 255 237 252 255 255 255 255 255 255 255 255 
255 255 255 255 255 255 255 255 254 254 251 253 240 160 151 71 41 120 155 130 67 100 145 182 169 139 111 127 146 110 55 22 41 50 49 35 25 29 41 48 59 52 58 81 97 87 60 40 44 88 107 130 111 63 76 97 86 128 136 124 124 69 23 33 56 52 75 64 70 141 183 180 156 103 56 50 59 51 30 16 16 10 20 51 28 6 11 6 100 135 103 54 71 91 59 23 34 65 9 40 63 84 87 121 123 152 156 164 178 173 151 112 66 80 84 76 73 73 68 56 131 255 241 251 252 252 255 255 255 255 255 255 255 255 255 255 
255 255 255 255 255 255 255 255 254 246 253 253 221 83 134 132 46 50 131 175 151 77 95 124 145 150 142 123 88 17 12 67 53 56 45 23 37 61 71 100 105 114 89 98 90 46 39 29 76 105 120 103 84 81 78 70 99 118 116 126 113 90 80 34 40 62 66 84 129 155 158 166 125 93 71 63 54 52 53 46 26 26 38 54 57 41 19 11 15 108 154 109 107 127 74 22 59 66 44 33 58 75 75 83 113 133 132 149 167 145 77 141 170 133 131 105 111 95 108 132 248 249 250 252 254 255 255 255 255 255 255 255 255 255 255 255 
255 255 255 255 255 255 255 255 254 242 252 250 216 69 115 132 107 66 90 136 170 143 120 84 97 68 77 57 8 19 74 68 47 45 59 89 79 94 137 115 88 101 91 54 34 31 28 37 101 101 105 107 93 71 62 65 106 125 126 136 122 103 96 57 50 44 49 89 148 174 165 154 114 85 61 50 49 60 61 46 65 59 61 69 72 63 52 48 19 24 65 105 117 83 33 33 40 73 78 61 53 54 75 112 78 89 101 154 167 117 66 70 115 138 167 158 142 166 198 246 250 250 251 252 254 255 255 255 255 255 255 255 255 255 255 255 
255 255 255 255 255 255 255 255 254 246 245 250 223 65 91 116 155 105 82 88 127 149 157 134 65 31 34 33 20 88 114 42 55 68 69 113 101 90 136 105 76 77 85 45 42 68 63 92 110 111 106 84 48 21 22 40 87 105 120 139 137 128 118 82 93 72 61 76 114 150 149 121 91 70 56 53 60 76 76 58 66 61 60 64 65 59 52 50 30 11 50 96 98 60 17 12 42 70 96 114 118 99 80 83 118 164 156 138 142 146 132 33 64 73 73 96 131 223 239 251 252 252 253 253 254 254 254 255 255 255 255 255 255 255 255 255 
255 255 255 255 255 255 255 255 254 253 248 253 233 73 71 84 130 133 136 119 96 79 80 79 55 61 39 60 102 122 67 26 56 109 101 123 130 76 58 56 54 42 53 65 91 102 94 120 96 95 68 25 13 33 66 82 50 58 80 113 136 146 136 104 90 91 89 75 81 128 146 113 64 50 53 64 64 64 63 56 66 71 81 89 88 76 59 47 27 39 91 112 106 106 75 41 21 54 102 140 151 141 140 155 120 140 137 118 142 149 160 106 80 118 161 191 215 253 253 254 254 254 254 254 254 254 254 254 255 255 255 255 255 255 255 255 
255 255 255 255 255 255 255 255 246 253 248 252 226 85 73 70 65 87 105 103 66 25 8 17 60 81 61 97 116 74 13 56 63 97 91 76 83 54 27 58 66 72 64 92 111 92 88 84 73 44 8 6 20 74 95 88 47 29 35 59 94 131 137 121 99 105 118 110 98 112 115 84 48 34 46 65 54 35 39 51 45 59 78 91 89 72 48 29 39 37 86 116 121 124 100 78 9 13 50 107 150 175 189 195 182 177 157 92 118 144 162 185 167 201 253 253 254 248 245 251 255 255 255 254 254 254 253 253 255 255 255 255 255 255 255 255 
255 255 255 255 255 255 255 254 250 253 251 251 209 89 93 90 28 35 27 33 21 19 30 73 92 77 79 136 101 63 39 86 64 59 73 57 49 69 80 98 104 134 101 90 76 50 51 27 13 7 11 43 77 84 71 58 81 40 23 17 38 84 108 120 133 113 110 123 122 105 80 57 44 30 44 66 58 45 55 71 49 67 89 101 101 88 65 47 49 33 54 81 111 132 112 96 80 38 17 39 83 133 160 157 172 189 181 111 137 197 215 251 253 245 254 243 254 252 254 255 255 255 255 255 255 254 254 254 255 255 255 255 255 255 255 255 
255 255 255 255 255 255 255 254 252 252 253 253 188 71 97 112 62 68 41 39 27 38 48 92 103 82 90 135 71 75 73 77 68 90 98 105 114 123 126 108 103 106 73 35 18 11 7 5 6 18 68 109 116 100 88 88 103 70 59 27 12 33 52 79 108 101 92 107 137 136 96 61 43 37 48 65 70 72 69 57 27 50 75 90 92 83 64 46 41 30 34 48 101 151 154 162 170 138 98 54 31 80 164 213 239 231 243 252 252 242 232 253 242 243 254 255 255 254 247 254 255 255 255 255 255 255 255 255 255 255 255 255 255 255 255 255 
255 255 255 255 255 255 255 254 251 249 251 253 171 44 82 110 130 126 72 53 45 67 64 93 72 94 91 87 10 44 56 60 112 163 90 73 121 116 122 123 89 44 20 5 6 12 5 21 49 80 99 91 82 89 95 91 100 89 102 61 13 8 10 32 81 120 121 114 152 166 102 30 42 43 50 57 66 74 48 7 33 59 90 108 112 105 84 65 51 22 13 31 76 104 126 185 179 177 181 160 137 173 235 251 252 252 242 253 232 251 253 247 254 254 254 255 242 254 251 254 254 254 255 255 255 255 255 255 255 255 255 255 255 255 255 255 
255 255 255 255 255 255 255 254 253 252 251 253 200 48 76 45 86 62 65 43 48 62 108 107 79 73 76 28 45 28 83 137 125 110 125 99 131 124 77 47 31 8 4 14 24 22 33 53 61 65 47 53 43 69 71 81 65 67 91 114 95 41 9 8 29 73 144 140 146 180 114 22 34 48 71 71 91 40 11 9 51 59 92 102 81 79 62 16 48 34 23 11 29 102 161 165 178 190 211 233 249 253 253 250 254 253 253 253 253 254 253 254 255 255 255 255 255 255 255 255 255 255 255 255 255 255 255 255 255 255 255 255 255 255 255 255 
255 255 255 255 255 255 255 254 254 252 255 254 219 58 76 61 67 47 53 38 47 60 96 93 91 93 40 48 12 51 120 81 26 65 96 125 108 89 28 19 6 9 10 15 32 49 52 44 28 36 48 55 72 84 95 95 71 70 78 90 90 69 36 11 21 35 77 133 167 174 133 55 45 66 77 71 76 41 12 8 63 84 104 97 86 102 103 73 38 14 21 39 37 62 126 177 210 222 238 250 254 254 254 254 254 254 254 254 254 254 254 254 255 255 255 255 255 255 255 255 255 255 255 255 255 255 255 255 255 255 255 255 255 255 255 255 
255 255 255 255 255 255 255 254 254 253 255 254 239 69 66 69 52 45 57 56 67 73 86 74 40 35 46 35 64 51 112 26 96 117 101 113 79 48 11 8 6 22 36 40 45 47 41 29 42 49 77 75 101 89 96 82 103 98 85 75 86 92 63 20 9 8 25 123 187 189 158 64 59 85 87 81 60 41 13 10 42 75 86 81 98 125 128 116 123 69 39 40 37 51 101 149 237 246 253 254 254 251 253 255 254 254 254 254 254 254 254 254 255 255 255 255 255 255 255 255 255 255 255 255 255 255 255 255 255 255 255 255 255 255 255 255 
255 255 255 255 255 255 255 255 254 253 255 254 249 84 49 64 46 51 68 79 89 87 74 54 39 38 48 58 72 87 62 96 112 115 85 54 49 7 13 6 46 43 47 49 34 16 19 37 39 50 74 78 96 90 91 79 94 92 77 63 76 96 85 56 35 17 7 55 138 203 183 76 60 87 90 93 50 35 16 28 75 106 106 103 132 143 131 130 171 108 72 70 45 41 126 238 248 252 253 254 253 251 253 255 255 255 255 255 255 255 255 255 255 255 255 255 255 255 255 255 255 255 255 255 255 255 255 255 255 255 255 255 255 255 255 255 
255 255 255 255 255 255 255 255 254 253 255 251 253 119 49 59 43 53 59 72 82 82 60 45 52 45 61 79 77 83 50 107 97 105 68 18 11 6 40 48 72 54 37 32 31 34 53 75 76 89 90 104 98 111 101 98 69 74 73 66 67 80 88 89 49 22 10 11 97 214 180 70 71 85 87 89 33 16 11 36 86 116 111 109 135 139 144 181 166 206 173 89 90 186 250 250 253 253 254 254 255 254 254 254 255 255 255 255 255 255 255 255 255 255 255 255 255 255 255 255 255 255 255 255 255 255 255 255 255 255 255 255 255 255 255 255 
255 255 255 255 255 255 255 255 253 254 251 254 253 172 70 64 49 57 43 49 57 69 55 55 40 24 56 72 73 60 93 52 103 100 43 29 14 42 61 84 57 60 57 59 86 119 123 106 130 141 130 141 124 142 129 130 128 132 129 112 87 68 66 73 66 37 28 8 83 213 183 85 103 105 104 88 31 9 8 14 58 98 104 95 104 107 131 183 219 210 189 195 235 252 252 249 253 254 253 253 254 254 254 253 254 255 255 255 255 255 255 255 255 255 255 255 255 255 255 255 255 255 255 255 255 255 255 255 255 255 255 255 255 255 255 255 
255 255 255 255 255 255 255 255 253 254 248 254 252 223 95 67 57 65 37 37 41 60 49 62 59 57 31 71 27 102 112 91 44 26 13 47 63 77 46 61 72 93 109 116 134 155 148 127 141 149 153 160 161 169 166 164 179 184 179 159 131 105 84 73 90 83 49 9 67 199 204 104 105 116 134 106 70 49 38 7 57 116 143 135 129 113 91 86 144 199 233 240 251 252 247 252 251 252 255 254 254 252 252 253 254 255 255 255 255 255 255 255 255 255 255 255 255 255 255 255 255 255 255 255 255 255 255 255 255 255 255 255 255 255 255 255 
255 255 255 255 255 255 255 255 254 255 246 254 249 251 109 65 59 70 38 37 36 53 38 54 57 51 75 48 70 117 81 111 72 29 52 58 86 58 49 91 125 134 144 142 125 116 130 151 189 191 207 193 203 184 185 169 144 158 165 165 166 165 145 119 41 104 89 59 105 208 198 41 71 103 151 130 124 115 94 22 16 97 160 180 190 166 82 8 148 224 252 251 251 253 252 253 246 253 254 254 254 253 253 254 254 255 255 255 255 255 255 255 255 255 255 255 255 255 255 255 255 255 255 255 255 255 255 255 255 255 255 255 255 255 255 255 
255 255 255 255 255 255 255 255 249 255 247 254 250 249 205 46 60 54 45 33 33 53 52 22 56 48 46 67 81 96 59 95 42 51 59 67 26 32 124 163 150 136 137 123 100 135 192 204 214 215 207 226 216 208 227 196 181 152 117 150 165 178 166 189 134 111 108 58 102 217 165 48 64 106 147 154 132 106 86 72 6 73 172 230 214 176 187 228 252 253 253 253 253 253 253 254 254 254 254 254 253 253 253 254 254 255 255 255 255 255 255 255 255 255 255 255 255 255 255 255 255 255 255 255 255 255 255 255 255 255 255 255 255 255 255 255 
255 255 255 255 255 255 255 255 252 255 249 254 252 251 218 82 71 63 52 30 21 52 63 29 63 63 82 80 99 93 68 86 64 83 93 43 80 151 141 170 178 126 112 148 184 209 208 184 180 191 184 171 173 163 159 194 210 208 171 148 120 132 137 160 195 178 142 90 142 199 138 102 79 66 121 175 182 200 200 149 113 104 121 171 212 231 246 252 253 254 253 254 253 254 254 254 254 254 254 254 253 253 253 254 254 255 255 255 255 255 255 255 255 255 255 255 255 255 255 255 255 255 255 255 255 255 255 255 255 255 255 255 255 255 255 255 
255 255 255 255 255 255 255 255 255 255 251 254 254 253 237 140 91 60 59 57 29 33 58 58 46 51 78 63 99 91 76 65 81 97 58 53 124 177 172 144 134 142 164 189 194 179 157 141 113 113 124 100 103 109 102 160 154 186 201 201 165 145 122 119 144 188 196 137 147 178 136 119 82 80 130 183 195 216 240 235 220 172 144 178 232 252 251 245 253 254 254 254 254 254 255 255 254 254 254 254 254 254 254 254 254 255 255 255 255 255 255 255 255 255 255 255 255 255 255 255 255 255 255 255 255 255 255 255 255 255 255 255 255 255 255 255 
255 255 255 255 255 255 255 255 255 255 251 254 254 254 251 196 90 54 58 61 25 17 45 52 47 51 65 62 102 119 111 87 64 52 67 155 178 152 149 90 115 174 199 169 146 154 176 193 174 128 105 94 124 166 167 168 156 149 165 194 184 150 116 104 104 143 203 184 156 185 168 118 134 149 148 177 224 208 178 197 213 202 207 235 253 253 252 248 254 254 254 254 254 254 255 255 254 254 254 254 254 254 254 254 255 255 255 255 255 255 255 255 255 255 255 255 255 255 255 255 255 255 255 255 255 255 255 255 255 255 255 255 255 255 255 255 
255 255 255 255 255 255 255 255 255 251 251 254 254 253 253 235 127 82 60 50 34 43 54 38 48 62 57 71 77 112 120 114 100 76 153 188 169 155 128 142 198 207 179 139 138 157 158 147 162 173 129 123 163 179 175 156 139 107 117 161 197 207 201 181 154 123 146 175 185 193 169 129 155 185 197 220 238 193 149 169 216 227 247 253 253 248 255 255 254 254 254 254 254 254 254 254 255 255 255 255 255 254 254 254 255 255 255 255 255 255 255 255 255 255 255 255 255 255 255 255 255 255 255 255 255 255 255 255 255 255 255 255 255 255 255 255 
255 255 255 255 255 255 255 255 255 250 252 254 253 253 254 251 210 110 41 49 64 49 38 41 40 62 60 80 47 66 98 119 140 180 179 137 131 148 170 218 217 177 139 130 145 168 183 188 175 195 103 90 171 188 181 178 149 129 141 155 187 210 208 159 157 157 134 140 190 201 175 171 144 155 213 244 211 194 219 231 252 252 253 253 249 248 248 251 255 254 254 254 254 254 254 254 255 255 255 255 255 255 255 255 255 255 255 255 255 255 255 255 255 255 255 255 255 255 255 255 255 255 255 255 255 255 255 255 255 255 255 255 255 255 255 255 
255 255 255 255 255 255 255 255 254 251 254 254 254 254 252 253 248 152 61 51 67 38 14 32 42 54 68 96 66 54 103 131 125 177 140 138 152 146 188 196 206 158 119 92 68 90 149 187 202 114 24 22 91 163 193 185 136 106 113 114 145 178 199 157 113 149 132 112 146 184 205 223 194 160 188 227 224 246 251 251 252 251 250 251 253 253 253 251 255 254 254 254 254 254 254 254 254 254 254 254 254 254 254 254 255 255 255 255 255 255 255 255 255 255 255 255 255 255 255 255 255 255 255 255 255 255 255 255 255 255 255 255 255 255 255 255 
255 255 255 255 255 255 255 255 255 253 255 254 254 254 248 251 251 242 155 67 63 75 50 29 36 28 56 92 94 61 116 130 149 82 108 148 158 166 165 183 184 165 164 153 130 155 189 183 89 20 95 115 29 72 164 178 163 110 119 135 161 163 173 136 91 65 58 70 71 119 201 231 233 230 236 249 252 252 250 249 249 253 253 253 249 249 253 252 255 254 254 254 254 254 254 254 254 254 254 254 254 254 254 254 255 255 255 255 255 255 255 255 255 255 255 255 255 255 255 255 255 255 255 255 255 255 255 255 255 255 255 255 255 255 255 255 
255 255 255 255 255 255 255 255 254 254 254 255 255 254 254 254 247 253 223 127 55 59 71 50 54 40 42 59 83 118 137 132 60 106 104 70 53 94 150 162 156 95 57 60 105 138 116 97 55 88 130 126 114 83 64 125 141 143 84 62 93 144 186 159 170 131 46 46 76 126 166 215 248 250 252 253 252 252 253 254 254 254 254 255 254 254 254 254 255 254 255 255 255 255 255 255 255 255 255 255 255 255 255 255 255 255 255 255 255 255 255 255 255 255 255 255 255 255 255 255 255 255 255 255 255 255 255 255 255 255 255 255 255 255 255 255 
255 255 255 255 255 255 255 255 254 254 254 254 255 254 254 254 254 254 252 195 106 57 64 82 48 42 49 62 79 109 133 135 73 41 78 108 140 151 149 164 154 123 131 129 152 157 88 56 65 91 141 140 113 87 64 85 144 178 135 116 160 157 133 142 123 81 108 124 96 140 155 251 247 251 254 254 254 253 254 255 255 255 255 255 255 255 255 255 255 255 255 255 255 255 255 255 255 255 255 255 255 255 255 255 255 255 255 255 255 255 255 255 255 255 255 255 255 255 255 255 255 255 255 255 255 255 255 255 255 255 255 255 255 255 255 255 
255 255 255 255 255 255 255 255 254 254 254 254 255 254 254 254 254 249 253 253 199 128 87 75 68 62 62 62 67 96 126 134 123 45 74 63 115 153 139 127 132 124 144 131 146 153 88 68 77 101 153 155 121 97 74 66 135 153 134 121 155 141 105 136 171 149 119 172 173 174 159 244 248 252 254 255 254 253 254 255 255 255 255 255 255 255 255 255 255 255 255 255 255 255 255 255 255 255 255 255 255 255 255 255 255 255 255 255 255 255 255 255 255 255 255 255 255 255 255 255 255 255 255 255 255 255 255 255 255 255 255 255 255 255 255 255 
255 255 255 255 255 255 255 255 254 254 254 254 255 254 254 254 253 245 251 253 253 222 160 100 90 80 73 70 75 100 118 114 156 113 158 133 173 194 187 148 117 131 131 125 138 129 84 61 68 104 142 146 123 90 66 70 115 110 144 132 106 118 131 164 167 223 185 200 208 160 103 251 249 252 255 255 254 253 254 255 255 255 255 255 255 255 255 255 255 255 255 255 255 255 255 255 255 255 255 255 255 255 255 255 255 255 255 255 255 255 255 255 255 255 255 255 255 255 255 255 255 255 255 255 255 255 255 255 255 255 255 255 255 255 255 255 
255 255 255 255 255 255 255 255 254 254 254 254 255 254 254 254 254 254 254 253 251 252 235 199 123 104 90 86 94 113 109 83 192 159 189 189 186 111 108 92 96 121 96 115 139 110 90 67 79 132 151 157 150 100 71 92 95 94 138 124 100 117 112 108 92 134 203 188 177 126 12 251 250 254 255 255 254 253 254 255 255 255 255 255 255 255 255 255 255 255 255 255 255 255 255 255 255 255 255 255 255 255 255 255 255 255 255 255 255 255 255 255 255 255 255 255 255 255 255 255 255 255 255 255 255 255 255 255 255 255 255 255 255 255 255 255 
255 255 255 255 255 255 255 255 254 254 254 254 255 255 254 254 254 250 252 254 252 253 253 251 205 171 132 107 105 119 109 74 168 168 179 179 170 102 119 130 87 119 113 159 185 128 93 84 111 157 161 168 168 126 99 97 104 179 215 179 147 125 110 135 125 102 163 209 188 107 62 244 251 255 255 255 255 254 254 255 255 255 255 255 255 255 255 255 255 255 255 255 255 255 255 255 255 255 255 255 255 255 255 255 255 255 255 255 255 255 255 255 255 255 255 255 255 255 255 255 255 255 255 255 255 255 255 255 255 255 255 255 255 255 255 255 
255 255 255 255 255 255 255 255 254 254 255 255 255 255 254 254 254 244 246 254 254 254 252 245 254 237 205 173 156 154 131 89 99 177 213 165 147 131 112 109 136 146 177 205 208 129 52 86 127 138 133 138 133 138 136 76 120 153 146 151 178 175 144 111 109 127 111 172 142 21 109 219 252 255 255 255 255 254 254 255 255 255 255 255 255 255 255 255 255 255 255 255 255 255 255 255 255 255 255 255 255 255 255 255 255 255 255 255 255 255 255 255 255 255 255 255 255 255 255 255 255 255 255 255 255 255 255 255 255 255 255 255 255 255 255 255 
255 255 255 255 255 255 255 255 254 254 255 255 255 255 254 254 254 254 254 254 245 252 254 248 248 254 254 253 236 209 159 102 10 123 192 122 104 132 98 121 192 138 146 114 104 71 31 155 151 127 116 118 106 162 190 79 27 86 156 186 134 124 181 175 91 146 108 116 134 45 127 220 252 255 255 255 255 254 254 255 255 255 255 255 255 255 255 255 255 255 255 255 255 255 255 255 255 255 255 255 255 255 255 255 255 255 255 255 255 255 255 255 255 255 255 255 255 255 255 255 255 255 255 255 255 255 255 255 255 255 255 255 255 255 255 255 
255 255 255 255 255 255 255 255 255 255 255 255 255 255 254 254 254 254 254 254 254 254 254 254 253 249 253 253 245 246 213 100 78 49 131 63 134 127 164 201 111 178 183 187 147 69 56 206 184 159 104 124 114 153 203 173 25 147 210 141 183 185 103 211 183 142 173 130 49 89 125 236 252 254 255 255 255 255 255 255 255 255 255 255 255 255 255 255 255 255 255 255 255 255 255 255 255 255 255 255 255 255 255 255 255 255 255 255 255 255 255 255 255 255 255 255 255 255 255 255 255 255 255 255 255 255 255 255 255 255 255 255 255 255 255 255 
255 255 255 255 255 255 255 255 255 255 255 255 255 255 254 254 254 254 254 254 254 254 254 254 255 253 254 253 249 251 227 123 110 22 99 139 140 152 208 135 152 158 52 86 144 85 88 226 167 131 117 136 119 156 188 204 77 157 120 18 103 175 104 152 200 181 171 89 58 111 146 250 252 254 255 255 255 255 255 255 255 255 255 255 255 255 255 255 255 255 255 255 255 255 255 255 255 255 255 255 255 255 255 255 255 255 255 255 255 255 255 255 255 255 255 255 255 255 255 255 255 255 255 255 255 255 255 255 255 255 255 255 255 255 255 255 
255 255 255 255 255 255 255 255 255 255 255 255 255 255 255 255 255 255 255 254 255 254 255 255 254 252 252 253 250 251 238 149 138 65 25 110 162 190 191 79 114 109 12 49 86 51 122 220 165 116 129 142 114 146 166 223 113 72 84 95 117 110 63 83 173 127 71 22 100 157 161 246 252 254 255 255 255 255 255 255 255 255 255 255 255 255 255 255 255 255 255 255 255 255 255 255 255 255 255 255 255 255 255 255 255 255 255 255 255 255 255 255 255 255 255 255 255 255 255 255 255 255 255 255 255 255 255 255 255 255 255 255 255 255 255 255 
255 255 255 255 255 255 255 255 255 255 255 255 255 255 255 255 255 255 255 255 255 255 255 254 253 253 249 252 249 251 244 174 119 179 68 9 28 101 108 31 36 40 89 143 38 45 199 186 151 116 133 148 118 131 137 192 184 55 51 105 87 38 17 25 118 87 89 115 194 163 149 239 252 254 255 255 255 255 255 255 255 255 255 255 255 255 255 255 255 255 255 255 255 255 255 255 255 255 255 255 255 255 255 255 255 255 255 255 255 255 255 255 255 255 255 255 255 255 255 255 255 255 255 255 255 255 255 255 255 255 255 255 255 255 255 255 
255 255 255 255 255 255 255 255 255 255 255 255 255 255 255 255 255 255 254 254 254 254 254 254 253 253 252 254 252 251 248 197 156 149 158 150 114 85 97 88 39 47 9 38 141 177 190 172 123 122 129 157 136 133 124 140 198 197 155 71 45 70 108 178 204 141 131 157 181 125 161 248 252 254 255 255 255 255 255 255 255 255 255 255 255 255 255 255 255 255 255 255 255 255 255 255 255 255 255 255 255 255 255 255 255 255 255 255 255 255 255 255 255 255 255 255 255 255 255 255 255 255 255 255 255 255 255 255 255 255 255 255 255 255 255 255 
255 255 255 255 255 255 255 255 255 255 255 255 255 255 255 255 255 255 254 254 254 254 254 254 253 253 249 252 252 251 246 210 148 132 175 128 106 143 182 156 174 166 158 194 213 165 162 149 128 133 123 138 129 139 137 146 160 157 193 183 180 195 164 162 181 139 133 169 169 129 171 232 252 254 255 255 255 255 255 255 255 255 255 255 255 255 255 255 255 255 255 255 255 255 255 255 255 255 255 255 255 255 255 255 255 255 255 255 255 255 255 255 255 255 255 255 255 255 255 255 255 255 255 255 255 255 255 255 255 255 255 255 255 255 255 255 
255 255 255 255 255 255 255 255 254 254 255 255 255 255 255 255 254 254 254 254 254 254 254 254 250 253 247 251 252 248 245 217 105 144 183 138 123 126 136 151 142 126 106 140 107 33 136 190 137 122 118 109 101 131 123 167 192 51 119 174 112 85 86 131 130 142 132 159 135 115 185 247 252 254 255 255 255 255 255 255 255 255 255 255 255 255 255 255 255 255 255 255 255 255 255 255 255 255 255 255 255 255 255 255 255 255 255 255 255 255 255 255 255 255 255 255 255 255 255 255 255 255 255 255 255 255 255 255 255 255 255 255 255 255 255 255 
255 255 255 255 255 255 255 255 254 254 255 255 255 255 255 255 254 254 254 254 254 254 254 254 251 253 252 254 253 251 247 227 89 149 164 138 133 153 126 79 65 64 90 174 102 13 166 181 118 90 119 100 86 117 79 147 196 35 91 153 131 103 62 112 133 147 108 157 158 129 155 217 251 253 254 254 255 254 254 254 255 254 254 254 254 254 254 255 255 255 255 255 255 255 255 255 255 255 255 255 255 255 255 255 255 255 255 255 255 255 255 255 255 255 255 255 255 255 255 255 255 255 255 255 255 255 255 255 255 255 255 255 255 255 255 255 
255 255 255 255 255 255 255 255 255 255 255 255 255 255 255 255 255 255 255 255 255 255 255 254 251 254 254 254 245 247 249 233 122 112 161 182 132 118 135 115 108 106 133 165 78 7 141 183 49 90 120 76 73 134 41 136 185 20 55 150 168 114 115 139 155 145 155 176 172 151 157 186 232 251 249 246 254 249 252 254 255 254 254 254 254 253 254 254 255 255 255 255 255 255 255 255 255 255 255 255 255 255 255 255 255 255 255 255 255 255 255 255 255 255 255 255 255 255 255 255 255 255 255 255 255 255 255 255 255 255 255 255 255 255 255 255 
255 255 255 255 255 255 255 255 255 255 255 255 255 255 255 255 255 255 255 255 255 255 255 255 254 254 251 253 249 248 249 217 124 149 187 168 121 131 145 108 91 92 111 141 75 14 140 184 39 121 144 55 44 140 63 99 153 40 73 135 147 113 125 154 154 137 145 175 179 159 161 187 208 249 251 249 253 249 253 253 255 254 254 253 253 253 253 254 254 255 255 255 255 255 255 255 255 255 255 255 255 255 255 255 255 255 255 255 255 255 255 255 255 255 255 255 255 255 255 255 255 255 255 255 255 255 255 255 255 255 255 255 255 255 255 255 
255 255 255 255 255 255 255 255 255 255 255 255 255 255 255 255 255 255 255 255 255 255 255 255 254 254 248 253 252 250 241 197 156 154 171 174 143 120 129 140 119 101 84 109 95 62 128 130 27 142 112 55 64 135 93 17 132 108 124 107 95 97 126 150 136 149 171 185 175 155 145 148 182 244 251 252 253 250 253 253 255 254 254 253 253 253 253 254 254 255 255 255 255 255 255 255 255 255 255 255 255 255 255 255 255 255 255 255 255 255 255 255 255 255 255 255 255 255 255 255 255 255 255 255 255 255 255 255 255 255 255 255 255 255 255 255 
255 255 255 255 255 255 255 255 255 255 255 255 255 255 255 255 255 255 255 255 255 255 255 255 254 254 250 252 252 248 224 183 167 142 151 190 182 123 101 132 143 135 107 117 123 95 70 13 99 182 65 56 70 83 142 35 63 112 130 105 124 147 121 78 109 157 190 180 165 173 179 175 173 242 251 251 253 252 253 253 255 254 254 253 253 253 253 254 254 255 255 255 255 255 255 255 255 255 255 255 255 255 255 255 255 255 255 255 255 255 255 255 255 255 255 255 255 255 255 255 255 255 255 255 255 255 255 255 255 255 255 255 255 255 255 255 
255 255 255 255 255 255 255 255 255 255 255 255 255 255 255 255 255 255 255 255 255 255 255 255 252 254 254 252 252 246 210 183 150 161 167 182 195 170 122 97 111 125 110 98 101 104 64 11 92 134 49 58 63 59 168 109 19 110 139 121 116 118 104 100 164 183 189 171 161 176 200 215 179 243 251 249 253 253 253 250 254 254 254 254 253 253 253 254 254 255 255 255 255 255 255 255 255 255 255 255 255 255 255 255 255 255 255 255 255 255 255 255 255 255 255 255 255 255 255 255 255 255 255 255 255 255 255 255 255 255 255 255 255 255 255 255 
255 255 255 255 255 255 255 255 255 255 255 255 255 255 255 255 255 255 255 255 255 255 255 255 252 254 254 252 252 247 205 191 170 181 171 163 187 202 178 145 81 91 101 110 118 130 62 9 128 109 91 69 65 67 117 58 36 111 122 120 95 85 122 192 209 187 175 180 177 166 172 192 186 243 250 249 253 253 253 250 254 254 254 254 253 253 253 254 254 255 255 255 255 255 255 255 255 255 255 255 255 255 255 255 255 255 255 255 255 255 255 255 255 255 255 255 255 255 255 255 255 255 255 255 255 255 255 255 255 255 255 255 255 255 255 255 
255 255 255 255 255 255 255 255 255 255 255 255 255 255 255 255 255 255 255 255 255 255 255 255 254 254 254 247 252 250 207 202 198 177 161 164 174 183 188 190 198 130 89 77 66 90 45 29 141 90 72 64 91 108 170 84 33 82 73 113 140 157 160 173 163 163 176 195 198 186 178 182 184 238 247 250 253 249 252 253 254 254 254 254 253 253 253 254 254 255 255 255 255 255 255 255 255 255 255 255 255 255 255 255 255 255 255 255 255 255 255 255 255 255 255 255 255 255 255 255 255 255 255 255 255 255 255 255 255 255 255 255 255 255 255 255 
255 255 255 255 255 255 255 255 255 255 255 255 255 255 255 255 255 255 255 255 255 255 255 255 254 254 255 243 252 252 209 207 186 173 173 175 162 152 152 149 164 106 115 136 100 82 16 14 138 115 71 103 112 59 151 23 35 119 108 109 110 141 143 125 146 190 218 207 195 199 199 184 177 231 246 252 253 246 252 253 254 254 254 254 253 254 253 254 254 255 255 255 255 255 255 255 255 255 255 255 255 255 255 255 255 255 255 255 255 255 255 255 255 255 255 255 255 255 255 255 255 255 255 255 255 255 255 255 255 255 255 255 255 255 255 255 
255 255 255 255 255 255 255 255 255 255 255 255 255 255 255 255 255 255 255 255 255 255 255 255 254 255 254 249 252 252 212 191 186 196 204 206 205 199 179 156 120 135 121 109 144 102 130 57 146 83 108 132 122 95 114 94 94 186 59 142 115 118 123 147 194 216 210 193 189 177 175 196 194 195 250 252 250 254 253 254 254 254 254 254 254 254 253 254 254 255 255 255 255 255 255 255 255 255 255 255 255 255 255 255 255 255 255 255 255 255 255 255 255 255 255 255 255 255 255 255 255 255 255 255 255 255 255 255 255 255 255 255 255 255 255 255 
255 255 255 255 255 255 255 255 255 255 255 255 255 255 255 255 255 255 255 255 255 255 255 255 254 255 254 250 253 251 210 192 184 187 189 198 213 218 199 171 144 133 117 158 91 71 113 130 123 91 83 92 100 87 101 121 110 117 117 165 147 102 145 164 180 196 194 189 189 174 164 179 188 188 243 252 249 254 253 254 254 254 254 254 254 254 253 254 254 255 255 255 255 255 255 255 255 255 255 255 255 255 255 255 255 255 255 255 255 255 255 255 255 255 255 255 255 255 255 255 255 255 255 255 255 255 255 255 255 255 255 255 255 255 255 255 
255 255 255 255 255 255 255 255 255 255 255 255 255 255 255 255 255 255 255 255 255 255 255 255 254 254 254 251 253 247 204 190 190 193 196 203 216 223 207 184 157 126 110 157 126 203 209 172 142 134 78 60 82 98 116 180 233 224 249 223 229 130 97 122 184 197 200 198 198 184 171 176 181 178 223 252 249 254 252 254 254 254 254 254 254 254 253 254 254 255 255 255 255 255 255 255 255 255 255 255 255 255 255 255 255 255 255 255 255 255 255 255 255 255 255 255 255 255 255 255 255 255 255 255 255 255 255 255 255 255 255 255 255 255 255 255 
255 255 255 255 255 255 255 255 255 255 255 255 255 255 255 255 255 255 255 255 255 255 255 255 254 253 254 252 253 240 197 189 171 183 192 196 199 201 190 174 135 104 164 210 236 250 251 249 247 253 231 230 242 251 238 252 238 252 251 242 249 224 134 122 180 206 219 214 207 201 192 185 177 169 200 250 248 254 251 253 254 254 254 254 254 254 252 253 254 255 255 255 255 255 255 255 255 255 255 255 255 255 255 255 255 255 255 255 255 255 255 255 255 255 255 255 255 255 255 255 255 255 255 255 255 255 255 255 255 255 255 255 255 255 255 255 
255 255 255 255 255 255 255 255 255 255 255 255 255 255 255 255 255 255 255 255 255 255 255 255 255 252 254 253 252 232 190 187 165 178 190 200 210 212 197 177 114 153 247 242 251 250 243 253 248 254 250 253 253 253 249 245 254 254 252 252 239 244 197 115 149 188 219 219 210 213 209 191 179 164 179 248 248 254 251 253 254 254 254 254 254 254 252 253 254 255 255 255 255 255 255 255 255 255 255 255 255 255 255 255 255 255 255 255 255 255 255 255 255 255 255 255 255 255 255 255 255 255 255 255 255 255 255 255 255 255 255 255 255 255 255 255 
255 255 255 255 255 255 255 255 255 255 255 255 255 255 255 255 255 255 255 255 255 255 255 255 255 250 254 254 250 224 182 185 190 193 198 210 228 229 200 165 143 223 252 236 252 254 244 243 255 253 250 254 239 254 253 254 253 252 244 247 252 247 250 213 137 159 195 212 213 220 218 200 187 164 163 248 249 254 252 252 254 254 254 254 254 254 252 253 254 255 255 255 255 255 255 255 255 255 255 255 255 255 255 255 255 255 255 255 255 255 255 255 255 255 255 255 255 255 255 255 255 255 255 255 255 255 255 255 255 255 255 255 255 255 255 255 
255 255 255 255 255 255 255 255 255 255 255 255 255 255 255 255 255 255 255 255 255 255 255 255 255 250 254 254 249 218 177 184 198 204 209 211 211 202 171 139 210 236 253 254 253 249 241 254 249 242 254 255 254 252 253 244 254 253 253 237 253 238 243 249 190 155 161 197 211 214 217 211 197 168 153 248 250 254 252 253 254 254 254 254 254 254 252 253 254 255 255 255 255 255 255 255 255 255 255 255 255 255 255 255 255 255 255 255 255 255 255 255 255 255 255 255 255 255 255 255 255 255 255 255 255 255 255 255 255 255 255 255 255 255 255 255 
255 255 255 255 255 255 255 255 255 255 255 255 255 255 255 255 255 255 255 255 255 255 255 255 255 249 254 254 249 215 174 183 201 223 236 228 206 186 168 152 252 249 250 250 247 254 254 239 254 254 254 249 255 243 254 255 253 236 253 254 242 253 251 245 250 167 137 180 202 200 208 217 204 171 148 248 251 254 253 253 254 255 254 254 255 254 254 254 255 255 255 255 255 255 255 255 255 255 255 255 255 255 255 255 255 255 255 255 255 255 255 255 255 255 255 255 255 255 255 255 255 255 255 255 255 255 255 255 255 255 255 255 255 255 255 255 
255 255 255 255 255 255 255 255 255 255 255 255 255 255 255 255 255 255 255 255 255 255 255 255 247 254 252 253 253 218 187 183 197 227 218 210 205 151 152 245 252 254 255 255 255 255 254 254 254 254 255 255 255 255 255 255 253 253 254 254 254 254 253 252 252 247 191 153 189 217 207 204 203 163 150 252 250 247 250 254 254 254 254 254 255 254 254 254 254 255 255 255 255 255 255 255 255 255 255 255 255 255 255 255 255 255 255 255 255 255 255 255 255 255 255 255 255 255 255 255 255 255 255 255 255 255 255 255 255 255 255 255 255 255 255 255 
255 255 255 255 255 255 255 255 255 255 255 255 255 255 255 255 255 255 255 255 255 255 255 255 251 254 252 253 253 210 174 204 218 196 218 222 165 150 207 250 252 254 255 255 255 255 255 255 255 255 255 255 255 255 255 254 254 254 254 254 255 254 254 254 249 253 226 163 165 192 207 221 204 160 159 250 253 254 253 252 253 253 254 254 255 254 254 254 254 255 255 255 255 255 255 255 255 255 255 255 255 255 255 255 255 255 255 255 255 255 255 255 255 255 255 255 255 255 255 255 255 255 255 255 255 255 255 255 255 255 255 255 255 255 255 255 
255 255 255 255 255 255 255 255 255 255 255 255 255 255 255 255 255 255 255 255 255 255 255 255 254 248 253 252 253 208 156 212 210 201 218 188 139 197 250 238 252 254 255 255 255 255 255 255 255 255 255 255 255 255 255 254 254 254 254 254 255 254 254 254 251 253 248 226 203 165 160 195 178 148 186 245 253 254 253 254 253 253 254 254 255 254 254 254 254 255 255 255 255 255 255 255 255 255 255 255 255 255 255 255 255 255 255 255 255 255 255 255 255 255 255 255 255 255 255 255 255 255 255 255 255 255 255 255 255 255 255 255 255 255 255 255 
255 255 255 255 255 255 255 255 255 255 255 255 255 255 255 255 255 255 255 255 255 255 255 255 254 246 254 248 253 218 143 191 187 214 192 156 185 246 250 237 252 254 255 255 255 255 255 255 255 255 255 255 255 255 255 255 254 254 254 254 255 255 254 254 253 251 253 253 253 196 156 166 149 149 225 247 253 252 250 254 254 254 254 254 255 254 254 254 254 255 255 255 255 255 255 255 255 255 255 255 255 255 255 255 255 255 255 255 255 255 255 255 255 255 255 255 255 255 255 255 255 255 255 255 255 255 255 255 255 255 255 255 255 255 255 255 
255 255 255 255 255 255 255 255 255 255 255 255 255 255 255 255 255 255 255 255 255 255 255 254 254 250 255 245 254 239 150 160 179 189 169 190 251 251 234 251 253 254 255 255 255 255 255 255 255 255 255 255 255 255 255 255 254 254 254 255 255 255 254 254 251 254 254 250 254 254 232 199 178 186 252 249 253 250 250 254 254 254 254 254 255 254 254 254 254 255 255 255 255 255 255 255 255 255 255 255 255 255 255 255 255 255 255 255 255 255 255 255 255 255 255 255 255 255 255 255 255 255 255 255 255 255 255 255 255 255 255 255 255 255 255 255 
255 255 255 255 255 255 255 255 255 255 255 255 255 255 255 255 255 255 255 255 255 255 255 254 253 253 254 245 254 252 185 160 175 178 201 239 251 250 248 252 253 254 255 255 255 255 255 255 255 255 255 255 255 255 255 255 255 255 255 255 255 255 254 254 254 254 252 244 251 254 254 249 241 238 252 245 253 254 255 251 254 254 254 255 255 254 254 254 254 255 255 255 255 255 255 255 255 255 255 255 255 255 255 255 255 255 255 255 255 255 255 255 255 255 255 255 255 255 255 255 255 255 255 255 255 255 255 255 255 255 255 255 255 255 255 255 
255 255 255 255 255 255 255 255 255 255 255 255 255 255 255 255 255 255 255 255 255 255 255 254 253 253 254 251 250 254 233 202 199 216 248 252 240 252 252 248 253 254 255 255 255 255 255 255 255 255 255 255 255 255 255 255 255 255 255 255 255 255 255 255 255 244 248 255 255 246 250 254 252 252 251 247 253 253 255 249 254 254 254 255 255 254 254 254 254 255 255 255 255 255 255 255 255 255 255 255 255 255 255 255 255 255 255 255 255 255 255 255 255 255 255 255 255 255 255 255 255 255 255 255 255 255 255 255 255 255 255 255 255 255 255 255 
255 255 255 255 255 255 255 255 255 255 255 255 255 255 255 255 255 255 255 255 255 255 255 254 253 253 254 254 243 250 253 246 246 251 253 253 252 247 247 252 253 254 255 255 255 255 255 255 255 255 255 255 255 255 255 255 254 254 255 255 255 255 255 255 254 253 254 254 248 254 254 246 241 252 244 251 254 244 255 254 254 254 254 255 254 254 254 254 255 255 255 255 255 255 255 255 255 255 255 255 255 255 255 255 255 255 255 255 255 255 255 255 255 255 255 255 255 255 255 255 255 255 255 255 255 255 255 255 255 255 255 255 255 255 255 255 
255 255 255 255 255 255 255 255 255 255 255 255 255 255 255 255 255 255 255 255 255 255 255 254 254 253 254 254 254 255 254 254 254 254 253 253 253 253 253 253 254 255 255 255 255 255 255 255 255 255 255 255 255 255 255 255 254 254 254 254 255 255 254 254 254 254 254 254 254 253 253 254 253 253 253 254 254 254 255 255 254 254 254 255 254 254 254 254 255 255 255 255 255 255 255 255 255 255 255 255 255 255 255 255 255 255 255 255 255 255 255 255 255 255 255 255 255 255 255 255 255 255 255 255 255 255 255 255 255 255 255 255 255 255 255 255 
255 255 255 255 255 255 255 255 255 255 255 255 255 255 255 255 255 255 255 255 255 255 255 254 254 254 254 254 254 254 254 254 254 254 254 254 253 254 253 254 255 255 255 255 255 255 255 255 255 255 255 255 255 255 255 255 254 254 254 254 255 255 254 254 254 254 254 254 253 253 253 254 253 253 254 254 254 254 255 255 254 254 255 255 254 254 254 254 255 255 255 255 255 255 255 255 255 255 255 255 255 255 255 255 255 255 255 255 255 255 255 255 255 255 255 255 255 255 255 255 255 255 255 255 255 255 255 255 255 255 255 255 255 255 255 255 
255 255 255 255 255 255 255 255 255 255 255 255 255 255 255 255 255 255 255 255 255 255 255 254 254 254 254 254 254 254 254 255 254 255 254 254 254 254 254 254 255 255 255 255 255 255 255 255 255 255 255 255 255 255 255 255 254 254 255 255 255 255 255 255 254 254 254 254 254 254 254 254 253 253 254 254 254 254 255 255 255 255 255 255 255 255 254 254 255 255 255 255 255 255 255 255 255 255 255 255 255 255 255 255 255 255 255 255 255 255 255 255 255 255 255 255 255 255 255 255 255 255 255 255 255 255 255 255 255 255 255 255 255 255 255 255 
255 255 255 255 255 255 255 255 255 255 255 255 255 255 255 255 255 255 255 255 255 255 255 255 254 254 254 254 254 254 254 254 254 254 254 254 254 254 254 254 255 255 255 255 255 255 255 255 255 255 255 255 255 255 255 255 254 254 255 255 255 255 255 255 255 255 254 254 254 254 254 254 253 253 254 254 254 254 255 255 255 255 255 255 255 255 254 254 255 255 255 255 255 255 255 255 255 255 255 255 255 255 255 255 255 255 255 255 255 255 255 255 255 255 255 255 255 255 255 255 255 255 255 255 255 255 255 255 255 255 255 255 255 255 255 255 
255 255 255 255 255 255 255 255 255 255 255 255 255 255 255 255 255 255 255 255 255 255 255 255 255 255 255 255 254 254 254 254 254 254 254 254 254 254 254 254 255 255 255 255 255 255 255 255 255 255 255 255 255 255 255 255 255 255 255 255 255 255 254 254 254 254 255 255 255 255 255 255 253 253 254 254 254 254 255 255 254 254 255 255 255 255 254 254 255 255 255 255 255 255 255 255 255 255 255 255 255 255 255 255 255 255 255 255 255 255 255 255 255 255 255 255 255 255 255 255 255 255 255 255 255 255 255 255 255 255 255 255 255 255 255 255 
255 255 255 255 255 255 255 255 255 255 255 255 255 255 255 255 255 255 255 255 255 255 255 255 255 255 255 255 254 254 254 254 254 254 254 254 254 254 254 254 255 255 255 255 255 255 255 255 255 255 255 255 255 255 255 255 255 255 255 255 255 255 254 254 254 254 254 254 254 254 254 254 253 252 253 254 254 254 255 255 254 254 255 255 255 255 254 254 255 255 255 255 255 255 255 255 255 255 255 255 255 255 255 255 255 255 255 255 255 255 255 255 255 255 255 255 255 255 255 255 255 255 255 255 255 255 255 255 255 255 255 255 255 255 255 255 
255 255 255 255 255 255 255 255 255 255 255 255 255 255 255 255 255 255 255 255 255 255 255 255 254 254 254 254 255 254 254 254 254 254 254 254 254 254 254 255 255 255 255 255 255 255 255 255 255 255 255 255 255 255 255 255 254 254 255 255 255 255 254 254 254 254 254 254 254 254 254 254 253 252 253 254 254 254 255 254 254 254 254 254 255 255 254 254 255 255 255 255 255 255 255 255 255 255 255 255 255 255 255 255 255 255 255 255 255 255 255 255 255 255 255 255 255 255 255 255 255 255 255 255 255 255 255 255 255 255 255 255 255 255 255 255 
255 255 255 255 255 255 255 255 255 255 255 255 255 255 255 255 255 255 255 255 255 255 255 254 254 254 254 254 255 255 254 254 254 254 254 254 254 254 254 254 255 255 255 255 255 255 255 255 255 255 255 255 255 255 255 255 254 254 255 255 255 255 254 254 254 254 254 254 254 254 254 254 253 252 253 253 254 254 255 254 254 254 254 254 255 255 254 254 255 255 255 255 255 255 255 255 255 255 255 255 255 255 255 255 255 255 255 255 255 255 255 255 255 255 255 255 255 255 255 255 255 255 255 255 255 255 255 255 255 255 255 255 255 255 255 255 
