P2
90 136
255
255 255 255 255 255 255 255 255 255 255 255 255 255 255 255 255 255 255 255 255 255 255 255 255 255 255 255 255 255 255 255 255 255 255 255 255 255 255 255 255 255 255 255 255 255 255 255 255 254 254 255 255 254 254 254 254 254 255 254 254 252 252 251 253 254 251 251 251 252 252 254 254 254 254 255 255 255 255 254 254 255 255 255 255 255 255 255 255 255 255 
255 255 255 255 255 255 255 255 255 255 255 255 255 255 255 255 255 255 255 255 255 255 255 255 255 255 255 255 255 255 255 255 255 255 255 255 255 255 255 255 255 255 255 255 255 255 255 255 254 254 255 255 254 254 254 254 254 255 254 254 254 252 252 253 254 252 252 252 252 254 254 254 254 254 255 255 255 255 254 254 255 255 255 255 255 255 255 255 255 255 
255 255 255 255 255 255 255 255 255 255 255 255 255 255 255 255 255 255 255 255 255 255 255 255 255 255 255 255 255 255 255 255 255 255 255 255 255 255 255 255 255 255 255 255 255 255 255 255 254 254 255 255 255 255 254 254 255 255 254 254 254 252 252 253 254 254 254 254 254 254 254 254 254 254 255 255 255 255 255 255 255 255 255 255 255 255 255 255 255 255 
255 255 255 255 255 255 255 255 255 255 255 255 255 255 255 255 255 255 255 255 255 255 255 255 255 255 255 255 255 255 255 255 255 255 255 255 255 255 255 255 255 255 255 255 255 255 255 255 254 254 255 255 255 255 254 254 255 255 254 254 254 254 253 253 255 255 255 255 255 255 254 254 254 254 255 255 255 255 255 255 255 255 255 255 255 255 255 255 255 255 
255 255 255 255 255 255 255 255 255 255 255 255 255 255 255 255 255 255 255 255 255 255 255 255 255 255 255 255 255 255 255 255 255 255 255 255 255 255 255 255 255 255 255 255 255 255 255 255 254 254 255 255 255 255 255 255 255 255 254 254 254 254 254 254 254 254 254 254 254 254 255 255 255 255 255 255 255 255 254 254 255 255 255 255 255 255 255 255 255 255 
255 255 255 255 255 255 255 255 255 255 255 255 255 255 255 255 255 255 255 255 255 255 255 255 255 255 255 255 255 255 255 255 255 255 255 255 255 255 255 255 255 255 255 255 255 255 255 255 254 254 255 255 255 255 255 255 255 255 254 254 254 254 254 254 254 253 253 253 254 254 254 254 255 255 255 255 255 255 254 254 255 255 255 255 255 255 255 255 255 255 
255 255 255 255 255 255 255 255 255 255 255 255 255 255 255 255 255 255 255 255 255 255 255 255 255 255 255 255 255 255 255 255 255 255 255 255 255 255 255 255 255 255 255 255 255 255 255 255 254 254 254 254 255 255 254 254 255 255 254 254 254 253 253 253 254 252 252 252 253 253 253 253 254 254 255 255 254 254 254 254 255 255 255 255 255 255 255 255 255 255 
255 255 255 255 255 255 255 255 255 255 255 255 255 255 255 255 255 255 255 255 255 255 255 255 255 255 255 255 255 255 255 255 255 255 255 255 255 255 255 255 255 255 255 255 255 255 255 255 254 254 254 254 255 254 254 254 255 255 254 253 253 252 251 253 254 252 252 253 253 253 253 253 254 254 255 255 254 254 254 254 255 255 255 255 255 255 255 255 255 255 
255 255 255 255 255 255 255 255 255 255 255 255 255 255 255 255 255 255 255 255 255 255 255 255 255 255 255 255 255 255 255 255 255 255 255 255 255 255 255 255 255 255 255 255 255 255 255 255 254 252 254 254 255 254 254 253 253 255 233 253 246 231 249 225 235 253 253 240 254 254 251 253 255 255 255 255 255 255 254 254 255 255 255 255 255 255 255 255 255 255 
255 255 255 255 255 255 255 255 255 255 255 255 255 255 255 255 255 255 255 255 255 255 255 255 255 255 255 255 255 255 255 255 255 255 255 255 255 255 255 255 255 255 255 255 255 255 255 254 252 252 254 255 255 254 253 253 242 255 253 252 238 245 249 249 254 244 235 255 255 239 231 255 255 255 255 255 255 255 255 255 255 255 255 255 255 255 255 255 255 255 
255 255 255 255 255 255 255 255 255 255 255 255 255 255 255 255 255 255 255 255 255 255 255 255 255 255 255 255 255 255 255 255 255 255 255 255 255 255 255 255 255 255 255 255 255 255 255 254 252 252 254 255 255 254 253 253 247 255 254 252 233 248 216 225 240 254 254 247 230 248 254 254 254 254 255 255 255 255 255 255 255 255 255 255 255 255 255 255 255 255 
255 255 255 255 255 255 255 255 255 255 255 255 255 255 255 255 255 255 255 255 255 255 255 255 255 255 255 255 255 255 255 255 255 255 255 255 255 255 255 255 255 255 255 255 255 255 255 254 252 251 252 255 254 253 253 253 254 244 246 252 240 246 124 112 144 204 251 251 242 252 252 247 254 254 255 255 255 254 254 254 255 255 255 255 255 255 255 255 255 255 
255 255 255 255 255 255 255 255 255 255 255 255 255 255 255 255 255 255 255 255 255 255 255 255 255 255 255 255 255 255 255 255 255 255 255 255 255 255 255 255 255 255 255 255 255 255 255 254 251 251 252 255 254 253 253 253 254 244 250 251 236 191 76 76 95 84 139 250 250 250 244 249 254 254 255 255 254 254 254 254 255 255 255 255 255 255 255 255 255 255 
255 255 255 255 255 255 255 255 255 255 255 255 255 255 255 255 255 255 255 255 255 255 255 255 255 255 255 255 255 255 255 255 255 255 255 255 255 255 255 255 255 255 255 255 255 255 255 254 251 251 252 255 254 253 252 252 253 250 253 251 231 124 75 113 136 88 94 150 192 238 250 245 252 254 254 255 254 253 253 253 254 255 255 255 255 255 255 255 255 255 
255 255 255 255 255 255 255 255 255 255 255 255 255 255 255 255 255 255 255 255 255 255 255 255 255 255 255 255 255 255 255 255 255 255 255 255 255 255 255 255 255 255 255 255 255 255 255 254 251 251 252 255 254 253 252 252 250 251 253 251 242 87 89 152 181 156 132 94 91 191 248 240 251 252 254 255 254 253 253 253 254 255 255 255 255 255 255 255 255 255 
255 255 255 255 255 255 255 255 255 255 255 255 255 255 255 255 255 255 255 255 255 255 255 255 255 255 255 255 255 255 255 255 255 255 255 255 255 255 255 255 255 255 255 255 255 255 255 254 252 252 254 255 254 254 253 253 253 244 240 243 249 77 92 150 151 156 174 128 80 132 235 249 249 251 253 254 254 253 252 252 255 255 255 255 255 255 254 254 254 254 
255 255 255 255 255 255 255 255 255 255 255 255 255 255 255 255 255 255 255 255 255 255 255 255 255 255 255 255 255 255 255 255 255 255 255 255 255 255 255 255 255 255 255 255 255 255 255 255 254 254 254 255 254 254 255 254 250 252 254 248 241 76 103 153 174 159 145 150 117 64 100 247 237 250 252 229 254 252 214 252 255 254 230 255 242 254 253 253 220 253 
255 255 255 255 255 255 255 255 255 255 255 255 255 255 255 255 255 255 255 255 255 255 255 255 255 255 255 255 255 255 255 255 255 255 255 255 255 255 255 255 255 255 255 255 255 255 255 254 252 252 254 254 252 254 254 254 250 250 254 246 241 82 99 142 163 174 169 165 143 92 85 135 247 233 220 253 216 252 252 253 230 253 251 254 255 254 226 241 253 224 
255 255 255 255 255 255 255 255 255 255 255 255 255 255 255 255 255 255 255 255 255 255 255 255 255 255 255 255 255 255 255 255 255 255 255 255 255 255 255 255 255 255 255 255 255 255 255 254 252 252 254 254 252 254 254 254 248 250 254 243 240 94 95 126 145 176 180 169 168 140 90 67 174 248 241 251 237 231 246 250 253 253 253 220 254 244 250 255 228 230 
255 255 255 255 255 255 255 255 255 255 255 255 255 255 255 255 255 255 255 255 255 255 255 255 255 255 255 255 255 255 255 255 255 255 255 255 255 255 255 255 255 255 255 255 255 255 255 254 252 252 254 254 252 254 254 254 250 248 254 241 240 115 95 114 131 160 167 164 181 184 131 80 46 147 236 223 250 251 252 254 232 242 251 252 252 244 254 239 252 229 
255 255 255 255 255 255 255 255 255 255 255 255 255 255 255 255 255 255 255 255 255 255 255 255 255 255 255 255 255 255 255 255 255 255 255 255 255 255 255 255 255 255 255 255 255 255 255 254 252 252 254 254 252 254 254 254 250 248 254 241 245 148 101 112 121 131 147 159 173 183 160 120 52 63 194 245 230 248 249 218 249 218 247 226 202 204 251 237 242 248 
255 255 255 255 255 255 255 255 255 255 255 255 255 255 255 255 255 255 255 255 255 255 255 255 255 255 255 255 255 255 255 255 255 255 255 255 255 255 255 255 255 255 255 255 255 255 255 254 254 253 254 254 252 252 254 254 253 250 254 243 250 188 113 117 108 101 120 143 145 149 145 125 52 33 60 205 192 244 192 208 116 45 31 22 12 20 61 69 106 165 
255 255 255 255 255 255 255 255 255 255 255 255 255 255 255 255 255 255 255 255 255 255 255 255 255 255 255 255 255 255 255 255 255 255 255 255 255 255 255 255 255 255 255 255 255 255 255 254 254 253 254 253 252 252 254 254 253 251 254 243 250 229 128 128 113 93 106 130 131 140 144 120 99 76 36 77 100 47 47 41 49 34 25 33 27 22 27 51 58 43 
255 255 255 255 255 255 255 255 255 255 255 255 255 255 255 255 255 255 255 255 255 255 255 255 255 255 255 255 255 255 255 255 255 255 255 255 255 255 255 255 255 255 255 255 255 255 255 254 254 254 253 253 252 252 254 254 253 251 253 246 250 245 139 137 139 108 110 129 137 168 179 142 79 55 50 46 72 13 127 30 30 43 30 50 59 39 23 74 11 60 
255 255 255 255 255 255 255 255 255 255 255 255 255 255 255 255 255 255 255 255 255 255 255 255 255 255 255 255 255 255 255 255 255 255 255 255 255 255 255 255 255 255 255 255 255 255 255 254 254 254 253 252 251 252 254 254 252 250 237 254 251 236 204 112 122 144 145 139 161 183 136 78 57 75 73 43 42 41 49 5 3 80 12 42 35 17 45 66 2 2 
255 255 255 255 255 255 255 255 255 255 255 255 255 255 255 255 255 255 255 255 255 255 255 255 255 255 255 255 255 255 255 255 255 255 255 255 255 255 255 255 255 255 255 255 255 255 255 254 254 254 252 252 251 252 254 254 252 250 244 254 246 239 218 122 118 113 125 146 143 115 99 100 113 96 92 72 45 19 23 5 24 103 39 27 14 17 27 70 4 8 
255 255 255 255 255 255 255 255 255 255 255 255 255 255 255 255 255 255 255 255 255 255 255 255 255 255 255 255 255 255 255 255 255 255 255 255 255 255 255 255 255 255 255 255 255 255 255 254 254 254 252 251 251 252 254 254 244 251 251 253 244 245 230 126 134 107 99 115 121 115 134 170 141 54 27 33 51 53 43 6 12 47 15 15 16 28 40 57 1 14 
255 255 255 255 255 255 255 255 255 255 255 255 255 255 255 255 255 255 255 255 255 255 255 255 255 255 255 255 255 255 255 255 255 255 255 255 255 255 255 255 255 255 255 255 255 255 255 254 254 253 252 251 251 252 254 254 244 251 252 253 244 248 231 116 175 151 114 94 110 137 129 102 37 40 51 49 52 69 42 3 41 102 12 14 12 9 62 29 1 15 
255 255 255 255 255 255 255 255 255 255 255 255 255 255 255 255 255 255 255 255 255 255 255 255 255 255 255 255 255 255 255 255 255 255 255 255 255 255 255 255 255 255 255 255 255 255 255 254 254 253 252 251 250 251 252 255 252 251 250 253 249 249 228 107 113 118 110 102 123 139 93 45 23 54 80 56 40 60 43 14 5 71 24 17 11 15 121 33 2 17 
255 255 255 255 255 255 255 255 255 255 255 255 255 255 255 255 255 255 255 255 255 255 255 255 255 255 255 255 255 255 255 255 255 255 255 255 255 255 255 255 255 255 255 255 255 255 255 254 253 253 251 251 250 251 252 255 252 251 246 253 251 249 233 120 78 76 89 116 131 112 84 70 86 59 35 33 41 54 40 61 2 30 64 14 11 43 71 4 59 57 
255 255 255 255 255 255 255 255 255 255 255 255 255 255 255 255 255 255 255 255 255 255 255 255 255 255 255 255 255 255 255 255 255 255 255 255 255 255 255 255 255 255 255 255 255 255 255 254 253 253 251 251 250 251 252 255 252 251 244 253 245 248 245 164 131 97 94 122 118 81 72 91 91 59 47 80 65 19 7 84 34 14 69 8 11 73 50 6 125 69 
255 255 255 255 255 255 255 255 255 255 255 255 255 255 255 255 255 255 255 255 255 255 255 255 255 255 255 255 255 255 255 255 255 255 255 255 255 255 255 255 255 255 255 255 255 255 255 255 254 253 252 251 251 252 252 255 253 250 243 254 237 243 248 209 129 92 84 112 119 91 79 91 73 50 48 106 82 11 3 127 67 7 64 19 20 50 28 9 125 71 
255 255 255 255 255 255 255 255 255 255 255 255 255 255 255 255 255 255 255 255 255 255 255 255 255 255 255 255 255 255 255 255 255 255 255 255 255 255 255 255 255 255 255 255 255 255 255 255 255 254 254 254 254 254 254 255 254 254 254 255 254 254 252 248 182 89 60 93 92 43 80 66 46 15 38 62 85 29 6 144 80 23 49 27 36 51 29 50 122 101 
255 255 255 255 255 255 255 255 255 255 255 255 255 255 255 255 255 255 255 255 255 255 255 255 255 255 255 255 255 255 255 255 255 255 255 255 255 255 255 255 255 255 255 255 255 255 255 255 255 255 255 255 255 255 255 255 255 255 255 255 255 255 253 249 245 129 47 66 93 63 74 62 63 27 26 45 112 50 10 139 104 55 63 37 43 51 54 69 138 68 
255 255 255 255 255 255 255 255 255 255 255 255 255 255 255 255 255 255 255 255 255 255 255 255 255 255 255 255 255 255 255 255 255 255 255 255 255 255 255 255 255 255 255 255 255 255 255 255 255 255 255 255 255 255 255 255 255 255 255 255 255 255 253 249 210 109 60 106 106 64 71 125 98 102 147 124 127 142 90 95 79 69 72 61 70 55 65 60 82 98 
255 255 255 255 255 255 255 255 255 255 255 255 255 255 255 255 255 255 255 255 255 255 255 255 255 255 255 255 255 255 255 255 255 255 255 255 255 255 255 255 255 255 255 255 255 255 255 255 255 255 255 255 255 255 255 255 255 255 255 255 255 255 253 251 246 95 55 122 90 62 74 162 121 43 19 9 19 90 150 152 73 58 65 68 92 62 55 55 113 138 
255 255 255 255 255 255 255 255 255 255 255 255 255 255 255 255 255 255 255 255 255 255 255 255 255 255 255 255 255 255 255 255 255 255 255 255 255 255 255 255 255 255 255 255 255 255 255 255 255 255 255 255 255 255 255 255 255 255 255 255 255 255 253 251 225 80 97 142 47 29 28 51 4 2 7 29 41 11 13 131 144 71 64 52 83 67 51 85 134 153 
255 255 255 255 255 255 255 255 255 255 255 255 255 255 255 255 255 255 255 255 255 255 255 255 255 255 255 255 255 255 255 255 255 255 255 255 255 255 255 255 255 255 255 255 255 255 255 255 255 255 255 255 255 255 255 255 255 255 255 255 255 255 253 251 238 94 89 35 3 19 59 115 27 17 46 52 35 28 21 48 199 106 80 49 76 62 50 104 192 55 
255 255 255 255 255 255 255 255 255 255 255 255 255 255 255 255 255 255 255 255 255 255 255 255 255 255 255 255 255 255 255 255 255 255 255 255 255 255 255 255 255 255 255 255 255 255 255 255 255 255 255 255 255 255 255 255 255 255 255 255 255 255 253 251 247 75 43 12 28 110 125 157 89 42 122 42 3 55 96 24 165 139 93 54 70 52 65 107 205 30 
255 255 255 255 255 255 255 255 255 255 255 255 255 255 255 255 255 255 255 255 255 255 255 255 255 255 255 255 255 255 255 255 255 255 255 255 255 255 255 255 255 255 255 255 255 255 255 255 255 255 255 255 255 255 255 255 255 255 255 255 255 255 253 251 217 55 27 9 61 112 75 130 178 42 137 134 78 180 84 4 118 163 90 50 59 41 97 132 167 14 
255 255 255 255 255 255 255 255 255 255 255 255 255 255 255 255 255 255 255 255 255 255 255 255 255 255 255 255 255 255 255 255 255 255 255 255 255 255 255 255 255 255 255 255 255 255 255 255 255 255 255 255 255 255 255 255 255 253 253 255 255 255 255 251 185 55 8 64 47 42 79 32 119 131 60 70 139 96 30 5 26 142 102 44 53 52 62 87 92 6 
255 255 255 255 255 255 255 255 255 255 255 255 255 255 255 255 255 255 255 255 255 255 255 255 255 255 255 255 255 255 255 255 255 255 255 255 255 255 255 255 255 255 255 255 255 255 255 255 255 255 255 255 255 255 255 255 255 253 253 255 255 255 255 249 183 40 3 72 109 44 59 45 47 80 122 126 90 84 92 56 24 71 73 68 73 68 73 61 29 12 
255 255 255 255 255 255 255 255 255 255 255 255 255 255 255 255 255 255 255 255 255 255 255 255 255 255 255 255 255 255 255 255 255 255 255 255 255 255 255 255 255 255 255 255 255 255 255 255 255 255 255 255 255 255 255 255 255 253 253 255 255 255 255 248 232 13 39 132 166 99 38 58 69 47 61 85 126 188 126 42 37 38 61 109 109 100 94 47 27 33 
255 255 255 255 255 255 255 255 255 255 255 255 255 255 255 255 255 255 255 255 255 255 255 255 255 255 255 255 255 255 255 255 255 255 255 255 255 255 255 255 255 255 255 255 255 255 255 255 255 255 255 255 255 255 255 255 255 253 250 253 255 255 253 246 249 1 55 115 132 157 66 31 44 48 53 39 59 73 35 35 33 21 39 86 95 87 66 25 18 31 
255 255 255 255 255 255 255 255 255 255 255 255 255 255 255 255 255 255 255 255 255 255 255 255 255 255 255 255 255 255 255 255 255 255 255 255 255 255 255 255 255 255 255 255 255 255 255 255 255 255 255 255 255 255 255 255 255 253 250 253 255 255 248 243 249 36 92 164 151 128 196 106 102 65 52 43 66 79 45 50 20 18 31 57 81 76 41 19 15 27 
255 255 255 255 255 255 255 255 255 255 255 255 255 255 255 255 255 255 255 255 255 255 255 255 255 255 255 255 255 255 255 255 255 255 255 255 255 255 255 255 255 255 255 255 255 255 255 255 255 255 255 255 255 255 255 255 255 253 250 253 255 253 248 241 234 91 111 110 108 51 81 109 69 41 75 91 54 68 88 69 18 22 36 55 91 88 38 23 19 30 
255 255 255 255 255 255 255 255 255 255 255 255 255 255 255 255 255 255 255 255 255 255 255 255 255 255 255 255 255 255 255 255 255 255 255 255 255 255 255 255 255 255 255 255 255 255 255 255 255 255 255 255 255 255 255 255 255 253 250 253 253 253 246 239 249 86 69 32 54 41 24 55 74 66 93 97 49 68 121 77 28 17 29 48 74 75 32 17 13 29 
255 255 255 255 255 255 255 255 255 255 255 255 255 255 255 255 255 255 255 255 255 255 255 255 255 255 255 255 255 255 255 255 255 255 255 255 255 255 255 255 255 255 255 255 255 255 254 255 254 254 254 254 255 254 254 254 254 252 250 250 252 250 244 239 176 101 55 20 8 9 61 107 94 132 77 32 16 27 76 74 59 17 27 49 59 63 29 13 35 49 
255 255 255 255 255 255 255 255 255 255 255 255 255 255 255 255 255 255 255 255 255 255 255 255 255 255 255 255 255 255 255 255 254 254 254 254 254 254 254 254 254 254 254 254 254 254 252 255 250 251 245 244 253 254 253 244 243 245 250 250 241 215 202 208 207 153 49 18 17 12 15 29 67 112 99 97 67 52 44 100 123 103 21 6 49 34 3 30 128 138 
255 255 255 255 255 255 255 255 255 255 255 255 255 255 255 255 255 255 255 255 255 255 255 255 255 255 255 255 255 255 255 255 254 254 254 254 254 254 254 254 254 254 254 254 252 252 252 255 248 251 252 252 249 246 249 249 249 248 237 191 197 127 89 138 191 160 125 76 44 62 80 45 89 150 118 77 47 46 41 70 133 146 101 31 4 4 49 159 135 82 
255 255 255 255 255 255 255 255 255 255 255 255 255 255 255 255 255 255 255 255 255 255 255 255 255 255 255 255 255 255 255 255 255 255 255 255 255 255 255 255 254 254 254 254 254 254 254 255 248 241 240 243 254 253 251 250 206 181 139 167 233 170 84 72 106 112 152 135 70 64 89 89 91 166 170 133 90 73 61 84 122 127 137 112 31 39 147 116 135 128 
255 255 255 255 255 255 255 255 255 255 255 255 255 255 255 255 255 255 255 255 255 255 255 255 255 255 255 255 255 255 255 255 254 254 254 255 255 255 255 255 254 254 254 254 254 254 254 254 255 255 239 252 253 238 197 175 102 78 137 220 184 144 124 84 58 104 139 127 113 76 53 86 121 153 165 149 97 50 42 72 91 116 122 100 55 61 113 98 80 92 
255 255 255 255 255 255 255 255 255 255 255 255 255 255 255 255 255 255 255 255 255 255 255 255 255 255 255 255 255 255 255 255 254 253 253 254 254 254 254 254 255 255 254 254 254 254 254 254 239 248 251 251 212 159 151 170 143 114 163 193 114 77 79 62 48 103 126 88 125 155 72 38 37 47 82 127 144 102 83 90 106 104 103 56 32 40 59 114 142 116 
255 255 255 255 255 255 255 255 255 255 255 255 255 255 255 255 255 255 255 255 255 255 255 255 255 255 255 255 255 255 255 254 253 253 253 253 254 254 254 254 255 255 254 254 254 254 254 252 230 245 248 206 114 71 105 183 213 225 178 141 123 60 22 23 49 65 117 78 66 144 131 73 49 52 75 101 156 157 132 88 94 37 42 38 35 55 45 45 72 90 
255 255 255 255 255 255 255 255 255 255 255 255 255 255 255 255 255 255 255 255 255 255 255 255 255 255 255 255 255 255 255 254 253 252 252 252 253 253 254 254 254 254 254 254 253 253 253 251 248 234 203 167 103 48 35 43 77 149 149 122 113 52 16 22 36 67 150 72 27 71 116 141 93 66 62 51 81 110 168 172 143 92 97 110 108 126 137 120 126 166 
255 255 255 255 255 255 255 255 255 255 255 255 255 255 255 255 255 255 255 255 255 255 255 255 255 255 255 255 255 255 255 254 253 252 252 252 253 253 254 254 254 254 254 253 253 252 253 250 196 126 110 170 200 105 17 0 17 25 38 62 86 79 40 15 9 99 182 36 12 40 42 62 133 100 118 100 82 50 86 124 145 200 165 179 198 163 177 175 158 138 
255 255 255 255 255 255 255 255 255 255 255 255 255 255 255 255 255 255 255 255 255 255 255 255 255 255 255 255 255 255 255 254 253 252 252 253 254 254 252 237 252 249 253 249 248 252 192 77 1 22 97 131 116 90 31 2 2 30 45 54 61 84 39 19 7 148 164 37 12 27 37 6 49 74 99 102 100 102 93 76 105 126 126 157 140 163 137 134 82 60 
255 255 255 255 255 255 255 255 255 255 255 255 255 255 255 255 255 255 255 255 255 255 255 255 255 255 255 255 255 255 255 254 250 249 250 253 254 255 250 248 249 239 249 249 225 210 147 73 25 28 43 57 63 71 45 11 1 6 9 17 40 65 49 39 37 159 148 15 1 9 23 28 18 25 38 61 93 121 129 121 98 100 104 94 93 84 80 71 57 79 
255 255 255 255 255 255 255 255 255 255 255 255 255 255 255 255 255 255 255 255 255 255 255 255 255 255 255 255 255 255 255 254 252 253 254 254 250 250 253 253 242 251 250 214 141 132 166 183 124 61 40 37 30 36 32 11 2 1 1 4 27 39 40 38 25 123 173 23 1 3 5 15 18 15 16 26 44 60 64 59 60 59 72 54 71 59 70 60 38 52 
255 255 255 255 255 255 255 255 255 255 255 255 255 255 255 255 255 255 255 255 255 255 255 255 255 255 255 255 255 255 255 255 254 254 254 255 254 253 252 251 245 246 127 27 26 109 160 99 121 75 69 65 41 42 46 24 5 1 2 5 28 27 26 19 17 119 175 32 1 1 3 8 27 26 22 16 16 19 21 18 35 36 44 34 38 28 27 20 19 10 
255 255 255 255 255 255 255 255 255 255 255 255 255 255 255 255 255 255 255 255 255 255 255 255 255 255 255 255 255 255 255 255 255 251 247 250 254 252 247 239 218 54 6 7 16 17 39 106 62 64 75 63 37 38 38 19 3 2 5 9 30 29 27 14 20 123 155 67 11 1 2 5 11 25 31 20 15 21 31 32 23 30 30 34 22 20 10 6 6 2 
255 255 255 255 255 255 255 255 255 255 255 255 255 255 255 255 255 255 255 255 255 255 255 255 253 253 253 253 253 253 253 253 255 250 246 252 252 251 235 216 77 33 9 5 6 6 16 53 49 62 58 35 23 26 19 7 1 1 6 13 23 27 26 13 15 89 133 130 52 3 1 1 2 14 29 26 20 26 35 39 25 34 30 37 21 22 10 7 4 7 
255 255 255 255 255 255 255 255 255 255 255 255 255 255 255 255 255 255 255 255 255 255 255 255 253 253 253 253 253 253 253 253 254 252 252 252 244 218 186 165 112 54 13 5 6 2 2 6 21 40 39 28 34 38 24 14 1 1 6 20 18 21 16 8 11 62 109 99 61 20 5 2 1 5 17 28 29 22 18 19 34 34 27 20 12 10 6 4 8 10 
255 255 255 255 255 255 255 255 255 255 255 255 255 255 255 255 255 255 255 255 255 255 255 255 252 253 252 253 253 253 252 252 243 248 250 240 206 164 131 114 96 92 35 4 1 3 4 8 2 16 24 24 37 30 12 9 1 1 6 28 18 18 9 5 3 44 119 75 69 73 18 4 1 1 7 31 45 29 16 16 25 20 19 8 12 9 15 13 10 4 
255 255 255 255 255 255 255 255 255 255 255 255 255 255 253 253 254 246 254 226 255 253 254 254 237 253 246 206 251 227 250 249 246 211 105 63 89 117 112 116 127 55 37 20 4 1 2 8 15 25 39 45 41 28 13 5 1 8 19 15 12 9 7 7 4 36 101 84 46 52 51 23 5 1 1 2 13 36 27 34 29 32 28 24 29 33 22 9 2 0 
255 255 255 255 255 255 255 255 255 255 255 255 255 255 255 255 254 237 252 255 255 254 229 228 253 206 226 250 248 231 204 221 170 95 20 4 9 32 65 105 96 86 82 35 8 4 3 6 8 15 24 29 28 20 9 4 12 17 18 17 15 9 6 7 14 33 67 68 41 30 37 42 22 10 5 1 4 12 17 36 27 27 35 47 41 16 2 0 0 1 
255 255 255 255 255 255 255 255 253 253 253 255 255 255 255 255 255 253 248 254 229 253 232 251 247 174 143 65 41 119 130 106 87 90 60 23 6 2 6 22 32 45 62 43 22 10 4 8 8 15 27 35 35 27 16 9 18 11 8 12 15 8 4 7 12 23 40 54 54 43 46 64 51 41 25 6 2 3 6 23 13 18 25 21 7 1 1 1 3 9 
255 255 255 255 255 255 255 255 250 250 253 253 253 255 255 255 245 234 240 253 251 251 149 99 124 93 72 47 28 88 114 122 141 132 112 79 38 9 1 1 22 36 56 52 46 24 5 5 4 9 18 28 29 21 13 8 10 6 5 11 15 8 5 9 25 48 45 34 43 50 40 35 53 68 61 31 13 6 4 9 28 33 20 3 1 1 7 18 24 26 
255 255 255 255 255 255 255 255 253 253 253 253 253 253 253 252 253 252 251 174 132 91 46 21 38 91 78 71 48 65 68 49 86 70 71 81 69 36 11 3 7 21 41 40 44 28 6 3 8 12 20 27 28 23 18 15 11 14 14 14 15 10 9 15 45 78 59 24 21 28 30 29 38 67 77 67 46 23 13 10 25 17 5 2 4 17 31 31 49 30 
255 255 255 255 255 255 255 255 255 253 253 253 250 250 248 248 246 220 188 58 30 17 17 13 4 61 74 71 67 87 97 48 25 23 34 49 44 31 17 7 1 2 14 35 33 10 1 4 9 10 13 15 15 13 13 15 12 20 20 13 10 11 17 28 52 81 83 47 21 14 19 31 25 50 59 69 71 52 41 28 7 3 3 9 26 40 43 42 29 14 
255 255 255 255 255 255 255 255 255 255 255 253 248 246 244 244 235 143 98 69 87 99 65 45 17 15 47 101 85 35 27 21 46 21 12 11 13 21 19 7 6 6 26 51 40 16 3 2 9 10 14 18 16 13 13 15 8 13 13 9 10 13 25 46 87 102 114 80 28 10 8 10 13 33 39 54 68 60 59 42 17 15 20 32 42 40 36 36 6 4 
255 255 255 255 255 255 255 255 255 255 255 253 248 244 242 240 59 39 29 40 36 58 60 104 70 20 75 101 79 62 63 46 26 22 21 13 5 8 15 13 3 21 60 42 44 88 42 2 1 2 6 11 10 6 4 4 8 10 10 11 14 18 30 55 101 93 89 60 25 16 14 7 6 23 30 47 60 50 53 37 20 24 25 26 39 52 40 21 4 6 
255 255 255 255 255 255 255 255 255 255 248 248 246 224 255 58 10 15 17 17 19 23 21 15 43 81 110 117 98 88 83 54 55 30 26 15 7 1 15 5 3 14 31 20 12 39 67 36 1 1 1 4 9 2 1 2 2 4 10 13 10 12 37 89 122 128 72 18 15 20 11 12 6 3 18 57 58 69 62 29 36 23 16 45 62 42 28 8 7 14 
255 255 255 255 255 255 255 255 248 216 255 255 253 244 61 12 2 3 3 2 3 4 4 3 43 112 108 91 144 96 128 82 89 59 27 10 7 3 16 4 3 8 19 19 22 56 93 77 14 2 1 4 7 7 5 1 5 3 4 8 10 15 50 119 138 113 88 37 17 17 9 5 3 3 17 51 73 62 46 20 26 30 33 52 41 23 25 17 16 15 
255 255 255 255 255 255 255 255 255 239 255 246 248 138 5 3 1 1 1 0 0 1 1 0 42 167 124 118 170 103 125 97 99 113 75 33 10 2 11 6 17 22 26 24 22 30 51 72 48 3 2 9 13 26 21 4 2 1 3 15 29 37 68 126 103 61 67 47 19 17 12 6 4 3 9 20 61 44 37 24 40 42 43 50 34 20 20 13 7 6 
255 255 255 255 255 255 255 255 255 255 255 222 171 13 1 2 1 1 1 1 1 1 1 0 62 153 82 124 111 107 74 72 57 94 126 103 21 0 6 7 11 15 20 23 18 10 17 46 57 6 6 19 22 25 14 4 3 7 28 77 108 97 89 95 62 33 36 33 22 19 13 11 6 4 5 6 54 38 33 32 33 26 24 24 18 13 11 6 3 3 
255 255 255 255 255 255 255 255 231 255 255 255 82 0 1 1 1 1 1 1 1 1 1 0 100 88 57 89 69 96 48 51 43 56 122 154 46 0 6 12 8 8 12 20 21 12 17 43 69 26 11 10 9 5 5 14 42 72 120 146 142 118 86 62 49 37 29 22 25 16 4 7 4 5 6 7 70 43 24 21 15 10 11 12 12 16 23 28 44 53 
255 255 255 255 255 255 255 255 255 244 255 255 15 1 0 2 1 1 0 0 0 1 1 1 41 33 75 57 38 22 12 16 30 45 90 94 47 0 3 11 20 8 4 6 11 19 32 48 57 48 5 0 0 1 18 74 115 128 109 67 51 54 49 36 35 41 32 18 21 12 1 3 3 7 6 6 53 39 16 12 14 5 6 12 23 46 66 93 108 93 
255 255 255 255 255 255 255 255 255 233 244 210 0 1 0 1 1 1 0 0 1 1 1 1 1 16 60 25 13 1 1 2 9 37 39 15 49 0 0 2 5 1 1 2 5 21 38 32 44 193 206 222 238 204 202 137 98 74 36 14 11 19 22 17 14 21 25 11 7 7 3 3 4 10 4 2 27 33 15 11 20 6 12 22 33 47 53 79 69 66 
255 255 255 255 255 255 255 255 239 255 255 200 1 0 1 0 1 0 0 1 1 1 0 0 1 32 30 13 9 3 2 4 4 41 16 1 117 28 4 0 1 2 11 18 17 27 26 7 49 242 243 239 244 236 241 94 67 39 15 9 12 18 15 9 5 7 16 5 1 4 7 4 5 12 4 2 21 36 17 12 31 25 59 69 41 25 24 55 55 54 
255 255 255 255 255 255 255 255 255 250 255 222 88 0 1 0 1 1 1 0 0 0 1 1 2 9 23 24 9 2 3 7 10 9 5 17 238 249 153 0 0 2 13 26 16 6 10 28 171 240 252 243 231 244 153 73 60 35 12 3 11 9 7 6 4 3 2 3 3 2 4 8 4 6 3 1 3 17 22 12 60 68 47 28 25 24 32 58 56 31 
255 255 255 255 255 255 255 255 255 255 255 255 170 2 0 1 0 0 0 1 1 1 0 0 2 4 6 5 2 1 5 13 15 5 1 96 248 233 190 122 53 44 50 85 131 166 204 243 253 252 222 248 248 232 95 62 56 28 10 3 9 8 5 1 4 7 7 2 2 4 4 2 0 1 1 1 4 19 29 23 27 38 41 36 31 27 31 45 45 53 
255 255 255 255 255 255 255 255 246 250 231 250 212 11 0 0 1 1 0 0 0 0 1 1 1 1 1 1 1 1 2 5 0 1 1 159 251 251 251 251 251 251 233 235 244 247 249 253 225 253 249 249 243 198 67 48 22 13 13 7 6 3 5 4 4 2 2 2 3 2 1 0 44 88 161 220 246 246 200 153 43 28 20 20 25 37 44 39 44 61 
255 255 255 255 255 255 255 255 246 255 255 255 255 71 8 0 0 0 0 0 1 0 0 0 0 0 0 0 1 1 1 1 10 72 137 249 243 228 252 224 226 252 252 252 249 246 250 254 246 253 239 237 246 178 35 16 18 7 13 14 10 5 18 30 4 5 6 2 0 2 62 237 250 250 250 248 246 251 251 248 128 63 29 19 16 26 34 24 15 33 
255 255 255 255 255 255 255 255 255 239 220 206 242 242 231 144 54 40 24 17 20 36 63 88 165 161 155 151 156 174 193 204 235 253 250 248 253 246 253 220 253 253 248 235 244 253 250 230 254 254 237 253 240 109 16 23 26 8 18 36 33 8 6 6 3 0 0 1 49 202 250 244 244 244 248 253 253 242 229 225 248 246 238 210 157 157 188 184 200 139 
255 255 255 255 255 255 255 255 255 244 255 255 255 255 255 220 226 231 237 246 252 255 254 253 254 255 252 239 241 255 254 255 237 254 248 254 242 215 254 254 254 243 235 239 254 254 254 255 218 254 254 252 233 128 23 16 28 12 19 25 19 1 0 1 10 39 118 205 249 251 251 246 252 252 251 253 254 254 254 252 210 220 246 252 242 244 251 252 249 214 
255 255 255 255 255 255 255 255 250 244 244 239 235 231 233 255 255 254 255 254 255 253 248 249 246 254 255 253 250 253 248 236 239 242 218 254 255 254 253 214 250 254 255 254 253 231 222 225 254 254 238 229 251 250 79 18 12 12 20 22 43 57 137 241 251 231 238 252 252 231 224 252 250 252 252 254 254 255 253 244 255 255 248 249 254 255 246 240 254 242 
255 255 255 255 255 255 255 255 250 255 248 224 255 255 224 255 254 253 249 247 249 253 254 254 254 254 253 242 244 254 254 247 254 251 254 233 254 231 254 254 254 244 242 254 254 254 254 254 231 243 251 252 229 251 229 245 202 248 250 231 253 250 250 251 251 252 252 239 237 254 254 254 248 255 255 251 247 252 254 254 241 254 254 244 254 254 244 254 233 254 
255 255 255 255 255 255 255 255 255 255 255 255 255 255 255 255 254 254 254 254 254 254 254 254 254 254 254 254 254 254 254 254 254 254 254 254 254 254 254 254 254 254 254 254 254 254 254 254 254 252 250 250 252 251 247 247 250 248 248 248 248 248 250 253 254 254 252 254 254 254 254 255 255 254 254 254 254 253 253 254 254 255 255 255 255 255 255 255 255 255 
255 255 255 255 255 255 255 255 255 255 255 255 255 255 255 255 254 254 254 254 254 254 254 254 254 254 254 254 254 254 254 254 254 254 254 254 254 254 254 254 254 254 254 254 254 254 254 254 254 252 250 250 252 252 249 247 250 250 248 248 248 248 250 252 254 254 254 254 254 254 255 255 254 254 254 254 253 253 253 253 255 254 254 254 254 254 254 254 254 254 
0 0 0 0 0 0 0 0 0 0 0 0 0 0 0 0 0 0 0 0 0 0 0 0 0 0 0 0 0 0 0 0 0 0 0 0 0 0 0 0 0 0 0 0 0 0 0 0 0 0 0 0 0 0 0 0 0 0 0 0 0 0 0 0 0 0 0 0 0 0 0 0 0 0 0 0 0 0 0 0 0 0 0 0 0 0 0 0 0 0 
0 0 0 0 0 0 0 0 0 0 0 0 0 0 0 0 0 0 0 0 0 0 0 0 0 0 0 0 0 0 0 0 0 0 0 0 0 0 0 0 0 0 0 0 0 0 0 0 0 0 0 0 0 0 0 0 0 0 0 0 0 0 0 0 0 0 0 0 0 0 0 0 0 0 0 0 0 0 0 0 0 0 0 0 0 0 0 0 0 0 
0 0 0 0 0 0 0 0 0 0 0 0 0 0 0 0 0 0 0 0 0 0 0 0 0 0 0 0 0 0 0 0 0 0 0 0 0 0 0 0 0 0 0 0 0 0 0 0 0 0 0 0 0 0 0 0 0 0 0 0 0 0 0 0 0 0 0 0 0 0 0 0 0 0 0 0 0 0 0 0 0 0 0 0 0 0 0 0 0 0 
0 0 0 0 0 0 0 0 0 0 0 0 0 0 0 0 0 0 0 0 0 0 0 0 0 0 0 0 0 0 0 0 0 0 0 0 0 0 0 0 0 0 0 0 0 0 0 0 0 0 0 0 0 0 0 0 0 0 0 0 0 0 0 0 0 0 0 0 0 0 0 0 0 0 0 0 0 0 0 0 0 0 0 0 0 0 0 0 0 0 
0 0 0 0 0 0 0 0 0 0 0 0 0 0 0 0 0 0 0 0 0 0 0 0 0 0 0 0 0 0 0 0 0 0 0 0 0 0 0 0 0 0 0 0 0 0 0 0 0 0 0 0 0 0 0 0 0 0 0 0 0 0 0 0 0 0 0 0 0 0 0 0 0 0 0 0 0 0 0 0 0 0 0 0 0 0 0 0 0 0 
0 0 0 0 0 0 0 0 0 0 0 0 0 0 0 0 0 0 0 0 0 0 0 0 0 0 0 0 0 0 0 0 0 0 0 0 0 0 0 0 0 0 0 0 0 0 0 0 0 0 0 0 0 0 0 0 0 0 0 0 0 0 0 0 0 0 0 0 0 0 0 0 0 0 0 0 0 0 0 0 0 0 0 0 0 0 0 0 0 0 
0 0 0 0 0 0 0 0 0 0 0 0 0 0 0 0 0 0 0 0 0 0 0 0 0 0 0 0 0 0 0 0 0 0 0 0 0 0 0 0 0 0 0 0 0 0 0 0 0 0 0 0 0 0 0 0 0 0 0 0 0 0 0 0 0 0 0 0 0 0 0 0 0 0 0 0 0 0 0 0 0 0 0 0 0 0 0 0 0 0 
0 0 0 0 0 0 0 0 0 0 0 0 0 0 0 0 0 0 0 0 0 0 0 0 0 0 0 0 0 0 0 0 0 0 0 0 0 0 0 0 0 0 0 0 0 0 0 0 0 0 0 0 0 0 0 0 0 0 0 0 0 0 0 0 0 0 0 0 0 0 0 0 0 0 0 0 0 0 0 0 0 0 0 0 0 0 0 0 0 0 
0 0 0 0 0 0 0 0 0 0 0 0 0 0 0 0 0 0 0 0 0 0 0 0 0 0 0 0 0 0 0 0 0 0 0 0 0 0 0 0 0 0 0 0 0 0 0 0 0 0 0 0 0 0 0 0 0 0 0 0 0 0 0 0 0 0 0 0 0 0 0 0 0 0 0 0 0 0 0 0 0 0 0 0 0 0 0 0 0 0 
0 0 0 0 0 0 0 0 0 0 0 0 0 0 0 0 0 0 0 0 0 0 0 0 0 0 0 0 0 0 0 0 0 0 0 0 0 0 0 0 0 0 0 0 0 0 0 0 0 0 0 0 0 0 0 0 0 0 0 0 0 0 0 0 0 0 0 0 0 0 0 0 0 0 0 0 0 0 0 0 0 0 0 0 0 0 0 0 0 0 
0 0 0 0 0 0 0 0 0 0 0 0 0 0 0 0 0 0 0 0 0 0 0 0 0 0 0 0 0 0 0 0 0 0 0 0 0 0 0 0 0 0 0 0 0 0 0 0 0 0 0 0 0 0 0 0 0 0 0 0 0 0 0 0 0 0 0 0 0 0 0 0 0 0 0 0 0 0 0 0 0 0 0 0 0 0 0 0 0 0 
0 0 0 0 0 0 0 0 0 0 0 0 0 0 0 0 0 0 0 0 0 0 0 0 0 0 0 0 0 0 0 0 0 0 0 0 0 0 0 0 0 0 0 0 0 0 0 0 0 0 0 0 0 0 0 0 0 0 0 0 0 0 0 0 0 0 0 0 0 0 0 0 0 0 0 0 0 0 0 0 0 0 0 0 0 0 0 0 0 0 
0 0 0 0 0 0 0 0 0 0 0 0 0 0 0 0 0 0 0 0 0 0 0 0 0 0 0 0 0 0 0 0 0 0 0 0 0 0 0 0 0 0 0 0 0 0 0 0 0 0 0 0 0 0 0 0 0 0 0 0 0 0 0 0 0 0 0 0 0 0 0 0 0 0 0 0 0 0 0 0 0 0 0 0 0 0 0 0 0 0 
0 0 0 0 0 0 0 0 0 0 0 0 0 0 0 0 0 0 0 0 0 0 0 0 0 0 0 0 0 0 0 0 0 0 0 0 0 0 0 0 0 0 0 0 0 0 0 0 0 0 0 0 0 0 0 0 0 0 0 0 0 0 0 0 0 0 0 0 0 0 0 0 0 0 0 0 0 0 0 0 0 0 0 0 0 0 0 0 0 0 
0 0 0 0 0 0 0 0 0 0 0 0 0 0 0 0 0 0 0 0 0 0 0 0 0 0 0 0 0 0 0 0 0 0 0 0 0 0 0 0 0 0 0 0 0 0 0 0 0 0 0 0 0 0 0 0 0 0 0 0 0 0 0 0 0 0 0 0 0 0 0 0 0 0 0 0 0 0 0 0 0 0 0 0 0 0 0 0 0 0 
0 0 0 0 0 0 0 0 0 0 0 0 0 0 0 0 0 0 0 0 0 0 0 0 0 0 0 0 0 0 0 0 0 0 0 0 0 0 0 0 0 0 0 0 0 0 0 0 0 0 0 0 0 0 0 0 0 0 0 0 0 0 0 0 0 0 0 0 0 0 0 0 0 0 0 0 0 0 0 0 0 0 0 0 0 0 0 0 0 0 
0 0 0 0 0 0 0 0 0 0 0 0 0 0 0 0 0 0 0 0 0 0 0 0 0 0 0 0 0 0 0 0 0 0 0 0 0 0 0 0 0 0 0 0 0 0 0 0 0 0 0 0 0 0 0 0 0 0 0 0 0 0 0 0 0 0 0 0 0 0 0 0 0 0 0 0 0 0 0 0 0 0 0 0 0 0 0 0 0 0 
0 0 0 0 0 0 0 0 0 0 0 0 0 0 0 0 0 0 0 0 0 0 0 0 0 0 0 0 0 0 0 0 0 0 0 0 0 0 0 0 0 0 0 0 0 0 0 0 0 0 0 0 0 0 0 0 0 0 0 0 0 0 0 0 0 0 0 0 0 0 0 0 0 0 0 0 0 0 0 0 0 0 0 0 0 0 0 0 0 0 
0 0 0 0 0 0 0 0 0 0 0 0 0 0 0 0 0 0 0 0 0 0 0 0 0 0 0 0 0 0 0 0 0 0 0 0 0 0 0 0 0 0 0 0 0 0 0 0 0 0 0 0 0 0 0 0 0 0 0 0 0 0 0 0 0 0 0 0 0 0 0 0 0 0 0 0 0 0 0 0 0 0 0 0 0 0 0 0 0 0 
0 0 0 0 0 0 0 0 0 0 0 0 0 0 0 0 0 0 0 0 0 0 0 0 0 0 0 0 0 0 0 0 0 0 0 0 0 0 0 0 0 0 0 0 0 0 0 0 0 0 0 0 0 0 0 0 0 0 0 0 0 0 0 0 0 0 0 0 0 0 0 0 0 0 0 0 0 0 0 0 0 0 0 0 0 0 0 0 0 0 
0 0 0 0 0 0 0 0 0 0 0 0 0 0 0 0 0 0 0 0 0 0 0 0 0 0 0 0 0 0 0 0 0 0 0 0 0 0 0 0 0 0 0 0 0 0 0 0 0 0 0 0 0 0 0 0 0 0 0 0 0 0 0 0 0 0 0 0 0 0 0 0 0 0 0 0 0 0 0 0 0 0 0 0 0 0 0 0 0 0 
0 0 0 0 0 0 0 0 0 0 0 0 0 0 0 0 0 0 0 0 0 0 0 0 0 0 0 0 0 0 0 0 0 0 0 0 0 0 0 0 0 0 0 0 0 0 0 0 0 0 0 0 0 0 0 0 0 0 0 0 0 0 0 0 0 0 0 0 0 0 0 0 0 0 0 0 0 0 0 0 0 0 0 0 0 0 0 0 0 0 
0 0 0 0 0 0 0 0 0 0 0 0 0 0 0 0 0 0 0 0 0 0 0 0 0 0 0 0 0 0 0 0 0 0 0 0 0 0 0 0 0 0 0 0 0 0 0 0 0 0 0 0 0 0 0 0 0 0 0 0 0 0 0 0 0 0 0 0 0 0 0 0 0 0 0 0 0 0 0 0 0 0 0 0 0 0 0 0 0 0 
0 0 0 0 0 0 0 0 0 0 0 0 0 0 0 0 0 0 0 0 0 0 0 0 0 0 0 0 0 0 0 0 0 0 0 0 0 0 0 0 0 0 0 0 0 0 0 0 0 0 0 0 0 0 0 0 0 0 0 0 0 0 0 0 0 0 0 0 0 0 0 0 0 0 0 0 0 0 0 0 0 0 0 0 0 0 0 0 0 0 
0 0 0 0 0 0 0 0 0 0 0 0 0 0 0 0 0 0 0 0 0 0 0 0 0 0 0 0 0 0 0 0 0 0 0 0 0 0 0 0 0 0 0 0 0 0 0 0 0 0 0 0 0 0 0 0 0 0 0 0 0 0 0 0 0 0 0 0 0 0 0 0 0 0 0 0 0 0 0 0 0 0 0 0 0 0 0 0 0 0 
0 0 0 0 0 0 0 0 0 0 0 0 0 0 0 0 0 0 0 0 0 0 0 0 0 0 0 0 0 0 0 0 0 0 0 0 0 0 0 0 0 0 0 0 0 0 0 0 0 0 0 0 0 0 0 0 0 0 0 0 0 0 0 0 0 0 0 0 0 0 0 0 0 0 0 0 0 0 0 0 0 0 0 0 0 0 0 0 0 0 
0 0 0 0 0 0 0 0 0 0 0 0 0 0 0 0 0 0 0 0 0 0 0 0 0 0 0 0 0 0 0 0 0 0 0 0 0 0 0 0 0 0 0 0 0 0 0 0 0 0 0 0 0 0 0 0 0 0 0 0 0 0 0 0 0 0 0 0 0 0 0 0 0 0 0 0 0 0 0 0 0 0 0 0 0 0 0 0 0 0 
0 0 0 0 0 0 0 0 0 0 0 0 0 0 0 0 0 0 0 0 0 0 0 0 0 0 0 0 0 0 0 0 0 0 0 0 0 0 0 0 0 0 0 0 0 0 0 0 0 0 0 0 0 0 0 0 0 0 0 0 0 0 0 0 0 0 0 0 0 0 0 0 0 0 0 0 0 0 0 0 0 0 0 0 0 0 0 0 0 0 
0 0 0 0 0 0 0 0 0 0 0 0 0 0 0 0 0 0 0 0 0 0 0 0 0 0 0 0 0 0 0 0 0 0 0 0 0 0 0 0 0 0 0 0 0 0 0 0 0 0 0 0 0 0 0 0 0 0 0 0 0 0 0 0 0 0 0 0 0 0 0 0 0 0 0 0 0 0 0 0 0 0 0 0 0 0 0 0 0 0 
0 0 0 0 0 0 0 0 0 0 0 0 0 0 0 0 0 0 0 0 0 0 0 0 0 0 0 0 0 0 0 0 0 0 0 0 0 0 0 0 0 0 0 0 0 0 0 0 0 0 0 0 0 0 0 0 0 0 0 0 0 0 0 0 0 0 0 0 0 0 0 0 0 0 0 0 0 0 0 0 0 0 0 0 0 0 0 0 0 0 
0 0 0 0 0 0 0 0 0 0 0 0 0 0 0 0 0 0 0 0 0 0 0 0 0 0 0 0 0 0 0 0 0 0 0 0 0 0 0 0 0 0 0 0 0 0 0 0 0 0 0 0 0 0 0 0 0 0 0 0 0 0 0 0 0 0 0 0 0 0 0 0 0 0 0 0 0 0 0 0 0 0 0 0 0 0 0 0 0 0 
0 0 0 0 0 0 0 0 0 0 0 0 0 0 0 0 0 0 0 0 0 0 0 0 0 0 0 0 0 0 0 0 0 0 0 0 0 0 0 0 0 0 0 0 0 0 0 0 0 0 0 0 0 0 0 0 0 0 0 0 0 0 0 0 0 0 0 0 0 0 0 0 0 0 0 0 0 0 0 0 0 0 0 0 0 0 0 0 0 0 
0 0 0 0 0 0 0 0 0 0 0 0 0 0 0 0 0 0 0 0 0 0 0 0 0 0 0 0 0 0 0 0 0 0 0 0 0 0 0 0 0 0 0 0 0 0 0 0 0 0 0 0 0 0 0 0 0 0 0 0 0 0 0 0 0 0 0 0 0 0 0 0 0 0 0 0 0 0 0 0 0 0 0 0 0 0 0 0 0 0 
0 0 0 0 0 0 0 0 0 0 0 0 0 0 0 0 0 0 0 0 0 0 0 0 0 0 0 0 0 0 0 0 0 0 0 0 0 0 0 0 0 0 0 0 0 0 0 0 0 0 0 0 0 0 0 0 0 0 0 0 0 0 0 0 0 0 0 0 0 0 0 0 0 0 0 0 0 0 0 0 0 0 0 0 0 0 0 0 0 0 
0 0 0 0 0 0 0 0 0 0 0 0 0 0 0 0 0 0 0 0 0 0 0 0 0 0 0 0 0 0 0 0 0 0 0 0 0 0 0 0 0 0 0 0 0 0 0 0 0 0 0 0 0 0 0 0 0 0 0 0 0 0 0 0 0 0 0 0 0 0 0 0 0 0 0 0 0 0 0 0 0 0 0 0 0 0 0 0 0 0 
0 0 0 0 0 0 0 0 0 0 0 0 0 0 0 0 0 0 0 0 0 0 0 0 0 0 0 0 0 0 0 0 0 0 0 0 0 0 0 0 0 0 0 0 0 0 0 0 0 0 0 0 0 0 0 0 0 0 0 0 0 0 0 0 0 0 0 0 0 0 0 0 0 0 0 0 0 0 0 0 0 0 0 0 0 0 0 0 0 0 
0 0 0 0 0 0 0 0 0 0 0 0 0 0 0 0 0 0 0 0 0 0 0 0 0 0 0 0 0 0 0 0 0 0 0 0 0 0 0 0 0 0 0 0 0 0 0 0 0 0 0 0 0 0 0 0 0 0 0 0 0 0 0 0 0 0 0 0 0 0 0 0 0 0 0 0 0 0 0 0 0 0 0 0 0 0 0 0 0 0 
0 0 0 0 0 0 0 0 0 0 0 0 0 0 0 0 0 0 0 0 0 0 0 0 0 0 0 0 0 0 0 0 0 0 0 0 0 0 0 0 0 0 0 0 0 0 0 0 0 0 0 0 0 0 0 0 0 0 0 0 0 0 0 0 0 0 0 0 0 0 0 0 0 0 0 0 0 0 0 0 0 0 0 0 0 0 0 0 0 0 
0 0 0 0 0 0 0 0 0 0 0 0 0 0 0 0 0 0 0 0 0 0 0 0 0 0 0 0 0 0 0 0 0 0 0 0 0 0 0 0 0 0 0 0 0 0 0 0 0 0 0 0 0 0 0 0 0 0 0 0 0 0 0 0 0 0 0 0 0 0 0 0 0 0 0 0 0 0 0 0 0 0 0 0 0 0 0 0 0 0 
0 0 0 0 0 0 0 0 0 0 0 0 0 0 0 0 0 0 0 0 0 0 0 0 0 0 0 0 0 0 0 0 0 0 0 0 0 0 0 0 0 0 0 0 0 0 0 0 0 0 0 0 0 0 0 0 0 0 0 0 0 0 0 0 0 0 0 0 0 0 0 0 0 0 0 0 0 0 0 0 0 0 0 0 0 0 0 0 0 0 
0 0 0 0 0 0 0 0 0 0 0 0 0 0 0 0 0 0 0 0 0 0 0 0 0 0 0 0 0 0 0 0 0 0 0 0 0 0 0 0 0 0 0 0 0 0 0 0 0 0 0 0 0 0 0 0 0 0 0 0 0 0 0 0 0 0 0 0 0 0 0 0 0 0 0 0 0 0 0 0 0 0 0 0 0 0 0 0 0 0 
0 0 0 0 0 0 0 0 0 0 0 0 0 0 0 0 0 0 0 0 0 0 0 0 0 0 0 0 0 0 0 0 0 0 0 0 0 0 0 0 0 0 0 0 0 0 0 0 0 0 0 0 0 0 0 0 0 0 0 0 0 0 0 0 0 0 0 0 0 0 0 0 0 0 0 0 0 0 0 0 0 0 0 0 0 0 0 0 0 0 
0 0 0 0 0 0 0 0 0 0 0 0 0 0 0 0 0 0 0 0 0 0 0 0 0 0 0 0 0 0 0 0 0 0 0 0 0 0 0 0 0 0 0 0 0 0 0 0 0 0 0 0 0 0 0 0 0 0 0 0 0 0 0 0 0 0 0 0 0 0 0 0 0 0 0 0 0 0 0 0 0 0 0 0 0 0 0 0 0 0 
0 0 0 0 0 0 0 0 0 0 0 0 0 0 0 0 0 0 0 0 0 0 0 0 0 0 0 0 0 0 0 0 0 0 0 0 0 0 0 0 0 0 0 0 0 0 0 0 0 0 0 0 0 0 0 0 0 0 0 0 0 0 0 0 0 0 0 0 0 0 0 0 0 0 0 0 0 0 0 0 0 0 0 0 0 0 0 0 0 0 
0 0 0 0 0 0 0 0 0 0 0 0 0 0 0 0 0 0 0 0 0 0 0 0 0 0 0 0 0 0 0 0 0 0 0 0 0 0 0 0 0 0 0 0 0 0 0 0 0 0 0 0 0 0 0 0 0 0 0 0 0 0 0 0 0 0 0 0 0 0 0 0 0 0 0 0 0 0 0 0 0 0 0 0 0 0 0 0 0 0 
0 0 0 0 0 0 0 0 0 0 0 0 0 0 0 0 0 0 0 0 0 0 0 0 0 0 0 0 0 0 0 0 0 0 0 0 0 0 0 0 0 0 0 0 0 0 0 0 0 0 0 0 0 0 0 0 0 0 0 0 0 0 0 0 0 0 0 0 0 0 0 0 0 0 0 0 0 0 0 0 0 0 0 0 0 0 0 0 0 0 
