P2
90 136
255
255 255 255 255 255 255 255 255 255 255 255 255 255 255 255 255 255 255 255 255 255 255 255 255 255 255 255 255 255 255 255 255 255 255 255 255 255 255 255 255 255 255 255 255 255 255 255 255 255 255 255 255 255 255 255 255 255 255 255 255 255 255 255 255 255 255 255 255 255 255 255 255 255 255 255 255 255 255 255 255 255 255 255 255 255 255 255 255 255 255 
255 255 255 255 255 255 255 255 255 255 255 255 255 255 255 255 255 255 255 255 255 255 255 255 255 255 255 255 255 255 255 255 255 255 255 255 255 255 255 255 255 255 255 255 255 255 255 255 255 255 255 255 255 255 255 255 255 255 255 255 255 255 255 255 255 255 255 255 255 255 255 255 255 255 255 255 255 255 255 255 255 255 255 255 255 255 255 255 255 255 
255 255 255 255 255 255 255 255 255 255 255 255 255 255 255 255 255 255 255 255 255 255 255 255 255 255 255 255 255 255 255 255 255 255 255 255 255 255 255 255 255 255 255 255 255 255 255 255 255 255 255 255 255 255 255 255 255 255 255 255 255 255 255 255 255 255 255 255 255 255 255 255 255 255 255 255 255 255 255 255 255 255 255 255 255 255 255 255 255 255 
255 255 255 255 255 255 255 255 255 255 255 255 255 255 255 255 255 255 255 255 255 255 255 255 255 255 255 255 255 255 255 255 255 255 255 255 255 255 255 255 255 255 255 255 255 255 255 255 255 255 255 255 255 255 255 255 255 255 255 255 255 255 255 255 255 255 255 255 255 255 255 255 255 255 255 255 255 255 255 255 255 255 255 255 255 255 255 255 255 255 
255 255 255 255 255 255 255 255 255 255 255 255 255 255 255 255 255 255 255 255 255 255 255 255 255 255 255 255 255 255 255 255 255 255 255 255 255 255 255 255 255 255 255 255 255 255 255 255 255 255 255 255 255 255 255 255 255 255 255 255 255 255 255 255 255 255 255 255 255 255 255 255 255 255 255 255 255 255 255 255 255 255 255 255 255 255 255 255 255 255 
255 255 255 255 255 255 255 255 255 255 255 255 255 255 255 255 255 255 255 255 255 255 255 255 255 255 255 255 255 255 255 255 255 255 255 255 255 255 255 255 255 255 255 255 255 255 255 255 255 255 255 255 255 255 255 255 255 255 255 255 255 255 255 255 255 255 255 255 255 255 255 255 255 255 255 255 255 255 255 255 255 255 255 255 255 255 255 255 255 255 
255 255 255 255 255 255 255 255 255 255 255 255 255 255 255 255 255 255 255 255 255 255 255 255 255 255 255 255 255 255 255 255 255 255 255 255 255 255 255 255 255 255 255 255 255 255 255 255 255 255 255 255 255 255 255 255 255 255 255 255 255 255 255 255 255 255 255 255 255 255 255 255 255 255 255 255 255 255 255 255 255 255 255 255 255 255 255 255 255 255 
255 255 255 255 255 255 255 255 255 255 255 255 255 255 255 255 255 255 255 255 255 255 255 255 255 255 255 255 255 255 255 255 255 255 255 255 255 255 255 255 255 255 255 255 255 255 255 255 255 255 255 255 255 255 255 255 255 255 255 255 255 254 254 254 254 254 254 255 255 255 255 255 255 255 255 254 254 254 254 254 255 255 255 255 255 255 255 255 255 255 
255 255 255 255 255 255 255 255 255 255 255 255 255 255 255 255 255 255 255 255 255 255 255 255 255 255 255 255 255 255 255 255 254 254 255 255 255 255 255 255 254 254 254 254 254 254 254 254 255 254 255 255 255 255 252 249 254 253 253 254 254 254 254 253 251 252 250 246 254 254 254 254 254 246 243 251 253 251 251 253 254 254 254 254 254 254 255 255 255 255 
255 255 255 255 255 255 255 255 255 255 255 255 255 255 255 255 255 255 255 255 255 255 255 255 255 255 255 255 255 255 255 255 254 254 255 255 255 255 255 255 254 254 254 254 254 254 254 254 253 251 250 251 255 255 255 255 255 254 254 253 253 253 252 252 249 252 253 253 253 246 242 246 254 254 253 253 252 253 243 252 254 254 254 254 254 254 255 255 255 255 
255 255 255 255 255 255 255 255 255 255 255 255 255 255 255 255 255 255 255 255 255 255 255 255 255 255 255 255 255 255 255 255 255 255 255 255 255 255 255 255 255 255 254 254 254 254 254 254 255 254 252 251 251 251 249 247 246 248 251 255 255 255 255 251 251 253 251 248 248 245 252 253 251 246 254 247 247 253 241 244 254 254 254 254 255 255 255 255 255 255 
255 255 255 255 255 255 255 255 255 255 255 255 255 255 255 255 255 255 255 255 255 255 255 255 255 255 255 255 255 255 255 255 255 255 255 255 255 255 255 255 255 255 254 254 254 254 254 255 254 254 254 254 254 254 254 254 254 254 254 251 254 254 254 253 253 253 251 252 253 250 250 253 253 253 243 240 248 255 255 254 254 254 254 254 254 254 254 254 255 255 
255 255 255 255 255 255 255 255 255 255 255 255 255 255 255 255 255 255 255 255 255 255 255 255 255 255 255 255 255 255 255 255 255 255 255 255 255 255 255 255 255 255 255 255 255 255 255 255 254 254 253 254 254 254 252 250 249 252 253 253 249 239 219 200 171 188 209 226 233 223 216 221 240 253 244 254 254 233 254 244 254 254 254 254 254 254 254 254 255 255 
255 255 255 255 255 255 255 255 255 255 255 255 255 255 255 255 255 255 255 255 255 255 255 255 255 255 255 255 255 255 255 255 255 255 255 255 255 255 255 255 255 255 255 254 254 254 254 254 254 254 253 253 254 253 251 249 251 223 172 119 84 69 58 48 44 71 89 85 73 65 69 83 160 185 164 186 169 148 228 254 253 253 253 253 253 253 253 253 255 255 
255 255 255 255 255 255 255 255 255 255 255 255 255 255 255 255 255 255 255 255 255 255 255 255 255 255 255 255 255 255 255 255 255 255 255 255 255 255 254 254 254 254 254 254 254 254 254 254 248 252 254 253 251 237 218 205 109 95 70 49 49 66 76 76 82 97 93 73 71 91 115 134 151 113 87 62 30 35 118 227 253 253 253 253 253 253 253 253 255 255 
255 255 255 255 255 255 255 255 255 255 255 255 255 255 255 255 255 255 255 255 255 255 255 255 255 255 255 255 255 255 255 255 255 255 255 255 255 255 254 254 254 254 254 254 254 254 254 254 251 253 251 235 196 140 82 46 65 67 64 59 64 69 61 45 110 112 90 70 84 116 132 132 71 17 58 57 41 44 56 168 253 253 253 253 253 253 253 253 255 255 
255 255 255 255 255 255 255 255 255 255 255 255 255 255 255 255 255 255 255 255 255 255 255 255 255 255 255 255 255 255 255 255 254 254 255 255 255 255 254 254 254 254 254 254 253 254 254 247 251 248 210 127 90 91 71 60 59 57 49 43 46 52 67 86 130 62 28 65 130 155 107 46 41 94 100 86 60 57 82 56 233 248 254 237 254 248 255 255 255 255 
255 255 255 255 255 255 255 255 255 255 255 255 255 255 255 255 255 255 255 255 255 255 255 255 255 255 255 255 255 255 255 255 254 254 255 255 255 255 254 254 254 244 250 254 245 249 254 253 242 152 110 82 54 60 63 54 70 65 57 53 51 45 47 62 126 68 35 87 133 105 66 50 120 162 101 74 55 59 109 53 141 249 254 252 254 254 254 252 255 255 
255 255 255 255 255 255 255 255 255 255 255 255 255 255 255 255 255 255 255 255 255 255 255 255 255 255 255 255 255 255 255 255 254 254 254 254 255 255 254 254 254 246 252 254 251 253 252 223 155 61 41 60 58 59 52 45 38 37 43 59 68 57 53 65 72 41 27 105 136 82 90 131 155 133 62 49 66 77 72 4 50 241 250 254 251 254 252 251 255 254 
255 255 255 255 255 255 255 255 255 255 255 255 255 255 255 255 255 255 255 255 255 255 255 255 255 255 255 255 255 255 255 255 254 254 254 254 255 254 254 254 254 254 254 253 253 253 195 127 67 51 49 50 61 57 30 33 37 37 49 72 79 56 38 43 53 39 33 103 119 88 136 175 130 58 66 56 71 87 26 25 24 200 254 254 247 254 252 254 255 254 
255 255 255 255 255 255 255 255 255 255 255 255 255 255 255 255 255 255 255 255 255 255 255 255 255 255 255 255 255 255 255 255 254 254 254 254 255 255 254 254 245 254 252 251 253 199 106 55 63 67 64 34 25 29 21 33 36 41 57 82 89 67 47 48 45 27 21 66 96 127 170 151 67 61 151 155 132 112 48 77 45 131 254 254 254 249 253 255 254 254 
255 255 255 255 255 255 255 255 255 255 255 255 255 255 255 255 255 255 255 255 255 255 255 255 255 255 255 255 255 255 255 255 254 254 254 254 255 254 254 254 252 254 253 252 222 128 57 59 75 38 49 43 17 33 52 53 53 60 69 82 87 73 60 62 67 38 19 25 79 149 143 77 100 135 168 171 153 138 126 107 75 76 231 254 254 251 254 252 255 254 
255 255 255 255 255 255 255 255 255 255 255 255 255 255 255 255 255 255 255 255 255 255 255 255 255 255 255 255 255 255 255 255 254 254 254 254 255 255 254 254 254 252 253 235 160 87 64 71 50 14 38 54 45 58 63 52 38 49 55 60 74 86 96 108 64 48 30 8 80 157 120 95 145 163 150 149 151 155 149 100 106 76 185 254 254 254 254 251 254 254 
254 255 255 255 255 254 254 254 254 254 254 254 255 255 255 255 255 255 255 255 255 255 255 255 255 255 255 255 255 255 255 254 254 254 254 254 254 255 254 254 248 245 251 199 100 75 82 50 29 32 41 38 52 58 29 22 54 62 55 45 54 74 93 107 93 92 73 17 79 134 84 124 182 162 165 130 117 139 139 154 130 104 149 253 245 254 255 254 254 254 
254 254 255 255 254 254 254 254 253 253 253 254 254 254 251 247 255 255 255 255 254 254 254 254 254 254 252 252 254 254 254 251 251 250 253 253 253 254 255 253 248 254 205 123 90 68 48 54 36 42 40 48 47 46 63 56 57 59 40 52 39 40 91 79 72 103 92 60 55 65 97 145 169 119 90 85 94 139 178 175 124 94 46 247 252 243 254 254 254 254 
254 254 255 255 254 254 254 253 253 253 253 250 246 248 254 254 249 250 250 252 253 254 255 255 254 254 254 254 254 254 254 254 253 253 253 253 253 252 253 249 254 237 171 104 80 62 42 40 28 54 62 62 51 51 63 48 51 57 24 45 38 35 93 73 94 82 77 81 61 31 68 150 139 111 107 124 126 118 102 79 104 79 18 233 245 250 246 253 254 254 
254 254 255 255 254 254 254 254 254 254 254 255 254 253 252 252 254 254 254 254 254 254 254 254 255 254 254 254 250 248 251 254 252 247 249 252 249 252 254 253 254 205 132 90 73 62 49 42 56 68 60 57 65 78 82 46 75 31 56 61 48 46 40 76 91 90 79 61 39 34 77 142 111 115 128 142 142 116 76 48 49 49 25 157 252 252 253 244 254 254 
254 254 255 255 254 254 254 254 254 251 245 245 248 252 253 253 254 254 254 253 252 251 250 249 243 247 252 252 252 253 253 254 254 251 252 254 252 253 253 253 253 173 107 86 70 62 62 59 92 96 80 71 62 63 80 67 48 71 72 79 58 35 48 28 87 135 136 97 60 33 57 123 127 144 140 133 146 152 141 133 134 116 38 165 229 251 233 253 254 254 
255 255 254 254 254 254 254 254 243 250 254 254 253 253 253 253 249 249 250 252 253 253 253 252 252 252 252 252 252 252 249 245 253 252 252 252 249 250 249 245 236 156 105 94 75 67 79 83 94 66 47 77 102 99 99 81 70 27 73 77 72 64 12 45 10 71 101 116 102 20 8 88 146 121 86 79 97 99 92 98 91 101 98 112 252 253 253 250 254 254 
255 254 254 254 254 254 254 255 250 254 252 239 218 208 210 218 215 218 224 232 240 247 251 252 252 250 247 246 248 250 248 247 251 248 251 251 251 251 251 246 209 154 119 113 100 96 109 118 61 54 66 112 119 91 93 96 117 102 60 83 87 51 51 28 44 75 63 74 122 88 19 17 110 51 27 64 87 63 44 54 38 48 56 126 250 253 241 254 254 254 
254 254 254 254 254 254 254 254 253 233 185 150 143 156 174 187 174 177 182 190 197 204 210 212 209 207 205 210 224 241 249 249 247 245 246 248 244 238 227 213 159 131 109 109 118 126 133 137 116 103 98 120 111 76 68 59 81 112 93 50 62 112 120 83 56 73 39 13 67 114 74 12 55 30 57 114 131 117 114 121 120 101 119 80 234 231 250 248 254 254 
254 254 254 254 254 255 254 254 246 202 160 160 191 212 204 183 183 184 185 187 189 190 192 191 207 202 191 183 183 197 217 233 227 217 210 197 174 149 123 100 102 89 74 83 114 134 135 132 130 131 119 114 87 65 86 95 111 91 52 107 96 26 81 137 60 77 86 56 26 42 68 67 22 47 99 116 90 89 105 99 108 83 114 107 251 253 254 254 254 254 
254 254 254 254 254 254 254 254 246 199 175 179 187 210 218 197 201 198 190 165 171 190 184 186 186 198 170 150 167 156 124 122 89 105 148 156 119 138 110 78 10 99 168 192 156 123 73 60 149 125 140 100 64 81 64 42 72 44 103 97 112 96 26 125 112 68 64 63 56 55 47 53 41 126 134 115 60 24 66 59 24 37 76 85 228 253 253 254 254 254 
254 254 254 254 254 255 254 254 251 216 178 189 214 201 196 227 223 204 193 178 183 193 187 196 173 177 181 161 142 154 149 112 149 144 132 149 179 65 22 49 123 177 168 159 113 45 41 106 82 177 180 76 52 97 83 51 29 26 100 105 115 117 65 110 163 90 59 97 109 68 45 56 50 129 145 112 64 52 79 61 42 43 66 66 210 253 247 252 254 254 
254 254 254 254 254 254 254 253 253 248 201 169 192 218 218 218 236 209 198 190 192 196 189 204 173 161 171 167 151 171 187 161 164 183 175 158 68 25 99 131 192 213 179 189 158 74 78 104 108 140 179 153 67 58 93 59 52 13 43 68 85 101 96 125 90 98 73 91 101 69 59 45 49 99 141 131 96 89 96 86 62 87 125 108 219 248 245 255 254 254 
254 254 254 254 254 254 254 253 253 252 239 190 156 188 222 210 228 211 210 200 196 203 198 206 175 164 163 182 190 174 168 182 138 138 128 150 9 110 139 63 122 165 179 189 133 63 108 70 148 138 137 188 155 53 43 67 58 47 29 18 54 113 125 99 73 105 57 76 123 113 89 23 35 44 116 157 138 114 105 121 115 118 128 94 210 248 244 254 254 254 
254 254 254 254 254 254 253 253 252 240 251 251 185 139 165 205 206 211 228 210 199 216 213 205 162 174 187 195 182 143 121 132 133 123 106 114 28 162 140 134 104 147 170 186 173 115 140 53 158 152 131 169 178 124 80 26 86 63 14 11 49 79 108 131 121 114 49 83 130 101 79 37 25 14 90 156 145 120 111 126 113 126 142 106 217 253 254 255 254 254 
254 254 254 254 254 254 254 253 247 252 250 251 246 197 150 151 186 202 229 212 201 223 218 199 152 183 202 170 123 120 131 118 153 126 143 85 101 190 152 127 132 131 102 111 194 153 151 94 166 146 148 155 152 177 151 32 58 77 42 6 7 48 89 124 116 123 69 54 76 90 94 61 29 18 75 139 133 120 122 103 119 92 68 36 188 253 254 247 254 254 
254 254 254 254 254 254 253 253 247 252 248 234 250 250 207 152 168 171 200 197 190 207 199 179 152 188 178 122 101 129 145 135 126 136 182 97 108 191 208 164 98 112 119 108 187 139 149 150 165 188 170 128 149 172 141 124 49 46 61 40 13 11 28 77 122 126 80 27 58 136 137 71 41 21 59 148 152 132 138 90 93 101 110 75 203 252 254 254 254 254 
254 255 254 254 254 254 254 253 252 248 252 251 237 238 250 245 152 139 165 177 174 184 171 156 149 190 145 97 132 140 108 115 79 151 156 88 31 79 135 201 121 109 130 92 148 127 164 162 183 196 218 142 90 144 170 163 91 61 84 48 6 8 19 47 123 108 98 58 56 105 115 100 48 14 44 173 191 146 152 97 94 124 151 109 213 251 248 254 254 254 
255 255 255 255 255 255 255 254 253 253 253 253 252 252 252 252 252 210 143 114 135 157 144 120 164 198 81 111 143 119 91 108 65 142 174 39 36 114 152 111 192 136 87 96 117 132 154 156 184 206 217 198 115 134 178 150 125 72 57 72 46 6 6 31 89 103 104 66 54 76 88 105 59 36 4 151 164 175 147 163 131 132 75 66 206 253 241 255 255 255 
255 255 255 255 255 255 255 255 254 254 254 254 254 254 254 254 249 236 223 153 104 126 133 135 106 130 91 125 135 101 92 106 64 126 166 47 40 109 158 178 138 146 119 121 131 124 123 95 165 158 177 207 174 142 126 136 134 93 60 54 43 22 9 8 44 106 134 72 42 77 101 114 52 36 3 118 159 181 165 161 146 113 63 26 199 252 250 244 255 254 
255 255 255 255 255 255 255 255 255 255 255 255 255 255 255 255 250 253 252 247 164 110 117 121 115 89 101 110 107 84 111 133 90 106 158 9 89 12 52 183 146 177 113 96 131 144 131 57 164 119 139 179 199 164 112 137 144 109 57 37 47 36 10 4 20 73 101 64 53 85 91 89 58 44 13 76 149 176 176 145 130 123 132 73 225 247 255 253 255 254 
255 255 255 255 255 255 255 255 255 255 255 255 255 255 255 255 250 254 236 242 210 157 158 109 136 77 110 98 117 109 141 165 174 140 194 38 143 49 86 187 114 205 159 115 125 131 129 60 153 92 130 139 169 189 148 123 142 116 59 32 49 40 15 14 5 35 90 92 65 45 54 98 81 58 26 42 142 158 164 123 97 124 164 113 219 241 254 248 255 254 
255 255 255 255 255 255 255 255 255 255 255 255 255 255 255 255 247 253 252 251 236 126 91 144 100 66 118 101 123 95 75 78 102 107 213 141 38 86 144 147 104 208 185 139 138 146 152 105 130 68 145 138 146 194 184 100 125 134 86 31 34 45 32 24 6 18 76 111 91 42 34 90 97 66 35 26 136 142 143 110 109 127 129 103 187 252 255 245 255 254 
255 255 255 255 255 255 255 255 255 255 255 255 255 255 255 255 254 249 254 250 250 203 71 102 82 90 130 104 95 62 14 7 13 33 165 177 45 51 85 69 71 129 128 110 129 153 157 138 155 90 168 157 154 179 209 135 116 155 119 34 16 47 49 22 12 11 50 92 102 68 31 46 87 64 35 22 129 142 133 114 109 136 128 109 180 252 254 254 255 254 
255 255 255 255 255 255 255 255 255 255 255 255 255 255 255 254 254 241 244 243 251 209 113 130 16 45 62 64 70 128 140 141 166 136 162 190 199 122 88 56 31 52 93 90 84 88 88 116 189 149 183 158 176 157 208 192 130 148 123 53 19 41 52 33 5 7 51 88 94 63 28 39 60 63 34 22 119 156 133 120 91 120 131 98 195 236 249 254 255 254 
255 255 255 255 255 255 255 255 255 255 255 255 255 255 255 254 239 254 243 253 249 172 130 57 14 29 9 11 13 130 184 183 181 190 149 172 186 220 226 206 155 86 84 67 61 68 56 97 183 187 188 147 193 141 184 204 151 127 106 75 37 29 44 53 21 5 27 84 120 92 37 29 40 65 36 22 109 168 135 121 123 111 112 65 229 253 254 245 255 254 
255 255 255 255 255 255 255 255 255 255 255 255 255 255 255 254 254 249 255 248 247 142 123 146 138 141 128 92 99 27 39 49 118 137 128 123 151 165 167 184 151 127 111 79 68 77 65 55 89 202 175 162 174 113 180 214 189 141 130 76 39 42 28 61 49 6 13 73 96 110 101 76 44 67 57 33 86 156 145 121 124 110 106 84 221 254 248 254 255 254 
255 255 255 255 255 255 255 255 255 255 255 255 255 255 255 254 254 242 253 254 253 134 91 83 115 90 109 134 182 142 121 90 90 122 133 122 116 116 131 159 127 138 157 132 104 101 91 88 20 114 195 173 128 113 191 215 191 149 141 89 50 49 36 65 80 18 7 44 95 111 101 105 88 81 72 49 77 133 119 78 91 92 112 100 223 254 251 250 255 254 
255 255 255 255 255 255 255 255 255 255 255 255 255 255 255 255 254 254 250 250 231 78 83 108 71 72 91 49 65 112 144 120 119 118 123 129 133 129 117 104 116 133 161 151 142 153 141 130 95 24 103 129 105 124 184 207 207 153 130 90 74 77 48 47 99 68 11 8 68 106 105 120 107 77 71 55 64 111 112 80 78 85 103 88 206 250 255 254 255 254 
255 255 255 255 255 255 255 255 255 255 255 255 255 255 255 255 249 255 254 253 230 60 92 132 103 64 69 58 56 55 55 76 100 109 138 157 148 142 136 124 118 138 168 157 146 155 140 126 115 22 90 123 94 100 171 226 193 160 141 104 78 75 55 53 91 109 43 6 25 84 107 103 130 105 95 66 52 78 95 106 81 91 85 69 206 250 254 254 255 254 
255 255 255 255 255 255 255 255 255 255 255 255 255 255 255 255 255 254 239 253 242 82 100 122 112 91 65 63 70 64 44 73 86 101 129 136 118 114 119 114 106 133 168 150 123 121 113 114 29 91 171 163 124 103 173 216 203 161 124 98 96 101 72 43 82 116 77 20 13 48 93 84 111 118 117 79 54 54 78 137 86 99 75 75 234 254 252 250 255 254 
255 255 255 255 255 255 255 255 255 255 255 255 255 255 255 255 243 252 254 253 251 98 87 95 59 108 67 59 83 135 140 134 117 131 139 133 131 146 156 153 162 138 126 100 90 97 87 83 72 163 188 179 166 109 163 208 184 169 142 111 90 89 84 69 89 100 84 74 33 21 71 81 63 93 108 79 52 36 55 127 112 106 75 93 247 252 252 254 255 254 
255 255 255 255 255 255 255 255 255 255 255 255 255 255 255 255 254 253 253 249 238 116 101 114 151 170 117 168 142 93 63 41 79 123 137 124 137 166 188 203 190 136 99 71 66 74 64 64 164 193 181 175 167 102 159 227 185 166 129 101 91 96 95 71 95 88 71 95 66 22 62 78 76 88 107 84 48 29 37 82 136 102 89 134 251 239 255 254 255 254 
255 255 255 255 255 255 255 255 255 255 255 255 255 254 254 255 255 244 254 245 252 180 121 94 23 84 58 109 35 17 99 136 147 167 146 140 192 223 204 173 79 76 97 92 70 66 85 125 178 185 178 156 168 160 194 196 169 164 130 98 79 82 95 81 91 88 58 88 82 40 65 70 97 82 104 95 63 61 75 94 128 87 111 186 252 234 255 249 254 255 
254 254 255 255 254 254 254 254 254 255 255 254 254 254 254 253 253 254 253 254 238 233 110 94 35 33 36 19 63 132 153 185 196 192 160 198 184 113 77 25 27 120 104 95 115 135 144 141 163 136 149 139 156 154 210 181 144 179 128 69 94 103 71 65 100 103 81 47 50 87 106 99 86 70 79 92 76 54 53 56 57 82 202 251 241 254 250 254 254 254 
254 254 255 255 254 254 254 254 254 255 255 254 254 254 254 253 236 253 252 254 252 224 117 186 119 82 111 110 112 108 40 20 35 51 157 197 55 72 157 147 86 153 179 94 110 153 178 143 110 106 129 107 149 186 208 152 158 184 132 74 92 98 70 67 89 70 40 29 58 105 125 118 128 110 99 94 81 65 63 69 81 93 228 252 242 254 254 254 254 254 
255 255 255 255 255 255 254 254 255 255 255 254 254 254 254 254 253 253 244 252 251 249 117 59 108 73 122 139 130 124 73 55 91 119 193 155 51 84 120 210 156 146 215 138 144 134 135 84 119 113 141 117 165 201 171 117 165 179 129 73 77 85 78 91 102 59 23 35 80 120 126 116 136 129 110 101 109 105 97 102 71 76 250 252 248 254 255 254 254 254 
255 255 255 255 255 255 254 254 255 255 255 255 254 254 254 254 254 237 247 252 242 223 165 142 109 113 120 121 105 107 135 150 153 174 183 71 105 95 18 141 186 151 179 124 132 121 116 62 135 114 155 161 194 201 148 150 165 159 112 66 63 75 90 114 61 27 17 59 113 139 136 126 124 140 128 122 139 123 88 78 26 34 250 250 253 254 254 251 254 254 
255 255 255 255 255 255 255 255 255 255 255 255 255 255 255 254 242 253 252 239 249 229 147 115 110 140 95 116 124 95 147 168 131 112 180 45 87 117 103 183 134 178 147 100 106 155 160 93 161 145 187 197 184 165 120 165 166 131 87 67 76 86 90 95 13 12 38 94 136 137 122 113 124 118 72 37 42 36 19 21 7 8 238 251 253 254 254 253 254 254 
255 255 255 255 255 255 255 255 255 255 255 255 255 254 254 254 253 238 247 244 224 130 102 118 141 157 85 118 147 97 113 114 103 85 195 70 38 110 175 185 124 175 125 117 118 141 157 144 163 178 210 207 150 145 132 178 165 105 68 80 96 92 69 41 8 33 84 131 146 128 103 90 69 67 47 31 38 38 28 29 26 12 207 252 251 253 254 255 254 254 
254 254 254 254 255 255 254 254 255 255 254 254 254 254 254 253 251 243 250 197 134 97 145 123 143 160 122 104 121 126 125 115 62 86 164 108 17 63 104 103 181 144 110 112 131 105 133 186 173 199 208 201 116 122 137 166 145 84 66 88 85 63 36 9 10 52 108 137 136 118 96 80 23 20 20 26 34 43 53 60 40 7 158 252 249 253 254 255 254 254 
254 254 254 254 255 255 254 254 255 255 254 254 254 254 254 252 245 249 213 115 122 122 164 147 125 173 192 100 78 150 154 139 112 131 162 178 25 83 152 211 175 111 135 108 164 136 142 159 136 157 159 181 104 119 160 189 119 73 73 89 56 20 11 8 32 79 120 121 104 82 57 34 33 24 31 38 28 25 33 35 32 3 114 252 249 254 253 252 255 254 
254 254 254 254 255 254 254 254 254 255 254 251 253 251 249 252 250 190 137 149 180 184 180 194 146 163 209 164 109 136 154 155 133 130 181 204 118 173 200 183 91 109 125 92 167 171 123 170 91 113 157 154 104 144 195 134 41 90 66 49 35 9 21 29 81 108 133 99 90 93 50 40 56 31 36 55 43 22 23 32 47 22 3 247 249 251 254 254 255 255 
254 254 254 254 255 254 254 254 253 244 254 254 251 253 253 247 167 155 159 188 206 197 196 216 190 163 187 183 157 149 137 145 147 142 139 141 87 127 181 142 146 127 102 134 223 149 81 131 65 149 157 123 143 188 178 111 104 83 37 22 17 8 35 73 120 101 113 105 91 72 44 62 52 47 58 60 32 12 25 45 30 33 7 135 252 254 242 254 254 255 
254 254 254 255 254 254 254 254 254 248 252 254 253 248 226 191 137 161 195 219 219 200 194 210 218 176 175 189 190 171 145 155 108 132 133 131 89 71 171 173 108 111 163 203 185 119 108 46 58 132 134 146 203 196 142 108 89 49 28 10 7 25 77 144 121 92 110 118 89 61 49 66 75 68 70 74 67 57 43 27 21 30 21 22 230 253 244 254 254 254 
254 254 254 255 254 254 254 254 254 255 244 250 253 226 163 153 180 197 212 219 214 198 189 193 207 195 180 171 180 185 175 176 157 159 169 157 115 22 89 130 116 172 209 188 200 172 124 46 70 112 140 175 184 137 90 58 59 9 8 11 55 123 133 140 114 107 123 110 75 76 89 84 64 68 73 78 83 76 39 7 25 16 28 3 122 253 254 248 254 254 
254 254 254 255 254 254 253 254 248 255 251 254 253 203 165 189 202 211 213 210 207 198 189 189 195 198 177 161 165 175 179 172 158 135 169 181 194 100 58 49 134 142 188 177 208 173 96 76 71 146 190 185 156 147 142 102 105 67 83 97 138 187 167 146 152 137 122 98 81 114 148 129 70 102 114 96 78 69 53 33 26 22 22 19 13 232 254 249 254 254 
254 254 254 255 254 254 253 253 254 246 254 254 196 165 192 217 200 214 220 213 201 184 174 177 199 186 166 176 173 155 159 151 129 115 129 125 163 157 111 89 45 21 107 126 160 174 140 126 119 184 201 193 185 178 199 217 208 199 213 214 203 189 174 180 166 136 105 112 128 150 174 155 141 154 135 100 90 93 81 64 20 44 16 41 2 182 248 254 254 254 
254 254 254 255 254 254 253 253 254 250 254 232 156 160 207 207 208 217 218 209 192 171 164 175 199 178 172 200 179 145 161 157 155 185 171 161 149 161 146 125 127 109 62 12 103 159 155 166 201 205 175 169 168 136 138 165 198 204 183 180 183 158 133 114 102 96 80 115 146 149 165 158 183 173 130 94 100 105 72 38 21 45 22 39 2 109 244 254 254 254 
254 254 254 255 254 254 254 254 246 254 249 199 166 195 221 204 217 211 200 191 185 176 179 196 184 182 192 215 175 148 187 186 217 247 232 248 239 246 250 236 220 219 244 251 251 244 251 215 231 223 171 129 118 119 102 48 41 104 85 70 76 64 55 22 30 61 57 84 113 121 154 166 180 190 166 130 116 97 58 28 31 29 32 32 30 54 254 254 254 254 
253 253 253 253 253 253 253 253 241 252 241 178 149 178 204 203 204 197 187 179 177 181 188 194 177 184 186 179 173 182 208 232 251 252 252 252 252 252 252 252 252 252 251 250 249 248 247 248 233 194 144 155 134 82 79 64 71 105 103 71 60 59 45 34 42 43 44 48 64 91 114 125 156 179 183 161 130 99 66 46 35 13 28 95 42 12 249 253 254 254 
252 252 252 253 253 253 253 253 252 252 238 186 149 148 160 163 171 168 164 164 169 178 188 195 231 238 243 243 242 244 249 251 253 254 254 254 254 254 254 254 255 255 255 254 252 252 251 250 230 160 155 185 149 80 66 106 103 116 105 85 87 85 66 48 43 37 30 34 50 70 85 93 103 119 138 156 153 117 78 63 42 34 35 73 43 5 194 252 253 253 
253 253 253 254 254 254 254 253 244 251 252 252 225 186 159 150 148 153 163 179 200 223 243 250 246 247 250 251 251 251 251 249 254 255 255 255 255 255 255 255 255 255 255 255 255 254 254 252 236 188 213 197 148 130 121 147 151 134 104 87 90 87 77 71 50 48 44 46 53 56 61 71 56 65 103 163 178 123 72 70 49 44 25 34 47 12 129 253 252 252 
253 254 254 254 254 254 254 254 251 247 245 249 247 245 250 252 248 248 248 248 250 252 252 252 252 250 249 249 251 252 249 246 254 255 255 255 255 255 255 255 255 255 255 255 255 255 254 253 249 227 244 220 177 183 175 154 130 106 88 89 93 81 71 71 57 65 66 65 64 53 50 63 50 50 92 171 194 120 54 57 53 49 39 53 99 76 114 253 251 252 
254 254 254 254 254 254 254 254 254 253 253 253 253 253 253 250 251 250 249 248 248 249 249 250 253 253 253 253 253 253 253 254 255 255 255 255 255 255 255 255 255 255 255 254 254 254 254 252 252 224 211 238 224 195 182 132 124 70 31 33 50 60 76 91 66 70 58 54 64 60 49 54 59 43 64 147 197 137 60 46 21 21 41 63 103 87 81 243 252 251 
254 254 254 254 254 254 254 254 244 253 254 250 252 254 254 247 254 254 254 254 254 254 254 254 246 249 253 253 252 250 249 249 254 255 255 255 255 255 255 255 254 254 254 253 253 253 253 252 252 246 194 193 208 216 200 106 115 49 9 16 35 41 41 40 74 72 45 35 64 76 60 52 51 27 20 90 180 172 101 64 55 48 58 61 72 75 77 252 251 252 
255 255 255 255 255 255 255 255 255 255 255 250 250 253 253 250 253 252 252 251 251 252 253 253 252 252 253 253 253 253 253 252 254 255 255 255 255 255 255 255 254 254 254 254 254 254 254 253 250 251 219 149 178 240 200 86 94 38 8 11 16 13 12 11 48 69 55 39 63 76 61 53 30 23 8 41 143 186 144 105 98 87 58 42 45 59 60 251 251 252 
254 254 255 255 255 255 255 255 254 249 251 254 254 254 252 254 253 253 252 253 253 254 254 254 253 253 250 250 253 253 253 254 254 255 255 255 255 255 255 255 255 255 255 255 255 255 255 254 249 251 231 169 197 235 149 72 22 7 14 36 28 10 8 9 7 57 71 51 56 58 46 46 16 34 13 20 110 177 165 137 129 124 78 70 86 91 58 229 252 253 
254 254 254 254 255 255 254 254 254 254 254 254 254 253 253 254 254 254 254 254 254 254 254 254 254 254 254 254 255 255 255 255 255 255 255 255 255 255 255 255 255 255 255 255 255 255 255 254 249 252 252 216 213 220 113 6 16 57 58 86 75 42 63 51 33 27 49 45 66 66 65 26 16 13 28 29 62 144 191 161 142 131 116 68 81 69 74 250 251 251 
254 254 254 254 255 255 254 254 254 254 254 254 254 253 253 254 255 254 254 254 254 254 254 254 254 254 254 254 254 254 254 254 254 255 255 255 255 255 255 255 255 255 255 255 255 255 255 254 253 251 252 227 202 172 104 73 97 116 98 116 106 75 84 59 59 50 67 59 71 61 59 26 10 36 79 64 36 72 229 246 200 161 137 100 68 83 150 243 252 253 
254 254 255 255 255 255 255 254 254 254 254 254 254 254 254 254 254 254 254 254 254 254 254 254 254 254 254 254 254 254 254 254 254 255 255 255 255 255 255 255 255 255 255 255 255 255 255 254 253 250 253 247 207 144 121 172 160 143 104 111 106 86 104 92 90 75 89 78 81 60 61 38 20 44 87 86 37 9 230 245 247 241 226 216 173 187 252 253 254 254 
254 254 255 255 255 255 255 255 255 255 255 254 254 254 254 254 254 254 254 254 254 254 254 254 254 254 254 254 253 253 253 254 254 255 255 255 255 255 255 255 255 255 255 255 255 255 255 255 253 251 253 253 235 178 171 230 180 135 95 109 103 81 97 102 108 90 101 91 89 64 69 54 51 44 62 81 51 6 246 248 242 250 248 249 247 245 253 244 254 254 
255 255 255 255 255 255 254 254 254 255 255 255 255 255 255 255 255 254 254 254 254 254 254 254 253 253 253 253 253 253 253 254 254 255 255 255 255 255 255 255 255 255 255 255 255 255 255 254 249 253 249 253 253 232 212 214 190 129 104 135 132 98 86 81 112 92 101 89 88 65 72 57 28 29 49 74 52 5 239 246 248 250 251 246 253 254 244 254 253 253 
255 255 255 255 255 255 254 254 254 254 254 254 254 254 254 254 254 254 254 254 254 254 254 254 254 253 253 253 253 253 253 253 254 255 255 255 255 255 255 255 255 255 255 255 255 255 255 254 249 253 248 248 253 252 231 176 166 113 107 139 143 125 102 79 105 83 88 72 76 59 63 41 6 7 14 39 56 35 231 248 252 238 251 247 247 254 248 254 253 253 
254 254 254 254 254 254 254 254 254 254 254 254 254 254 254 254 254 252 252 252 252 253 253 253 253 253 253 253 253 253 253 254 254 255 255 255 255 255 255 255 255 255 255 255 255 255 255 254 253 253 248 255 252 251 246 187 82 91 131 144 131 128 103 62 84 64 65 48 59 52 52 19 11 20 24 40 89 119 225 248 247 253 254 254 254 254 254 251 254 254 
254 254 254 254 254 254 254 254 254 254 254 254 254 254 254 254 254 253 253 253 253 254 254 254 254 254 254 254 254 254 254 254 255 255 255 255 255 255 255 255 255 255 255 255 255 255 255 254 252 251 251 255 248 245 252 228 8 86 183 181 130 116 73 16 65 46 47 29 47 50 48 11 6 62 118 128 141 129 114 120 213 254 241 251 254 239 254 245 254 254 
255 255 255 255 255 255 255 255 255 254 254 254 254 254 254 254 255 254 254 254 254 254 254 254 254 254 254 254 254 254 254 255 255 255 255 255 255 255 255 255 255 255 255 255 255 255 255 255 255 255 255 254 254 253 253 252 148 144 219 166 171 123 38 48 51 41 49 39 27 30 19 15 100 146 140 113 110 116 96 42 92 250 254 254 244 255 241 254 254 254 
255 255 255 255 255 255 255 255 255 255 255 255 255 255 255 255 255 255 255 255 255 255 255 255 255 255 255 255 255 255 255 255 255 255 255 255 255 255 255 255 255 255 255 255 255 255 255 254 254 254 254 254 254 254 254 253 224 199 210 206 108 69 14 34 22 30 33 37 39 11 24 108 135 158 118 66 67 94 103 87 55 231 252 253 252 254 240 254 254 254 
255 255 255 255 255 255 255 255 255 255 255 255 255 255 255 255 255 255 255 255 255 255 255 255 255 255 255 255 255 255 255 255 255 255 255 255 255 255 255 255 255 255 255 255 255 255 255 255 254 254 254 254 254 254 253 253 252 233 189 173 72 39 21 23 13 34 54 86 91 50 65 154 103 124 90 47 55 70 75 88 42 211 252 251 254 254 244 254 254 254 
255 255 255 255 255 255 255 255 255 255 255 255 255 255 255 255 255 255 255 255 255 255 255 255 255 255 255 255 255 255 255 255 255 255 255 255 255 255 255 255 255 255 255 255 255 255 255 255 254 254 254 254 254 254 254 253 251 240 195 89 70 40 39 11 31 48 81 116 112 96 105 109 54 75 77 68 74 54 33 69 69 190 250 252 250 254 254 254 254 254 
255 255 255 255 255 255 255 255 255 255 255 255 255 255 255 255 255 255 255 255 255 255 255 255 255 255 255 255 255 255 255 255 255 255 255 255 255 255 255 255 255 255 255 255 255 255 255 255 254 254 254 254 254 254 253 253 251 251 235 90 45 37 37 29 76 101 111 121 106 98 117 107 71 70 81 80 75 36 15 73 89 156 246 253 246 247 254 254 254 254 
255 255 255 255 255 255 255 255 255 255 255 255 255 255 255 255 255 255 255 255 255 255 255 255 255 255 255 255 255 255 255 255 255 255 255 255 255 255 255 255 255 255 255 255 255 255 255 255 254 254 254 254 254 254 254 253 253 252 252 186 41 51 62 102 104 151 132 124 106 60 83 127 91 70 84 74 56 26 9 57 64 123 245 253 252 245 255 249 254 254 
255 255 255 255 255 255 255 255 255 255 255 255 255 255 255 255 255 255 255 255 255 255 255 255 255 255 255 255 255 255 255 255 255 255 255 255 255 255 255 255 255 255 255 255 255 255 255 255 254 254 254 254 255 255 254 253 252 247 252 250 126 101 126 161 126 154 112 100 75 17 33 74 59 44 78 65 48 46 12 20 19 115 253 253 254 249 254 250 254 254 
255 255 255 255 255 255 255 255 255 255 255 255 255 255 255 255 255 255 255 255 255 255 255 255 255 255 255 255 255 255 255 255 255 255 255 255 255 255 255 255 255 255 255 255 255 255 255 255 254 254 254 254 255 255 254 254 253 252 249 250 238 149 177 165 185 162 96 78 41 12 33 22 23 20 70 55 49 79 40 10 2 126 253 242 254 254 253 254 254 254 
255 255 255 255 255 255 255 255 255 255 255 255 255 255 255 255 255 255 255 255 255 255 255 255 255 255 255 255 255 255 255 255 255 255 255 255 255 255 255 255 255 255 255 255 255 255 255 255 254 254 255 255 254 254 254 254 246 251 253 253 248 237 210 178 179 170 80 9 21 42 40 59 34 29 39 46 61 58 22 7 2 184 253 241 239 254 236 254 254 254 
255 255 255 255 255 255 255 255 255 255 255 255 255 255 255 255 255 255 255 255 255 255 255 255 255 255 255 255 255 255 255 255 255 255 255 255 255 255 255 255 255 255 255 255 255 255 255 255 254 254 255 255 254 254 254 254 253 252 254 253 252 246 222 190 177 138 38 13 54 70 73 66 65 67 57 39 44 27 5 32 203 224 253 253 254 254 254 254 254 254 
255 255 255 255 255 255 255 255 255 255 255 255 255 255 255 255 255 255 255 255 255 255 255 255 255 255 255 255 255 255 255 255 255 255 255 255 255 255 255 255 255 255 255 255 255 255 255 255 254 254 255 255 254 254 254 254 254 255 253 254 253 253 238 211 181 98 17 50 102 96 78 44 9 24 21 5 6 4 7 94 252 245 253 243 251 236 254 244 254 254 
255 255 255 255 255 255 255 255 255 255 255 255 255 255 255 255 255 255 255 255 255 255 255 255 255 255 255 255 255 255 255 255 255 255 255 255 255 255 255 255 255 255 255 255 255 255 255 255 254 254 255 255 254 254 254 254 254 254 253 254 254 254 250 233 160 54 39 107 140 114 61 33 40 40 53 79 117 118 122 181 247 252 253 250 254 248 255 254 254 254 
255 255 255 255 255 255 255 255 255 255 255 255 255 255 255 255 255 255 255 255 255 255 255 255 255 255 255 255 255 255 255 255 255 255 255 255 255 255 255 255 255 255 255 255 255 255 255 255 254 254 255 255 254 254 253 253 254 254 254 255 253 254 254 249 137 31 83 150 151 118 53 58 63 48 95 167 202 162 66 10 72 165 207 252 252 254 254 245 254 254 
255 255 255 255 255 255 255 255 255 255 255 255 255 255 255 255 255 255 255 255 255 255 255 255 255 255 255 255 255 255 255 255 255 255 255 255 255 255 255 255 255 255 255 255 255 255 255 255 254 254 255 254 254 254 253 253 253 252 254 254 251 251 254 253 173 80 133 175 141 99 54 75 84 84 141 182 179 156 104 67 36 10 17 194 252 251 238 254 254 254 
255 255 255 255 255 255 255 255 255 255 255 255 255 255 255 255 255 255 255 255 255 255 255 255 255 255 255 255 255 255 255 255 255 255 255 255 255 255 255 255 255 255 255 255 255 255 255 255 254 254 255 254 254 254 253 253 253 252 254 254 253 253 254 253 235 164 160 189 140 80 75 75 87 125 170 156 122 110 99 106 52 36 15 145 254 254 249 253 254 254 
255 255 255 255 255 255 255 255 255 255 255 255 255 255 255 255 255 255 255 255 255 255 255 255 255 255 255 255 255 255 255 255 255 255 255 255 255 255 255 255 255 255 255 255 255 255 255 255 254 254 255 254 254 254 254 254 254 253 253 254 255 255 254 250 251 213 157 195 155 83 112 83 121 153 161 123 106 89 41 25 54 68 4 55 246 246 248 254 254 254 
255 255 255 255 255 255 255 255 255 255 255 255 255 255 255 255 255 255 255 255 255 255 255 255 255 255 255 255 255 255 255 255 255 255 255 255 255 255 255 255 255 255 255 255 255 255 255 255 255 255 255 255 255 254 254 254 254 254 254 255 255 254 254 254 252 239 172 182 120 118 78 113 123 149 162 141 118 64 14 27 45 66 38 8 231 255 246 251 254 254 
255 255 255 255 255 255 255 255 255 255 255 255 255 255 255 255 255 255 255 255 255 255 255 255 255 255 255 255 255 255 255 255 255 255 255 255 255 255 255 255 255 255 255 255 255 255 255 255 255 255 255 255 255 255 255 255 255 255 255 255 255 254 254 253 252 231 189 177 140 164 89 133 152 185 183 143 117 57 9 13 25 38 23 7 225 254 252 254 254 254 
255 255 255 255 255 255 255 255 255 255 255 255 255 255 255 255 255 255 255 255 255 255 255 255 255 255 255 255 255 255 255 255 255 255 255 255 255 255 255 255 255 255 255 255 255 255 255 255 255 255 255 255 255 255 255 255 255 255 255 255 255 254 254 253 242 243 181 157 137 156 101 132 156 162 167 170 162 80 9 23 22 17 11 7 215 255 254 254 254 254 
255 255 255 255 255 255 255 255 255 255 255 255 255 255 255 255 255 255 255 255 255 255 255 255 255 255 255 255 255 255 255 255 255 255 255 255 255 255 255 255 255 255 255 255 255 255 255 255 255 255 255 255 255 255 255 255 255 255 255 255 255 254 254 253 253 252 111 92 118 138 154 149 164 196 211 174 139 105 59 51 53 22 10 7 205 249 253 250 254 254 
255 255 255 255 255 255 255 255 255 255 255 255 255 255 255 255 255 255 255 255 255 255 255 255 255 255 255 255 255 255 255 255 255 255 255 255 255 255 255 255 255 255 255 255 255 255 255 255 255 255 255 255 255 255 255 255 255 255 255 255 255 254 254 253 232 252 137 118 142 142 167 167 178 159 179 183 157 127 85 61 86 38 13 6 202 248 254 249 254 254 
255 255 255 255 255 255 255 255 255 255 255 255 255 255 255 255 255 255 255 255 255 255 255 255 255 255 255 255 255 255 255 255 255 255 255 255 255 255 255 255 255 255 255 255 255 255 255 255 255 255 255 255 255 255 255 255 255 255 255 255 255 254 254 254 251 242 197 144 149 146 117 145 173 172 183 152 128 146 131 94 85 42 12 2 204 254 255 254 254 254 
255 255 255 255 255 255 255 255 255 255 255 255 255 255 255 255 255 255 255 255 255 255 255 255 255 255 255 255 255 255 255 255 255 255 255 255 255 255 255 255 255 255 255 255 255 255 255 255 255 255 255 255 255 255 255 255 255 255 255 255 255 254 254 253 253 232 215 162 160 132 66 77 151 175 210 202 157 99 68 99 52 32 10 1 208 255 254 254 254 254 
255 255 255 255 255 255 255 255 255 255 255 255 255 255 255 255 255 255 255 255 255 255 255 255 255 255 255 255 255 255 255 255 255 255 255 255 255 255 255 255 255 255 255 255 255 255 255 255 255 255 255 255 255 255 255 255 255 255 255 255 255 254 254 254 247 253 251 185 106 33 70 141 112 112 111 134 167 110 15 9 21 21 9 1 210 254 251 254 254 254 
255 255 255 255 255 255 255 255 255 255 255 255 255 255 255 255 255 255 255 255 255 255 255 255 255 255 255 255 255 255 255 255 255 255 255 255 255 255 255 255 255 255 255 255 255 255 255 255 255 255 255 255 255 255 255 255 255 255 255 255 255 255 255 255 254 242 253 167 80 64 115 170 66 25 6 5 5 8 13 4 7 4 18 1 158 254 252 254 254 254 
255 255 255 255 255 255 255 255 255 255 255 255 255 255 255 255 255 255 255 255 255 255 255 255 255 255 255 255 255 255 255 255 255 255 255 255 255 255 255 255 255 255 255 255 255 255 255 255 255 255 255 255 255 255 255 255 255 255 255 255 255 255 255 255 254 243 245 201 118 73 138 133 80 34 8 8 8 9 11 5 7 6 13 1 136 254 252 254 254 254 
255 255 255 255 255 255 255 255 255 255 255 255 255 255 255 255 255 255 255 255 255 255 255 255 255 255 255 255 255 255 255 255 255 255 255 255 255 255 255 255 255 255 255 255 255 255 255 255 255 255 255 255 255 255 255 255 255 255 255 255 255 255 255 255 254 254 254 253 161 73 167 131 84 34 9 16 13 8 9 8 7 8 7 5 104 255 254 254 254 254 
255 255 255 255 255 255 255 255 255 255 255 255 255 255 255 255 255 255 255 255 255 255 255 255 255 255 255 255 255 255 255 255 255 255 255 255 255 255 255 255 255 255 255 255 255 255 255 255 255 255 255 255 255 255 255 255 255 255 255 255 255 255 255 255 255 255 243 253 191 96 158 105 76 26 5 14 14 6 8 12 7 9 2 7 79 254 255 252 254 254 
255 255 255 255 255 255 255 255 255 255 255 255 255 255 255 255 255 255 255 255 255 255 255 255 255 255 255 255 255 255 255 255 255 255 255 255 255 255 255 255 255 255 255 255 255 255 255 255 255 255 255 255 255 255 255 255 255 255 255 255 255 255 255 255 242 255 254 254 215 131 142 111 73 23 3 14 14 4 6 11 7 8 2 5 73 251 254 251 254 254 
255 255 255 255 255 255 255 255 255 255 255 255 255 255 255 255 255 255 255 255 255 255 255 255 255 255 255 255 255 255 255 255 255 255 255 255 255 255 255 255 255 255 255 255 255 255 255 255 255 255 255 255 255 255 255 255 255 255 255 255 255 255 255 255 254 254 252 248 253 223 166 95 73 29 9 17 14 5 6 7 8 4 7 1 87 247 255 252 254 254 
255 255 255 255 255 255 255 255 255 255 255 255 255 255 255 255 255 255 255 255 255 255 255 255 255 255 255 255 255 255 255 255 255 255 255 255 255 255 255 255 255 255 255 255 255 255 255 255 255 255 255 255 255 255 255 255 255 255 255 255 255 255 255 255 251 247 254 245 253 239 198 108 68 30 12 16 12 9 11 6 8 2 14 1 110 244 254 254 254 254 
255 255 255 255 255 255 255 255 255 255 255 255 255 255 255 255 255 255 255 255 255 255 255 255 255 255 255 255 255 255 255 255 255 255 255 255 255 255 255 255 255 255 255 255 255 255 255 255 255 255 255 255 255 255 255 255 255 255 255 255 255 255 255 255 254 254 255 251 254 251 246 132 56 24 9 10 9 13 16 8 9 2 17 1 127 242 255 254 254 254 
255 255 255 255 255 255 255 255 255 255 255 255 255 255 255 255 255 255 255 255 255 255 255 255 255 255 255 255 255 255 255 255 255 255 255 255 255 255 255 255 255 255 255 255 255 255 255 255 255 255 255 255 255 255 255 255 255 255 255 255 255 255 255 255 254 255 255 255 254 252 250 248 131 60 29 18 13 20 12 6 2 15 5 0 198 239 255 255 255 255 
255 255 255 255 255 255 255 255 255 255 255 255 255 255 255 255 255 255 255 255 255 255 255 255 255 255 255 255 255 255 255 255 255 255 255 255 255 255 255 255 255 255 255 255 255 255 255 255 255 255 255 255 255 255 255 255 255 255 255 255 255 255 255 255 254 255 255 255 254 252 250 249 255 134 37 10 9 2 0 14 13 0 0 49 244 255 245 241 255 255 
255 255 255 255 255 255 255 255 255 255 255 255 255 255 255 255 255 255 255 255 255 255 255 255 255 255 255 255 255 255 255 255 255 255 255 255 255 255 255 255 255 255 255 255 255 255 255 255 255 255 255 255 255 255 255 255 255 255 255 255 255 255 255 255 255 255 255 255 254 253 251 250 241 250 194 64 0 10 7 0 3 23 59 144 249 255 244 255 255 255 
255 255 255 255 255 255 255 255 255 255 255 255 255 255 255 255 255 255 255 255 255 255 255 255 255 255 255 255 255 255 255 255 255 255 255 255 255 255 255 255 255 255 255 255 255 255 255 255 255 255 255 255 255 255 255 255 255 255 255 255 255 255 255 255 255 255 255 254 254 253 252 252 251 254 252 214 154 68 0 8 159 213 235 255 249 255 246 255 255 255 
255 255 255 255 255 255 255 255 255 255 255 255 255 255 255 255 255 255 255 255 255 255 255 255 255 255 255 255 255 255 255 255 255 255 255 255 255 255 255 255 255 255 255 255 255 255 255 255 255 255 255 255 255 255 255 255 255 255 255 255 255 255 255 255 255 255 255 254 254 254 254 254 252 255 251 240 255 255 234 229 240 255 253 255 232 255 248 241 255 255 
255 255 255 255 255 255 255 255 255 255 255 255 255 255 255 255 255 255 255 255 255 255 255 255 255 255 255 255 255 255 255 255 255 255 255 255 255 255 255 255 255 255 255 255 255 255 255 255 255 255 255 255 255 255 255 255 255 255 255 255 255 255 255 255 255 255 254 254 254 254 255 255 252 255 255 255 255 255 250 255 255 255 244 255 239 255 250 252 255 255 
255 255 255 255 255 255 255 255 255 255 255 255 255 255 255 255 255 255 255 255 255 255 255 255 255 255 255 255 255 255 255 255 255 255 255 255 255 255 255 255 255 255 255 255 255 255 255 255 255 255 255 255 255 255 255 255 255 255 255 255 255 255 255 255 255 255 254 253 254 254 255 255 255 237 248 255 255 250 245 255 253 255 253 255 248 250 250 255 255 255 
255 255 255 255 255 255 255 255 255 255 255 255 255 255 255 255 255 255 255 255 255 255 255 255 255 255 255 255 255 255 255 255 255 255 255 255 255 255 255 255 255 255 255 255 255 255 255 255 255 255 255 255 255 255 255 255 255 255 255 255 255 255 255 255 255 255 254 253 254 255 255 255 255 252 255 255 244 255 255 248 255 255 251 251 255 255 253 253 255 255 
255 255 255 255 255 255 255 255 255 255 255 255 255 255 255 255 255 255 255 255 255 255 255 255 255 255 255 255 255 255 255 255 255 255 255 255 255 255 255 255 255 255 255 255 255 255 255 255 255 255 255 255 255 255 255 255 255 255 255 255 255 255 255 255 255 255 255 255 255 255 255 255 255 255 255 255 255 255 255 255 255 255 255 255 255 255 255 255 255 255 
255 255 255 255 255 255 255 255 255 255 255 255 255 255 255 255 255 255 255 255 255 255 255 255 255 255 255 255 255 255 255 255 255 255 255 255 255 255 255 255 255 255 255 255 255 255 255 255 255 255 255 255 255 255 255 255 255 255 255 255 255 255 255 255 255 255 255 255 255 255 255 255 255 255 255 255 255 255 255 255 255 255 255 255 255 255 255 255 255 255 
255 255 255 255 255 255 255 255 255 255 255 255 255 255 255 255 255 255 255 255 255 255 255 255 255 255 255 255 255 255 255 255 255 255 255 255 255 255 255 255 255 255 255 255 255 255 255 255 255 255 255 255 255 255 255 255 255 255 255 255 255 255 255 255 255 255 255 255 255 255 255 255 255 255 255 255 255 255 255 255 255 255 255 255 255 255 255 255 255 255 
255 255 255 255 255 255 255 255 255 255 255 255 255 255 255 255 255 255 255 255 255 255 255 255 255 255 255 255 255 255 255 255 255 255 255 255 255 255 255 255 255 255 255 255 255 255 255 255 255 255 255 255 255 255 255 255 255 255 255 255 255 255 255 255 255 255 255 255 255 255 255 255 255 255 255 255 255 255 255 255 255 255 255 255 255 255 255 255 255 255 
255 255 255 255 255 255 255 255 255 255 255 255 255 255 255 255 255 255 255 255 255 255 255 255 255 255 255 255 255 255 255 255 255 255 255 255 255 255 255 255 255 255 255 255 255 255 255 255 255 255 255 255 255 255 255 255 255 255 255 255 255 255 255 255 255 255 255 255 255 255 255 255 255 255 255 255 255 255 255 255 255 255 255 255 255 255 255 255 255 255 
255 255 255 255 255 255 255 255 255 255 255 255 255 255 255 255 255 255 255 255 255 255 255 255 255 255 255 255 255 255 255 255 255 255 255 255 255 255 255 255 255 255 255 255 255 255 255 255 255 255 255 255 255 255 255 255 255 255 255 255 255 255 255 255 255 255 255 255 255 255 255 255 255 255 255 255 255 255 255 255 255 255 255 255 255 255 255 255 255 255 
255 255 255 255 255 255 255 255 255 255 255 255 255 255 255 255 255 255 255 255 255 255 255 255 255 255 255 255 255 255 255 255 255 255 255 255 255 255 255 255 255 255 255 255 255 255 255 255 255 255 255 255 255 255 255 255 255 255 255 255 255 255 255 255 255 255 255 255 255 255 255 255 255 255 255 255 255 255 255 255 255 255 255 255 255 255 255 255 255 255 
255 255 255 255 255 255 255 255 255 255 255 255 255 255 255 255 255 255 255 255 255 255 255 255 255 255 255 255 255 255 255 255 255 255 255 255 255 255 255 255 255 255 255 255 255 255 255 255 255 255 255 255 255 255 255 255 255 255 255 255 255 255 255 255 255 255 255 255 255 255 255 255 255 255 255 255 255 255 255 255 255 255 255 255 255 255 255 255 255 255 
