P2
90 136
255
255 255 255 255 255 255 255 255 255 255 255 255 255 255 255 255 255 255 255 255 255 255 255 255 255 255 255 255 255 255 255 255 255 255 255 255 255 255 255 255 255 255 255 255 255 255 255 255 255 255 255 255 255 255 255 255 255 255 255 255 255 255 255 255 255 255 255 255 255 255 255 255 255 255 255 255 255 255 255 255 255 255 255 255 255 255 255 255 255 255 
255 255 255 255 255 255 255 255 255 255 255 255 255 255 255 255 255 255 255 255 255 255 255 255 255 255 255 255 255 255 255 255 255 255 255 255 255 255 255 255 255 255 255 255 255 255 255 255 255 255 255 255 255 255 255 255 255 255 255 255 255 255 255 255 255 255 255 255 255 255 255 255 255 255 255 255 255 255 255 255 255 255 255 255 255 255 255 255 255 255 
255 255 255 255 255 255 255 255 255 255 255 255 255 255 255 255 255 255 255 255 255 255 255 255 255 255 255 255 255 255 255 255 255 255 255 255 255 255 255 255 255 255 255 255 255 255 255 255 255 255 255 255 255 255 255 255 255 255 255 255 255 255 255 255 255 255 255 255 255 255 255 255 255 255 255 255 255 255 255 255 255 255 255 255 255 255 255 255 255 255 
255 255 255 255 255 255 255 255 255 255 255 255 255 255 255 255 255 255 255 255 255 255 255 255 255 255 255 255 255 255 255 255 255 255 255 255 255 255 255 255 255 255 255 255 255 255 255 255 255 255 255 255 255 255 255 255 255 255 255 255 255 255 255 255 255 255 255 255 255 255 255 255 255 255 255 255 255 255 255 255 255 255 255 255 255 255 255 255 255 255 
255 255 255 255 255 255 255 255 255 255 255 255 255 255 255 255 255 255 255 255 255 255 255 255 255 255 255 255 255 255 255 255 255 255 255 255 255 255 255 255 255 255 255 255 255 255 255 255 255 255 255 255 255 255 255 255 255 255 255 255 255 255 255 255 255 255 255 255 255 255 255 255 255 255 255 255 255 255 255 255 255 255 255 255 255 255 255 255 255 255 
255 255 255 255 255 255 255 255 255 255 255 255 255 255 255 255 255 255 255 255 255 255 255 255 255 255 255 255 255 255 255 255 255 255 255 255 255 255 255 255 255 255 255 255 255 255 255 255 255 255 255 255 255 255 255 255 255 255 255 255 255 255 255 255 255 255 255 255 255 255 255 255 255 255 255 255 255 255 255 255 255 255 255 255 255 255 255 255 255 255 
255 255 255 255 255 255 255 255 255 255 255 255 255 255 255 255 255 255 255 255 255 255 255 255 255 255 255 255 255 255 255 255 255 255 255 255 255 255 255 255 255 255 255 255 255 255 255 255 255 255 255 255 255 255 255 255 255 255 255 255 255 255 255 255 255 255 255 255 255 255 255 255 255 255 255 255 255 255 255 255 255 255 255 255 255 255 255 255 255 255 
255 255 255 255 255 255 255 255 255 255 255 255 255 255 255 255 255 255 255 255 255 255 255 255 255 255 255 255 255 255 255 255 255 255 255 255 255 255 255 255 255 255 255 255 255 255 255 255 255 255 255 255 255 255 255 255 255 255 255 255 255 255 255 255 255 255 255 255 255 255 255 255 255 255 255 255 255 255 255 255 255 255 255 255 255 255 255 255 255 255 
255 255 255 255 255 255 255 255 255 255 255 255 255 255 255 255 255 255 255 255 255 255 255 255 255 255 255 255 255 255 255 255 255 255 255 255 255 255 255 255 255 255 255 255 255 255 255 255 255 255 255 255 255 255 255 255 255 255 255 255 255 255 255 255 255 255 253 250 253 255 255 255 255 248 255 255 231 255 255 239 255 255 246 246 255 255 250 250 255 255 
255 255 255 255 255 255 255 255 255 255 255 255 255 255 255 255 255 255 255 255 255 255 255 255 255 255 255 255 255 255 255 255 255 255 255 255 255 255 255 255 255 255 255 255 255 255 255 255 255 255 255 255 255 255 255 255 255 255 255 255 255 255 255 255 255 255 253 250 253 253 255 255 255 216 239 255 255 244 233 255 250 255 250 255 239 244 244 255 255 255 
255 255 255 255 255 255 255 255 255 255 255 255 255 255 255 255 255 255 255 255 255 255 255 255 255 255 255 255 255 255 255 255 255 255 255 255 255 255 255 255 255 255 255 255 255 255 255 255 255 255 255 255 255 255 255 255 255 255 255 255 255 255 255 255 255 255 253 253 253 253 255 255 248 255 255 255 255 255 244 255 255 255 231 255 220 255 244 248 255 255 
255 255 255 255 255 255 255 255 255 255 255 255 255 255 255 255 255 255 255 255 255 255 255 255 255 255 255 255 255 255 255 255 255 255 255 255 255 255 255 255 255 255 255 255 255 255 255 255 255 255 255 255 255 255 255 255 255 255 255 255 255 255 255 255 255 255 255 253 253 253 253 253 248 255 246 222 255 255 210 200 222 255 250 255 206 255 239 224 255 255 
255 255 255 255 255 255 255 255 255 255 255 255 255 255 255 255 255 255 255 255 255 255 255 255 255 255 255 255 255 255 255 255 255 255 255 255 255 255 255 255 255 255 255 255 255 255 255 255 255 255 255 255 255 255 255 255 255 255 255 255 255 255 255 255 255 255 255 253 253 250 248 248 246 253 248 171 82 15 0 1 88 170 212 255 242 255 235 255 255 255 
255 255 255 255 255 255 255 255 255 255 255 255 255 255 255 255 255 255 255 255 255 255 255 255 255 255 255 255 255 255 255 255 255 255 255 255 255 255 255 255 255 255 255 255 255 255 255 255 255 255 255 255 255 255 255 255 255 255 255 255 255 255 255 255 255 255 255 255 253 250 246 244 224 244 138 13 0 1 1 0 0 2 11 71 242 255 231 255 255 255 
255 255 255 255 255 255 255 255 255 255 255 255 255 255 255 255 255 255 255 255 255 255 255 255 255 255 255 255 255 255 255 255 255 255 255 255 255 255 255 255 255 255 255 255 255 255 255 255 255 255 255 255 255 255 255 255 255 255 255 255 255 255 255 255 253 255 255 255 253 248 244 242 255 61 5 1 1 0 0 1 1 0 0 8 231 255 233 224 255 255 
255 255 255 255 255 255 255 255 255 255 255 255 255 255 255 255 255 255 255 255 255 255 255 255 255 255 255 255 255 255 255 255 255 255 255 255 255 255 255 255 255 255 255 255 255 255 255 255 255 255 255 255 255 255 255 255 255 255 255 255 255 255 255 255 253 255 255 255 252 248 244 240 58 12 3 2 1 2 1 0 0 1 0 0 144 220 255 255 255 255 
255 255 255 255 255 255 255 255 255 255 255 255 255 255 255 255 255 255 255 255 255 255 255 255 255 255 255 255 255 255 255 255 255 255 255 255 255 255 255 255 255 255 255 255 255 255 255 255 255 255 255 255 255 255 255 255 255 255 255 255 255 255 255 255 254 254 255 245 253 246 235 59 10 2 1 1 1 1 1 1 1 0 1 0 54 226 255 254 254 254 
255 255 255 255 255 255 255 255 255 255 255 255 255 255 255 255 255 255 255 255 255 255 255 255 255 255 255 255 255 255 255 255 255 255 255 255 255 255 255 255 255 255 255 255 255 255 255 255 255 255 255 255 255 255 255 255 255 255 255 255 255 255 255 255 246 237 253 234 252 220 143 39 15 3 1 1 1 1 1 0 1 0 1 0 40 231 254 253 254 254 
255 255 255 255 255 255 255 255 255 255 255 255 255 255 255 255 255 255 255 255 255 255 255 255 255 255 255 255 255 255 255 255 255 255 255 255 255 255 255 255 255 255 255 255 255 255 255 255 255 255 255 255 255 255 255 255 255 255 255 255 255 255 255 255 254 252 248 240 251 188 98 29 17 3 1 1 1 0 0 0 1 0 0 0 24 237 255 249 254 254 
255 255 255 255 255 255 255 255 255 255 255 255 255 255 255 255 255 255 255 255 255 255 255 255 255 255 255 255 255 255 255 255 255 255 255 255 255 255 255 255 255 255 255 255 255 255 255 255 255 255 255 255 255 255 255 255 255 255 255 255 255 255 255 255 226 255 254 253 174 58 69 40 17 2 0 1 1 0 0 1 0 1 0 0 17 246 254 247 254 254 
255 255 255 255 255 255 255 255 255 255 255 255 255 255 255 255 255 255 255 255 255 255 255 255 255 255 255 255 255 255 255 255 255 255 255 255 255 255 255 255 255 255 255 255 255 255 255 255 255 255 255 255 255 255 255 255 255 255 255 255 255 255 255 255 255 255 229 251 132 30 87 36 19 3 0 1 1 0 1 1 0 1 0 1 20 252 255 249 254 254 
255 255 255 255 255 255 255 255 255 255 255 255 255 255 255 255 255 255 255 255 255 255 255 255 255 255 255 255 255 255 255 255 255 255 255 255 255 255 255 255 255 255 255 255 255 255 255 255 255 255 255 255 255 255 255 255 255 255 255 255 255 255 255 255 253 254 253 251 91 17 99 58 23 4 1 1 1 1 1 1 0 1 0 0 36 255 253 253 254 254 
255 255 255 255 255 255 255 255 255 255 255 255 255 255 255 255 255 255 255 255 255 255 255 255 255 255 255 255 255 255 255 255 255 255 255 255 255 255 255 255 255 255 255 255 255 255 255 255 255 255 255 255 255 255 255 255 255 255 255 255 255 255 255 255 254 229 232 149 46 17 65 60 21 4 1 1 1 1 1 0 1 0 1 0 63 254 248 254 254 254 
255 255 255 255 255 255 255 255 255 255 255 255 255 255 255 255 255 255 255 255 255 255 255 255 255 255 255 255 255 255 255 255 255 255 255 255 255 255 255 255 255 255 255 255 255 255 255 255 255 255 255 255 255 255 255 255 255 255 255 255 255 255 255 255 254 228 251 99 21 13 45 104 15 3 0 0 0 1 1 0 1 0 1 0 88 253 249 254 254 254 
255 255 255 255 255 255 255 255 255 255 255 255 255 255 255 255 255 255 255 255 255 255 255 255 255 255 255 255 255 255 255 255 255 255 255 255 255 255 255 255 255 255 255 255 255 255 255 255 255 255 255 255 255 255 255 255 255 255 255 255 255 253 253 252 237 253 247 124 38 4 17 70 43 43 42 62 100 41 1 1 2 2 1 0 165 254 246 254 254 254 
255 255 255 255 255 255 255 255 255 255 255 255 255 255 255 255 255 255 255 255 255 255 255 255 255 255 255 255 255 255 255 255 255 255 255 255 255 255 255 255 255 255 255 255 255 255 255 255 255 255 255 255 255 255 255 255 255 255 255 255 255 253 253 253 253 206 174 93 91 61 15 20 81 112 167 153 88 33 16 32 9 4 1 0 161 255 254 254 254 254 
255 255 255 255 255 255 255 255 255 255 255 255 255 255 255 255 255 255 255 255 255 255 255 255 255 255 255 255 255 255 255 255 255 255 255 255 255 255 255 255 255 255 255 255 255 255 255 255 255 255 255 255 255 255 255 255 255 255 255 255 255 253 253 252 246 226 143 72 78 74 47 75 110 108 124 82 57 75 60 30 23 6 1 0 155 252 255 253 254 254 
255 255 255 255 255 255 255 255 255 255 255 255 255 255 255 255 255 255 255 255 255 255 255 255 255 255 255 255 255 255 255 255 255 255 255 255 255 255 255 255 255 255 255 255 255 255 255 255 255 255 255 255 255 255 255 255 255 255 255 255 255 253 253 253 206 250 65 47 71 71 101 101 117 91 118 124 89 57 25 13 24 5 1 0 151 239 253 242 254 254 
255 255 255 255 255 255 255 255 255 255 255 255 255 255 255 255 255 255 255 255 255 255 255 255 255 255 255 255 255 255 255 255 255 255 255 255 255 255 255 255 255 255 255 255 255 255 255 255 255 255 255 255 255 255 255 255 255 255 255 255 255 253 253 253 251 248 41 28 48 67 85 79 98 144 170 111 69 38 13 9 9 2 1 1 156 241 250 244 254 254 
255 255 255 255 255 255 255 255 255 255 255 255 255 255 255 255 255 255 255 255 255 255 255 255 255 255 255 255 255 255 255 255 255 255 255 255 255 255 255 255 255 255 255 255 255 255 255 255 255 255 255 255 255 255 255 255 255 255 255 255 255 253 253 253 227 231 119 88 65 87 35 62 88 96 103 107 96 22 1 3 2 1 1 1 174 255 253 254 254 254 
255 255 255 255 255 255 255 255 255 255 255 255 255 255 255 255 255 255 255 255 255 255 255 255 255 255 255 255 255 255 255 255 255 255 255 255 255 255 255 255 255 255 255 255 255 255 255 255 255 255 255 255 255 255 255 255 255 255 255 255 255 253 253 252 250 204 130 114 68 97 27 63 83 128 125 74 48 12 1 2 3 5 2 1 193 254 248 254 254 254 
255 255 255 255 255 255 255 255 255 255 255 255 255 255 255 255 255 255 255 255 255 255 255 255 255 255 255 255 255 255 255 255 255 255 255 255 255 255 255 255 255 255 255 255 255 255 255 255 255 255 255 255 255 254 254 254 254 254 254 255 255 253 253 252 249 221 106 122 49 48 21 46 54 82 97 72 51 16 2 4 7 13 5 1 204 255 236 247 254 254 
255 255 255 255 255 255 255 255 255 255 255 255 255 255 255 255 255 255 255 255 255 255 255 255 255 255 255 255 255 255 255 255 255 255 255 255 255 255 255 255 255 255 255 255 255 255 255 255 254 254 255 254 254 253 253 253 253 250 252 254 255 255 254 243 246 170 87 141 86 25 46 26 55 89 99 57 43 30 9 4 10 15 0 10 235 237 239 254 254 254 
255 255 255 255 255 255 255 255 255 255 255 255 255 255 255 255 255 255 255 255 255 255 255 255 255 255 255 255 255 255 255 255 255 255 255 255 255 255 255 255 255 255 255 255 255 255 255 255 254 254 255 254 253 253 252 252 252 249 253 254 251 250 252 248 211 95 90 132 70 23 21 22 30 59 113 94 56 45 37 41 9 5 1 72 253 254 242 251 254 254 
255 255 255 255 255 255 255 255 255 255 255 255 255 255 255 255 255 255 255 255 255 255 255 255 255 255 255 255 255 255 255 255 255 255 255 255 255 255 255 255 255 255 255 255 255 255 255 255 254 254 255 254 253 253 252 252 252 250 254 254 247 246 252 250 105 20 60 112 71 34 12 21 26 27 75 126 122 90 39 16 5 1 1 137 250 248 218 254 254 254 
255 255 255 255 255 255 255 255 255 255 255 255 255 255 255 255 255 255 255 255 255 255 255 255 255 255 255 255 255 255 255 255 255 255 255 255 255 255 255 255 255 255 255 255 255 255 255 255 254 254 255 255 254 253 252 252 253 253 254 255 250 252 252 240 63 4 23 79 81 49 11 13 15 10 33 103 154 94 15 1 17 96 159 249 248 254 254 233 254 254 
255 255 255 255 255 255 255 255 255 255 255 255 255 255 255 255 255 255 255 255 255 255 255 255 255 255 255 255 255 255 255 255 255 255 255 255 255 255 255 255 255 255 255 255 255 255 255 255 254 254 255 255 254 254 253 253 254 254 250 254 254 252 244 206 89 9 6 38 69 44 13 5 7 7 10 21 46 47 49 117 238 248 251 243 253 242 255 254 254 254 
255 255 255 255 255 255 255 255 255 255 255 255 255 255 255 255 255 255 255 255 255 255 255 255 255 255 255 255 255 255 255 255 255 255 255 255 255 255 255 255 255 255 255 255 255 255 255 255 254 254 255 255 254 254 253 253 254 255 250 253 252 251 218 164 117 32 2 9 36 31 21 8 1 3 2 0 0 0 0 28 249 233 251 228 246 215 254 231 254 254 
255 255 255 255 255 255 255 255 255 255 255 255 255 255 255 255 255 255 255 255 255 255 255 255 255 255 255 255 255 255 255 255 255 255 255 255 255 255 255 255 255 255 255 255 255 255 255 255 254 254 255 255 254 254 254 254 252 250 253 252 247 235 186 131 112 65 6 1 11 17 19 15 15 16 11 6 6 3 0 4 153 190 251 252 253 254 253 254 254 254 
255 255 255 255 255 255 255 255 255 255 255 255 255 255 255 255 255 255 255 255 255 255 255 255 255 255 255 255 255 255 255 255 255 255 255 255 255 255 255 255 255 255 255 255 255 255 255 255 254 254 255 255 254 254 254 254 237 248 253 251 239 216 165 114 116 105 22 1 3 7 7 13 5 4 6 7 12 11 2 0 0 122 251 224 220 254 214 254 254 254 
255 255 255 255 255 255 255 255 255 255 255 255 255 255 255 255 255 255 255 255 255 255 255 255 255 255 255 255 255 255 255 255 255 255 255 255 255 255 255 255 255 255 255 255 255 255 255 255 254 254 254 254 255 255 254 254 252 249 242 245 218 77 112 96 127 96 32 22 7 1 6 3 3 3 17 11 8 20 5 1 0 53 251 226 253 254 250 254 254 254 
255 255 255 255 255 255 255 255 255 255 255 255 255 255 255 255 255 255 255 255 255 255 255 255 255 255 255 255 255 255 255 255 255 255 255 255 255 255 255 255 255 255 255 255 255 255 255 255 254 254 254 254 255 255 254 254 249 239 251 246 54 33 54 92 55 86 45 36 21 2 6 21 14 8 22 15 8 8 1 2 2 44 251 252 253 243 254 244 254 254 
255 255 255 255 255 255 255 255 255 255 255 255 255 255 255 255 255 255 255 255 255 255 255 255 255 255 255 255 255 255 255 255 255 255 255 255 255 255 255 255 255 255 255 255 255 255 255 255 254 254 254 254 254 254 254 254 253 249 250 127 6 9 13 35 37 82 62 56 41 14 26 60 31 19 26 20 12 4 1 11 13 50 233 252 248 235 255 242 254 254 
255 255 255 255 255 255 255 255 255 255 255 255 255 255 255 255 255 255 255 255 255 255 255 255 255 255 255 255 255 255 255 255 255 255 255 255 255 255 255 255 255 255 255 255 255 255 255 255 254 254 254 254 254 254 254 253 249 249 214 27 7 5 5 4 20 35 43 52 40 35 51 42 20 19 24 23 20 6 2 18 26 85 235 252 235 239 254 254 254 254 
255 255 255 255 255 255 255 255 255 255 255 255 255 255 255 255 255 255 255 255 255 255 255 255 255 255 255 255 255 255 255 255 255 255 255 255 255 255 255 255 255 255 255 255 255 255 255 255 254 252 254 254 254 254 253 253 248 225 141 26 16 6 6 1 4 8 22 46 44 33 40 44 12 22 22 18 21 11 5 17 16 131 244 249 244 254 253 254 254 254 
255 255 255 255 255 255 255 255 255 255 255 255 255 255 255 255 255 255 255 255 255 255 255 255 255 255 255 255 255 255 255 255 255 255 255 255 255 255 255 255 255 255 255 255 255 255 255 255 254 252 254 254 254 254 253 252 252 210 132 109 17 6 2 3 1 4 10 24 28 10 16 88 39 56 30 10 12 19 21 27 6 166 247 246 253 254 231 254 254 254 
255 255 255 255 255 255 255 255 255 255 255 255 255 255 255 255 255 255 255 255 255 255 255 255 255 255 255 255 255 255 255 255 255 255 255 255 255 255 255 255 255 255 255 255 255 255 255 254 252 252 254 254 254 254 253 253 192 147 166 160 39 16 2 4 2 3 4 5 6 1 3 42 67 93 51 17 17 32 38 26 10 204 249 250 250 254 222 254 254 254 
255 255 255 255 255 255 255 255 255 254 254 254 254 254 254 254 255 254 254 254 254 254 254 254 254 254 254 254 254 254 254 255 255 255 255 255 255 255 255 255 255 255 255 255 255 255 255 255 255 255 255 254 254 252 251 250 77 73 183 99 106 53 6 8 8 6 8 5 3 4 2 2 36 77 72 46 43 48 32 7 28 243 253 254 230 255 225 254 254 254 
254 254 254 254 254 254 254 254 254 252 252 252 251 251 251 252 254 252 252 252 252 254 254 254 254 254 254 254 254 253 253 254 255 255 255 255 255 255 255 255 255 255 255 255 255 255 255 254 250 248 248 255 239 230 248 196 1 25 124 121 62 49 21 2 15 8 8 4 8 9 9 1 1 14 48 57 69 57 44 49 171 253 225 246 254 218 254 231 254 254 
254 254 254 254 254 254 254 254 252 252 252 251 251 251 251 252 254 252 252 252 252 253 253 254 254 254 254 253 253 253 253 253 254 255 255 255 255 255 255 255 255 255 255 255 255 255 255 254 251 251 241 255 248 245 234 126 22 28 61 75 64 62 40 16 25 15 15 9 12 10 10 2 1 2 3 6 26 48 193 242 240 252 253 253 254 254 254 243 252 252 
255 255 255 255 255 255 254 254 254 254 254 252 252 252 252 254 254 254 254 254 254 254 254 253 253 252 252 252 252 251 251 252 254 255 255 255 255 255 255 255 255 255 255 255 255 255 255 254 245 252 240 239 251 248 203 110 97 43 40 69 75 58 39 24 39 24 27 18 20 13 14 6 1 1 2 6 11 5 206 243 252 222 249 239 237 254 238 251 250 250 
255 255 255 255 255 255 254 254 254 255 255 255 255 255 255 255 255 254 254 254 254 254 253 253 252 252 251 251 251 251 251 251 254 255 255 255 255 255 255 255 255 255 255 255 255 255 255 254 244 252 243 252 251 206 167 170 131 57 37 65 63 35 28 24 45 29 35 28 27 15 18 11 4 4 9 19 10 0 222 239 243 248 249 237 253 252 229 252 250 250 
254 254 255 255 255 255 255 255 255 255 255 254 254 254 254 254 254 252 252 252 252 252 252 252 251 251 251 251 250 250 250 251 254 255 255 255 255 255 255 255 255 255 255 255 255 255 255 255 253 249 254 253 212 114 103 200 116 63 30 41 37 23 34 37 41 28 35 29 28 15 16 10 9 7 13 22 9 0 238 244 231 248 243 246 240 233 251 229 252 252 
254 254 255 255 255 255 255 254 254 254 254 253 253 253 253 254 254 254 254 254 254 252 252 252 252 252 252 252 251 251 251 252 254 255 255 255 255 255 255 255 255 255 255 255 255 255 255 254 254 246 253 238 159 71 48 105 90 71 36 42 38 26 38 30 28 20 27 21 23 13 13 6 2 7 26 25 5 1 204 236 244 232 198 178 109 128 250 251 251 252 
254 254 254 254 255 255 254 254 254 253 253 253 253 252 252 253 255 254 254 254 254 254 254 254 254 254 254 254 252 252 252 252 254 255 255 255 255 255 255 255 255 255 255 255 255 255 255 254 253 249 251 197 151 105 35 17 31 45 32 46 38 19 24 12 13 9 16 13 18 13 13 4 1 5 21 14 5 18 202 241 153 95 67 35 16 23 79 229 247 249 
254 254 254 254 255 255 254 254 253 253 253 253 253 252 252 253 254 254 254 254 254 254 254 254 254 254 254 254 255 255 255 255 255 255 255 255 255 255 255 255 255 255 255 255 255 255 255 254 244 249 250 175 170 183 43 0 2 11 11 24 19 7 14 9 5 4 9 8 15 15 15 4 2 1 4 4 14 74 137 94 73 62 48 16 23 16 18 245 247 247 
254 254 255 255 255 255 255 255 253 242 247 254 254 253 250 253 250 250 248 250 250 253 253 253 252 252 244 244 252 252 252 253 254 255 255 255 255 255 255 255 255 255 255 255 255 255 255 254 243 249 206 102 143 213 77 17 2 1 2 5 3 1 1 1 1 12 18 10 11 12 8 8 2 5 2 3 42 115 98 67 60 56 22 18 26 28 12 202 250 250 
255 255 255 255 255 255 255 255 255 255 255 244 244 250 251 244 252 250 250 248 248 250 251 251 250 250 251 251 251 251 251 250 254 255 255 255 255 255 255 255 253 253 253 253 253 253 253 252 245 248 181 78 114 225 149 25 30 6 1 1 2 1 1 1 8 17 11 6 14 20 13 10 4 3 1 7 72 128 74 39 35 28 13 7 8 12 12 248 248 250 
254 254 254 254 254 254 254 254 233 253 254 246 250 253 253 240 254 254 254 254 254 254 254 253 237 244 251 252 250 246 244 243 254 255 255 255 255 255 255 255 253 253 253 250 250 250 250 250 250 237 139 137 163 178 149 38 45 9 1 2 5 6 6 6 19 18 8 5 14 20 13 10 10 4 3 28 120 109 36 15 12 10 13 13 18 19 20 250 248 248 
254 254 254 254 254 254 254 253 253 252 252 252 251 251 251 243 248 246 243 241 241 243 243 246 254 254 253 253 253 253 253 254 255 255 255 255 255 255 255 255 255 255 255 253 253 253 253 250 250 191 167 220 193 141 122 62 54 17 4 5 9 13 20 28 15 17 12 11 14 13 9 11 13 8 15 77 146 67 14 9 3 3 7 14 36 25 22 231 248 248 
252 254 254 254 254 254 254 253 246 238 233 240 236 231 242 249 241 241 240 240 245 250 250 250 251 246 244 244 249 251 245 237 254 255 255 255 255 255 255 255 255 255 255 255 255 255 253 252 241 197 233 184 114 123 113 86 61 40 27 28 30 23 18 18 12 15 15 15 15 10 10 14 10 10 29 108 142 51 11 12 11 9 6 10 33 19 43 253 248 248 
252 252 252 254 254 254 253 252 231 245 248 246 191 124 87 77 76 82 94 115 148 188 229 245 236 239 245 248 249 249 248 243 254 255 255 255 255 255 255 255 255 255 255 255 255 253 253 250 215 127 170 144 77 60 52 79 84 65 39 27 29 27 21 18 9 9 8 8 10 11 13 18 12 15 37 97 118 54 19 18 9 8 3 5 8 1 57 250 248 248 
251 252 252 253 254 254 253 251 249 249 216 124 76 75 89 92 103 99 95 95 101 113 128 139 204 218 230 231 228 233 245 248 252 253 253 253 253 253 253 253 255 255 255 253 248 248 246 244 202 89 84 124 79 22 16 40 39 49 40 26 27 26 16 9 7 6 4 5 9 17 25 30 37 50 68 89 86 49 22 15 7 5 5 18 6 0 137 250 250 250 
253 253 253 253 254 254 253 253 225 249 225 112 76 113 152 150 153 142 126 114 112 117 128 137 112 122 126 116 107 120 164 209 248 249 249 251 251 251 251 251 251 249 248 246 243 241 239 239 208 138 72 84 62 23 22 15 19 39 38 19 14 13 8 5 7 7 7 9 15 28 46 55 89 119 126 95 62 36 17 9 6 1 4 30 6 1 241 251 253 252 
254 254 254 255 254 254 254 254 235 254 240 144 95 136 181 151 174 163 145 131 121 108 113 139 122 118 134 175 113 78 131 129 182 245 210 246 225 238 247 217 185 183 232 249 249 234 249 176 207 191 106 58 48 49 36 9 7 37 25 17 20 15 11 3 4 14 12 25 45 52 87 101 122 138 103 62 49 35 14 5 4 4 4 4 3 10 251 251 254 254 
251 252 254 255 254 253 252 252 253 244 254 204 84 88 156 156 159 174 176 160 131 101 93 108 144 113 107 151 118 76 97 92 89 129 109 95 80 94 75 55 55 40 13 1 36 91 86 101 153 160 112 104 103 65 67 99 148 159 123 119 123 89 62 44 36 33 23 48 78 81 102 93 128 113 61 33 37 41 21 7 3 7 2 5 0 39 231 252 254 254 
251 252 254 255 254 253 252 252 253 235 254 251 139 94 132 174 145 169 180 167 147 120 106 110 145 125 99 114 110 89 94 84 60 47 60 55 97 89 43 27 8 3 39 55 92 111 69 55 49 125 152 139 126 117 150 182 164 148 173 175 155 133 109 119 101 67 40 45 59 83 114 89 72 88 67 36 29 32 25 16 2 7 2 6 0 118 238 252 252 254 
251 252 254 255 254 253 252 253 240 255 247 251 250 150 94 128 150 165 169 164 159 143 130 129 139 146 115 94 102 116 122 112 93 66 106 122 142 35 12 9 64 72 132 115 164 110 32 20 18 76 135 127 88 78 72 36 37 15 23 32 67 130 99 75 84 68 54 34 24 47 80 60 18 37 47 33 22 18 11 5 3 2 2 2 1 205 252 239 254 254 
252 252 254 255 254 254 253 253 254 255 230 242 250 192 91 80 117 143 168 181 173 145 131 137 161 143 121 110 123 131 118 119 92 93 106 90 47 3 28 61 47 109 166 132 151 108 54 8 17 44 70 113 125 66 27 12 12 1 1 1 11 52 61 69 46 41 54 43 21 21 28 25 15 17 19 22 25 21 7 1 3 2 3 0 49 249 252 237 254 254 
252 254 254 255 254 254 253 253 254 239 248 252 250 238 191 132 64 92 140 184 183 149 140 168 183 115 115 137 139 112 81 91 43 63 64 62 29 19 110 112 42 44 99 157 128 51 41 9 12 62 64 76 155 144 71 40 27 9 3 1 1 3 20 73 52 30 43 50 28 14 10 16 20 17 17 19 16 12 7 4 2 4 2 2 202 251 231 254 254 254 
254 254 254 254 255 254 253 253 251 231 254 252 244 250 248 235 100 85 90 131 160 145 144 179 136 99 134 129 93 84 72 79 80 74 71 74 28 59 125 75 79 59 38 66 196 81 24 61 15 80 89 53 72 131 116 42 37 23 5 3 2 1 5 18 51 37 46 40 30 19 8 14 11 9 12 13 4 1 3 7 4 4 1 62 250 251 224 254 254 255 
254 254 254 254 255 254 253 253 253 255 254 247 249 245 240 249 247 135 67 80 120 125 120 142 78 100 170 102 45 70 91 91 66 62 125 162 51 115 157 130 32 45 58 31 106 109 55 107 29 45 89 86 38 73 141 62 6 28 15 8 5 1 2 4 23 42 64 35 29 31 10 7 12 5 6 11 7 3 3 4 8 2 0 237 244 246 252 254 255 255 
254 254 254 254 255 255 254 254 255 255 254 254 254 252 251 249 237 247 174 46 52 52 99 79 57 113 141 37 23 86 91 73 46 63 98 121 4 27 89 178 119 47 69 44 102 69 74 94 67 89 91 121 37 49 93 133 49 18 18 27 11 2 1 1 5 22 51 53 38 25 13 6 6 3 4 6 4 3 4 5 4 0 44 250 244 252 250 248 255 254 
254 254 254 254 255 255 254 254 255 255 254 254 254 254 252 251 250 233 248 147 63 33 76 55 75 96 54 40 54 59 59 50 15 27 102 43 2 17 42 42 131 80 47 48 65 41 66 132 112 150 166 153 47 52 66 100 74 25 15 26 25 14 5 1 1 10 41 68 67 50 33 23 3 3 3 4 5 7 10 12 6 1 88 250 244 252 252 255 254 254 
255 255 255 255 255 255 255 255 255 255 255 255 255 254 254 253 252 220 241 236 194 60 36 50 73 92 27 51 80 35 47 48 38 26 147 19 7 46 122 137 60 122 61 53 52 75 93 77 99 118 170 165 82 75 62 118 99 38 16 22 31 29 17 7 1 5 25 61 77 59 39 30 18 17 9 5 6 6 4 4 3 1 161 250 248 251 252 255 254 254 
255 255 255 255 255 255 255 255 255 255 255 255 255 255 255 254 229 253 251 223 245 205 77 46 43 72 33 49 56 33 80 106 62 45 124 9 29 52 42 134 70 126 85 39 43 91 97 32 97 77 133 149 127 101 51 100 102 61 26 16 20 26 28 31 2 1 6 31 67 69 54 47 57 51 20 6 7 6 2 2 1 1 220 248 253 253 254 251 254 254 
255 255 255 255 255 255 254 254 255 255 255 255 254 254 254 254 254 216 237 250 230 192 100 72 42 45 51 52 40 41 65 82 85 112 127 19 41 35 3 78 139 90 126 59 66 54 49 16 67 47 90 97 144 156 81 82 100 93 44 16 15 20 29 45 13 4 2 13 46 71 68 60 58 73 61 54 70 53 27 21 3 4 246 246 253 254 254 247 254 253 
255 255 255 255 255 255 254 254 255 255 255 254 254 253 253 253 252 252 231 251 248 244 47 13 41 19 53 69 60 54 19 11 29 50 142 90 11 28 55 180 96 84 188 73 79 68 68 27 52 46 73 50 102 157 110 50 102 121 60 19 21 26 22 29 36 12 3 6 23 52 60 50 69 62 44 38 43 39 33 36 17 19 246 251 242 254 255 252 253 253 
254 254 255 255 254 254 254 254 254 255 255 254 254 253 253 252 214 252 246 252 249 192 47 127 49 23 43 42 43 40 7 3 6 10 90 150 13 21 96 84 30 92 126 35 45 88 121 76 44 41 61 42 83 132 168 86 93 129 64 21 31 35 18 16 27 17 6 4 13 41 59 53 62 46 37 33 24 16 15 17 22 29 200 251 229 254 253 254 253 253 
254 254 255 255 254 254 254 254 254 255 255 254 254 253 253 252 252 253 250 254 218 208 41 30 5 5 6 3 14 61 84 127 144 139 95 152 131 48 24 4 5 56 42 35 50 69 77 74 100 70 84 72 90 88 172 124 76 121 59 18 32 39 19 16 34 36 23 9 10 28 42 37 29 20 24 32 21 12 11 12 12 23 153 248 225 252 244 254 254 253 
255 255 255 255 255 255 255 255 255 255 255 255 255 254 254 255 255 230 253 232 249 116 49 30 3 24 12 41 5 2 34 67 80 104 79 73 144 199 165 118 26 24 37 33 20 18 28 59 123 133 122 91 106 94 143 145 105 98 60 35 23 25 34 25 29 27 13 28 25 7 17 20 36 26 40 33 15 14 20 31 60 27 43 128 248 210 255 241 254 255 
255 255 255 255 255 255 255 255 255 255 255 255 255 255 255 255 254 253 253 242 218 45 34 43 80 103 47 102 71 30 14 7 23 55 69 58 71 106 139 163 142 71 38 21 18 22 17 17 103 146 127 116 104 37 92 200 126 100 59 36 30 34 34 20 32 27 18 33 17 3 15 24 23 30 42 26 10 5 6 25 68 38 28 63 246 220 255 254 255 254 
255 255 255 255 255 255 255 255 255 255 255 255 255 255 255 255 230 251 253 251 247 31 25 30 12 39 15 12 24 64 69 64 49 63 72 65 64 80 93 90 102 73 61 39 31 36 29 27 21 101 137 122 103 42 97 165 126 104 72 44 30 30 27 19 28 35 25 20 5 3 20 25 16 33 43 24 11 6 12 59 47 41 20 29 238 246 248 254 255 254 
255 255 255 255 255 255 255 255 255 255 255 255 255 255 255 255 255 254 220 252 226 22 33 50 42 27 15 14 17 14 8 19 27 37 61 68 52 49 54 50 44 68 109 86 57 55 48 49 6 31 112 100 56 38 110 179 157 94 54 34 34 37 20 8 24 47 21 3 2 9 32 26 45 52 50 24 12 12 22 69 28 36 20 19 210 252 249 244 255 254 
255 255 255 255 255 255 255 255 255 255 255 255 255 255 255 255 242 255 254 252 202 12 27 59 35 14 16 12 11 11 11 20 36 43 70 92 83 76 70 59 53 73 109 95 81 91 74 59 49 4 31 55 32 35 108 198 140 93 71 38 22 21 12 12 29 41 7 1 4 26 42 39 62 41 34 18 12 23 33 41 25 31 25 16 157 242 254 254 255 254 
255 255 255 255 255 255 255 255 255 255 255 255 255 255 255 255 254 254 244 244 204 20 22 39 17 17 28 9 15 43 73 50 51 51 55 62 67 62 52 41 52 68 100 87 76 88 75 63 34 4 39 61 40 55 126 163 163 84 59 28 20 22 10 9 33 16 1 1 17 40 40 52 42 23 20 13 16 46 47 25 24 27 37 26 157 244 255 254 255 254 
255 255 255 255 255 255 255 255 255 255 255 255 255 255 255 254 253 226 250 254 251 61 27 23 45 27 40 62 121 71 50 28 29 54 65 55 51 50 65 97 62 73 94 66 41 38 32 29 3 49 147 113 59 45 137 177 137 80 70 27 10 10 6 15 22 2 1 7 31 43 36 40 28 25 20 11 23 66 53 24 32 31 44 34 188 251 246 244 255 254 
255 255 255 255 255 255 255 255 255 255 255 255 255 255 255 254 253 241 255 239 237 69 51 74 66 70 57 29 33 4 6 9 50 69 60 55 85 104 107 132 87 61 47 25 19 23 17 13 30 159 116 98 114 45 120 175 134 71 60 20 6 7 4 13 9 0 1 18 31 42 36 21 8 17 13 6 28 93 79 55 58 45 39 24 184 252 240 254 255 254 
255 255 255 255 255 255 255 255 255 255 255 255 255 255 255 254 220 253 228 252 242 106 58 11 2 4 1 1 2 59 125 125 122 138 82 113 134 192 205 167 92 29 27 18 15 19 13 35 128 135 135 80 142 72 126 158 82 57 38 19 6 4 8 10 2 0 3 24 49 29 6 4 7 16 7 3 44 108 69 55 56 45 44 15 200 249 254 233 255 254 
255 255 255 255 255 255 255 255 255 255 255 255 255 255 255 254 253 224 230 229 248 165 43 60 2 8 14 15 17 57 69 71 101 68 98 138 153 55 30 14 6 12 33 31 27 30 29 49 138 82 128 92 116 90 166 138 60 79 52 10 2 7 10 4 0 1 9 26 30 14 4 6 14 15 6 3 53 93 66 54 31 53 61 33 139 214 242 254 255 254 
255 255 255 255 255 255 255 255 255 255 255 255 255 255 255 255 254 242 253 245 246 155 18 36 24 29 60 38 31 14 2 1 2 5 102 118 9 11 28 19 20 62 61 45 62 87 92 71 89 30 106 91 87 120 167 64 47 86 49 5 2 8 9 3 1 1 9 29 36 16 5 8 26 15 6 3 61 76 66 49 44 68 58 41 116 246 254 254 255 254 
255 255 255 255 255 255 255 255 255 255 255 255 255 255 255 255 237 250 249 249 216 55 29 75 35 17 50 36 53 31 20 21 37 41 178 73 7 28 78 82 41 171 133 73 70 79 86 40 62 18 77 69 77 143 126 34 55 62 25 4 5 7 4 3 1 2 20 42 28 7 5 28 33 16 6 4 69 76 76 45 44 60 59 36 127 248 255 233 255 254 
255 255 255 255 255 255 255 255 255 255 255 255 255 255 255 255 244 253 216 229 168 90 91 43 68 22 43 34 49 42 71 100 113 72 145 7 76 11 28 136 49 166 96 50 57 63 62 14 87 31 61 70 105 134 78 52 71 46 12 4 8 6 1 1 0 5 28 29 15 8 11 33 23 12 4 7 74 93 101 56 36 57 98 44 181 222 254 239 255 254 
255 255 255 255 255 255 255 255 255 255 255 255 255 255 255 255 246 253 251 242 98 42 49 53 49 30 38 44 41 25 44 63 29 41 94 1 30 1 12 129 81 121 48 35 63 77 63 13 100 51 70 120 151 99 44 66 74 41 11 5 8 5 1 0 2 19 36 15 11 25 28 27 12 8 1 21 82 117 116 78 63 56 62 18 192 237 255 250 255 254 
255 255 255 255 255 255 255 255 253 253 253 253 253 253 253 253 244 216 191 83 37 56 65 67 42 63 31 58 66 36 30 40 15 57 103 9 7 44 94 122 71 80 53 55 63 57 55 33 101 92 117 165 113 73 56 65 64 29 12 10 6 2 1 1 8 41 64 18 7 21 35 45 10 5 0 50 93 123 102 96 80 47 14 3 146 248 244 231 255 254 
255 255 255 255 255 255 255 254 252 252 253 252 251 251 251 251 251 166 72 44 65 90 76 52 101 152 25 45 75 52 30 42 16 74 114 7 6 48 87 46 143 69 29 34 50 65 88 91 128 163 183 151 47 64 117 81 54 18 11 17 7 0 1 4 28 38 39 16 11 20 26 38 12 5 0 84 101 115 80 100 63 63 20 15 158 251 224 255 255 255 
254 255 254 254 254 254 254 254 253 243 253 251 220 222 248 236 81 67 98 114 112 125 108 89 82 139 77 34 65 73 43 48 23 84 91 28 5 23 67 156 53 43 62 31 81 59 101 98 128 148 186 73 28 74 105 96 27 13 24 8 0 1 2 8 53 41 33 12 12 37 45 34 9 2 8 114 142 80 88 36 32 54 82 40 172 247 240 252 254 252 
254 254 254 254 254 254 253 254 242 253 244 213 248 248 163 83 101 105 150 145 134 162 149 119 84 134 120 54 38 62 79 68 58 68 126 34 43 140 169 101 35 46 52 43 134 71 82 84 102 135 108 58 79 107 70 52 8 7 13 6 1 1 4 21 52 56 22 4 12 66 67 17 7 3 13 81 87 65 73 31 31 35 42 19 155 251 254 252 252 252 
254 254 254 254 254 254 254 254 241 252 247 249 239 145 79 81 126 151 201 170 152 191 182 150 84 126 158 109 55 54 64 52 87 58 75 26 37 138 85 58 64 63 38 45 143 86 84 32 103 78 80 87 82 115 81 4 11 19 7 0 1 8 28 54 47 53 17 10 19 27 30 13 4 2 20 71 65 54 56 39 50 29 16 5 130 252 254 235 252 252 
254 254 254 254 254 254 254 254 252 226 250 249 126 67 98 158 158 167 199 165 148 178 173 159 95 112 132 146 126 75 53 64 64 54 40 46 4 97 71 65 38 79 107 130 111 47 71 11 92 85 61 104 116 53 21 3 24 13 2 1 9 21 40 61 50 44 9 23 58 34 21 6 3 2 29 90 78 53 46 59 46 56 72 39 180 252 252 255 254 252 
253 253 253 253 254 254 254 254 252 250 222 132 85 129 187 165 197 165 165 148 142 154 147 161 112 98 98 124 138 115 106 125 68 68 58 82 1 43 69 15 53 100 119 134 63 15 41 18 80 68 66 131 86 10 7 15 11 8 4 2 10 44 54 33 18 38 11 19 51 43 26 3 5 8 47 90 70 48 41 53 47 49 58 30 167 242 230 254 252 252 
253 253 253 253 254 254 254 253 252 240 151 102 135 179 178 178 214 162 144 132 135 142 132 157 110 94 107 103 83 109 132 95 98 124 112 90 16 3 34 61 138 174 118 133 90 19 21 38 40 69 117 84 15 12 29 12 9 1 7 15 24 35 31 54 27 32 18 27 34 16 12 8 9 34 71 61 34 29 33 27 14 26 55 40 184 242 233 255 254 252 
253 253 253 253 254 255 254 253 247 175 113 129 171 148 140 195 187 153 135 113 121 137 128 143 109 115 121 94 72 86 81 44 79 74 62 80 117 15 3 9 53 115 103 91 44 8 7 39 23 115 119 20 10 31 23 9 4 3 33 37 44 46 14 41 94 26 12 31 40 15 7 11 9 58 75 44 15 11 23 14 8 7 15 15 168 254 237 248 252 252 
253 253 253 253 254 254 254 253 235 145 109 114 126 163 178 142 148 143 131 95 103 132 123 126 127 147 105 80 102 88 54 52 27 38 78 87 49 67 41 21 1 33 101 136 86 52 18 13 78 53 68 33 14 22 14 7 17 7 35 31 42 31 3 53 41 15 13 13 11 10 8 10 7 56 64 46 13 4 16 13 4 6 20 25 202 254 251 254 254 252 
253 253 253 253 254 255 254 253 235 151 90 89 132 166 152 119 120 121 123 125 129 131 134 133 159 151 135 123 123 144 182 210 199 180 167 145 110 78 51 33 35 26 18 23 43 61 62 59 57 58 48 44 25 14 25 30 42 28 9 38 31 3 22 64 12 19 24 10 3 7 16 16 3 9 34 47 29 28 39 35 41 24 45 39 251 254 254 254 254 254 
253 253 253 253 254 254 254 254 252 207 124 78 70 84 107 126 107 111 118 130 142 153 163 168 163 160 158 167 192 228 245 245 241 235 238 242 233 218 196 170 89 58 39 39 46 53 60 63 45 35 31 48 41 19 15 12 22 42 29 9 13 42 48 22 10 17 5 1 15 44 19 1 11 5 12 46 61 48 46 52 51 35 50 22 214 208 245 239 254 254 
255 254 254 254 254 254 254 255 243 252 248 218 177 158 161 176 171 177 188 204 220 236 246 248 248 246 239 237 243 246 243 240 248 242 248 249 248 248 247 236 163 82 47 42 32 30 39 45 12 9 14 41 47 27 29 31 47 35 12 23 24 9 9 3 7 18 13 18 50 26 2 2 42 10 4 15 27 15 8 11 6 9 12 56 250 254 226 253 254 254 
255 255 254 254 254 254 254 254 229 243 254 251 250 250 248 248 239 240 244 247 251 251 251 250 250 250 250 250 250 250 242 235 252 249 249 251 244 244 243 233 214 84 36 28 18 14 20 22 28 14 7 19 33 32 32 22 17 3 18 19 17 13 1 7 1 16 34 45 36 2 1 27 77 52 26 22 33 35 30 35 30 36 33 44 253 253 252 244 254 254 
254 254 255 255 254 254 253 253 254 247 233 231 238 247 250 250 251 252 252 251 248 246 244 241 229 237 248 251 251 253 253 253 254 248 250 254 250 252 251 251 249 105 37 24 15 12 12 11 26 28 20 16 12 13 21 15 8 17 17 21 11 5 8 3 25 62 64 32 13 5 12 55 59 76 72 65 78 85 72 63 64 47 6 100 206 251 210 252 254 254 
254 254 255 255 254 253 253 253 253 253 254 255 254 250 247 247 252 254 254 254 254 254 254 254 255 254 254 254 245 241 248 254 250 239 243 249 242 248 254 251 251 154 58 26 17 12 8 6 9 14 11 10 13 20 22 8 19 4 11 12 8 7 6 18 27 27 21 13 6 5 22 74 45 49 60 75 74 49 21 9 10 9 3 90 253 252 252 231 254 254 
253 254 255 255 254 253 253 252 252 252 252 244 235 240 254 254 241 244 244 249 251 253 255 255 254 254 254 254 254 254 254 253 252 251 252 252 250 248 251 241 252 214 103 35 20 12 6 5 3 9 12 12 8 9 13 8 9 11 3 7 5 5 28 17 29 22 20 23 13 5 17 83 72 45 42 56 58 50 38 23 38 22 2 214 240 248 237 252 254 254 
254 254 255 255 254 253 253 253 252 251 250 253 254 254 247 238 255 255 255 255 254 254 254 252 254 253 250 250 253 253 253 248 249 247 251 252 252 252 255 250 237 252 154 50 25 14 7 9 4 5 5 7 7 7 13 11 11 12 6 9 5 6 26 20 17 36 28 12 11 16 34 79 108 52 30 27 32 71 120 114 54 30 8 243 253 232 253 253 254 254 
254 255 255 255 255 254 254 254 254 254 254 254 255 255 255 255 255 255 255 255 255 255 255 255 255 255 255 255 255 255 255 254 253 253 253 254 254 255 254 254 239 231 245 144 32 18 21 8 3 4 6 5 9 11 3 2 10 13 10 7 9 17 28 37 28 27 17 2 22 65 26 56 127 101 103 63 50 71 70 85 58 36 77 251 233 254 255 253 254 254 
255 255 255 255 255 255 255 255 255 255 255 255 255 255 255 255 255 255 255 255 255 255 255 255 255 255 255 255 255 255 255 255 254 253 254 254 255 255 254 254 252 248 250 210 89 24 13 16 8 1 5 9 7 11 13 9 5 8 10 12 18 24 30 38 13 7 4 1 22 90 52 33 79 101 84 82 84 88 81 34 37 18 122 251 252 254 254 246 254 254 
255 255 255 255 255 255 255 255 255 255 255 255 255 255 255 255 255 255 255 255 255 255 255 255 255 255 255 255 255 255 255 255 254 254 254 254 255 254 254 252 248 251 248 247 185 54 10 11 18 5 8 6 2 4 9 9 9 11 15 21 24 17 11 12 14 5 2 3 21 80 75 22 36 66 106 110 85 67 56 38 18 18 202 251 252 247 252 248 255 254 
255 255 255 255 255 255 255 255 255 255 255 255 255 255 255 255 255 255 255 255 255 255 255 255 255 255 255 255 255 255 255 255 254 254 254 254 255 255 254 254 233 251 246 244 250 144 36 10 13 14 13 4 3 3 2 4 5 6 10 21 25 14 7 8 7 3 2 14 31 57 108 84 17 14 84 88 61 43 8 20 7 57 251 252 252 242 250 255 254 254 
255 255 255 255 255 255 255 255 255 255 255 255 255 255 255 255 255 255 255 255 255 255 255 255 255 255 255 255 255 255 255 255 254 254 254 254 255 254 254 254 252 251 251 250 250 248 138 53 15 9 8 8 12 10 3 4 5 5 8 17 20 10 5 6 9 5 4 35 49 26 65 113 60 12 15 11 17 25 3 3 2 147 252 252 238 252 248 254 255 254 
255 255 255 255 255 255 255 255 255 255 255 255 255 255 255 255 255 255 255 255 255 255 255 255 255 255 255 255 255 255 255 255 254 254 254 254 255 255 254 254 254 235 248 251 245 250 247 188 83 12 6 12 11 11 9 7 5 5 6 11 15 10 9 13 17 6 3 37 64 23 28 60 86 62 13 9 14 19 16 0 8 224 244 254 247 254 248 246 255 254 
255 255 255 255 255 255 255 255 255 255 255 255 255 255 255 255 255 255 255 255 255 255 255 255 255 255 255 255 255 255 255 255 254 254 255 255 255 255 254 254 254 231 244 251 231 240 251 250 227 80 40 21 10 12 13 9 16 13 11 9 9 7 7 12 52 15 5 25 61 37 15 9 49 93 33 18 10 11 38 9 67 242 254 249 254 254 254 248 255 255 
255 255 255 255 255 255 255 255 255 255 255 255 255 255 255 255 255 255 255 255 255 255 255 255 255 255 255 255 255 255 255 255 254 254 255 255 255 255 254 254 254 254 254 252 249 252 252 237 246 240 165 54 26 27 16 12 11 10 8 6 7 9 14 23 56 12 3 14 58 85 38 8 6 29 32 24 11 10 20 10 206 240 254 217 254 239 255 255 255 255 
255 255 255 255 255 255 255 255 255 255 255 255 255 255 255 255 255 255 255 255 255 255 255 255 255 255 255 255 255 255 255 255 255 255 255 255 255 255 254 254 254 254 254 254 254 252 252 252 246 250 247 212 141 67 22 7 13 14 13 11 13 15 12 7 40 41 26 16 23 45 59 59 16 2 11 10 5 6 10 97 250 250 250 250 250 250 250 250 255 255 
255 255 255 255 255 255 255 255 255 255 255 255 255 255 255 255 255 255 255 255 255 255 255 255 255 255 255 255 255 255 255 255 255 255 255 255 255 255 254 254 254 254 254 254 254 254 254 254 240 248 253 252 247 216 179 156 38 29 16 8 8 14 18 18 21 31 28 17 17 27 44 60 78 42 24 12 3 4 45 192 250 250 250 250 250 250 250 250 255 255 
255 255 255 255 255 255 255 255 255 255 255 255 255 255 255 255 255 255 255 255 255 255 255 255 255 255 255 255 255 255 255 255 255 255 255 255 255 255 255 255 255 255 255 254 254 254 254 254 254 254 251 251 252 249 245 240 244 187 104 46 22 15 11 7 7 16 26 23 17 13 15 22 89 123 94 123 100 74 196 254 250 250 250 250 250 250 250 250 255 255 
255 255 255 255 255 255 255 255 255 255 255 255 255 255 255 255 255 255 255 255 255 255 255 255 255 255 255 255 255 255 255 255 255 255 255 255 255 255 255 255 255 255 255 255 255 255 255 255 252 252 251 252 254 254 248 244 240 248 250 248 240 218 178 148 105 130 164 196 208 188 175 185 220 249 228 251 252 206 254 231 253 253 253 253 253 253 253 253 255 255 
255 255 255 255 255 255 255 255 255 255 255 255 255 255 255 255 255 255 255 255 255 255 255 255 255 255 255 255 255 255 255 255 255 255 255 255 255 255 255 255 255 255 254 254 254 254 254 255 252 254 254 254 254 254 254 254 254 254 252 247 252 252 252 252 253 252 248 249 251 245 244 251 251 251 228 222 242 255 255 254 253 253 253 253 253 253 253 253 255 255 
255 255 255 255 255 255 255 255 255 255 255 255 255 255 255 255 255 255 255 255 255 255 255 255 255 255 255 255 255 255 255 255 255 255 255 255 255 255 255 255 255 255 254 254 254 254 254 254 255 254 248 245 245 245 241 237 235 239 246 255 255 255 255 248 249 254 250 243 241 235 249 252 246 235 253 240 239 253 228 233 254 254 254 254 255 255 255 255 255 255 
255 255 255 255 255 255 255 255 255 255 255 255 255 255 255 255 255 255 255 255 255 255 255 255 255 255 255 255 255 255 255 255 254 254 255 255 255 255 255 255 254 254 254 254 254 254 253 254 250 245 244 246 255 255 255 255 255 254 253 251 251 251 250 252 246 252 253 253 252 237 227 235 253 254 254 254 251 253 234 252 254 254 254 254 254 254 255 255 255 255 
255 255 255 255 255 255 255 255 255 255 255 255 255 255 255 255 255 255 255 255 255 255 255 255 255 255 255 255 255 255 255 255 254 254 255 255 255 255 255 255 254 254 254 254 254 254 254 254 255 254 255 255 255 255 249 242 254 251 251 253 253 253 253 252 250 252 248 237 254 254 254 254 254 237 230 249 253 250 251 253 254 254 254 254 254 254 255 255 255 255 
255 255 255 255 255 255 255 255 255 255 255 255 255 255 255 255 255 255 255 255 255 255 255 255 255 255 255 255 255 255 255 255 255 255 255 255 255 255 255 255 255 255 255 255 255 255 255 255 255 255 255 255 255 255 255 255 255 255 255 255 255 254 254 254 254 254 254 255 255 255 255 255 255 255 255 254 254 254 254 254 255 255 255 255 255 255 255 255 255 255 
255 255 255 255 255 255 255 255 255 255 255 255 255 255 255 255 255 255 255 255 255 255 255 255 255 255 255 255 255 255 255 255 255 255 255 255 255 255 255 255 255 255 255 255 255 255 255 255 255 255 255 255 255 255 255 255 255 255 255 255 255 255 255 255 255 255 255 255 255 255 255 255 255 255 255 255 255 255 255 255 255 255 255 255 255 255 255 255 255 255 
255 255 255 255 255 255 255 255 255 255 255 255 255 255 255 255 255 255 255 255 255 255 255 255 255 255 255 255 255 255 255 255 255 255 255 255 255 255 255 255 255 255 255 255 255 255 255 255 255 255 255 255 255 255 255 255 255 255 255 255 255 255 255 255 255 255 255 255 255 255 255 255 255 255 255 255 255 255 255 255 255 255 255 255 255 255 255 255 255 255 
255 255 255 255 255 255 255 255 255 255 255 255 255 255 255 255 255 255 255 255 255 255 255 255 255 255 255 255 255 255 255 255 255 255 255 255 255 255 255 255 255 255 255 255 255 255 255 255 255 255 255 255 255 255 255 255 255 255 255 255 255 255 255 255 255 255 255 255 255 255 255 255 255 255 255 255 255 255 255 255 255 255 255 255 255 255 255 255 255 255 
255 255 255 255 255 255 255 255 255 255 255 255 255 255 255 255 255 255 255 255 255 255 255 255 255 255 255 255 255 255 255 255 255 255 255 255 255 255 255 255 255 255 255 255 255 255 255 255 255 255 255 255 255 255 255 255 255 255 255 255 255 255 255 255 255 255 255 255 255 255 255 255 255 255 255 255 255 255 255 255 255 255 255 255 255 255 255 255 255 255 
255 255 255 255 255 255 255 255 255 255 255 255 255 255 255 255 255 255 255 255 255 255 255 255 255 255 255 255 255 255 255 255 255 255 255 255 255 255 255 255 255 255 255 255 255 255 255 255 255 255 255 255 255 255 255 255 255 255 255 255 255 255 255 255 255 255 255 255 255 255 255 255 255 255 255 255 255 255 255 255 255 255 255 255 255 255 255 255 255 255 
255 255 255 255 255 255 255 255 255 255 255 255 255 255 255 255 255 255 255 255 255 255 255 255 255 255 255 255 255 255 255 255 255 255 255 255 255 255 255 255 255 255 255 255 255 255 255 255 255 255 255 255 255 255 255 255 255 255 255 255 255 255 255 255 255 255 255 255 255 255 255 255 255 255 255 255 255 255 255 255 255 255 255 255 255 255 255 255 255 255 
255 255 255 255 255 255 255 255 255 255 255 255 255 255 255 255 255 255 255 255 255 255 255 255 255 255 255 255 255 255 255 255 255 255 255 255 255 255 255 255 255 255 255 255 255 255 255 255 255 255 255 255 255 255 255 255 255 255 255 255 255 255 255 255 255 255 255 255 255 255 255 255 255 255 255 255 255 255 255 255 255 255 255 255 255 255 255 255 255 255 
