P2
136 90
255
255 255 255 255 255 255 255 255 255 255 255 255 255 255 255 255 255 255 255 255 255 255 255 254 254 254 254 254 255 255 254 254 254 254 254 254 254 254 254 254 255 255 255 255 255 255 255 255 254 254 255 255 254 254 254 254 254 254 254 254 253 253 252 253 254 252 251 251 251 251 252 254 253 252 253 253 254 254 254 254 254 254 254 254 255 255 254 254 255 255 255 255 255 255 255 255 254 254 254 254 254 254 254 254 254 254 255 255 254 254 254 254 254 255 255 255 255 255 255 255 255 255 255 255 255 255 255 255 255 255 255 255 255 255 255 255 
255 255 255 255 255 255 255 255 255 255 255 255 255 255 255 255 255 255 255 255 255 255 255 255 254 254 254 254 255 254 254 254 254 254 254 254 254 254 254 255 255 255 255 255 255 255 255 255 254 254 255 255 254 254 254 254 254 254 254 254 254 253 253 253 254 253 253 252 252 253 253 254 253 253 253 254 254 254 254 254 254 254 254 254 255 255 254 254 255 255 255 255 255 255 255 255 255 254 254 254 254 254 254 254 254 254 254 255 254 254 254 254 255 255 255 255 255 255 255 255 255 255 255 255 255 255 255 255 255 255 255 255 255 255 255 255 
255 255 255 255 255 255 255 255 255 255 255 255 255 255 255 255 255 255 255 255 255 255 255 255 255 255 255 255 254 254 254 254 254 254 254 254 254 254 254 254 255 255 255 255 255 255 255 255 254 254 255 255 255 255 254 254 255 255 254 254 254 253 253 253 254 254 254 254 254 254 254 254 253 253 253 254 254 254 255 255 254 254 255 255 255 255 254 254 255 255 255 255 255 255 255 255 254 254 254 254 254 254 254 254 254 254 254 254 255 255 255 255 255 255 255 255 255 255 255 255 255 255 255 255 255 255 255 255 255 255 255 255 255 255 255 255 
255 255 255 255 255 255 255 255 255 255 255 255 255 255 255 255 255 255 255 255 255 255 255 255 255 255 255 255 254 254 254 254 254 254 254 254 254 254 254 254 255 255 255 255 255 255 255 255 254 254 255 255 255 255 254 254 255 255 254 254 254 254 253 253 254 254 255 255 255 255 254 254 253 253 254 254 254 254 255 255 254 254 255 255 255 255 254 254 255 255 255 255 255 255 255 255 254 254 254 254 254 254 254 254 254 254 254 254 255 255 255 255 255 255 255 255 255 255 255 255 255 255 255 255 255 255 255 255 255 255 255 255 255 255 255 255 
255 255 255 255 255 255 255 255 255 255 255 255 255 255 255 255 255 255 255 255 255 255 255 255 254 254 254 254 254 254 254 254 254 254 254 254 254 254 254 254 255 255 255 255 255 255 255 255 254 254 255 255 255 255 255 255 254 254 254 254 254 254 254 254 254 254 254 254 254 254 254 254 254 254 254 254 254 254 254 254 255 255 255 255 255 255 254 254 255 255 255 255 255 255 255 255 254 254 254 254 254 254 254 254 254 254 254 254 254 254 254 254 255 255 255 255 255 255 255 255 255 255 255 255 255 255 255 255 255 255 255 255 255 255 255 255 
255 255 255 255 255 255 255 255 255 255 255 255 255 255 255 255 255 255 255 255 255 255 255 254 254 254 254 254 254 254 254 255 254 255 254 254 254 254 254 254 255 255 255 255 255 255 255 255 254 254 255 255 255 255 255 255 254 254 254 254 254 254 254 254 254 253 253 253 253 253 253 254 254 254 254 254 254 254 254 254 255 255 255 255 255 255 254 254 255 255 255 255 255 255 255 255 254 254 254 254 254 254 255 254 255 254 254 254 254 254 254 254 254 255 255 255 255 255 255 255 255 255 255 255 255 255 255 255 255 255 255 255 255 255 255 255 
255 255 255 255 255 255 255 255 255 255 255 255 255 255 255 255 255 255 255 255 255 255 255 254 254 254 254 254 254 254 254 254 254 254 254 254 254 254 254 254 255 255 255 255 255 255 255 255 254 254 254 254 255 255 254 254 254 254 254 254 254 254 253 253 253 252 252 252 252 252 252 253 253 253 254 254 254 254 254 254 254 254 255 255 254 254 254 254 255 255 255 255 255 255 255 255 254 254 254 254 254 254 254 254 254 254 254 254 254 254 254 254 254 255 255 255 255 255 255 255 255 255 255 255 255 255 255 255 255 255 255 255 255 255 255 255 
255 255 255 255 255 255 255 255 255 255 255 255 255 255 255 255 255 255 255 255 255 255 255 254 254 253 254 254 254 255 254 254 254 254 254 254 254 254 254 254 254 255 255 255 255 255 255 255 254 254 254 254 255 254 254 254 254 254 254 253 254 253 252 253 253 252 252 253 253 252 252 253 253 252 253 254 253 254 254 254 254 254 254 255 254 254 254 254 255 255 255 255 255 255 255 254 254 254 254 254 254 254 254 254 254 254 255 254 254 254 253 254 254 255 255 255 255 255 255 255 255 255 255 255 255 255 255 255 255 255 255 255 255 255 255 255 
255 255 255 255 255 255 255 255 255 255 255 255 255 255 255 255 255 255 255 255 255 255 255 254 253 253 254 254 242 249 253 245 245 251 253 253 253 248 248 254 253 254 255 255 255 255 255 255 254 253 254 254 255 254 254 254 253 254 244 254 250 243 252 240 244 252 253 247 247 253 252 244 240 252 243 250 254 244 254 253 254 254 254 255 254 254 253 254 255 255 255 255 255 255 254 253 254 248 248 253 253 253 251 245 245 253 249 242 254 254 253 253 254 255 255 255 255 255 255 255 255 255 255 255 255 255 255 255 255 255 255 255 255 255 255 255 
255 255 255 255 255 255 255 255 255 255 255 255 255 255 255 255 255 255 255 255 255 255 255 254 253 253 254 251 249 253 231 203 200 215 247 252 240 253 254 249 253 254 255 255 255 255 255 254 253 253 254 255 255 254 254 254 248 255 254 253 246 250 252 252 254 237 237 255 255 237 237 254 252 252 250 246 253 254 255 248 254 254 254 255 255 254 253 253 254 255 255 255 255 255 254 253 249 254 253 240 252 247 215 200 203 231 253 249 251 254 253 253 254 255 255 255 255 255 255 255 255 255 255 255 255 255 255 255 255 255 255 255 255 255 255 255 
255 255 255 255 255 255 255 255 255 255 255 255 255 255 255 255 255 255 255 255 255 255 255 254 252 253 254 244 254 251 189 172 182 184 203 238 252 251 249 254 254 254 255 255 255 255 255 254 253 253 254 255 255 254 254 254 251 255 254 253 244 251 235 239 247 254 251 238 238 251 254 247 239 235 251 244 253 254 255 251 254 254 254 255 255 254 253 253 254 255 255 255 255 255 254 254 254 249 251 252 238 203 184 182 172 189 251 254 244 254 253 252 254 255 255 255 255 255 255 255 255 255 255 255 255 255 255 255 255 255 255 255 255 255 255 255 
255 255 255 255 255 255 255 255 255 255 255 255 255 255 255 255 255 255 255 255 255 255 255 254 254 249 255 243 253 236 166 172 184 192 178 193 252 252 234 253 253 254 255 255 255 255 255 254 253 253 253 255 254 254 254 254 254 249 250 253 247 250 189 183 195 228 251 246 246 251 228 195 183 189 250 247 253 250 249 254 254 254 254 254 255 253 253 253 254 255 255 255 255 255 254 253 253 234 252 252 193 178 192 184 172 166 236 253 243 255 249 254 254 255 255 255 255 255 255 255 255 255 255 255 255 255 255 255 255 255 255 255 255 255 255 255 
255 255 255 255 255 255 255 255 255 255 255 255 255 255 255 255 255 255 255 255 255 255 255 255 254 245 254 246 252 216 162 193 190 213 195 170 190 247 251 237 253 254 255 255 255 255 255 254 253 253 253 255 254 254 254 254 254 249 252 252 245 223 165 165 172 164 194 250 250 194 164 172 165 165 223 245 252 252 249 254 254 254 254 254 255 253 253 253 254 255 255 255 255 255 254 253 237 251 247 190 170 195 213 190 193 162 216 252 246 254 245 254 255 255 255 255 255 255 255 255 255 255 255 255 255 255 255 255 255 255 255 255 255 255 255 255 
255 255 255 255 255 255 255 255 255 255 255 255 255 255 255 255 255 255 255 255 255 255 255 255 254 247 252 251 252 206 169 210 209 201 217 192 161 200 251 238 253 254 255 255 255 255 255 254 253 253 253 255 254 254 253 253 253 251 253 252 243 189 164 182 190 169 166 171 171 166 169 190 182 164 189 243 252 253 251 253 253 253 254 254 255 253 253 253 254 255 255 255 255 255 254 253 238 251 200 161 192 217 201 209 210 169 206 252 251 252 247 254 255 255 255 255 255 255 255 255 255 255 255 255 255 255 255 255 255 255 255 255 255 255 255 255 
255 255 255 255 255 255 255 255 255 255 255 255 255 255 255 255 255 255 255 255 255 255 255 255 251 254 251 252 251 208 181 203 216 197 216 221 176 167 209 251 253 254 255 255 255 255 255 254 253 253 253 255 254 254 253 253 251 252 253 252 248 170 170 201 210 202 161 92 92 161 202 210 201 170 170 248 252 253 252 251 253 253 254 254 255 253 253 253 254 255 255 255 255 255 254 253 251 209 167 176 221 216 197 216 203 181 208 251 252 251 254 251 255 255 255 255 255 255 255 255 255 255 255 255 255 255 255 255 255 255 255 255 255 255 255 255 
255 255 255 255 255 255 255 255 255 255 255 255 255 255 255 255 255 255 255 255 255 255 255 255 246 254 251 252 251 215 190 187 198 225 216 210 206 168 169 245 253 254 255 255 255 255 254 254 253 253 254 255 254 254 254 254 252 248 246 248 251 165 171 199 200 195 153 104 104 153 195 200 199 171 165 251 248 246 248 252 254 254 254 254 255 254 253 253 254 254 255 255 255 255 254 253 245 169 168 206 210 216 225 198 187 190 215 251 252 251 254 246 255 255 255 255 255 255 255 255 255 255 255 255 255 255 255 255 255 255 255 255 255 255 255 255 
255 255 255 255 255 255 255 255 255 255 255 255 255 255 255 255 255 255 255 255 255 255 255 255 255 248 253 253 247 213 181 187 201 221 234 226 206 190 178 168 253 249 250 249 246 254 254 237 253 253 254 248 254 242 254 254 251 233 253 251 235 164 176 195 210 129 104 133 133 104 129 210 195 176 164 235 251 253 233 251 254 254 242 254 248 254 253 253 237 254 254 246 249 250 249 253 168 178 190 206 226 234 221 201 187 181 213 247 253 253 248 255 255 255 255 255 255 255 255 255 255 255 255 255 255 255 255 255 255 255 255 255 255 255 255 255 
255 255 255 255 255 255 255 255 255 255 255 255 255 255 255 255 255 255 255 255 255 255 255 255 255 249 254 253 247 216 183 188 199 204 208 210 211 203 180 161 210 235 254 254 252 248 239 253 246 239 254 254 253 252 253 242 251 251 253 231 247 151 166 194 149 129 130 154 154 130 129 149 194 166 151 247 231 253 251 251 242 253 252 253 254 254 239 246 253 239 248 252 254 254 235 210 161 180 203 211 210 208 204 199 188 183 216 247 253 254 249 255 255 255 255 255 255 255 255 255 255 255 255 255 255 255 255 255 255 255 255 255 255 255 255 255 
255 255 255 255 255 255 255 255 255 255 255 255 255 255 255 255 255 255 255 255 255 255 255 255 255 249 254 253 249 221 186 189 193 195 199 210 227 228 202 176 163 223 253 235 252 254 242 241 253 251 249 254 236 253 253 253 249 248 242 240 245 167 171 150 106 133 160 168 168 160 133 106 150 171 167 245 240 242 248 249 253 253 253 236 254 249 251 253 241 242 254 252 235 253 223 163 176 202 228 227 210 199 195 193 189 186 221 249 253 254 249 255 255 255 255 255 255 255 255 255 255 255 255 255 255 255 255 255 255 255 255 255 255 255 255 255 
255 255 255 255 255 255 255 255 255 255 255 255 255 255 255 255 255 255 255 255 255 255 255 255 255 252 254 253 251 229 192 190 175 184 193 201 210 212 200 184 149 169 248 242 252 250 242 253 245 253 249 253 252 252 248 243 252 250 252 245 231 175 121 80 105 145 175 172 172 175 145 105 80 121 175 231 245 252 250 252 243 248 252 252 253 249 253 245 253 242 250 252 242 248 169 149 184 200 212 210 201 193 184 175 190 192 229 251 253 254 252 255 255 255 255 255 255 255 255 255 255 255 255 255 255 255 255 255 255 255 255 255 255 255 255 255 
255 255 255 255 255 255 255 255 255 255 255 255 255 255 255 255 255 255 255 255 255 255 255 255 254 253 254 251 253 237 198 192 179 188 195 198 201 203 194 183 160 146 176 211 235 250 251 248 244 251 229 228 239 250 236 251 234 248 251 235 245 171 82 82 120 145 165 166 166 165 145 120 82 82 171 245 235 251 248 234 251 236 250 239 228 229 251 244 248 251 250 235 211 176 146 160 183 194 203 201 198 195 188 179 192 198 237 253 251 254 253 254 255 255 255 255 255 255 255 255 255 255 255 255 255 255 255 255 255 255 255 255 255 255 255 255 
255 255 255 255 255 255 255 255 255 255 255 255 255 255 255 255 255 255 255 255 255 255 255 255 254 254 254 250 253 245 204 193 193 196 198 204 216 223 208 190 172 155 148 172 155 205 210 180 161 157 137 133 137 141 149 185 230 221 249 217 227 124 73 84 116 123 134 144 144 134 123 116 84 73 124 227 217 249 221 230 185 149 141 137 133 137 157 161 180 210 205 155 172 148 155 172 190 208 223 216 204 198 196 193 193 204 245 253 250 254 254 254 255 255 255 255 255 255 255 255 255 255 255 255 255 255 255 255 255 255 255 255 255 255 255 255 
255 255 255 255 255 255 255 255 255 255 255 255 255 255 255 255 255 255 255 255 255 255 255 255 254 255 254 249 253 250 209 194 189 191 193 201 214 218 202 181 165 160 152 173 142 136 149 156 152 140 138 140 142 138 144 151 147 149 150 171 163 132 102 113 116 118 123 130 130 123 118 116 113 102 132 163 171 150 149 147 151 144 138 142 140 138 140 152 156 149 136 142 173 152 160 165 181 202 218 214 201 193 191 189 194 209 250 253 249 254 255 254 255 255 255 255 255 255 255 255 255 255 255 255 255 255 255 255 255 255 255 255 255 255 255 255 
255 255 255 255 255 255 255 255 255 255 255 255 255 255 255 255 255 255 255 255 255 255 255 255 253 255 254 248 252 251 211 194 190 199 206 208 207 202 187 172 153 161 154 149 165 145 157 132 164 138 146 156 151 141 148 142 141 189 133 159 148 147 97 108 140 143 139 133 133 139 143 140 108 97 147 148 159 133 189 141 142 148 141 151 156 146 138 164 132 157 145 165 149 154 161 153 172 187 202 207 208 206 199 190 194 211 251 252 248 254 255 253 255 255 255 255 255 255 255 255 255 255 255 255 255 255 255 255 255 255 255 255 255 255 255 255 
255 255 255 255 255 255 255 255 255 255 255 255 255 255 255 255 255 255 255 255 255 255 255 255 254 254 255 242 252 251 209 207 191 182 182 183 175 169 169 168 178 148 152 161 145 139 128 128 160 149 135 143 146 132 167 128 128 149 139 148 147 154 139 84 100 140 164 150 150 164 140 100 84 139 154 147 148 139 149 128 128 167 132 146 143 135 149 160 128 128 139 145 161 152 148 178 168 169 169 175 183 182 182 191 207 209 251 252 242 255 254 254 255 255 255 255 255 255 255 255 255 255 255 255 255 255 255 255 255 255 255 255 255 255 255 255 
255 255 255 255 255 255 255 255 255 255 255 255 255 255 255 255 255 255 255 255 255 255 255 255 254 254 254 246 252 250 207 203 201 185 174 176 183 190 194 197 203 159 142 138 136 142 131 129 162 140 134 133 139 145 178 139 128 136 131 149 159 165 157 117 109 106 120 144 144 120 106 109 117 157 165 159 149 131 136 128 139 178 145 139 133 134 140 162 129 131 142 136 138 142 159 203 197 194 190 183 176 174 185 201 203 207 250 252 246 254 254 254 255 255 255 255 255 255 255 255 255 255 255 255 255 255 255 255 255 255 255 255 255 255 255 255 
255 255 255 255 255 255 255 255 255 255 255 255 255 255 255 255 255 255 255 255 255 255 255 255 252 254 254 251 252 247 206 195 180 188 181 176 193 206 187 166 140 143 146 149 152 157 134 127 155 147 140 133 133 133 150 133 125 147 152 152 138 136 142 133 152 120 107 118 118 107 120 152 133 142 136 138 152 152 147 125 133 150 133 133 133 140 147 155 127 134 157 152 149 146 143 140 166 187 206 193 176 181 188 180 195 206 247 252 251 254 254 252 255 255 255 255 255 255 255 255 255 255 255 255 255 255 255 255 255 255 255 255 255 255 255 255 
255 255 255 255 255 255 255 255 255 255 255 255 255 255 255 255 255 255 255 255 255 255 255 255 252 254 254 253 252 246 211 189 167 174 179 189 200 182 154 144 150 156 149 144 145 146 135 127 141 157 130 131 132 132 178 147 123 146 160 152 146 149 135 76 138 140 125 102 102 125 140 138 76 135 149 146 152 160 146 123 147 178 132 132 131 130 157 141 127 135 146 145 144 149 156 150 144 154 182 200 189 179 174 167 189 211 246 252 253 254 254 252 255 255 255 255 255 255 255 255 255 255 255 255 255 255 255 255 255 255 255 255 255 255 255 255 
255 255 255 255 255 255 255 255 255 255 255 255 255 255 255 255 255 255 255 255 255 255 255 255 254 254 250 253 252 249 223 189 178 163 169 196 190 155 146 160 165 160 148 152 154 143 136 128 143 187 133 131 133 137 161 130 133 147 155 146 152 164 141 65 79 105 124 112 112 124 105 79 65 141 164 152 146 155 147 133 130 161 137 133 131 133 187 143 128 136 143 154 152 148 160 165 160 146 155 190 196 169 163 178 189 223 249 252 253 250 254 254 255 255 255 255 255 255 255 255 255 255 255 255 255 255 255 255 255 255 255 255 255 255 255 255 
255 255 255 255 255 255 255 255 255 255 255 255 255 255 255 255 255 255 255 255 255 255 255 255 254 254 248 254 252 250 241 199 171 170 182 185 165 154 158 164 153 145 140 148 143 134 156 156 128 162 147 131 132 157 141 128 156 145 150 147 142 142 146 103 74 80 100 123 123 100 80 74 103 146 142 142 147 150 145 156 128 141 157 132 131 147 162 128 156 156 134 143 148 140 145 153 164 158 154 165 185 182 170 171 199 241 250 252 254 248 254 254 255 255 255 255 255 255 255 255 255 255 255 255 255 255 255 255 255 255 255 255 255 255 255 255 
255 255 255 255 255 255 255 255 255 255 255 255 255 255 255 255 255 255 255 255 255 255 255 255 254 254 251 254 248 249 250 218 154 168 193 180 154 159 167 149 142 142 149 163 137 128 162 189 129 151 162 131 129 160 133 144 168 129 131 159 162 147 152 127 111 84 87 120 120 87 84 111 127 152 147 162 159 131 129 168 144 133 160 129 131 162 151 129 189 162 128 137 163 149 142 142 149 167 159 154 180 193 168 154 218 250 249 248 254 251 254 254 255 255 255 255 255 255 255 255 255 255 255 255 255 255 255 255 255 255 255 255 255 255 255 255 
255 255 255 255 255 255 255 255 255 255 255 255 255 255 255 255 255 255 255 255 255 255 255 254 251 254 254 254 245 247 250 232 153 149 175 190 159 153 161 151 148 147 159 177 138 128 163 190 131 140 151 135 135 158 129 161 190 126 127 168 171 145 149 141 110 85 87 115 115 87 85 110 141 149 145 171 168 127 126 190 161 129 158 135 135 151 140 131 190 163 128 138 177 159 147 148 151 161 153 159 190 175 149 153 232 250 247 245 254 254 254 251 254 255 255 255 255 255 255 255 255 255 255 255 255 255 255 255 255 255 255 255 255 255 255 255 
255 255 255 255 255 255 255 255 254 254 255 255 255 255 255 255 254 254 254 254 254 254 254 254 252 253 252 254 253 251 248 227 141 167 176 161 159 171 156 139 135 135 142 184 146 128 178 188 152 141 152 145 140 151 138 167 199 130 141 170 158 146 133 147 124 84 51 92 92 51 84 124 147 133 146 158 170 141 130 199 167 138 151 140 145 152 141 152 188 178 128 146 184 142 135 135 139 156 171 159 161 176 167 141 227 248 251 253 254 252 253 252 254 254 254 254 254 254 254 254 255 255 255 255 255 255 254 254 255 255 255 255 255 255 255 255 
255 255 255 255 255 255 255 255 254 254 255 255 255 255 255 255 254 254 254 254 254 254 254 254 251 253 247 251 252 248 245 217 146 164 189 161 154 156 161 169 164 156 148 163 148 130 161 196 162 154 153 149 146 159 155 179 197 132 152 183 150 140 140 156 153 101 55 79 79 55 101 153 156 140 140 150 183 152 132 197 179 155 159 146 149 153 154 162 196 161 130 148 163 148 156 164 169 161 156 154 161 189 164 146 217 245 248 252 251 247 253 251 254 254 254 254 254 254 254 254 255 255 255 255 255 255 254 254 255 255 255 255 255 255 255 255 
255 255 255 255 255 255 255 255 255 255 255 255 255 255 255 255 255 255 254 254 254 254 254 254 253 253 249 252 252 251 246 211 166 158 183 156 147 165 190 173 184 179 174 200 216 178 176 168 157 160 155 162 158 163 162 167 175 172 198 191 189 201 177 173 167 90 62 106 106 62 90 167 173 177 201 189 191 198 172 175 167 162 163 158 162 155 160 157 168 176 178 216 200 174 179 184 173 190 165 147 156 183 158 166 211 246 251 252 252 249 253 253 254 254 254 254 254 254 255 255 255 255 255 255 255 255 255 255 255 255 255 255 255 255 255 255 
255 255 255 255 255 255 255 255 255 255 255 255 255 255 255 255 255 255 254 254 254 254 254 254 253 253 252 254 253 252 248 200 171 167 172 168 150 140 144 141 131 132 128 131 164 186 196 184 155 155 158 173 161 160 156 164 203 202 172 137 132 137 148 186 204 84 58 106 106 58 84 204 186 148 137 132 137 172 202 203 164 156 160 161 173 158 155 155 184 196 186 164 131 128 132 131 141 144 140 150 168 172 167 171 200 248 252 253 254 252 253 253 254 254 254 254 254 254 255 255 255 255 255 255 255 255 255 255 255 255 255 255 255 255 255 255 
255 255 255 255 255 255 255 255 255 255 255 255 255 255 255 255 255 255 255 255 255 255 255 254 253 252 248 252 249 251 244 182 152 186 135 128 129 146 149 130 130 131 142 165 131 132 204 194 170 153 161 169 153 159 163 199 193 134 133 148 142 131 127 127 138 54 63 94 94 63 54 138 127 127 131 142 148 133 134 193 199 163 159 153 169 161 153 170 194 204 132 131 165 142 131 130 130 149 146 129 128 135 186 152 182 244 251 249 252 248 252 253 254 255 255 255 255 255 255 255 255 255 255 255 255 255 255 255 255 255 255 255 255 255 255 255 
255 255 255 255 255 255 255 255 255 255 255 255 255 255 255 255 255 255 255 254 255 254 255 255 253 251 251 253 249 251 236 166 161 135 129 149 176 196 197 139 151 149 128 133 141 133 155 223 179 152 158 165 152 167 180 227 151 138 141 145 153 150 135 139 176 76 54 19 19 54 76 176 139 135 150 153 145 141 138 151 227 180 167 152 165 158 152 179 223 155 133 141 133 128 149 151 139 197 196 176 149 129 135 161 166 236 251 249 253 251 251 253 255 255 254 255 254 255 255 255 255 255 255 255 255 255 255 255 255 255 255 255 255 255 255 255 
255 255 255 255 255 255 255 255 255 255 255 255 255 255 254 254 254 254 254 254 254 254 254 254 255 253 254 253 249 251 225 153 148 129 144 162 163 170 212 161 171 174 133 141 166 141 142 230 181 160 153 162 154 174 197 210 139 175 155 129 148 188 147 170 202 100 76 20 20 76 100 202 170 147 188 148 129 155 175 139 210 197 174 154 162 153 160 181 230 142 141 166 141 133 174 171 161 212 170 163 162 144 129 148 153 225 251 249 253 254 253 255 254 254 254 254 254 254 254 254 254 254 255 255 255 255 255 255 255 255 255 255 255 255 255 255 
255 255 255 255 255 255 255 255 255 255 255 255 255 255 254 254 254 254 254 254 254 253 254 254 252 248 253 253 244 245 212 144 138 132 158 135 160 156 178 205 150 188 192 195 168 137 134 211 193 176 148 157 152 172 209 186 129 169 217 166 194 196 147 214 173 65 69 35 35 69 65 173 214 147 196 194 166 217 169 129 186 209 172 152 157 148 176 193 211 134 137 168 195 192 188 150 205 178 156 160 135 158 132 138 144 212 245 244 253 253 248 252 254 254 253 254 254 254 254 254 254 254 255 255 255 255 255 255 255 255 255 255 255 255 255 255 
255 255 255 255 255 255 255 255 254 254 255 255 255 255 254 254 254 254 254 253 244 251 253 247 246 253 253 252 234 209 172 145 128 154 196 154 146 159 145 154 199 163 168 152 148 137 130 173 171 158 153 154 149 178 198 140 130 141 174 197 162 157 193 185 108 67 25 55 55 25 67 108 185 193 157 162 197 174 141 130 140 198 178 149 154 153 158 171 173 130 137 148 152 168 163 199 154 145 159 146 154 196 154 128 145 172 209 234 252 253 253 246 247 253 251 244 253 254 254 254 254 254 255 255 255 255 254 254 255 255 255 255 255 255 255 255 
255 255 255 255 255 255 255 255 254 254 255 255 255 255 254 254 254 243 245 253 253 253 251 243 253 234 204 180 169 168 156 140 144 185 214 177 167 159 150 149 162 167 188 210 213 158 133 142 158 164 161 164 161 164 163 139 155 172 168 172 190 188 167 148 114 49 23 90 90 23 49 114 148 167 188 190 172 168 172 155 139 163 164 161 164 161 164 158 142 133 158 213 210 188 167 162 149 150 159 167 177 214 185 144 140 156 168 169 180 204 234 253 243 251 253 253 253 245 243 254 254 254 255 255 255 255 254 254 255 255 255 255 255 255 255 255 
255 255 255 255 255 255 255 255 254 254 254 254 255 255 254 254 254 249 251 253 250 251 252 250 204 179 156 146 145 151 147 136 178 179 186 187 181 146 153 158 142 154 151 175 194 158 144 141 151 174 177 182 182 158 146 146 148 189 220 190 170 158 151 158 145 25 69 149 149 69 25 145 158 151 158 170 190 220 189 148 146 146 158 182 182 177 174 151 141 144 158 194 175 151 154 142 158 153 146 181 187 186 179 178 136 147 151 145 146 156 179 204 250 252 251 250 253 251 249 254 254 254 255 255 254 254 254 254 255 255 255 255 255 255 255 255 
255 255 255 255 255 255 255 255 254 254 254 254 255 254 254 254 253 253 253 252 249 251 232 199 152 145 140 139 141 148 147 139 195 173 194 194 192 150 149 143 144 155 145 152 164 150 143 136 140 160 171 175 170 147 138 144 145 144 161 156 147 154 150 145 140 33 106 123 123 106 33 140 145 150 154 147 156 161 144 145 144 138 147 170 175 171 160 140 136 143 150 164 152 145 155 144 143 149 150 192 194 194 173 195 139 147 148 141 139 140 145 152 199 232 251 249 252 253 253 253 254 254 254 255 254 254 254 254 255 255 255 255 255 255 255 255 
255 255 255 255 255 255 255 255 254 254 254 254 255 254 254 254 252 243 250 252 252 220 172 143 140 137 136 135 136 143 150 149 170 149 172 159 183 199 194 168 152 159 159 156 162 158 141 135 137 148 165 168 156 143 136 137 152 149 164 159 149 153 156 172 177 116 110 157 157 110 116 177 172 156 153 149 159 164 149 152 137 136 143 156 168 165 148 137 135 141 158 162 156 159 159 152 168 194 199 183 159 172 149 170 149 150 143 136 135 136 137 140 143 172 220 252 252 250 243 252 254 254 254 255 254 254 254 254 255 255 255 255 255 255 255 255 
255 255 255 255 255 255 255 255 254 254 254 254 255 254 254 253 253 247 252 251 199 154 139 136 134 133 133 133 134 142 154 158 153 131 137 135 151 170 163 157 160 156 166 159 167 171 142 137 139 146 171 173 155 145 138 136 162 170 159 153 173 164 144 155 171 86 81 109 109 81 86 171 155 144 164 173 153 159 170 162 136 138 145 155 173 171 146 139 137 142 171 167 159 166 156 160 157 163 170 151 135 137 131 153 158 154 142 134 133 133 133 134 136 139 154 199 251 252 247 253 253 254 254 255 254 254 254 254 255 255 255 255 255 255 255 255 
255 255 255 255 255 255 255 255 254 254 254 254 255 254 254 253 253 253 251 196 145 132 134 138 131 130 131 133 137 147 157 158 136 131 138 148 163 169 168 178 171 155 159 158 170 173 142 134 136 143 165 164 151 142 136 141 166 187 159 151 175 173 156 156 152 55 55 43 43 55 55 152 156 156 173 175 151 159 187 166 141 136 142 151 164 165 143 136 134 142 173 170 158 159 155 171 178 168 169 163 148 138 131 136 158 157 147 137 133 131 130 131 138 134 132 145 196 251 253 253 253 254 254 255 254 254 254 254 255 255 255 255 255 255 255 255 
255 255 255 255 255 255 255 255 254 254 254 255 255 254 254 253 246 252 221 154 132 133 135 131 132 130 130 133 138 150 159 157 134 147 146 136 133 143 169 176 173 144 134 134 147 163 151 145 133 141 158 156 152 140 135 156 164 164 138 133 142 163 188 166 141 81 32 14 14 32 81 141 166 188 163 142 133 138 164 164 156 135 140 152 156 158 141 133 145 151 163 147 134 134 144 173 176 169 143 133 136 146 147 134 157 159 150 138 133 130 130 132 131 135 133 132 154 221 252 246 253 254 254 255 255 254 254 254 255 255 255 255 255 255 255 255 
255 255 255 255 255 255 255 255 255 252 255 253 253 254 247 250 250 241 169 135 134 136 131 129 129 129 132 140 141 133 150 156 166 138 147 167 173 178 178 191 191 177 177 170 158 171 195 191 140 127 139 146 129 137 178 183 171 144 151 158 169 157 157 137 118 84 30 17 17 30 84 118 137 157 157 169 158 151 144 171 183 178 137 129 146 139 127 140 191 195 171 158 170 177 177 191 191 178 178 173 167 147 138 166 156 150 133 141 140 132 129 129 129 131 136 134 135 169 241 250 250 247 254 253 253 255 252 255 255 255 255 255 255 255 255 255 
255 255 255 255 255 255 255 255 254 250 254 254 253 254 251 252 247 167 133 132 134 130 128 129 130 132 134 141 134 132 145 156 153 184 161 161 169 166 194 201 208 173 152 142 135 141 167 195 203 150 128 128 140 173 197 191 159 144 141 119 137 122 119 113 118 120 93 60 60 93 120 118 113 119 122 137 119 141 144 159 191 197 173 140 128 128 150 203 195 167 141 135 142 152 173 208 201 194 166 169 161 161 184 153 156 145 132 134 141 134 132 130 129 128 130 134 132 133 167 247 252 251 254 253 254 254 250 254 255 255 255 255 255 255 255 255 
255 255 255 255 255 255 255 255 255 249 251 254 253 253 254 251 210 147 130 131 134 131 130 130 130 133 133 137 131 134 143 151 161 187 186 160 158 167 181 220 218 185 162 157 165 180 191 195 182 194 139 137 183 195 189 186 145 121 106 128 183 170 125 81 97 100 108 102 102 108 100 97 81 125 170 183 128 106 121 145 186 189 195 183 137 139 194 182 195 191 180 165 157 162 185 218 220 181 167 158 160 186 187 161 151 143 134 131 137 133 133 130 130 130 131 134 131 130 147 210 251 254 253 253 254 251 249 255 255 255 255 255 255 255 255 255 
255 255 255 255 255 255 255 255 255 250 250 254 253 253 253 233 154 138 133 131 129 130 132 130 131 133 132 135 137 148 151 149 143 137 169 193 179 171 156 164 202 209 187 162 161 172 173 167 176 184 150 153 176 180 156 133 87 60 93 158 166 154 138 102 72 78 107 120 120 107 78 72 102 138 154 166 158 93 60 87 133 156 180 176 153 150 184 176 167 173 172 161 162 187 209 202 164 156 171 179 193 169 137 143 149 151 148 137 135 132 133 131 130 132 130 129 131 133 138 154 233 253 253 253 254 250 250 255 255 255 255 255 255 255 255 255 
255 255 255 255 255 255 255 255 255 255 250 254 254 253 251 198 140 132 133 133 129 128 131 132 131 131 134 133 144 151 148 140 134 131 134 170 185 168 166 141 151 184 202 179 165 170 185 198 176 153 145 141 134 131 127 138 116 98 132 168 120 79 63 49 43 87 140 106 106 140 87 43 49 63 79 120 168 132 98 116 138 127 131 134 141 145 153 176 198 185 170 165 179 202 184 151 141 166 168 185 170 134 131 134 140 148 151 144 133 134 131 131 132 131 128 129 133 133 132 140 198 251 253 254 254 250 255 255 255 255 255 255 255 255 255 255 
255 255 255 255 255 255 255 255 255 255 250 254 254 252 235 161 141 133 133 132 129 129 133 133 131 132 137 134 143 141 137 134 137 142 132 131 153 184 180 164 159 164 176 194 198 187 172 162 137 145 151 120 76 56 71 138 150 178 167 148 112 67 37 36 61 98 130 72 72 130 98 61 36 37 67 112 148 167 178 150 138 71 56 76 120 151 145 137 162 172 187 198 194 176 164 159 164 180 184 153 131 132 142 137 134 137 141 143 134 137 132 131 133 133 129 129 132 133 133 141 161 235 252 254 254 250 255 255 255 255 255 255 255 255 255 255 
255 255 255 255 255 255 255 255 252 255 248 254 251 250 217 138 135 134 132 129 128 132 134 129 134 134 138 138 143 142 135 139 133 137 140 129 137 167 162 179 185 155 149 166 189 210 209 188 184 185 164 137 106 72 63 93 124 158 129 101 82 57 41 57 88 91 110 49 49 110 91 88 57 41 57 82 101 129 158 124 93 63 72 106 137 164 185 184 188 209 210 189 166 149 155 185 179 162 167 137 129 140 137 133 139 135 142 143 138 138 134 134 129 134 132 128 129 132 134 135 138 217 250 251 254 248 255 252 255 255 255 255 255 255 255 255 
255 255 255 255 255 255 255 255 248 255 246 254 249 247 205 131 133 132 131 129 129 132 132 128 133 131 131 135 138 143 133 142 130 130 132 133 128 128 153 175 167 159 160 152 143 158 195 204 185 151 136 184 189 135 108 72 70 55 44 72 93 98 70 74 35 70 111 24 24 111 70 35 74 70 98 93 72 44 55 70 72 108 135 189 184 136 151 185 204 195 158 143 152 160 159 167 175 153 128 128 133 132 130 130 142 133 143 138 135 131 131 133 128 132 132 129 129 131 132 133 131 205 247 249 254 246 255 248 255 255 255 255 255 255 255 255 
255 255 255 255 255 255 255 255 254 255 245 254 247 249 146 134 133 135 130 130 130 132 130 132 133 132 137 131 136 151 138 148 135 128 130 132 139 132 130 132 153 156 163 160 151 149 126 79 67 79 130 135 136 108 78 53 39 61 73 77 81 91 56 34 6 92 95 24 24 95 92 6 34 56 91 81 77 73 61 39 53 78 108 136 135 130 79 67 79 126 149 151 160 163 156 153 132 130 132 139 132 130 128 135 148 138 151 136 131 137 132 133 132 130 132 130 130 130 135 133 134 146 249 247 254 245 255 254 255 255 255 255 255 255 255 255 
255 255 255 255 255 255 255 255 253 254 247 254 251 221 142 134 132 134 130 130 130 133 131 134 133 133 129 136 129 145 148 141 128 126 125 130 133 137 128 130 133 134 145 147 143 148 113 65 48 54 63 75 78 87 72 54 61 67 65 55 50 51 37 28 32 91 78 8 8 78 91 32 28 37 51 50 55 65 67 61 54 72 87 78 75 63 54 48 65 113 148 143 147 145 134 133 130 128 137 133 130 125 126 128 141 148 145 129 136 129 133 133 134 131 133 130 130 130 134 132 134 142 221 251 254 247 254 253 255 255 255 255 255 255 255 255 
255 255 255 255 255 255 255 255 253 254 250 253 252 179 135 134 131 133 130 131 132 135 132 132 130 129 133 136 136 133 142 131 143 143 130 129 126 128 133 138 126 131 130 113 83 90 109 110 92 65 49 54 42 54 45 35 30 32 30 24 26 27 27 28 20 64 88 12 12 88 64 20 28 27 27 26 24 30 32 30 35 45 54 42 54 49 65 92 110 109 90 83 113 130 131 126 138 133 128 126 129 130 143 143 131 142 133 136 136 133 129 130 132 132 135 132 131 130 133 131 134 135 179 252 253 250 254 253 255 255 255 255 255 255 255 255 
255 255 255 255 255 255 255 255 254 253 255 251 251 150 131 133 130 132 133 136 138 138 133 131 132 131 133 138 137 139 132 146 142 145 134 128 127 126 129 129 131 128 66 15 15 57 85 59 70 51 48 51 37 43 41 29 11 11 10 10 22 24 26 23 12 61 88 16 16 88 61 12 23 26 24 22 10 10 11 11 29 41 43 37 51 48 51 70 59 85 57 15 15 66 128 131 129 129 126 127 128 134 145 142 146 132 139 137 138 133 131 132 131 133 138 138 136 133 132 130 133 131 150 251 251 255 253 254 255 255 255 255 255 255 255 255 
255 255 255 255 255 255 255 255 254 253 255 253 247 138 131 134 131 132 135 137 140 139 136 132 130 130 131 133 136 139 134 143 148 147 135 130 131 126 124 119 112 30 7 7 10 9 20 56 34 37 47 42 35 34 34 21 17 16 13 12 25 30 26 12 12 62 78 39 39 78 62 12 12 26 30 25 12 13 16 17 21 34 34 35 42 47 37 34 56 20 9 10 7 7 30 112 119 124 126 131 130 135 147 148 143 134 139 136 133 131 130 130 132 136 139 140 137 135 132 131 134 131 138 247 253 255 253 254 255 255 255 255 255 255 255 255 
255 255 255 255 255 255 255 254 254 253 255 253 236 135 134 135 132 131 132 132 134 136 139 136 129 129 130 129 133 131 147 128 143 148 140 148 136 129 118 108 38 17 7 5 6 7 11 28 28 36 40 28 30 28 26 16 20 18 16 16 24 28 20 7 8 45 68 91 91 68 45 8 7 20 28 24 16 16 18 20 16 26 28 30 28 40 36 28 28 11 7 6 5 7 17 38 108 118 129 136 148 140 148 143 128 147 131 133 129 130 129 129 136 139 136 134 132 132 131 132 135 134 135 236 253 255 253 254 254 255 255 255 255 255 255 255 
255 255 255 255 255 255 255 254 254 252 255 253 216 133 136 133 134 131 132 130 131 133 142 141 139 140 129 130 127 131 150 137 128 133 141 153 142 123 95 83 56 27 7 3 5 5 6 7 12 23 24 20 27 32 29 24 10 9 14 24 23 19 10 4 6 33 64 80 80 64 33 6 4 10 19 23 24 14 9 10 24 29 32 27 20 24 23 12 7 6 5 5 3 7 27 56 83 95 123 142 153 141 133 128 137 150 131 127 130 129 140 139 141 142 133 131 130 132 131 134 133 136 133 216 253 255 252 254 254 255 255 255 255 255 255 255 
255 255 255 255 255 255 255 254 253 253 251 253 201 131 136 131 139 133 134 130 131 133 146 146 136 135 135 128 130 128 137 158 148 144 152 136 133 109 76 61 50 46 17 2 2 3 4 9 7 15 16 18 22 24 16 17 8 8 17 36 24 12 5 3 3 31 96 72 72 96 31 3 3 5 12 24 36 17 8 8 17 16 24 22 18 16 15 7 9 4 3 2 2 17 46 50 61 76 109 133 136 152 144 148 158 137 128 130 128 135 135 136 146 146 133 131 130 134 133 139 131 136 131 201 253 251 253 253 254 255 255 255 255 255 255 255 
255 255 255 255 255 255 255 254 252 250 252 254 180 131 137 146 155 149 135 117 131 133 133 141 127 141 136 115 126 117 130 130 143 152 66 40 69 82 82 84 77 31 19 10 2 1 1 5 12 23 36 37 32 28 22 17 17 17 27 14 7 5 4 6 13 43 76 65 65 76 43 13 6 4 5 7 14 27 17 17 17 22 28 32 37 36 23 12 5 1 1 2 10 19 31 77 84 82 82 69 40 66 152 143 130 130 117 126 115 136 141 127 141 133 133 131 117 135 149 155 146 137 131 180 254 252 250 252 254 255 255 255 255 255 255 255 
255 255 255 255 255 255 255 254 253 253 254 253 192 135 143 148 133 126 129 130 129 129 118 127 144 114 126 156 132 124 110 120 92 60 26 21 26 42 60 73 67 63 50 20 5 2 2 3 4 8 20 35 37 27 18 15 24 17 15 10 8 7 8 14 28 35 48 54 54 48 35 28 14 8 7 8 10 15 17 24 15 18 27 37 35 20 8 4 3 2 2 5 20 50 63 67 73 60 42 26 21 26 60 92 120 110 124 132 156 126 114 144 127 118 129 129 130 129 126 133 148 143 135 192 253 254 253 253 254 255 255 255 255 255 255 255 
255 255 255 255 255 255 255 254 250 253 251 251 209 140 141 140 129 129 125 129 115 127 118 134 137 97 82 64 37 66 67 65 50 51 39 17 7 9 14 27 35 54 49 35 21 9 6 5 4 8 14 21 28 26 17 11 20 8 5 7 10 16 22 29 38 34 41 54 54 41 34 38 29 22 16 10 7 5 8 20 11 17 26 28 21 14 8 4 5 6 9 21 35 49 54 35 27 14 9 7 17 39 51 50 65 67 66 37 64 82 97 137 134 118 127 115 129 125 129 129 140 141 140 209 251 251 253 250 254 255 255 255 255 255 255 255 
255 255 255 255 255 255 255 255 243 251 248 251 224 139 136 135 129 129 138 144 132 127 75 50 68 58 42 39 36 53 57 66 77 81 69 49 30 9 2 6 19 27 35 40 44 26 15 14 11 8 9 14 16 20 23 18 9 5 5 12 23 34 36 31 30 44 47 38 38 47 44 30 31 36 34 23 12 5 5 9 18 23 20 16 14 9 8 11 14 15 26 44 40 35 27 19 6 2 9 30 49 69 81 77 66 57 53 36 39 42 58 68 50 75 127 132 144 138 129 129 135 136 139 224 251 248 251 243 255 255 255 255 255 255 255 255 
255 255 255 255 255 255 255 255 253 252 247 252 230 135 135 137 155 156 157 111 81 56 34 21 24 52 42 42 42 57 41 26 48 55 52 66 63 27 11 7 9 14 26 27 36 32 18 26 19 21 18 15 15 14 17 20 10 13 18 30 41 43 38 26 37 54 43 22 22 43 54 37 26 38 43 41 30 18 13 10 20 17 14 15 15 18 21 19 26 18 32 36 27 26 14 9 7 11 27 63 66 52 55 48 26 41 57 42 42 42 52 24 21 34 56 81 111 157 156 155 137 135 135 230 252 247 252 253 255 255 255 255 255 255 255 255 
255 255 255 255 255 255 255 255 254 245 244 249 219 131 137 146 165 128 105 42 43 48 53 39 10 33 39 38 34 56 70 27 17 19 25 46 39 29 41 22 10 11 19 21 20 13 7 16 25 26 26 20 12 8 8 11 20 30 36 42 39 35 33 26 41 50 48 34 34 48 50 41 26 33 35 39 42 36 30 20 11 8 8 12 20 26 26 25 16 7 13 20 21 19 11 10 22 41 29 39 46 25 19 17 27 70 56 34 38 39 33 10 39 53 48 43 42 105 128 165 146 137 131 219 249 244 245 254 255 255 255 255 255 255 255 255 
255 255 255 255 255 255 255 255 254 241 252 248 211 130 144 151 136 79 63 67 97 87 58 35 25 16 34 56 43 18 23 18 27 14 12 18 17 25 43 26 16 20 27 31 22 10 3 4 22 23 27 30 24 16 14 16 25 36 36 38 32 26 29 29 48 55 62 54 54 62 55 48 29 29 26 32 38 36 36 25 16 14 16 24 30 27 23 22 4 3 10 22 31 27 20 16 26 43 25 17 18 12 14 27 18 23 18 43 56 34 16 25 35 58 87 97 67 63 79 136 151 144 130 211 248 252 241 254 255 255 255 255 255 255 255 255 
255 255 255 255 255 255 255 255 254 245 253 252 216 133 151 149 33 24 44 76 60 40 46 80 74 51 74 78 53 32 32 31 18 16 14 8 5 10 16 23 20 33 43 37 36 48 24 3 11 21 29 25 18 15 14 12 22 31 30 35 30 24 26 30 54 53 52 42 42 52 53 54 30 26 24 30 35 30 31 22 12 14 15 18 25 29 21 11 3 24 48 36 37 43 33 20 23 16 10 5 8 14 16 18 31 32 32 53 78 74 51 74 80 46 40 60 76 44 24 33 149 151 133 216 252 253 245 254 255 255 255 255 255 255 255 255 
255 255 255 255 255 255 255 255 254 254 247 249 233 156 166 37 8 32 51 38 18 29 50 71 75 76 77 88 87 65 47 28 31 19 17 10 5 2 11 7 7 12 21 21 22 32 40 21 4 14 21 33 27 9 12 19 15 33 39 35 33 15 20 47 67 69 46 16 16 46 69 67 47 20 15 33 35 39 33 15 19 12 9 27 33 21 14 4 21 40 32 22 21 21 12 7 7 11 2 5 10 17 19 31 28 47 65 87 88 77 76 75 71 50 29 18 38 51 32 8 37 166 156 233 249 247 254 254 255 255 255 255 255 255 255 255 
255 255 255 255 255 255 255 255 242 235 245 253 251 183 51 7 15 48 32 7 8 35 52 52 47 78 78 83 98 53 66 45 72 58 30 9 4 2 9 3 4 6 13 15 19 35 54 46 15 13 12 22 29 20 17 13 12 24 33 40 30 16 26 61 71 61 52 27 27 52 61 71 61 26 16 30 40 33 24 12 13 17 20 29 22 12 13 15 46 54 35 19 15 13 6 4 3 9 2 4 9 30 58 72 45 66 53 98 83 78 78 47 52 52 35 8 7 32 48 15 7 51 183 251 253 245 235 242 255 255 255 255 255 255 255 255 
255 255 255 255 255 255 255 255 242 246 254 237 238 116 14 7 16 17 7 7 42 53 42 51 36 104 92 95 98 53 68 65 81 94 73 40 19 11 12 7 8 11 13 14 14 18 28 39 30 11 11 21 31 34 31 22 13 19 23 38 24 23 35 65 54 36 42 33 33 42 36 54 65 35 23 24 38 23 19 13 22 31 34 31 21 11 11 30 39 28 18 14 14 13 11 8 7 12 11 19 40 73 94 81 65 68 53 98 95 92 104 36 51 42 53 42 7 7 17 16 7 14 116 238 237 254 246 242 255 255 255 255 255 255 255 255 
255 255 255 255 255 255 255 254 252 254 247 222 211 68 6 6 12 9 5 6 44 55 41 31 44 104 78 94 66 61 60 59 51 69 93 96 55 35 43 60 47 32 20 15 11 6 10 24 31 8 9 18 23 24 20 18 17 20 33 65 57 51 46 50 36 23 27 27 27 27 23 36 50 46 51 57 65 33 20 17 18 20 24 23 18 9 8 31 24 10 6 11 15 20 32 47 60 43 35 55 96 93 69 51 59 60 61 66 94 78 104 44 31 41 55 44 6 5 9 12 6 6 68 211 222 247 254 252 254 255 255 255 255 255 255 255 
255 255 255 255 255 255 255 254 242 253 247 248 167 50 2 3 6 5 7 9 31 43 42 25 66 73 65 83 51 61 54 40 28 35 78 112 62 32 46 77 54 50 47 47 45 36 35 43 48 24 13 11 10 8 7 14 31 48 81 108 74 62 45 33 28 20 22 23 23 22 20 28 33 45 62 74 108 81 48 31 14 7 8 10 11 13 24 48 43 35 36 45 47 47 50 54 77 46 32 62 112 78 35 28 40 54 61 51 83 65 73 66 25 42 43 31 9 7 5 6 3 2 50 167 248 247 253 242 254 255 255 255 255 255 255 255 
255 255 255 255 255 255 255 254 252 248 254 255 110 37 2 4 5 6 9 12 21 34 44 36 56 41 62 71 36 18 30 22 17 28 59 71 50 27 34 45 67 65 60 49 43 47 62 78 75 57 25 11 6 3 11 44 63 72 74 60 28 30 28 19 19 21 22 19 19 22 21 19 19 28 30 28 60 74 72 63 44 11 3 6 11 25 57 75 78 62 47 43 49 60 65 67 45 34 27 50 71 59 28 17 22 30 18 36 71 62 41 56 36 44 34 21 12 9 6 5 4 2 37 110 255 254 248 252 254 255 255 255 255 255 255 255 
255 255 255 255 255 255 255 254 253 233 236 232 127 98 22 5 10 19 8 1 4 28 41 35 60 27 40 48 21 4 23 20 12 30 36 28 47 28 36 45 42 51 58 51 40 43 52 50 61 123 126 127 130 108 104 78 54 44 34 20 6 11 16 10 8 12 16 9 9 16 12 8 10 16 11 6 20 34 44 54 78 104 108 130 127 126 123 61 50 52 43 40 51 58 51 42 45 36 28 47 28 36 30 12 20 23 4 21 48 40 27 60 35 41 28 4 1 8 19 10 5 22 98 127 232 236 233 253 254 255 255 255 255 255 255 255 
255 255 255 255 255 255 255 254 246 253 244 227 116 127 96 48 5 4 0 2 10 19 17 42 57 27 19 38 22 7 27 19 8 27 21 27 88 33 17 18 50 49 44 37 31 38 40 31 52 133 134 140 156 147 133 62 39 28 25 15 7 11 13 7 4 7 10 3 3 10 7 4 7 13 11 7 15 25 28 39 62 133 147 156 140 134 133 52 31 40 38 31 37 44 49 50 18 17 33 88 27 21 27 8 19 27 7 22 38 19 27 57 42 17 19 10 2 0 4 5 48 96 127 116 227 244 253 246 254 255 255 255 255 255 255 255 
255 255 255 255 255 255 255 255 254 252 254 237 170 125 125 125 103 34 4 1 3 9 19 29 28 23 16 44 19 4 27 24 7 8 9 32 142 149 92 16 31 41 38 31 30 25 20 42 114 136 138 134 129 145 110 66 36 28 14 3 6 6 6 5 6 3 2 3 3 2 3 6 5 6 6 6 3 14 28 36 66 110 145 129 134 138 136 114 42 20 25 30 31 38 41 31 16 92 149 142 32 9 8 7 24 27 4 19 44 16 23 28 29 19 9 3 1 4 34 103 125 125 125 170 237 254 252 254 255 255 255 255 255 255 255 255 
255 255 255 255 255 255 255 255 254 254 254 254 211 126 125 125 120 121 112 74 29 9 9 18 16 13 7 26 19 5 20 18 10 6 13 72 152 131 112 88 58 45 53 71 95 117 128 144 149 141 124 139 142 136 66 44 39 28 14 3 5 4 3 0 3 5 5 2 2 5 5 3 0 3 4 5 3 14 28 39 44 66 136 142 139 124 141 149 144 128 117 95 71 53 45 58 88 112 131 152 72 13 6 10 18 20 5 19 26 7 13 16 18 9 9 29 74 112 121 120 125 125 126 211 254 254 254 254 255 255 255 255 255 255 255 255 
255 255 255 255 255 255 255 255 250 252 242 251 232 130 125 125 127 127 122 126 125 101 61 39 4 1 2 3 17 6 26 25 10 8 28 108 161 133 146 166 135 132 147 166 151 152 155 148 132 148 143 137 131 109 47 45 87 106 129 126 113 82 46 24 2 1 2 2 2 2 1 2 24 46 82 113 126 129 106 87 45 47 109 131 137 143 148 132 148 155 152 151 166 147 132 135 166 146 133 161 108 28 8 10 25 26 6 17 3 2 1 4 39 61 101 125 126 122 127 127 125 125 130 232 251 242 252 250 255 255 255 255 255 255 255 255 
255 255 255 255 255 255 255 255 250 254 254 254 254 160 129 125 108 124 127 126 126 125 125 125 121 107 45 50 22 28 11 20 17 43 88 139 141 116 135 132 120 127 135 148 142 143 141 134 135 143 132 126 132 103 49 72 133 129 132 130 129 127 134 140 120 33 4 1 1 4 33 120 140 134 127 129 130 132 129 133 72 49 103 132 126 132 143 135 134 141 143 142 148 135 127 120 132 135 116 141 139 88 43 17 20 11 28 22 50 45 107 121 125 125 125 126 126 127 124 108 125 129 160 254 254 254 254 250 255 255 255 255 255 255 255 255 
255 255 255 255 255 255 255 255 254 246 237 229 247 246 240 197 154 147 135 127 136 144 157 160 209 200 204 178 204 212 203 227 218 210 217 207 216 188 204 196 205 199 220 208 185 184 194 215 219 221 197 205 225 173 131 135 125 118 130 144 143 128 125 125 123 125 101 25 25 101 125 123 125 125 128 143 144 130 118 125 135 131 173 225 205 197 221 219 215 194 184 185 208 220 199 205 196 204 188 216 207 217 210 218 227 203 212 204 178 204 200 209 160 157 144 136 127 135 147 154 197 240 246 247 229 237 246 254 255 255 255 255 255 255 255 255 
255 255 255 255 255 255 255 255 254 249 255 254 254 252 252 235 232 242 245 249 247 251 254 253 243 251 252 245 247 254 231 254 245 254 245 248 247 233 252 250 252 245 236 230 251 250 234 252 235 252 249 247 242 187 121 113 140 133 136 139 136 126 126 126 128 145 184 227 227 184 145 128 126 126 126 136 139 136 133 140 113 121 187 242 247 249 252 235 252 234 250 251 230 236 245 252 250 252 233 247 248 245 254 245 254 231 254 247 245 252 251 243 253 254 251 247 249 245 242 232 235 252 252 254 254 255 249 254 255 255 255 255 255 255 255 255 
255 255 255 255 255 255 255 255 252 249 249 246 244 240 241 252 255 254 251 251 252 252 251 252 249 245 253 231 251 239 246 245 245 239 225 242 253 254 253 227 237 249 255 254 254 242 232 239 247 250 246 241 250 249 167 136 128 132 137 138 148 154 194 245 251 227 234 252 252 234 227 251 245 194 154 148 138 137 132 128 136 167 249 250 241 246 250 247 239 232 242 254 254 255 249 237 227 253 254 253 242 225 239 245 245 246 239 251 231 253 245 249 252 251 252 252 251 251 254 255 252 241 240 244 246 249 249 252 255 255 255 255 255 255 255 255 
255 255 255 255 255 255 255 255 252 255 251 238 254 252 237 252 254 250 247 250 252 250 250 253 253 253 242 247 244 253 246 250 254 249 254 243 254 233 253 253 254 237 246 246 243 254 254 243 242 243 252 253 236 252 241 243 228 251 251 239 252 252 252 249 252 253 253 238 238 253 253 252 249 252 252 252 239 251 251 228 243 241 252 236 253 252 243 242 243 254 254 243 246 246 237 254 253 253 233 254 243 254 249 254 250 246 253 244 247 242 253 253 253 250 250 252 250 247 250 254 252 237 252 254 238 251 255 252 255 255 255 255 255 255 255 255 
255 255 255 255 255 255 255 255 255 255 255 255 255 255 255 255 254 254 254 254 254 254 254 254 254 254 254 254 254 254 254 254 254 253 254 253 254 253 253 254 254 254 254 254 254 254 254 254 254 253 252 252 253 253 251 250 252 250 250 251 251 251 252 254 254 254 253 254 254 253 254 254 254 252 251 251 251 250 250 252 250 251 253 253 252 252 253 254 254 254 254 254 254 254 254 254 254 253 253 254 253 254 253 254 254 254 254 254 254 254 254 254 254 254 254 254 254 254 254 254 255 255 255 255 255 255 255 255 255 255 255 255 255 255 255 255 
255 255 255 255 255 255 255 255 255 255 255 255 255 255 255 255 254 254 254 254 254 254 254 254 254 254 254 254 254 254 254 254 253 253 253 253 253 253 253 253 254 254 254 254 254 254 254 254 254 253 252 252 253 253 251 251 251 251 250 250 251 251 252 253 254 254 254 254 254 254 254 254 253 252 251 251 250 250 251 251 251 251 253 253 252 252 253 254 254 254 254 254 254 254 254 254 253 253 253 253 253 253 253 253 254 254 254 254 254 254 254 254 254 254 254 254 254 254 254 254 255 255 255 255 255 255 255 255 255 255 255 255 255 255 255 255 
